<svg width="163" height="163" viewBox="0 0 163 163" fill="none" xmlns="http://www.w3.org/2000/svg">
<path d="M139.246 23.7165C123.929 8.3945 103.534 0 81.8276 0C37.105 0 0.655278 36.2675 0.655278 80.7665C0.655278 95.029 4.42312 108.884 11.4673 121.109L0 163L43.0025 151.753C54.8794 158.191 68.2306 161.614 81.8276 161.614C126.55 161.614 163 125.347 163 80.848C163 59.2505 154.563 38.957 139.246 23.7165ZM81.8276 147.922C69.705 147.922 57.8281 144.662 47.4256 138.55L44.9683 137.083L19.4126 143.766L26.2111 118.99L24.5729 116.464C17.8563 105.787 14.2523 93.399 14.2523 80.7665C14.2523 43.7655 44.5588 13.6105 81.7457 13.6105C99.7658 13.6105 116.721 20.6195 129.417 33.3335C142.195 46.0475 149.157 62.918 149.157 80.848C149.321 117.849 119.015 147.922 81.8276 147.922ZM118.851 97.7185C116.803 96.7405 106.81 91.8505 105.008 91.117C103.124 90.465 101.814 90.139 100.421 92.095C99.0286 94.1325 95.1789 98.6965 94.0322 100C92.8854 101.386 91.6568 101.549 89.609 100.489C87.5613 99.5115 81.0085 97.311 73.309 90.465C67.2477 85.086 63.2342 78.4845 62.0055 76.447C60.8588 74.4095 61.8417 73.35 62.9065 72.2905C63.8075 71.394 64.9543 69.927 65.9372 68.786C66.9201 67.645 67.3296 66.7485 67.9849 65.4445C68.6402 64.059 68.3126 62.918 67.8211 61.94C67.3296 60.962 63.2342 51.019 61.596 46.944C59.9578 43.032 58.2377 43.521 57.009 43.4395C55.7804 43.4395 54.4698 43.4395 53.0774 43.4395C51.6849 43.4395 49.5553 43.9285 47.6714 45.966C45.8693 48.0035 40.6271 52.8935 40.6271 62.8365C40.6271 72.7795 47.9171 82.3965 48.9 83.7005C49.8829 85.086 63.2342 105.461 83.5477 114.181C88.3804 116.3 92.1482 117.523 95.097 118.42C99.9296 119.968 104.353 119.723 107.875 119.234C111.807 118.664 119.916 114.344 121.554 109.617C123.274 104.89 123.274 100.897 122.701 100C122.127 99.104 120.898 98.6965 118.851 97.7185Z" fill="#1F2A44"/>
</svg>
