<svg width="157" height="158" viewBox="0 0 157 158" fill="none" xmlns="http://www.w3.org/2000/svg">
<path d="M45.53 0H111.47C136.59 0 157 20.54 157 45.82V112.18C157 124.332 152.203 135.987 143.665 144.58C135.126 153.173 123.545 158 111.47 158H45.53C20.41 158 0 137.46 0 112.18V45.82C0 33.6678 4.7969 22.0133 13.3354 13.4204C21.874 4.82745 33.4547 0 45.53 0ZM43.96 15.8C36.465 15.8 29.2769 18.7964 23.9772 24.1299C18.6774 29.4634 15.7 36.6972 15.7 44.24V113.76C15.7 129.481 28.3385 142.2 43.96 142.2H113.04C120.535 142.2 127.723 139.204 133.023 133.87C138.323 128.537 141.3 121.303 141.3 113.76V44.24C141.3 28.519 128.661 15.8 113.04 15.8H43.96ZM119.713 27.65C122.315 27.65 124.811 28.6904 126.651 30.5423C128.491 32.3942 129.525 34.906 129.525 37.525C129.525 40.144 128.491 42.6558 126.651 44.5077C124.811 46.3596 122.315 47.4 119.713 47.4C117.11 47.4 114.614 46.3596 112.774 44.5077C110.934 42.6558 109.9 40.144 109.9 37.525C109.9 34.906 110.934 32.3942 112.774 30.5423C114.614 28.6904 117.11 27.65 119.713 27.65ZM78.5 39.5C88.9097 39.5 98.8931 43.6616 106.254 51.0693C113.615 58.477 117.75 68.5239 117.75 79C117.75 89.4761 113.615 99.523 106.254 106.931C98.8931 114.338 88.9097 118.5 78.5 118.5C68.0902 118.5 58.1069 114.338 50.7461 106.931C43.3853 99.523 39.25 89.4761 39.25 79C39.25 68.5239 43.3853 58.477 50.7461 51.0693C58.1069 43.6616 68.0902 39.5 78.5 39.5ZM78.5 55.3C72.2542 55.3 66.2641 57.797 61.8476 62.2416C57.4311 66.6862 54.95 72.7144 54.95 79C54.95 85.2856 57.4311 91.3138 61.8476 95.7584C66.2641 100.203 72.2542 102.7 78.5 102.7C84.7458 102.7 90.7359 100.203 95.1524 95.7584C99.5688 91.3138 102.05 85.2856 102.05 79C102.05 72.7144 99.5688 66.6862 95.1524 62.2416C90.7359 57.797 84.7458 55.3 78.5 55.3Z" fill="#1F2A44"/>
</svg>
