<svg width="1687" height="805" viewBox="0 0 1687 805" fill="none" xmlns="http://www.w3.org/2000/svg">
<mask id="path-1-outside-1_2326_11" maskUnits="userSpaceOnUse" x="29.2598" y="167.488" width="841" height="170" fill="black">
<rect fill="white" x="29.2598" y="167.488" width="841" height="170"/>
<path d="M32.6695 334.488V170.791H107.035C124.808 170.791 140.476 174.221 154.039 181.081C167.603 187.785 178.204 197.217 185.843 209.377C193.482 221.538 197.302 235.958 197.302 252.64C197.302 269.166 193.482 283.586 185.843 295.903C178.204 308.063 167.603 317.573 154.039 324.433C140.476 331.137 124.808 334.488 107.035 334.488H32.6695ZM70.5537 303.386H105.164C116.077 303.386 125.509 301.359 133.46 297.306C141.567 293.096 147.803 287.172 152.168 279.533C156.689 271.894 158.95 262.929 158.95 252.64C158.95 242.195 156.689 233.23 152.168 225.747C147.803 218.108 141.567 212.261 133.46 208.208C125.509 203.999 116.077 201.894 105.164 201.894H70.5537V303.386ZM225.872 334.488V170.791H263.756V334.488H225.872ZM281.091 334.488L354.053 170.791H391.469L464.665 334.488H424.91L365.044 189.967H380.01L319.91 334.488H281.091ZM317.572 299.41L327.627 270.647H411.814L422.104 299.41H317.572ZM547.876 334.488V170.791H622.241C640.014 170.791 655.682 174.221 669.246 181.081C682.809 187.785 693.411 197.217 701.05 209.377C708.689 221.538 712.509 235.958 712.509 252.64C712.509 269.166 708.689 283.586 701.05 295.903C693.411 308.063 682.809 317.573 669.246 324.433C655.682 331.137 640.014 334.488 622.241 334.488H547.876ZM585.76 303.386H620.371C631.284 303.386 640.716 301.359 648.667 297.306C656.774 293.096 663.01 287.172 667.375 279.533C671.896 271.894 674.157 262.929 674.157 252.64C674.157 242.195 671.896 233.23 667.375 225.747C663.01 218.108 656.774 212.261 648.667 208.208C640.716 203.999 631.284 201.894 620.371 201.894H585.76V303.386ZM775.923 236.738H854.731V266.203H775.923V236.738ZM778.729 304.088H867.827V334.488H741.079V170.791H864.787V201.192H778.729V304.088Z"/>
</mask>
<path d="M32.6695 334.488V170.791H107.035C124.808 170.791 140.476 174.221 154.039 181.081C167.603 187.785 178.204 197.217 185.843 209.377C193.482 221.538 197.302 235.958 197.302 252.64C197.302 269.166 193.482 283.586 185.843 295.903C178.204 308.063 167.603 317.573 154.039 324.433C140.476 331.137 124.808 334.488 107.035 334.488H32.6695ZM70.5537 303.386H105.164C116.077 303.386 125.509 301.359 133.46 297.306C141.567 293.096 147.803 287.172 152.168 279.533C156.689 271.894 158.95 262.929 158.95 252.64C158.95 242.195 156.689 233.23 152.168 225.747C147.803 218.108 141.567 212.261 133.46 208.208C125.509 203.999 116.077 201.894 105.164 201.894H70.5537V303.386ZM225.872 334.488V170.791H263.756V334.488H225.872ZM281.091 334.488L354.053 170.791H391.469L464.665 334.488H424.91L365.044 189.967H380.01L319.91 334.488H281.091ZM317.572 299.41L327.627 270.647H411.814L422.104 299.41H317.572ZM547.876 334.488V170.791H622.241C640.014 170.791 655.682 174.221 669.246 181.081C682.809 187.785 693.411 197.217 701.05 209.377C708.689 221.538 712.509 235.958 712.509 252.64C712.509 269.166 708.689 283.586 701.05 295.903C693.411 308.063 682.809 317.573 669.246 324.433C655.682 331.137 640.014 334.488 622.241 334.488H547.876ZM585.76 303.386H620.371C631.284 303.386 640.716 301.359 648.667 297.306C656.774 293.096 663.01 287.172 667.375 279.533C671.896 271.894 674.157 262.929 674.157 252.64C674.157 242.195 671.896 233.23 667.375 225.747C663.01 218.108 656.774 212.261 648.667 208.208C640.716 203.999 631.284 201.894 620.371 201.894H585.76V303.386ZM775.923 236.738H854.731V266.203H775.923V236.738ZM778.729 304.088H867.827V334.488H741.079V170.791H864.787V201.192H778.729V304.088Z" fill="white"/>
<path d="M32.6695 334.488H30.2587V336.899H32.6695V334.488ZM32.6695 170.792V168.381H30.2587V170.792H32.6695ZM154.039 181.081L152.951 183.232L152.961 183.237L152.971 183.242L154.039 181.081ZM185.843 209.377L183.802 210.66L185.843 209.377ZM185.843 295.903L187.885 297.185L187.892 297.173L185.843 295.903ZM154.039 324.433L155.107 326.594L155.117 326.589L155.127 326.584L154.039 324.433ZM70.5537 303.386H68.1428V305.797H70.5537V303.386ZM133.46 297.306L134.555 299.454L134.563 299.45L134.571 299.445L133.46 297.306ZM152.168 279.533L150.094 278.305L150.084 278.321L150.075 278.337L152.168 279.533ZM152.168 225.747L150.075 226.943L150.09 226.968L150.105 226.994L152.168 225.747ZM133.46 208.208L132.332 210.339L132.357 210.352L132.382 210.364L133.46 208.208ZM70.5537 201.894V199.483H68.1428V201.894H70.5537ZM32.6695 334.488H35.0804V170.792H32.6695H30.2587V334.488H32.6695ZM32.6695 170.792V173.202H107.035V170.792V168.381H32.6695V170.792ZM107.035 170.792V173.202C124.493 173.202 139.778 176.57 152.951 183.232L154.039 181.081L155.127 178.93C141.174 171.873 125.122 168.381 107.035 168.381V170.792ZM154.039 181.081L152.971 183.242C166.157 189.76 176.412 198.897 183.802 210.66L185.843 209.377L187.885 208.095C179.995 195.537 169.048 185.81 155.107 178.92L154.039 181.081ZM185.843 209.377L183.802 210.66C191.163 222.377 194.891 236.337 194.891 252.64H197.302H199.713C199.713 235.579 195.802 220.698 187.885 208.095L185.843 209.377ZM197.302 252.64H194.891C194.891 268.781 191.165 282.749 183.794 294.632L185.843 295.903L187.892 297.173C195.8 284.424 199.713 269.55 199.713 252.64H197.302ZM185.843 295.903L183.802 294.62C176.409 306.388 166.147 315.607 152.951 322.281L154.039 324.433L155.127 326.584C169.058 319.539 179.999 309.738 187.885 297.185L185.843 295.903ZM154.039 324.433L152.971 322.271C139.793 328.785 124.501 332.078 107.035 332.078V334.488V336.899C125.114 336.899 141.158 333.488 155.107 326.594L154.039 324.433ZM107.035 334.488V332.078H32.6695V334.488V336.899H107.035V334.488ZM70.5537 303.386V305.797H105.164V303.386V300.975H70.5537V303.386ZM105.164 303.386V305.797C116.374 305.797 126.198 303.714 134.555 299.454L133.46 297.306L132.365 295.158C124.821 299.004 115.78 300.975 105.164 300.975V303.386ZM133.46 297.306L134.571 299.445C143.073 295.031 149.657 288.787 154.261 280.729L152.168 279.533L150.075 278.337C145.949 285.558 140.061 291.162 132.349 295.166L133.46 297.306ZM152.168 279.533L154.243 280.761C159.017 272.694 161.361 263.292 161.361 252.64H158.95H156.539C156.539 262.567 154.362 271.093 150.094 278.305L152.168 279.533ZM158.95 252.64H161.361C161.361 241.841 159.021 232.427 154.232 224.5L152.168 225.747L150.105 226.994C154.358 234.033 156.539 242.548 156.539 252.64H158.95ZM152.168 225.747L154.261 224.551C149.653 216.485 143.057 210.311 134.538 206.052L133.46 208.208L132.382 210.364C140.077 214.212 145.953 219.73 150.075 226.943L152.168 225.747ZM133.46 208.208L134.588 206.077C126.223 201.649 116.387 199.483 105.164 199.483V201.894V204.305C115.767 204.305 124.795 206.349 132.332 210.339L133.46 208.208ZM105.164 201.894V199.483H70.5537V201.894V204.305H105.164V201.894ZM70.5537 201.894H68.1428V303.386H70.5537H72.9645V201.894H70.5537ZM225.872 334.488H223.461V336.899H225.872V334.488ZM225.872 170.792V168.381H223.461V170.792H225.872ZM263.756 170.792H266.167V168.381H263.756V170.792ZM263.756 334.488V336.899H266.167V334.488H263.756ZM225.872 334.488H228.283V170.792H225.872H223.461V334.488H225.872ZM225.872 170.792V173.202H263.756V170.792V168.381H225.872V170.792ZM263.756 170.792H261.345V334.488H263.756H266.167V170.792H263.756ZM263.756 334.488V332.078H225.872V334.488V336.899H263.756V334.488ZM281.091 334.488L278.889 333.507L277.377 336.899H281.091V334.488ZM354.053 170.792V168.381H352.488L351.851 169.81L354.053 170.792ZM391.469 170.792L393.67 169.807L393.032 168.381H391.469V170.792ZM464.665 334.488V336.899H468.384L466.866 333.504L464.665 334.488ZM424.91 334.488L422.683 335.411L423.299 336.899H424.91V334.488ZM365.044 189.967V187.557H361.435L362.816 190.89L365.044 189.967ZM380.01 189.967L382.236 190.893L383.624 187.557H380.01V189.967ZM319.91 334.488V336.899H321.519L322.136 335.414L319.91 334.488ZM317.572 299.41L315.296 298.615L314.175 301.821H317.572V299.41ZM327.627 270.647V268.236H325.916L325.351 269.851L327.627 270.647ZM411.814 270.647L414.084 269.835L413.512 268.236H411.814V270.647ZM422.104 299.41V301.821H425.527L424.374 298.598L422.104 299.41ZM281.091 334.488L283.293 335.47L356.255 171.773L354.053 170.792L351.851 169.81L278.889 333.507L281.091 334.488ZM354.053 170.792V173.202H391.469V170.792V168.381H354.053V170.792ZM391.469 170.792L389.268 171.776L462.464 335.473L464.665 334.488L466.866 333.504L393.67 169.807L391.469 170.792ZM464.665 334.488V332.078H424.91V334.488V336.899H464.665V334.488ZM424.91 334.488L427.137 333.566L367.271 189.045L365.044 189.967L362.816 190.89L422.683 335.411L424.91 334.488ZM365.044 189.967V192.378H380.01V189.967V187.557H365.044V189.967ZM380.01 189.967L377.784 189.042L317.684 333.563L319.91 334.488L322.136 335.414L382.236 190.893L380.01 189.967ZM319.91 334.488V332.078H281.091V334.488V336.899H319.91V334.488ZM317.572 299.41L319.847 300.206L329.903 271.442L327.627 270.647L325.351 269.851L315.296 298.615L317.572 299.41ZM327.627 270.647V273.057H411.814V270.647V268.236H327.627V270.647ZM411.814 270.647L409.544 271.459L419.834 300.223L422.104 299.41L424.374 298.598L414.084 269.835L411.814 270.647ZM422.104 299.41V297H317.572V299.41V301.821H422.104V299.41ZM547.876 334.488H545.465V336.899H547.876V334.488ZM547.876 170.792V168.381H545.465V170.792H547.876ZM669.246 181.081L668.158 183.232L668.168 183.237L668.178 183.242L669.246 181.081ZM701.05 209.377L699.008 210.66L701.05 209.377ZM701.05 295.903L703.091 297.185L703.099 297.173L701.05 295.903ZM669.246 324.433L670.314 326.594L670.324 326.589L670.334 326.584L669.246 324.433ZM585.76 303.386H583.35V305.797H585.76V303.386ZM648.667 297.306L649.762 299.454L649.77 299.45L649.778 299.445L648.667 297.306ZM667.375 279.533L665.3 278.305L665.291 278.321L665.282 278.337L667.375 279.533ZM667.375 225.747L665.282 226.943L665.296 226.968L665.312 226.994L667.375 225.747ZM648.667 208.208L647.539 210.339L647.564 210.352L647.589 210.364L648.667 208.208ZM585.76 201.894V199.483H583.35V201.894H585.76ZM547.876 334.488H550.287V170.792H547.876H545.465V334.488H547.876ZM547.876 170.792V173.202H622.241V170.792V168.381H547.876V170.792ZM622.241 170.792V173.202C639.7 173.202 654.984 176.57 668.158 183.232L669.246 181.081L670.334 178.93C656.38 171.873 640.328 168.381 622.241 168.381V170.792ZM669.246 181.081L668.178 183.242C681.364 189.76 691.619 198.897 699.008 210.66L701.05 209.377L703.091 208.095C695.202 195.537 684.255 185.81 670.314 178.92L669.246 181.081ZM701.05 209.377L699.008 210.66C706.369 222.377 710.098 236.337 710.098 252.64H712.509H714.919C714.919 235.579 711.009 220.698 703.091 208.095L701.05 209.377ZM712.509 252.64H710.098C710.098 268.781 706.372 282.749 699.001 294.632L701.05 295.903L703.099 297.173C711.006 284.424 714.919 269.55 714.919 252.64H712.509ZM701.05 295.903L699.008 294.62C691.616 306.388 681.354 315.607 668.158 322.281L669.246 324.433L670.334 326.584C684.264 319.539 695.205 309.738 703.091 297.185L701.05 295.903ZM669.246 324.433L668.178 322.271C655 328.785 639.708 332.078 622.241 332.078V334.488V336.899C640.32 336.899 656.365 333.488 670.314 326.594L669.246 324.433ZM622.241 334.488V332.078H547.876V334.488V336.899H622.241V334.488ZM585.76 303.386V305.797H620.371V303.386V300.975H585.76V303.386ZM620.371 303.386V305.797C631.581 305.797 641.404 303.714 649.762 299.454L648.667 297.306L647.572 295.158C640.027 299.004 630.987 300.975 620.371 300.975V303.386ZM648.667 297.306L649.778 299.445C658.279 295.031 664.864 288.787 669.468 280.729L667.375 279.533L665.282 278.337C661.156 285.558 655.268 291.162 647.556 295.166L648.667 297.306ZM667.375 279.533L669.45 280.761C674.224 272.694 676.568 263.292 676.568 252.64H674.157H671.746C671.746 262.567 669.568 271.093 665.3 278.305L667.375 279.533ZM674.157 252.64H676.568C676.568 241.841 674.228 232.427 669.438 224.5L667.375 225.747L665.312 226.994C669.565 234.033 671.746 242.548 671.746 252.64H674.157ZM667.375 225.747L669.468 224.551C664.859 216.485 658.264 210.311 649.745 206.052L648.667 208.208L647.589 210.364C655.283 214.212 661.16 219.73 665.282 226.943L667.375 225.747ZM648.667 208.208L649.795 206.077C641.43 201.649 631.594 199.483 620.371 199.483V201.894V204.305C630.974 204.305 640.002 206.349 647.539 210.339L648.667 208.208ZM620.371 201.894V199.483H585.76V201.894V204.305H620.371V201.894ZM585.76 201.894H583.35V303.386H585.76H588.171V201.894H585.76ZM775.923 236.738V234.327H773.512V236.738H775.923ZM854.731 236.738H857.142V234.327H854.731V236.738ZM854.731 266.203V268.614H857.142V266.203H854.731ZM775.923 266.203H773.512V268.614H775.923V266.203ZM778.729 304.088H776.318V306.498H778.729V304.088ZM867.827 304.088H870.238V301.677H867.827V304.088ZM867.827 334.488V336.899H870.238V334.488H867.827ZM741.079 334.488H738.668V336.899H741.079V334.488ZM741.079 170.792V168.381H738.668V170.792H741.079ZM864.787 170.792H867.198V168.381H864.787V170.792ZM864.787 201.192V203.603H867.198V201.192H864.787ZM778.729 201.192V198.781H776.318V201.192H778.729ZM775.923 236.738V239.149H854.731V236.738V234.327H775.923V236.738ZM854.731 236.738H852.32V266.203H854.731H857.142V236.738H854.731ZM854.731 266.203V263.793H775.923V266.203V268.614H854.731V266.203ZM775.923 266.203H778.334V236.738H775.923H773.512V266.203H775.923ZM778.729 304.088V306.498H867.827V304.088V301.677H778.729V304.088ZM867.827 304.088H865.416V334.488H867.827H870.238V304.088H867.827ZM867.827 334.488V332.078H741.079V334.488V336.899H867.827V334.488ZM741.079 334.488H743.49V170.792H741.079H738.668V334.488H741.079ZM741.079 170.792V173.202H864.787V170.792V168.381H741.079V170.792ZM864.787 170.792H862.376V201.192H864.787H867.198V170.792H864.787ZM864.787 201.192V198.781H778.729V201.192V203.603H864.787V201.192ZM778.729 201.192H776.318V304.088H778.729H781.14V201.192H778.729Z" fill="white" mask="url(#path-1-outside-1_2326_11)"/>
<mask id="path-3-outside-2_2326_11" maskUnits="userSpaceOnUse" x="27.2598" y="459.612" width="1657" height="178" fill="black">
<rect fill="white" x="27.2598" y="459.612" width="1657" height="178"/>
<path d="M29.7982 631.612V466.228H76.5784V594.519H155.49V631.612H29.7982ZM155.771 631.612L228.776 466.228H274.848L348.09 631.612H299.419L242.243 489.146H260.672L203.496 631.612H155.771ZM195.7 599.481L207.749 564.986H288.551L300.601 599.481H195.7ZM419.473 634.92C405.927 634.92 392.853 633.266 380.253 629.959C367.81 626.493 357.65 622.083 349.775 616.728L365.132 582.233C372.535 586.959 381.04 590.896 390.648 594.047C400.414 597.039 410.101 598.536 419.709 598.536C426.167 598.536 431.364 597.984 435.302 596.882C439.24 595.622 442.075 594.047 443.808 592.156C445.698 590.109 446.643 587.746 446.643 585.069C446.643 581.288 444.91 578.296 441.445 576.091C437.98 573.885 433.491 572.074 427.978 570.656C422.465 569.239 416.322 567.821 409.549 566.404C402.934 564.986 396.24 563.175 389.467 560.97C382.852 558.765 376.788 555.929 371.275 552.464C365.762 548.841 361.273 544.195 357.808 538.525C354.343 532.697 352.61 525.373 352.61 516.552C352.61 506.629 355.288 497.651 360.643 489.618C366.156 481.585 374.346 475.127 385.214 470.244C396.082 465.362 409.628 462.92 425.852 462.92C436.72 462.92 447.352 464.18 457.747 466.701C468.3 469.063 477.672 472.607 485.863 477.332L471.451 512.063C463.575 507.81 455.778 504.66 448.06 502.613C440.342 500.407 432.861 499.305 425.615 499.305C419.158 499.305 413.96 500.014 410.022 501.431C406.084 502.691 403.249 504.424 401.516 506.629C399.784 508.834 398.918 511.354 398.918 514.189C398.918 517.812 400.571 520.726 403.879 522.931C407.344 524.979 411.833 526.711 417.346 528.129C423.016 529.389 429.159 530.728 435.775 532.146C442.548 533.563 449.242 535.374 455.857 537.58C462.63 539.627 468.773 542.462 474.286 546.085C479.798 549.55 484.209 554.197 487.516 560.025C490.982 565.695 492.714 572.862 492.714 581.525C492.714 591.133 489.958 600.032 484.445 608.222C479.09 616.255 470.978 622.713 460.11 627.596C449.399 632.479 435.853 634.92 419.473 634.92ZM583.08 631.612V466.228H658.684C673.805 466.228 686.799 468.669 697.667 473.552C708.693 478.435 717.198 485.523 723.184 494.816C729.169 503.951 732.162 514.82 732.162 527.42C732.162 539.863 729.169 550.653 723.184 559.788C717.198 568.924 708.693 576.012 697.667 581.052C686.799 585.935 673.805 588.376 658.684 588.376H609.069L629.86 568.058V631.612H583.08ZM629.86 573.019L609.069 551.519H655.849C665.614 551.519 672.86 549.393 677.585 545.14C682.468 540.887 684.909 534.981 684.909 527.42C684.909 519.702 682.468 513.717 677.585 509.464C672.86 505.211 665.614 503.085 655.849 503.085H609.069L629.86 481.585V573.019ZM754.97 631.612V466.228H801.751V631.612H754.97ZM878.032 530.255H954.818V565.222H878.032V530.255ZM881.34 595.464H967.813V631.612H835.032V466.228H964.741V502.376H881.34V595.464ZM993.772 631.612V466.228H1071.98C1090.25 466.228 1106.31 469.614 1120.17 476.387C1134.03 483.16 1144.82 492.69 1152.54 504.975C1160.42 517.261 1164.35 531.909 1164.35 548.92C1164.35 565.774 1160.42 580.422 1152.54 592.865C1144.82 605.151 1134.03 614.68 1120.17 621.453C1106.31 628.226 1090.25 631.612 1071.98 631.612H993.772ZM1040.55 594.283H1070.09C1079.54 594.283 1087.73 592.55 1094.66 589.085C1101.74 585.462 1107.26 580.265 1111.2 573.492C1115.13 566.561 1117.1 558.371 1117.1 548.92C1117.1 539.312 1115.13 531.122 1111.2 524.349C1107.26 517.576 1101.74 512.457 1094.66 508.992C1087.73 505.369 1079.54 503.558 1070.09 503.558H1040.55V594.283ZM1188.97 631.612V466.228H1264.57C1279.69 466.228 1292.69 468.669 1303.55 473.552C1314.58 478.435 1323.09 485.523 1329.07 494.816C1335.06 503.951 1338.05 514.82 1338.05 527.42C1338.05 539.863 1335.06 550.653 1329.07 559.788C1323.09 568.766 1314.58 575.697 1303.55 580.58C1292.69 585.305 1279.69 587.667 1264.57 587.667H1214.96L1235.75 568.058V631.612H1188.97ZM1291.27 631.612L1250.16 571.365H1300.01L1341.36 631.612H1291.27ZM1235.75 573.019L1214.96 551.519H1261.74C1271.5 551.519 1278.75 549.393 1283.47 545.14C1288.35 540.887 1290.8 534.981 1290.8 527.42C1290.8 519.702 1288.35 513.717 1283.47 509.464C1278.75 505.211 1271.5 503.085 1261.74 503.085H1214.96L1235.75 481.585V573.019ZM1344.01 631.612L1417.02 466.228H1463.09L1536.33 631.612H1487.66L1430.48 489.146H1448.91L1391.74 631.612H1344.01ZM1383.94 599.481L1395.99 564.986H1476.79L1488.84 599.481H1383.94ZM1607.71 634.92C1594.17 634.92 1581.09 633.266 1568.49 629.959C1556.05 626.493 1545.89 622.083 1538.01 616.728L1553.37 582.233C1560.77 586.959 1569.28 590.896 1578.89 594.047C1588.65 597.039 1598.34 598.536 1607.95 598.536C1614.41 598.536 1619.6 597.984 1623.54 596.882C1627.48 595.622 1630.31 594.047 1632.05 592.156C1633.94 590.109 1634.88 587.746 1634.88 585.069C1634.88 581.288 1633.15 578.296 1629.68 576.091C1626.22 573.885 1621.73 572.074 1616.22 570.656C1610.7 569.239 1604.56 567.821 1597.79 566.404C1591.17 564.986 1584.48 563.175 1577.71 560.97C1571.09 558.765 1565.03 555.929 1559.51 552.464C1554 548.841 1549.51 544.195 1546.05 538.525C1542.58 532.697 1540.85 525.373 1540.85 516.552C1540.85 506.629 1543.53 497.651 1548.88 489.618C1554.4 481.585 1562.59 475.127 1573.45 470.244C1584.32 465.362 1597.87 462.92 1614.09 462.92C1624.96 462.92 1635.59 464.18 1645.99 466.701C1656.54 469.063 1665.91 472.607 1674.1 477.332L1659.69 512.063C1651.81 507.81 1644.02 504.66 1636.3 502.613C1628.58 500.407 1621.1 499.305 1613.85 499.305C1607.4 499.305 1602.2 500.014 1598.26 501.431C1594.32 502.691 1591.49 504.424 1589.76 506.629C1588.02 508.834 1587.16 511.354 1587.16 514.189C1587.16 517.812 1588.81 520.726 1592.12 522.931C1595.58 524.979 1600.07 526.711 1605.59 528.129C1611.26 529.389 1617.4 530.728 1624.01 532.146C1630.79 533.563 1637.48 535.374 1644.1 537.58C1650.87 539.627 1657.01 542.462 1662.53 546.085C1668.04 549.55 1672.45 554.197 1675.76 560.025C1679.22 565.695 1680.95 572.862 1680.95 581.525C1680.95 591.133 1678.2 600.032 1672.68 608.222C1667.33 616.255 1659.22 622.713 1648.35 627.596C1637.64 632.479 1624.09 634.92 1607.71 634.92Z"/>
</mask>
<path d="M29.7982 631.612V466.228H76.5784V594.519H155.49V631.612H29.7982ZM155.771 631.612L228.776 466.228H274.848L348.09 631.612H299.419L242.243 489.146H260.672L203.496 631.612H155.771ZM195.7 599.481L207.749 564.986H288.551L300.601 599.481H195.7ZM419.473 634.92C405.927 634.92 392.853 633.266 380.253 629.959C367.81 626.493 357.65 622.083 349.775 616.728L365.132 582.233C372.535 586.959 381.04 590.896 390.648 594.047C400.414 597.039 410.101 598.536 419.709 598.536C426.167 598.536 431.364 597.984 435.302 596.882C439.24 595.622 442.075 594.047 443.808 592.156C445.698 590.109 446.643 587.746 446.643 585.069C446.643 581.288 444.91 578.296 441.445 576.091C437.98 573.885 433.491 572.074 427.978 570.656C422.465 569.239 416.322 567.821 409.549 566.404C402.934 564.986 396.24 563.175 389.467 560.97C382.852 558.765 376.788 555.929 371.275 552.464C365.762 548.841 361.273 544.195 357.808 538.525C354.343 532.697 352.61 525.373 352.61 516.552C352.61 506.629 355.288 497.651 360.643 489.618C366.156 481.585 374.346 475.127 385.214 470.244C396.082 465.362 409.628 462.92 425.852 462.92C436.72 462.92 447.352 464.18 457.747 466.701C468.3 469.063 477.672 472.607 485.863 477.332L471.451 512.063C463.575 507.81 455.778 504.66 448.06 502.613C440.342 500.407 432.861 499.305 425.615 499.305C419.158 499.305 413.96 500.014 410.022 501.431C406.084 502.691 403.249 504.424 401.516 506.629C399.784 508.834 398.918 511.354 398.918 514.189C398.918 517.812 400.571 520.726 403.879 522.931C407.344 524.979 411.833 526.711 417.346 528.129C423.016 529.389 429.159 530.728 435.775 532.146C442.548 533.563 449.242 535.374 455.857 537.58C462.63 539.627 468.773 542.462 474.286 546.085C479.798 549.55 484.209 554.197 487.516 560.025C490.982 565.695 492.714 572.862 492.714 581.525C492.714 591.133 489.958 600.032 484.445 608.222C479.09 616.255 470.978 622.713 460.11 627.596C449.399 632.479 435.853 634.92 419.473 634.92ZM583.08 631.612V466.228H658.684C673.805 466.228 686.799 468.669 697.667 473.552C708.693 478.435 717.198 485.523 723.184 494.816C729.169 503.951 732.162 514.82 732.162 527.42C732.162 539.863 729.169 550.653 723.184 559.788C717.198 568.924 708.693 576.012 697.667 581.052C686.799 585.935 673.805 588.376 658.684 588.376H609.069L629.86 568.058V631.612H583.08ZM629.86 573.019L609.069 551.519H655.849C665.614 551.519 672.86 549.393 677.585 545.14C682.468 540.887 684.909 534.981 684.909 527.42C684.909 519.702 682.468 513.717 677.585 509.464C672.86 505.211 665.614 503.085 655.849 503.085H609.069L629.86 481.585V573.019ZM754.97 631.612V466.228H801.751V631.612H754.97ZM878.032 530.255H954.818V565.222H878.032V530.255ZM881.34 595.464H967.813V631.612H835.032V466.228H964.741V502.376H881.34V595.464ZM993.772 631.612V466.228H1071.98C1090.25 466.228 1106.31 469.614 1120.17 476.387C1134.03 483.16 1144.82 492.69 1152.54 504.975C1160.42 517.261 1164.35 531.909 1164.35 548.92C1164.35 565.774 1160.42 580.422 1152.54 592.865C1144.82 605.151 1134.03 614.68 1120.17 621.453C1106.31 628.226 1090.25 631.612 1071.98 631.612H993.772ZM1040.55 594.283H1070.09C1079.54 594.283 1087.73 592.55 1094.66 589.085C1101.74 585.462 1107.26 580.265 1111.2 573.492C1115.13 566.561 1117.1 558.371 1117.1 548.92C1117.1 539.312 1115.13 531.122 1111.2 524.349C1107.26 517.576 1101.74 512.457 1094.66 508.992C1087.73 505.369 1079.54 503.558 1070.09 503.558H1040.55V594.283ZM1188.97 631.612V466.228H1264.57C1279.69 466.228 1292.69 468.669 1303.55 473.552C1314.58 478.435 1323.09 485.523 1329.07 494.816C1335.06 503.951 1338.05 514.82 1338.05 527.42C1338.05 539.863 1335.06 550.653 1329.07 559.788C1323.09 568.766 1314.58 575.697 1303.55 580.58C1292.69 585.305 1279.69 587.667 1264.57 587.667H1214.96L1235.75 568.058V631.612H1188.97ZM1291.27 631.612L1250.16 571.365H1300.01L1341.36 631.612H1291.27ZM1235.75 573.019L1214.96 551.519H1261.74C1271.5 551.519 1278.75 549.393 1283.47 545.14C1288.35 540.887 1290.8 534.981 1290.8 527.42C1290.8 519.702 1288.35 513.717 1283.47 509.464C1278.75 505.211 1271.5 503.085 1261.74 503.085H1214.96L1235.75 481.585V573.019ZM1344.01 631.612L1417.02 466.228H1463.09L1536.33 631.612H1487.66L1430.48 489.146H1448.91L1391.74 631.612H1344.01ZM1383.94 599.481L1395.99 564.986H1476.79L1488.84 599.481H1383.94ZM1607.71 634.92C1594.17 634.92 1581.09 633.266 1568.49 629.959C1556.05 626.493 1545.89 622.083 1538.01 616.728L1553.37 582.233C1560.77 586.959 1569.28 590.896 1578.89 594.047C1588.65 597.039 1598.34 598.536 1607.95 598.536C1614.41 598.536 1619.6 597.984 1623.54 596.882C1627.48 595.622 1630.31 594.047 1632.05 592.156C1633.94 590.109 1634.88 587.746 1634.88 585.069C1634.88 581.288 1633.15 578.296 1629.68 576.091C1626.22 573.885 1621.73 572.074 1616.22 570.656C1610.7 569.239 1604.56 567.821 1597.79 566.404C1591.17 564.986 1584.48 563.175 1577.71 560.97C1571.09 558.765 1565.03 555.929 1559.51 552.464C1554 548.841 1549.51 544.195 1546.05 538.525C1542.58 532.697 1540.85 525.373 1540.85 516.552C1540.85 506.629 1543.53 497.651 1548.88 489.618C1554.4 481.585 1562.59 475.127 1573.45 470.244C1584.32 465.362 1597.87 462.92 1614.09 462.92C1624.96 462.92 1635.59 464.18 1645.99 466.701C1656.54 469.063 1665.91 472.607 1674.1 477.332L1659.69 512.063C1651.81 507.81 1644.02 504.66 1636.3 502.613C1628.58 500.407 1621.1 499.305 1613.85 499.305C1607.4 499.305 1602.2 500.014 1598.26 501.431C1594.32 502.691 1591.49 504.424 1589.76 506.629C1588.02 508.834 1587.16 511.354 1587.16 514.189C1587.16 517.812 1588.81 520.726 1592.12 522.931C1595.58 524.979 1600.07 526.711 1605.59 528.129C1611.26 529.389 1617.4 530.728 1624.01 532.146C1630.79 533.563 1637.48 535.374 1644.1 537.58C1650.87 539.627 1657.01 542.462 1662.53 546.085C1668.04 549.55 1672.45 554.197 1675.76 560.025C1679.22 565.695 1680.95 572.862 1680.95 581.525C1680.95 591.133 1678.2 600.032 1672.68 608.222C1667.33 616.255 1659.22 622.713 1648.35 627.596C1637.64 632.479 1624.09 634.92 1607.71 634.92Z" fill="white"/>
<path d="M29.7982 631.612H27.3874V634.023H29.7982V631.612ZM29.7982 466.228V463.817H27.3874V466.228H29.7982ZM76.5784 466.228H78.9893V463.817H76.5784V466.228ZM76.5784 594.519H74.1675V596.93H76.5784V594.519ZM155.49 594.519H157.901V592.108H155.49V594.519ZM155.49 631.612V634.023H157.901V631.612H155.49ZM29.7982 631.612H32.2091V466.228H29.7982H27.3874V631.612H29.7982ZM29.7982 466.228V468.639H76.5784V466.228V463.817H29.7982V466.228ZM76.5784 466.228H74.1675V594.519H76.5784H78.9893V466.228H76.5784ZM76.5784 594.519V596.93H155.49V594.519V592.108H76.5784V594.519ZM155.49 594.519H153.08V631.612H155.49H157.901V594.519H155.49ZM155.49 631.612V629.202H29.7982V631.612V634.023H155.49V631.612ZM155.771 631.612L153.565 630.639L152.071 634.023H155.771V631.612ZM228.776 466.228V463.817H227.205L226.571 465.254L228.776 466.228ZM274.848 466.228L277.052 465.252L276.417 463.817H274.848V466.228ZM348.09 631.612V634.023H351.794L350.294 630.636L348.09 631.612ZM299.419 631.612L297.182 632.51L297.789 634.023H299.419V631.612ZM242.243 489.146V486.735H238.678L240.006 490.043L242.243 489.146ZM260.672 489.146L262.909 490.043L264.237 486.735H260.672V489.146ZM203.496 631.612V634.023H205.126L205.734 632.51L203.496 631.612ZM195.7 599.481L193.424 598.686L192.304 601.891H195.7V599.481ZM207.749 564.986V562.575H206.037L205.473 564.191L207.749 564.986ZM288.551 564.986L290.827 564.191L290.263 562.575H288.551V564.986ZM300.601 599.481V601.891H303.996L302.877 598.686L300.601 599.481ZM155.771 631.612L157.977 632.586L230.982 467.202L228.776 466.228L226.571 465.254L153.565 630.639L155.771 631.612ZM228.776 466.228V468.639H274.848V466.228V463.817H228.776V466.228ZM274.848 466.228L272.643 467.204L345.885 632.589L348.09 631.612L350.294 630.636L277.052 465.252L274.848 466.228ZM348.09 631.612V629.202H299.419V631.612V634.023H348.09V631.612ZM299.419 631.612L301.657 630.715L244.481 488.248L242.243 489.146L240.006 490.043L297.182 632.51L299.419 631.612ZM242.243 489.146V491.556H260.672V489.146V486.735H242.243V489.146ZM260.672 489.146L258.435 488.248L201.259 630.715L203.496 631.612L205.734 632.51L262.909 490.043L260.672 489.146ZM203.496 631.612V629.202H155.771V631.612V634.023H203.496V631.612ZM195.7 599.481L197.976 600.276L210.025 565.781L207.749 564.986L205.473 564.191L193.424 598.686L195.7 599.481ZM207.749 564.986V567.397H288.551V564.986V562.575H207.749V564.986ZM288.551 564.986L286.275 565.781L298.325 600.276L300.601 599.481L302.877 598.686L290.827 564.191L288.551 564.986ZM300.601 599.481V597.07H195.7V599.481V601.891H300.601V599.481ZM380.253 629.959L379.606 632.281L379.623 632.286L379.641 632.29L380.253 629.959ZM349.775 616.728L347.572 615.747L346.753 617.588L348.419 618.721L349.775 616.728ZM365.132 582.233L366.429 580.201L364.068 578.694L362.929 581.253L365.132 582.233ZM390.648 594.047L389.897 596.337L389.92 596.345L389.942 596.352L390.648 594.047ZM435.302 596.882L435.952 599.203L435.995 599.191L436.037 599.178L435.302 596.882ZM443.808 592.156L442.036 590.521L442.031 590.527L443.808 592.156ZM441.445 576.091L440.151 578.124V578.124L441.445 576.091ZM427.978 570.656L428.578 568.322V568.322L427.978 570.656ZM409.549 566.404L409.044 568.761L409.056 568.763L409.549 566.404ZM389.467 560.97L388.705 563.257L388.713 563.259L388.721 563.262L389.467 560.97ZM371.275 552.464L369.951 554.479L369.971 554.492L369.992 554.505L371.275 552.464ZM357.808 538.525L355.736 539.757L355.743 539.769L355.751 539.782L357.808 538.525ZM360.643 489.618L358.655 488.254L358.646 488.267L358.637 488.281L360.643 489.618ZM385.214 470.244L384.226 468.045V468.045L385.214 470.244ZM457.747 466.701L457.179 469.044L457.2 469.048L457.221 469.053L457.747 466.701ZM485.863 477.332L488.089 478.256L488.9 476.302L487.067 475.244L485.863 477.332ZM471.451 512.063L470.305 514.184L472.654 515.453L473.677 512.987L471.451 512.063ZM448.06 502.613L447.398 504.931L447.42 504.937L447.442 504.943L448.06 502.613ZM410.022 501.431L410.757 503.727L410.798 503.714L410.839 503.7L410.022 501.431ZM401.516 506.629L399.621 505.14V505.14L401.516 506.629ZM403.879 522.931L402.542 524.937L402.596 524.974L402.653 525.007L403.879 522.931ZM417.346 528.129L416.746 530.464L416.784 530.474L416.823 530.482L417.346 528.129ZM435.775 532.146L435.27 534.503L435.281 534.505L435.775 532.146ZM455.857 537.58L455.095 539.867L455.127 539.877L455.159 539.887L455.857 537.58ZM474.286 546.085L472.962 548.1L472.982 548.113L473.003 548.126L474.286 546.085ZM487.516 560.025L485.42 561.215L485.439 561.249L485.459 561.282L487.516 560.025ZM484.445 608.222L482.445 606.876L482.439 606.885L484.445 608.222ZM460.11 627.596L459.122 625.397L459.11 625.402L460.11 627.596ZM419.473 634.92V632.509C406.125 632.509 393.258 630.88 380.865 627.627L380.253 629.959L379.641 632.29C392.449 635.653 405.728 637.331 419.473 637.331V634.92ZM380.253 629.959L380.9 627.636C368.625 624.218 358.727 619.9 351.13 614.734L349.775 616.728L348.419 618.721C356.573 624.266 366.994 628.769 379.606 632.281L380.253 629.959ZM349.775 616.728L351.977 617.708L367.334 583.214L365.132 582.233L362.929 581.253L347.572 615.747L349.775 616.728ZM365.132 582.233L363.835 584.266C371.432 589.115 380.125 593.134 389.897 596.337L390.648 594.047L391.399 591.756C381.955 588.659 373.638 584.803 366.429 580.201L365.132 582.233ZM390.648 594.047L389.942 596.352C399.922 599.41 409.847 600.946 419.709 600.946V598.536V596.125C410.355 596.125 400.906 594.668 391.355 591.742L390.648 594.047ZM419.709 598.536V600.946C426.275 600.946 431.717 600.389 435.952 599.203L435.302 596.882L434.652 594.56C431.012 595.58 426.058 596.125 419.709 596.125V598.536ZM435.302 596.882L436.037 599.178C440.154 597.86 443.445 596.119 445.585 593.786L443.808 592.156L442.031 590.527C440.705 591.974 438.325 593.383 434.567 594.586L435.302 596.882ZM443.808 592.156L445.579 593.792C447.862 591.319 449.054 588.379 449.054 585.069H446.643H444.232C444.232 587.114 443.534 588.899 442.036 590.521L443.808 592.156ZM446.643 585.069H449.054C449.054 580.382 446.828 576.659 442.739 574.057L441.445 576.091L440.151 578.124C442.992 579.933 444.232 582.194 444.232 585.069H446.643ZM441.445 576.091L442.739 574.057C438.995 571.674 434.249 569.78 428.578 568.322L427.978 570.656L427.378 572.991C432.732 574.368 436.964 576.097 440.151 578.124L441.445 576.091ZM427.978 570.656L428.578 568.322C423.024 566.893 416.845 565.468 410.043 564.044L409.549 566.404L409.056 568.763C415.8 570.175 421.907 571.585 427.378 572.991L427.978 570.656ZM409.549 566.404L410.055 564.046C403.525 562.647 396.911 560.858 390.213 558.677L389.467 560.97L388.721 563.262C395.569 565.492 402.343 567.325 409.044 568.761L409.549 566.404ZM389.467 560.97L390.229 558.683C383.784 556.534 377.896 553.779 372.558 550.423L371.275 552.464L369.992 554.505C375.679 558.08 381.919 560.995 388.705 563.257L389.467 560.97ZM371.275 552.464L372.599 550.449C367.385 547.024 363.146 542.637 359.865 537.268L357.808 538.525L355.751 539.782C359.4 545.753 364.138 550.659 369.951 554.479L371.275 552.464ZM357.808 538.525L359.88 537.293C356.694 531.934 355.021 525.067 355.021 516.552H352.61H350.199C350.199 525.679 351.991 533.46 355.736 539.757L357.808 538.525ZM352.61 516.552H355.021C355.021 507.091 357.565 498.581 362.649 490.955L360.643 489.618L358.637 488.281C353.01 496.721 350.199 506.167 350.199 516.552H352.61ZM360.643 489.618L362.631 490.982C367.843 483.388 375.648 477.185 386.202 472.444L385.214 470.244L384.226 468.045C373.045 473.069 364.469 479.783 358.655 488.254L360.643 489.618ZM385.214 470.244L386.202 472.444C396.669 467.741 409.853 465.331 425.852 465.331V462.92V460.509C409.404 460.509 395.496 462.982 384.226 468.045L385.214 470.244ZM425.852 462.92V465.331C436.531 465.331 446.973 466.569 457.179 469.044L457.747 466.701L458.315 464.358C447.731 461.792 436.908 460.509 425.852 460.509V462.92ZM457.747 466.701L457.221 469.053C467.569 471.37 476.707 474.833 484.658 479.421L485.863 477.332L487.067 475.244C478.638 470.381 469.032 466.756 458.274 464.348L457.747 466.701ZM485.863 477.332L483.636 476.408L469.224 511.139L471.451 512.063L473.677 512.987L488.089 478.256L485.863 477.332ZM471.451 512.063L472.596 509.942C464.573 505.61 456.6 502.384 448.679 500.282L448.06 502.613L447.442 504.943C454.956 506.936 462.577 510.011 470.305 514.184L471.451 512.063ZM448.06 502.613L448.723 500.294C440.812 498.034 433.107 496.894 425.615 496.894V499.305V501.716C432.614 501.716 439.873 502.781 447.398 504.931L448.06 502.613ZM425.615 499.305V496.894C419.014 496.894 413.507 497.614 409.205 499.163L410.022 501.431L410.839 503.7C414.412 502.413 419.301 501.716 425.615 501.716V499.305ZM410.022 501.431L409.287 499.135C405.096 500.476 401.761 502.415 399.621 505.14L401.516 506.629L403.412 508.119C404.737 506.433 407.072 504.907 410.757 503.727L410.022 501.431ZM401.516 506.629L399.621 505.14C397.551 507.774 396.507 510.821 396.507 514.189H398.918H401.328C401.328 511.888 402.017 509.894 403.412 508.119L401.516 506.629ZM398.918 514.189H396.507C396.507 518.707 398.641 522.336 402.542 524.937L403.879 522.931L405.216 520.925C402.502 519.116 401.328 516.918 401.328 514.189H398.918ZM403.879 522.931L402.653 525.007C406.376 527.207 411.096 529.011 416.746 530.464L417.346 528.129L417.947 525.794C412.57 524.412 408.313 522.751 405.106 520.856L403.879 522.931ZM417.346 528.129L416.823 530.482C422.5 531.744 428.649 533.084 435.27 534.503L435.775 532.146L436.28 529.788C429.669 528.372 423.533 527.034 417.869 525.776L417.346 528.129ZM435.775 532.146L435.281 534.505C441.962 535.904 448.567 537.691 455.095 539.867L455.857 537.58L456.62 535.292C449.917 533.058 443.133 531.223 436.269 529.786L435.775 532.146ZM455.857 537.58L455.159 539.887C461.727 541.873 467.656 544.613 472.962 548.1L474.286 546.085L475.61 544.07C469.89 540.311 463.533 537.382 456.555 535.272L455.857 537.58ZM474.286 546.085L473.003 548.126C478.168 551.373 482.303 555.723 485.42 561.215L487.516 560.025L489.613 558.835C486.115 552.671 481.429 547.728 475.569 544.044L474.286 546.085ZM487.516 560.025L485.459 561.282C488.633 566.475 490.303 573.173 490.303 581.525H492.714H495.125C495.125 572.55 493.33 564.915 489.574 558.767L487.516 560.025ZM492.714 581.525H490.303C490.303 590.639 487.698 599.072 482.445 606.876L484.445 608.222L486.445 609.569C492.218 600.992 495.125 591.626 495.125 581.525H492.714ZM484.445 608.222L482.439 606.885C477.388 614.461 469.673 620.656 459.122 625.397L460.11 627.596L461.098 629.795C472.283 624.77 480.791 618.049 486.451 609.56L484.445 608.222ZM460.11 627.596L459.11 625.402C448.811 630.097 435.635 632.509 419.473 632.509V634.92V637.331C436.072 637.331 449.988 634.86 461.11 629.79L460.11 627.596ZM583.08 631.612H580.669V634.023H583.08V631.612ZM583.08 466.228V463.817H580.669V466.228H583.08ZM697.667 473.552L696.679 475.751L696.691 475.757L697.667 473.552ZM723.184 494.816L721.157 496.121L721.162 496.129L721.167 496.137L723.184 494.816ZM723.184 559.788L725.2 561.11V561.11L723.184 559.788ZM697.667 581.052L698.655 583.251L698.663 583.248L698.67 583.245L697.667 581.052ZM609.069 588.376L607.383 586.652L603.152 590.787H609.069V588.376ZM629.86 568.058H632.271V562.331L628.175 566.333L629.86 568.058ZM629.86 631.612V634.023H632.271V631.612H629.86ZM629.86 573.019L628.127 574.695L632.271 578.98V573.019H629.86ZM609.069 551.519V549.108H603.383L607.335 553.195L609.069 551.519ZM677.585 545.14L676.002 543.322L675.987 543.335L675.972 543.348L677.585 545.14ZM677.585 509.464L675.972 511.256L675.987 511.269L676.002 511.282L677.585 509.464ZM609.069 503.085L607.335 501.409L603.383 505.496H609.069V503.085ZM629.86 481.585H632.271V475.624L628.127 479.909L629.86 481.585ZM583.08 631.612H585.49V466.228H583.08H580.669V631.612H583.08ZM583.08 466.228V468.639H658.684V466.228V463.817H583.08V466.228ZM658.684 466.228V468.639C673.553 468.639 686.194 471.04 696.679 475.751L697.667 473.552L698.655 471.353C687.405 466.298 674.057 463.817 658.684 463.817V466.228ZM697.667 473.552L696.691 475.757C707.327 480.467 715.45 487.26 721.157 496.121L723.184 494.816L725.211 493.51C718.947 483.786 710.059 476.403 698.644 471.348L697.667 473.552ZM723.184 494.816L721.167 496.137C726.858 504.822 729.751 515.215 729.751 527.42H732.162H734.573C734.573 514.424 731.481 503.08 725.2 493.495L723.184 494.816ZM732.162 527.42H729.751C729.751 539.461 726.861 549.777 721.167 558.467L723.184 559.788L725.2 561.11C731.478 551.529 734.573 540.266 734.573 527.42H732.162ZM723.184 559.788L721.167 558.467C715.458 567.181 707.324 573.987 696.665 578.859L697.667 581.052L698.67 583.245C710.062 578.037 718.939 570.666 725.2 561.11L723.184 559.788ZM697.667 581.052L696.679 578.853C686.194 583.564 673.553 585.965 658.684 585.965V588.376V590.787C674.057 590.787 687.405 588.306 698.655 583.251L697.667 581.052ZM658.684 588.376V585.965H609.069V588.376V590.787H658.684V588.376ZM609.069 588.376L610.754 590.1L631.545 569.782L629.86 568.058L628.175 566.333L607.383 586.652L609.069 588.376ZM629.86 568.058H627.449V631.612H629.86H632.271V568.058H629.86ZM629.86 631.612V629.202H583.08V631.612V634.023H629.86V631.612ZM629.86 573.019L631.593 571.343L610.802 549.843L609.069 551.519L607.335 553.195L628.127 574.695L629.86 573.019ZM609.069 551.519V553.93H655.849V551.519V549.108H609.069V551.519ZM655.849 551.519V553.93C665.902 553.93 673.845 551.75 679.198 546.932L677.585 545.14L675.972 543.348C671.875 547.036 665.326 549.108 655.849 549.108V551.519ZM677.585 545.14L679.168 546.958C684.667 542.169 687.32 535.549 687.32 527.42H684.909H682.498C682.498 534.413 680.269 539.606 676.002 543.322L677.585 545.14ZM684.909 527.42H687.32C687.32 519.152 684.678 512.445 679.168 507.646L677.585 509.464L676.002 511.282C680.257 514.989 682.498 520.253 682.498 527.42H684.909ZM677.585 509.464L679.198 507.672C673.845 502.854 665.902 500.674 655.849 500.674V503.085V505.496C665.326 505.496 671.875 507.568 675.972 511.256L677.585 509.464ZM655.849 503.085V500.674H609.069V503.085V505.496H655.849V503.085ZM609.069 503.085L610.802 504.761L631.593 483.261L629.86 481.585L628.127 479.909L607.335 501.409L609.069 503.085ZM629.86 481.585H627.449V573.019H629.86H632.271V481.585H629.86ZM754.97 631.612H752.56V634.023H754.97V631.612ZM754.97 466.228V463.817H752.56V466.228H754.97ZM801.751 466.228H804.161V463.817H801.751V466.228ZM801.751 631.612V634.023H804.161V631.612H801.751ZM754.97 631.612H757.381V466.228H754.97H752.56V631.612H754.97ZM754.97 466.228V468.639H801.751V466.228V463.817H754.97V466.228ZM801.751 466.228H799.34V631.612H801.751H804.161V466.228H801.751ZM801.751 631.612V629.202H754.97V631.612V634.023H801.751V631.612ZM878.032 530.255V527.845H875.622V530.255H878.032ZM954.818 530.255H957.229V527.845H954.818V530.255ZM954.818 565.222V567.633H957.229V565.222H954.818ZM878.032 565.222H875.622V567.633H878.032V565.222ZM881.34 595.464H878.929V597.875H881.34V595.464ZM967.813 595.464H970.223V593.053H967.813V595.464ZM967.813 631.612V634.023H970.223V631.612H967.813ZM835.032 631.612H832.622V634.023H835.032V631.612ZM835.032 466.228V463.817H832.622V466.228H835.032ZM964.741 466.228H967.152V463.817H964.741V466.228ZM964.741 502.376V504.787H967.152V502.376H964.741ZM881.34 502.376V499.965H878.929V502.376H881.34ZM878.032 530.255V532.666H954.818V530.255V527.845H878.032V530.255ZM954.818 530.255H952.407V565.222H954.818H957.229V530.255H954.818ZM954.818 565.222V562.812H878.032V565.222V567.633H954.818V565.222ZM878.032 565.222H880.443V530.255H878.032H875.622V565.222H878.032ZM881.34 595.464V597.875H967.813V595.464V593.053H881.34V595.464ZM967.813 595.464H965.402V631.612H967.813H970.223V595.464H967.813ZM967.813 631.612V629.202H835.032V631.612V634.023H967.813V631.612ZM835.032 631.612H837.443V466.228H835.032H832.622V631.612H835.032ZM835.032 466.228V468.639H964.741V466.228V463.817H835.032V466.228ZM964.741 466.228H962.33V502.376H964.741H967.152V466.228H964.741ZM964.741 502.376V499.965H881.34V502.376V504.787H964.741V502.376ZM881.34 502.376H878.929V595.464H881.34H883.751V502.376H881.34ZM993.772 631.612H991.361V634.023H993.772V631.612ZM993.772 466.228V463.817H991.361V466.228H993.772ZM1120.17 476.387L1119.11 478.553V478.553L1120.17 476.387ZM1152.54 504.975L1150.5 506.258L1150.51 506.267L1150.51 506.276L1152.54 504.975ZM1152.54 592.865L1150.5 591.576L1150.5 591.583L1152.54 592.865ZM1040.55 594.283H1038.14V596.694H1040.55V594.283ZM1094.66 589.085L1095.73 591.241L1095.74 591.237L1095.75 591.232L1094.66 589.085ZM1111.2 573.492L1113.28 574.703L1113.29 574.693L1113.29 574.683L1111.2 573.492ZM1111.2 524.349L1113.28 523.137V523.137L1111.2 524.349ZM1094.66 508.992L1093.54 511.128L1093.57 511.143L1093.6 511.158L1094.66 508.992ZM1040.55 503.558V501.147H1038.14V503.558H1040.55ZM993.772 631.612H996.183V466.228H993.772H991.361V631.612H993.772ZM993.772 466.228V468.639H1071.98V466.228V463.817H993.772V466.228ZM1071.98 466.228V468.639C1089.95 468.639 1105.64 471.969 1119.11 478.553L1120.17 476.387L1121.23 474.221C1106.99 467.26 1090.55 463.817 1071.98 463.817V466.228ZM1120.17 476.387L1119.11 478.553C1132.6 485.142 1143.04 494.377 1150.5 506.258L1152.54 504.975L1154.58 503.693C1146.61 491.002 1135.47 481.178 1121.23 474.221L1120.17 476.387ZM1152.54 504.975L1150.51 506.276C1158.1 518.113 1161.94 532.293 1161.94 548.92H1164.35H1166.77C1166.77 531.526 1162.73 516.409 1154.57 503.674L1152.54 504.975ZM1164.35 548.92H1161.94C1161.94 565.385 1158.1 579.572 1150.5 591.576L1152.54 592.865L1154.58 594.155C1162.73 581.272 1166.77 566.163 1166.77 548.92H1164.35ZM1152.54 592.865L1150.5 591.583C1143.04 603.464 1132.6 612.698 1119.11 619.287L1120.17 621.453L1121.23 623.619C1135.47 616.662 1146.61 606.838 1154.58 594.148L1152.54 592.865ZM1120.17 621.453L1119.11 619.287C1105.64 625.872 1089.95 629.202 1071.98 629.202V631.612V634.023C1090.55 634.023 1106.99 630.58 1121.23 623.619L1120.17 621.453ZM1071.98 631.612V629.202H993.772V631.612V634.023H1071.98V631.612ZM1040.55 594.283V596.694H1070.09V594.283V591.872H1040.55V594.283ZM1070.09 594.283V596.694C1079.83 596.694 1088.4 594.907 1095.73 591.241L1094.66 589.085L1093.58 586.929C1087.05 590.194 1079.24 591.872 1070.09 591.872V594.283ZM1094.66 589.085L1095.75 591.232C1103.25 587.402 1109.11 581.883 1113.28 574.703L1111.2 573.492L1109.11 572.28C1105.41 578.646 1100.24 583.523 1093.56 586.938L1094.66 589.085ZM1111.2 573.492L1113.29 574.683C1117.47 567.327 1119.51 558.711 1119.51 548.92H1117.1H1114.69C1114.69 558.031 1112.8 565.795 1109.1 572.301L1111.2 573.492ZM1117.1 548.92H1119.51C1119.51 538.982 1117.47 530.353 1113.28 523.137L1111.2 524.349L1109.11 525.561C1112.79 531.891 1114.69 539.642 1114.69 548.92H1117.1ZM1111.2 524.349L1113.28 523.137C1109.1 515.949 1103.23 510.499 1095.72 506.826L1094.66 508.992L1093.6 511.158C1100.26 514.415 1105.41 519.203 1109.11 525.561L1111.2 524.349ZM1094.66 508.992L1095.77 506.855C1088.43 503.018 1079.84 501.147 1070.09 501.147V503.558V505.968C1079.23 505.968 1087.02 507.72 1093.54 511.128L1094.66 508.992ZM1070.09 503.558V501.147H1040.55V503.558V505.968H1070.09V503.558ZM1040.55 503.558H1038.14V594.283H1040.55H1042.96V503.558H1040.55ZM1188.97 631.612H1186.56V634.023H1188.97V631.612ZM1188.97 466.228V463.817H1186.56V466.228H1188.97ZM1303.55 473.552L1302.57 475.751L1302.58 475.757L1303.55 473.552ZM1329.07 494.816L1327.04 496.121L1327.05 496.129L1327.05 496.137L1329.07 494.816ZM1329.07 559.788L1331.08 561.126L1331.08 561.118L1331.09 561.11L1329.07 559.788ZM1303.55 580.58L1304.52 582.79L1304.52 582.787L1304.53 582.784L1303.55 580.58ZM1214.96 587.667L1213.3 585.914L1208.89 590.078H1214.96V587.667ZM1235.75 568.058H1238.16V562.47L1234.09 566.304L1235.75 568.058ZM1235.75 631.612V634.023H1238.16V631.612H1235.75ZM1291.27 631.612L1289.28 632.971L1289.99 634.023H1291.27V631.612ZM1250.16 571.365V568.954H1245.59L1248.17 572.724L1250.16 571.365ZM1300.01 571.365L1302 570.001L1301.28 568.954H1300.01V571.365ZM1341.36 631.612V634.023H1345.93L1343.34 630.248L1341.36 631.612ZM1235.75 573.019L1234.01 574.695L1238.16 578.98V573.019H1235.75ZM1214.96 551.519V549.108H1209.27L1213.22 553.195L1214.96 551.519ZM1283.47 545.14L1281.89 543.322L1281.87 543.335L1281.86 543.348L1283.47 545.14ZM1283.47 509.464L1281.86 511.256L1281.87 511.269L1281.89 511.282L1283.47 509.464ZM1214.96 503.085L1213.22 501.409L1209.27 505.496H1214.96V503.085ZM1235.75 481.585H1238.16V475.624L1234.01 479.909L1235.75 481.585ZM1188.97 631.612H1191.38V466.228H1188.97H1186.56V631.612H1188.97ZM1188.97 466.228V468.639H1264.57V466.228V463.817H1188.97V466.228ZM1264.57 466.228V468.639C1279.44 468.639 1292.08 471.04 1302.57 475.751L1303.55 473.552L1304.54 471.353C1293.29 466.298 1279.94 463.817 1264.57 463.817V466.228ZM1303.55 473.552L1302.58 475.757C1313.21 480.467 1321.34 487.26 1327.04 496.121L1329.07 494.816L1331.1 493.51C1324.83 483.786 1315.95 476.403 1304.53 471.348L1303.55 473.552ZM1329.07 494.816L1327.05 496.137C1332.74 504.822 1335.64 515.215 1335.64 527.42H1338.05H1340.46C1340.46 514.424 1337.37 503.08 1331.09 493.495L1329.07 494.816ZM1338.05 527.42H1335.64C1335.64 539.461 1332.75 549.777 1327.05 558.467L1329.07 559.788L1331.09 561.11C1337.36 551.529 1340.46 540.266 1340.46 527.42H1338.05ZM1329.07 559.788L1327.06 558.451C1321.36 567.004 1313.24 573.655 1302.58 578.375L1303.55 580.58L1304.53 582.784C1315.92 577.738 1324.81 570.528 1331.08 561.126L1329.07 559.788ZM1303.55 580.58L1302.59 578.369C1292.1 582.931 1279.45 585.257 1264.57 585.257V587.667V590.078C1279.93 590.078 1293.27 587.679 1304.52 582.79L1303.55 580.58ZM1264.57 587.667V585.257H1214.96V587.667V590.078H1264.57V587.667ZM1214.96 587.667L1216.61 589.421L1237.4 569.811L1235.75 568.058L1234.09 566.304L1213.3 585.914L1214.96 587.667ZM1235.75 568.058H1233.34V631.612H1235.75H1238.16V568.058H1235.75ZM1235.75 631.612V629.202H1188.97V631.612V634.023H1235.75V631.612ZM1291.27 631.612L1293.26 630.254L1252.15 570.006L1250.16 571.365L1248.17 572.724L1289.28 632.971L1291.27 631.612ZM1250.16 571.365V573.776H1300.01V571.365V568.954H1250.16V571.365ZM1300.01 571.365L1298.02 572.729L1339.37 632.977L1341.36 631.612L1343.34 630.248L1302 570.001L1300.01 571.365ZM1341.36 631.612V629.202H1291.27V631.612V634.023H1341.36V631.612ZM1235.75 573.019L1237.48 571.343L1216.69 549.843L1214.96 551.519L1213.22 553.195L1234.01 574.695L1235.75 573.019ZM1214.96 551.519V553.93H1261.74V551.519V549.108H1214.96V551.519ZM1261.74 551.519V553.93C1271.79 553.93 1279.73 551.75 1285.08 546.932L1283.47 545.14L1281.86 543.348C1277.76 547.036 1271.21 549.108 1261.74 549.108V551.519ZM1283.47 545.14L1285.06 546.958C1290.55 542.169 1293.21 535.549 1293.21 527.42H1290.8H1288.39C1288.39 534.413 1286.16 539.606 1281.89 543.322L1283.47 545.14ZM1290.8 527.42H1293.21C1293.21 519.152 1290.57 512.445 1285.06 507.646L1283.47 509.464L1281.89 511.282C1286.14 514.989 1288.39 520.253 1288.39 527.42H1290.8ZM1283.47 509.464L1285.08 507.672C1279.73 502.854 1271.79 500.674 1261.74 500.674V503.085V505.496C1271.21 505.496 1277.76 507.568 1281.86 511.256L1283.47 509.464ZM1261.74 503.085V500.674H1214.96V503.085V505.496H1261.74V503.085ZM1214.96 503.085L1216.69 504.761L1237.48 483.261L1235.75 481.585L1234.01 479.909L1213.22 501.409L1214.96 503.085ZM1235.75 481.585H1233.34V573.019H1235.75H1238.16V481.585H1235.75ZM1344.01 631.612L1341.81 630.639L1340.31 634.023H1344.01V631.612ZM1417.02 466.228V463.817H1415.45L1414.81 465.254L1417.02 466.228ZM1463.09 466.228L1465.29 465.252L1464.66 463.817H1463.09V466.228ZM1536.33 631.612V634.023H1540.03L1538.53 630.636L1536.33 631.612ZM1487.66 631.612L1485.42 632.51L1486.03 634.023H1487.66V631.612ZM1430.48 489.146V486.735H1426.92L1428.25 490.043L1430.48 489.146ZM1448.91 489.146L1451.15 490.043L1452.48 486.735H1448.91V489.146ZM1391.74 631.612V634.023H1393.37L1393.97 632.51L1391.74 631.612ZM1383.94 599.481L1381.66 598.686L1380.54 601.891H1383.94V599.481ZM1395.99 564.986V562.575H1394.28L1393.71 564.191L1395.99 564.986ZM1476.79 564.986L1479.07 564.191L1478.5 562.575H1476.79V564.986ZM1488.84 599.481V601.891H1492.24L1491.12 598.686L1488.84 599.481ZM1344.01 631.612L1346.22 632.586L1419.22 467.202L1417.02 466.228L1414.81 465.254L1341.81 630.639L1344.01 631.612ZM1417.02 466.228V468.639H1463.09V466.228V463.817H1417.02V466.228ZM1463.09 466.228L1460.88 467.204L1534.12 632.589L1536.33 631.612L1538.53 630.636L1465.29 465.252L1463.09 466.228ZM1536.33 631.612V629.202H1487.66V631.612V634.023H1536.33V631.612ZM1487.66 631.612L1489.9 630.715L1432.72 488.248L1430.48 489.146L1428.25 490.043L1485.42 632.51L1487.66 631.612ZM1430.48 489.146V491.556H1448.91V489.146V486.735H1430.48V489.146ZM1448.91 489.146L1446.67 488.248L1389.5 630.715L1391.74 631.612L1393.97 632.51L1451.15 490.043L1448.91 489.146ZM1391.74 631.612V629.202H1344.01V631.612V634.023H1391.74V631.612ZM1383.94 599.481L1386.22 600.276L1398.26 565.781L1395.99 564.986L1393.71 564.191L1381.66 598.686L1383.94 599.481ZM1395.99 564.986V567.397H1476.79V564.986V562.575H1395.99V564.986ZM1476.79 564.986L1474.51 565.781L1486.56 600.276L1488.84 599.481L1491.12 598.686L1479.07 564.191L1476.79 564.986ZM1488.84 599.481V597.07H1383.94V599.481V601.891H1488.84V599.481ZM1568.49 629.959L1567.85 632.281L1567.86 632.286L1567.88 632.29L1568.49 629.959ZM1538.01 616.728L1535.81 615.747L1534.99 617.588L1536.66 618.721L1538.01 616.728ZM1553.37 582.233L1554.67 580.201L1552.31 578.694L1551.17 581.253L1553.37 582.233ZM1578.89 594.047L1578.14 596.337L1578.16 596.345L1578.18 596.352L1578.89 594.047ZM1623.54 596.882L1624.19 599.203L1624.23 599.191L1624.28 599.178L1623.54 596.882ZM1632.05 592.156L1630.28 590.521L1630.27 590.527L1632.05 592.156ZM1629.68 576.091L1628.39 578.124V578.124L1629.68 576.091ZM1616.22 570.656L1616.82 568.322V568.322L1616.22 570.656ZM1597.79 566.404L1597.28 568.761L1597.3 568.763L1597.79 566.404ZM1577.71 560.97L1576.94 563.257L1576.95 563.259L1576.96 563.262L1577.71 560.97ZM1559.51 552.464L1558.19 554.479L1558.21 554.492L1558.23 554.505L1559.51 552.464ZM1546.05 538.525L1543.98 539.757L1543.98 539.769L1543.99 539.782L1546.05 538.525ZM1548.88 489.618L1546.89 488.254L1546.89 488.267L1546.88 488.281L1548.88 489.618ZM1573.45 470.244L1572.47 468.045V468.045L1573.45 470.244ZM1645.99 466.701L1645.42 469.044L1645.44 469.048L1645.46 469.053L1645.99 466.701ZM1674.1 477.332L1676.33 478.256L1677.14 476.302L1675.31 475.244L1674.1 477.332ZM1659.69 512.063L1658.54 514.184L1660.89 515.453L1661.92 512.987L1659.69 512.063ZM1636.3 502.613L1635.64 504.931L1635.66 504.937L1635.68 504.943L1636.3 502.613ZM1598.26 501.431L1599 503.727L1599.04 503.714L1599.08 503.7L1598.26 501.431ZM1589.76 506.629L1587.86 505.14V505.14L1589.76 506.629ZM1592.12 522.931L1590.78 524.937L1590.84 524.974L1590.89 525.007L1592.12 522.931ZM1605.59 528.129L1604.99 530.464L1605.02 530.474L1605.06 530.482L1605.59 528.129ZM1624.01 532.146L1623.51 534.503L1623.52 534.505L1624.01 532.146ZM1644.1 537.58L1643.33 539.867L1643.37 539.877L1643.4 539.887L1644.1 537.58ZM1662.53 546.085L1661.2 548.1L1661.22 548.113L1661.24 548.126L1662.53 546.085ZM1675.76 560.025L1673.66 561.215L1673.68 561.249L1673.7 561.282L1675.76 560.025ZM1672.68 608.222L1670.68 606.876L1670.68 606.885L1672.68 608.222ZM1648.35 627.596L1647.36 625.397L1647.35 625.402L1648.35 627.596ZM1607.71 634.92V632.509C1594.36 632.509 1581.5 630.88 1569.1 627.627L1568.49 629.959L1567.88 632.29C1580.69 635.653 1593.97 637.331 1607.71 637.331V634.92ZM1568.49 629.959L1569.14 627.636C1556.86 624.218 1546.97 619.9 1539.37 614.734L1538.01 616.728L1536.66 618.721C1544.81 624.266 1555.23 628.769 1567.85 632.281L1568.49 629.959ZM1538.01 616.728L1540.22 617.708L1555.57 583.214L1553.37 582.233L1551.17 581.253L1535.81 615.747L1538.01 616.728ZM1553.37 582.233L1552.07 584.266C1559.67 589.115 1568.36 593.134 1578.14 596.337L1578.89 594.047L1579.64 591.756C1570.19 588.659 1561.88 584.803 1554.67 580.201L1553.37 582.233ZM1578.89 594.047L1578.18 596.352C1588.16 599.41 1598.09 600.946 1607.95 600.946V598.536V596.125C1598.59 596.125 1589.15 594.668 1579.59 591.742L1578.89 594.047ZM1607.95 598.536V600.946C1614.51 600.946 1619.96 600.389 1624.19 599.203L1623.54 596.882L1622.89 594.56C1619.25 595.58 1614.3 596.125 1607.95 596.125V598.536ZM1623.54 596.882L1624.28 599.178C1628.39 597.86 1631.69 596.119 1633.82 593.786L1632.05 592.156L1630.27 590.527C1628.94 591.974 1626.57 593.383 1622.81 594.586L1623.54 596.882ZM1632.05 592.156L1633.82 593.792C1636.1 591.319 1637.29 588.379 1637.29 585.069H1634.88H1632.47C1632.47 587.114 1631.77 588.899 1630.28 590.521L1632.05 592.156ZM1634.88 585.069H1637.29C1637.29 580.382 1635.07 576.659 1630.98 574.057L1629.68 576.091L1628.39 578.124C1631.23 579.933 1632.47 582.194 1632.47 585.069H1634.88ZM1629.68 576.091L1630.98 574.057C1627.23 571.674 1622.49 569.78 1616.82 568.322L1616.22 570.656L1615.62 572.991C1620.97 574.368 1625.2 576.097 1628.39 578.124L1629.68 576.091ZM1616.22 570.656L1616.82 568.322C1611.26 566.893 1605.08 565.468 1598.28 564.044L1597.79 566.404L1597.3 568.763C1604.04 570.175 1610.15 571.585 1615.62 572.991L1616.22 570.656ZM1597.79 566.404L1598.29 564.046C1591.76 562.647 1585.15 560.858 1578.45 558.677L1577.71 560.97L1576.96 563.262C1583.81 565.492 1590.58 567.325 1597.28 568.761L1597.79 566.404ZM1577.71 560.97L1578.47 558.683C1572.02 556.534 1566.14 553.779 1560.8 550.423L1559.51 552.464L1558.23 554.505C1563.92 558.08 1570.16 560.995 1576.94 563.257L1577.71 560.97ZM1559.51 552.464L1560.84 550.449C1555.63 547.024 1551.39 542.637 1548.1 537.268L1546.05 538.525L1543.99 539.782C1547.64 545.753 1552.38 550.659 1558.19 554.479L1559.51 552.464ZM1546.05 538.525L1548.12 537.293C1544.93 531.934 1543.26 525.067 1543.26 516.552H1540.85H1538.44C1538.44 525.679 1540.23 533.46 1543.98 539.757L1546.05 538.525ZM1540.85 516.552H1543.26C1543.26 507.091 1545.8 498.581 1550.89 490.955L1548.88 489.618L1546.88 488.281C1541.25 496.721 1538.44 506.167 1538.44 516.552H1540.85ZM1548.88 489.618L1550.87 490.982C1556.08 483.388 1563.89 477.185 1574.44 472.444L1573.45 470.244L1572.47 468.045C1561.28 473.069 1552.71 479.783 1546.89 488.254L1548.88 489.618ZM1573.45 470.244L1574.44 472.444C1584.91 467.741 1598.09 465.331 1614.09 465.331V462.92V460.509C1597.64 460.509 1583.74 462.982 1572.47 468.045L1573.45 470.244ZM1614.09 462.92V465.331C1624.77 465.331 1635.21 466.569 1645.42 469.044L1645.99 466.701L1646.55 464.358C1635.97 461.792 1625.15 460.509 1614.09 460.509V462.92ZM1645.99 466.701L1645.46 469.053C1655.81 471.37 1664.95 474.833 1672.9 479.421L1674.1 477.332L1675.31 475.244C1666.88 470.381 1657.27 466.756 1646.51 464.348L1645.99 466.701ZM1674.1 477.332L1671.88 476.408L1657.46 511.139L1659.69 512.063L1661.92 512.987L1676.33 478.256L1674.1 477.332ZM1659.69 512.063L1660.84 509.942C1652.81 505.61 1644.84 502.384 1636.92 500.282L1636.3 502.613L1635.68 504.943C1643.2 506.936 1650.82 510.011 1658.54 514.184L1659.69 512.063ZM1636.3 502.613L1636.96 500.294C1629.05 498.034 1621.35 496.894 1613.85 496.894V499.305V501.716C1620.85 501.716 1628.11 502.781 1635.64 504.931L1636.3 502.613ZM1613.85 499.305V496.894C1607.25 496.894 1601.75 497.614 1597.44 499.163L1598.26 501.431L1599.08 503.7C1602.65 502.413 1607.54 501.716 1613.85 501.716V499.305ZM1598.26 501.431L1597.53 499.135C1593.34 500.476 1590 502.415 1587.86 505.14L1589.76 506.629L1591.65 508.119C1592.98 506.433 1595.31 504.907 1599 503.727L1598.26 501.431ZM1589.76 506.629L1587.86 505.14C1585.79 507.774 1584.75 510.821 1584.75 514.189H1587.16H1589.57C1589.57 511.888 1590.26 509.894 1591.65 508.119L1589.76 506.629ZM1587.16 514.189H1584.75C1584.75 518.707 1586.88 522.336 1590.78 524.937L1592.12 522.931L1593.46 520.925C1590.74 519.116 1589.57 516.918 1589.57 514.189H1587.16ZM1592.12 522.931L1590.89 525.007C1594.62 527.207 1599.34 529.011 1604.99 530.464L1605.59 528.129L1606.19 525.794C1600.81 524.412 1596.55 522.751 1593.35 520.856L1592.12 522.931ZM1605.59 528.129L1605.06 530.482C1610.74 531.744 1616.89 533.084 1623.51 534.503L1624.01 532.146L1624.52 529.788C1617.91 528.372 1611.77 527.034 1606.11 525.776L1605.59 528.129ZM1624.01 532.146L1623.52 534.505C1630.2 535.904 1636.81 537.691 1643.33 539.867L1644.1 537.58L1644.86 535.292C1638.16 533.058 1631.37 531.223 1624.51 529.786L1624.01 532.146ZM1644.1 537.58L1643.4 539.887C1649.97 541.873 1655.9 544.613 1661.2 548.1L1662.53 546.085L1663.85 544.07C1658.13 540.311 1651.77 537.382 1644.79 535.272L1644.1 537.58ZM1662.53 546.085L1661.24 548.126C1666.41 551.373 1670.54 555.723 1673.66 561.215L1675.76 560.025L1677.85 558.835C1674.35 552.671 1669.67 547.728 1663.81 544.044L1662.53 546.085ZM1675.76 560.025L1673.7 561.282C1676.87 566.475 1678.54 573.173 1678.54 581.525H1680.95H1683.36C1683.36 572.55 1681.57 564.915 1677.81 558.767L1675.76 560.025ZM1680.95 581.525H1678.54C1678.54 590.639 1675.94 599.072 1670.68 606.876L1672.68 608.222L1674.68 609.569C1680.46 600.992 1683.36 591.626 1683.36 581.525H1680.95ZM1672.68 608.222L1670.68 606.885C1665.63 614.461 1657.91 620.656 1647.36 625.397L1648.35 627.596L1649.34 629.795C1660.52 624.77 1669.03 618.049 1674.69 609.56L1672.68 608.222ZM1648.35 627.596L1647.35 625.402C1637.05 630.097 1623.87 632.509 1607.71 632.509V634.92V637.331C1624.31 637.331 1638.23 634.86 1649.35 629.79L1648.35 627.596Z" fill="white" mask="url(#path-3-outside-2_2326_11)"/>
<path d="M13.2598 13.2597H1634.56" stroke="white" stroke-width="26.5194" stroke-linecap="round"/>
<path d="M808.841 790.76H1636.97" stroke="white" stroke-width="26.5194" stroke-linecap="round"/>
</svg>
