<svg width="2393" height="949" viewBox="0 0 2393 949" fill="none" xmlns="http://www.w3.org/2000/svg">
<path d="M0.142283 930.859C0.142283 930.859 97.1022 901.284 160.643 888.381C197.336 880.93 255.193 872.478 255.193 872.478C255.193 872.478 306.881 765.242 328.736 513.215C350.41 263.277 320.394 25.7193 320.394 25.7193L218.64 25.7193C218.64 25.7193 267.056 247.17 236.143 495.381C199.04 793.284 0.142283 930.859 0.142283 930.859Z" fill="#1F2A44" stroke="#B6B6B6" stroke-width="0.5"/>
<path d="M738.557 414.378V250.682H812.922C830.695 250.682 846.363 254.111 859.927 260.971C873.49 267.675 884.092 277.107 891.731 289.267C899.37 301.428 903.19 315.848 903.19 332.53C903.19 349.056 899.37 363.476 891.731 375.793C884.092 387.953 873.49 397.463 859.927 404.323C846.363 411.027 830.695 414.378 812.922 414.378H738.557ZM776.441 383.276H811.052C821.965 383.276 831.397 381.249 839.348 377.196C847.455 372.986 853.691 367.062 858.056 359.423C862.577 351.784 864.838 342.819 864.838 332.53C864.838 322.085 862.577 313.12 858.056 305.637C853.691 297.998 847.455 292.151 839.348 288.098C831.397 283.889 821.965 281.784 811.052 281.784H776.441V383.276ZM931.76 414.378V250.682H969.644V414.378H931.76ZM986.978 414.378L1059.94 250.682H1097.36L1170.55 414.378H1130.8L1070.93 269.857H1085.9L1025.8 414.378H986.978ZM1023.46 379.301L1033.51 350.537H1117.7L1127.99 379.301H1023.46ZM1253.76 414.378V250.682H1328.13C1345.9 250.682 1361.57 254.111 1375.13 260.971C1388.7 267.675 1399.3 277.107 1406.94 289.267C1414.58 301.428 1418.4 315.848 1418.4 332.53C1418.4 349.056 1414.58 363.476 1406.94 375.793C1399.3 387.953 1388.7 397.463 1375.13 404.323C1361.57 411.027 1345.9 414.378 1328.13 414.378H1253.76ZM1291.65 383.276H1326.26C1337.17 383.276 1346.6 381.249 1354.55 377.196C1362.66 372.986 1368.9 367.062 1373.26 359.423C1377.78 351.784 1380.04 342.819 1380.04 332.53C1380.04 322.085 1377.78 313.12 1373.26 305.637C1368.9 297.998 1362.66 292.151 1354.55 288.098C1346.6 283.889 1337.17 281.784 1326.26 281.784H1291.65V383.276ZM1481.81 316.628H1560.62V346.093H1481.81V316.628ZM1484.62 383.978H1573.71V414.378H1446.97V250.682H1570.67V281.082H1484.62V383.978Z" fill="#2B2B2B"/>
<path d="M735.686 711.502V546.118H782.466V674.409H861.378V711.502H735.686ZM861.659 711.502L934.664 546.118H980.736L1053.98 711.502H1005.31L948.131 569.036H966.56L909.384 711.502H861.659ZM901.587 679.371L913.637 644.876H994.439L1006.49 679.371H901.587ZM1125.36 714.81C1111.81 714.81 1098.74 713.156 1086.14 709.849C1073.7 706.383 1063.54 701.973 1055.66 696.618L1071.02 662.123C1078.42 666.849 1086.93 670.786 1096.54 673.937C1106.3 676.929 1115.99 678.426 1125.6 678.426C1132.05 678.426 1137.25 677.874 1141.19 676.772C1145.13 675.512 1147.96 673.937 1149.7 672.046C1151.59 669.999 1152.53 667.636 1152.53 664.959C1152.53 661.178 1150.8 658.186 1147.33 655.981C1143.87 653.775 1139.38 651.964 1133.87 650.546C1128.35 649.129 1122.21 647.711 1115.44 646.294C1108.82 644.876 1102.13 643.065 1095.35 640.86C1088.74 638.655 1082.68 635.819 1077.16 632.354C1071.65 628.731 1067.16 624.085 1063.7 618.415C1060.23 612.587 1058.5 605.263 1058.5 596.442C1058.5 586.519 1061.18 577.541 1066.53 569.508C1072.04 561.475 1080.23 555.017 1091.1 550.134C1101.97 545.252 1115.52 542.81 1131.74 542.81C1142.61 542.81 1153.24 544.07 1163.63 546.59C1174.19 548.953 1183.56 552.497 1191.75 557.222L1177.34 591.953C1169.46 587.7 1161.67 584.55 1153.95 582.503C1146.23 580.297 1138.75 579.195 1131.5 579.195C1125.05 579.195 1119.85 579.904 1115.91 581.321C1111.97 582.581 1109.14 584.314 1107.4 586.519C1105.67 588.724 1104.81 591.244 1104.81 594.079C1104.81 597.702 1106.46 600.616 1109.77 602.821C1113.23 604.869 1117.72 606.601 1123.23 608.019C1128.9 609.279 1135.05 610.618 1141.66 612.035C1148.44 613.453 1155.13 615.264 1161.74 617.47C1168.52 619.517 1174.66 622.352 1180.17 625.975C1185.69 629.44 1190.1 634.087 1193.4 639.915C1196.87 645.585 1198.6 652.752 1198.6 661.415C1198.6 671.023 1195.85 679.922 1190.33 688.112C1184.98 696.145 1176.87 702.603 1166 707.486C1155.29 712.369 1141.74 714.81 1125.36 714.81ZM1288.97 711.502V546.118H1364.57C1379.69 546.118 1392.69 548.559 1403.56 553.442C1414.58 558.325 1423.09 565.413 1429.07 574.706C1435.06 583.841 1438.05 594.709 1438.05 607.31C1438.05 619.753 1435.06 630.543 1429.07 639.678C1423.09 648.814 1414.58 655.902 1403.56 660.942C1392.69 665.825 1379.69 668.266 1364.57 668.266H1314.96L1335.75 647.948V711.502H1288.97ZM1335.75 652.909L1314.96 631.409H1361.74C1371.5 631.409 1378.75 629.283 1383.47 625.03C1388.36 620.777 1390.8 614.871 1390.8 607.31C1390.8 599.592 1388.36 593.607 1383.47 589.354C1378.75 585.101 1371.5 582.975 1361.74 582.975H1314.96L1335.75 561.475V652.909ZM1460.86 711.502V546.118H1507.64V711.502H1460.86ZM1583.92 610.145H1660.71V645.112H1583.92V610.145ZM1587.23 675.354H1673.7V711.502H1540.92V546.118H1670.63V582.266H1587.23V675.354ZM1699.66 711.502V546.118H1777.86C1796.13 546.118 1812.2 549.504 1826.06 556.277C1839.92 563.05 1850.71 572.579 1858.43 584.865C1866.3 597.151 1870.24 611.799 1870.24 628.81C1870.24 645.664 1866.3 660.312 1858.43 672.755C1850.71 685.041 1839.92 694.57 1826.06 701.343C1812.2 708.116 1796.13 711.502 1777.86 711.502H1699.66ZM1746.44 674.173H1775.97C1785.42 674.173 1793.61 672.44 1800.54 668.975C1807.63 665.352 1813.15 660.154 1817.08 653.382C1821.02 646.451 1822.99 638.261 1822.99 628.81C1822.99 619.202 1821.02 611.012 1817.08 604.239C1813.15 597.466 1807.63 592.347 1800.54 588.882C1793.61 585.259 1785.42 583.448 1775.97 583.448H1746.44V674.173ZM1894.85 711.502V546.118H1970.46C1985.58 546.118 1998.57 548.559 2009.44 553.442C2020.47 558.325 2028.97 565.413 2034.96 574.706C2040.94 583.841 2043.94 594.709 2043.94 607.31C2043.94 619.753 2040.94 630.543 2034.96 639.678C2028.97 648.656 2020.47 655.587 2009.44 660.47C1998.57 665.195 1985.58 667.557 1970.46 667.557H1920.84L1941.63 647.948V711.502H1894.85ZM1997.16 711.502L1956.05 651.255H2005.9L2047.24 711.502H1997.16ZM1941.63 652.909L1920.84 631.409H1967.62C1977.39 631.409 1984.63 629.283 1989.36 625.03C1994.24 620.777 1996.68 614.871 1996.68 607.31C1996.68 599.592 1994.24 593.607 1989.36 589.354C1984.63 585.101 1977.39 582.975 1967.62 582.975H1920.84L1941.63 561.475V652.909ZM2049.9 711.502L2122.9 546.118H2168.98L2242.22 711.502H2193.55L2136.37 569.036H2154.8L2097.62 711.502H2049.9ZM2089.83 679.371L2101.88 644.876H2182.68L2194.73 679.371H2089.83ZM2313.6 714.81C2300.05 714.81 2286.98 713.156 2274.38 709.849C2261.94 706.383 2251.78 701.973 2243.9 696.618L2259.26 662.123C2266.66 666.849 2275.17 670.786 2284.78 673.937C2294.54 676.929 2304.23 678.426 2313.84 678.426C2320.29 678.426 2325.49 677.874 2329.43 676.772C2333.37 675.512 2336.2 673.937 2337.93 672.046C2339.83 669.999 2340.77 667.636 2340.77 664.959C2340.77 661.178 2339.04 658.186 2335.57 655.981C2332.11 653.775 2327.62 651.964 2322.11 650.546C2316.59 649.129 2310.45 647.711 2303.68 646.294C2297.06 644.876 2290.37 643.065 2283.59 640.86C2276.98 638.655 2270.91 635.819 2265.4 632.354C2259.89 628.731 2255.4 624.085 2251.94 618.415C2248.47 612.587 2246.74 605.263 2246.74 596.442C2246.74 586.519 2249.41 577.541 2254.77 569.508C2260.28 561.475 2268.47 555.017 2279.34 550.134C2290.21 545.252 2303.76 542.81 2319.98 542.81C2330.85 542.81 2341.48 544.07 2351.87 546.59C2362.43 548.953 2371.8 552.497 2379.99 557.222L2365.58 591.953C2357.7 587.7 2349.91 584.55 2342.19 582.503C2334.47 580.297 2326.99 579.195 2319.74 579.195C2313.28 579.195 2308.09 579.904 2304.15 581.321C2300.21 582.581 2297.38 584.314 2295.64 586.519C2293.91 588.724 2293.04 591.244 2293.04 594.079C2293.04 597.702 2294.7 600.616 2298.01 602.821C2301.47 604.869 2305.96 606.601 2311.47 608.019C2317.14 609.279 2323.29 610.618 2329.9 612.035C2336.67 613.453 2343.37 615.264 2349.98 617.47C2356.76 619.517 2362.9 622.352 2368.41 625.975C2373.93 629.44 2378.34 634.087 2381.64 639.915C2385.11 645.585 2386.84 652.752 2386.84 661.415C2386.84 671.023 2384.09 679.922 2378.57 688.112C2373.22 696.145 2365.11 702.603 2354.24 707.486C2343.53 712.369 2329.98 714.81 2313.6 714.81Z" fill="#1F2A44"/>
<path d="M719.147 93.1497H2340.45" stroke="#2B2B2B" stroke-width="26.5194" stroke-linecap="round"/>
<path d="M1514.73 870.65H2342.86" stroke="#2B2B2B" stroke-width="26.5194" stroke-linecap="round"/>
<path d="M165.147 931.15C165.147 931.15 232.761 896.515 279.143 882.881C318.621 871.276 382.647 863.15 382.647 863.15C382.647 863.15 414.571 747.517 421.897 494.65C429.164 243.879 321.147 26.1497 321.147 26.1497H218.147C218.147 26.1497 315.237 255.072 298.647 504.65C278.737 804.194 165.147 931.15 165.147 931.15Z" fill="#E6E6E6" stroke="#B6B6B6" stroke-width="0.5"/>
<path d="M319.054 931.475C319.054 931.475 380.139 897.04 422.778 884.315C462.12 872.574 526.501 867.156 526.501 867.156C526.501 867.156 526.501 745.881 475.643 487.884C403.986 124.381 320.347 25.9385 320.347 25.9385L218.135 25.6483C218.135 25.6483 361.505 258.881 361.505 487.884C361.505 788.089 319.054 931.475 319.054 931.475Z" fill="#D94D4D" stroke="#B6B6B6" stroke-width="0.5"/>
</svg>
