<svg width="857" height="459" viewBox="0 0 857 459" fill="none" xmlns="http://www.w3.org/2000/svg">
<path fill-rule="evenodd" clip-rule="evenodd" d="M696.5 0.0016782C698.15 -0.0383218 702.2 0.641678 705.5 1.51168C708.8 2.38168 713.3 4.14168 715.5 5.43168C717.7 6.72168 721.32 9.72168 723.54 12.1117C725.76 14.4917 728.69 18.6917 730.04 21.4417C732.16 25.7417 732.5 27.8417 732.5 36.4417C732.5 45.1117 732.16 47.1717 729.91 51.9417C728.49 54.9717 725.28 59.4717 722.77 61.9417C720.26 64.4117 716.25 67.4417 713.86 68.6717C711.46 69.8917 706.91 71.4617 703.74 72.1717C699.16 73.1817 696.59 73.1917 691.24 72.2317C685.98 71.2917 684.25 71.2917 683.37 72.2317C682.75 72.9017 678.02 81.6617 672.87 91.7217C667.72 101.772 663.73 110.122 664 110.282C664.27 110.442 666.95 112.342 669.94 114.502C672.93 116.672 677.62 121.142 680.36 124.442C683.09 127.742 686.82 133.592 688.64 137.442C690.46 141.292 692.69 147.372 693.59 150.942C694.84 155.862 695.12 160.242 694.74 168.942C694.38 177.212 693.65 182.052 690 191.942L693.25 193.822C695.04 194.862 703.92 199.412 729.5 212.152L734 207.362C736.8 204.372 740.96 201.422 745 199.552C750.55 196.982 752.68 196.542 759.5 196.562C765.27 196.582 769.03 197.192 773 198.752C776.02 199.932 780.91 203.052 783.86 205.672C787.433 208.852 790.267 212.602 792.36 216.922C795.17 222.722 795.5 224.352 795.5 232.422C795.5 239.982 795.09 242.332 792.95 246.942C791.55 249.962 788.4 254.652 785.95 257.342C783.25 260.322 779.15 263.362 775.5 265.092C772.2 266.662 769.05 267.922 768.5 267.912C767.95 267.892 761.27 277.232 739.8 309.442L765.73 347.942C779.99 369.122 791.96 387.002 792.33 387.692C792.81 388.592 791.89 388.942 785 388.942L745.81 331.192C724.26 299.432 702.43 267.252 688 245.942L691.7 246.192C695.31 246.432 695.64 246.812 704.26 260.442C709.12 268.142 713.42 274.812 713.8 275.262C714.19 275.722 717.82 270.772 729.27 252.442L726.45 246.442C724.01 241.252 723.65 239.362 723.81 232.442C723.91 228.042 724.1 223.192 724.24 221.662C724.49 219.012 723.64 218.442 686.5 199.112L682.5 204.662C680.3 207.722 676.81 211.732 674.75 213.582C672.69 215.432 668.19 218.762 664.75 220.992C661.31 223.212 654.9 226.222 650.5 227.662C643.75 229.882 640.62 230.302 630.5 230.362C620.48 230.432 617.35 230.062 611.5 228.112C607.65 226.842 601.8 224.302 598.5 222.482C595.2 220.662 589.83 216.762 586.57 213.812C583.32 210.862 578.57 205.292 576.03 201.442C573.49 197.592 571.09 193.202 570.7 191.692C570.31 190.162 569.44 189.112 568.75 189.322C568.06 189.532 560.41 191.892 536 199.442L535.97 207.442C535.96 213.732 535.41 216.732 533.42 221.442C532.02 224.742 530.68 227.892 530.43 228.442C530.15 229.062 531.97 229.312 535.24 229.092C538.13 228.892 544.77 229.282 550 229.952C555.23 230.622 562.87 232.272 567 233.632C571.12 234.982 576.98 237.412 580 239.032C583.02 240.652 588.61 244.322 592.42 247.202C596.22 250.082 601.77 255.372 604.74 258.942C607.71 262.512 612.1 269.492 614.51 274.442C616.91 279.392 619.67 286.372 620.65 289.942C621.94 294.692 622.42 300.222 622.43 310.442C622.44 320.542 621.96 326.252 620.72 330.942C619.77 334.512 617.01 341.492 614.58 346.442C612.15 351.392 607.54 358.562 604.33 362.372C601.12 366.182 595.35 371.712 591.5 374.662C587.65 377.612 581.35 381.592 577.5 383.492C573.65 385.402 567.35 387.872 563.5 388.972C559.65 390.072 552.45 391.402 547.5 391.922C541.85 392.522 535.15 392.522 529.5 391.932C524.55 391.412 517.8 390.292 514.5 389.442C511.2 388.582 504.67 386.072 500 383.842C495.33 381.622 489.25 378.102 486.5 376.022C483.75 373.952 479.31 370.042 476.64 367.352C473.96 364.652 469.94 359.742 467.7 356.442C465.46 353.142 462.4 347.742 460.91 344.442C459.42 341.142 457.47 335.742 456.58 332.442C455.69 329.142 454.67 321.942 454.32 316.442C453.92 310.112 454.15 303.502 454.95 298.442C455.65 294.042 457.43 287.072 458.92 282.942C460.41 278.822 463.81 272.072 466.47 267.942C469.13 263.822 473.82 257.822 476.9 254.632C479.98 251.432 484.21 247.602 486.29 246.132C488.37 244.652 490.05 243.212 490.02 242.942C489.99 242.672 487.61 241.442 484.73 240.212C481.85 238.992 477.32 235.842 474.66 233.212C472 230.592 468.63 225.962 467.16 222.942C464.82 218.102 464.5 216.242 464.51 207.442C464.52 198.212 464.76 196.982 467.64 191.442C469.36 188.142 472.95 183.442 475.63 180.992C478.31 178.542 482.3 175.752 484.5 174.782C486.7 173.812 490.98 172.522 494 171.932C498 171.142 501.27 171.152 506 171.982C509.58 172.602 514.69 174.312 517.37 175.772C520.05 177.242 524.1 180.472 526.37 182.942C528.65 185.412 531.18 188.452 533.5 191.922L567.02 181.442L566.26 176.442C565.84 173.692 565.56 168.072 565.63 163.942C565.7 159.822 566.5 153.512 567.42 149.942C568.33 146.372 570.74 140.072 572.76 135.942C575.47 130.412 578.54 126.322 584.47 120.362C590.77 114.032 594.34 111.382 601 108.102C605.67 105.792 612.87 103.192 617 102.322C622.18 101.232 627.44 100.902 634 101.242C639.78 101.542 646.05 102.582 650 103.882C653.58 105.062 656.77 105.672 657.11 105.232C657.44 104.802 662 96.1217 676.78 67.4417L671.85 62.4417C669.13 59.6917 665.69 54.9717 664.21 51.9417C661.81 47.0717 661.5 45.2917 661.5 36.4417C661.5 28.4917 661.92 25.5217 663.55 21.9417C664.68 19.4717 667.6 15.2517 670.05 12.5717C672.5 9.90168 676.3 6.66168 678.5 5.37168C680.7 4.09168 684.98 2.37168 688 1.55168C691.02 0.741678 694.85 0.0416782 696.5 0.0016782V0.0016782ZM38 152.952C39.93 152.972 43.41 153.872 45.75 154.962C48.92 156.442 50.5 158.022 51.98 161.192C53.14 163.692 53.97 167.602 54 175.942H41V170.942C41 167.802 40.53 165.802 39.75 165.582C39.06 165.372 37.71 165.602 36.75 166.082C35.17 166.852 35 168.902 34.96 186.692C34.92 201.592 35.23 206.752 36.21 207.692C36.92 208.382 38.18 208.732 39 208.462C39.82 208.192 40.84 206.502 41.26 204.712C41.68 202.912 42.02 199.532 42.01 197.192C42 193.612 41.68 192.942 40 192.942C38.24 192.942 38 192.272 38 181.942H54V219.942H51.5C49.82 219.942 48.59 219.112 47.75 217.402C46.74 215.342 46.36 215.152 45.75 216.402C45.34 217.252 43.43 218.622 41.5 219.442C39.57 220.272 36.87 220.942 35.5 220.942C34.12 220.942 31.34 220.152 29.31 219.192C26.66 217.932 25.04 216.172 23.57 212.942C21.69 208.842 21.51 206.512 21.5 186.942C21.5 167.442 21.69 165.072 23.5 161.442C24.91 158.632 26.84 156.772 30 155.182C32.47 153.942 36.07 152.942 38 152.952V152.952ZM186.5 153.422C189.25 153.722 192.85 154.772 194.5 155.752C196.15 156.742 198.14 158.872 198.92 160.492C199.7 162.112 200.6 165.582 201.5 172.962L188 172.942L187.75 169.692C187.54 166.962 187.1 166.442 185 166.442C183.15 166.442 182.44 167.022 182.25 168.692C182.07 170.322 184.19 173.232 189.88 179.192C194.21 183.732 198.6 189.022 199.62 190.942C200.95 193.462 201.47 196.542 201.46 201.942C201.46 207.512 200.93 210.472 199.41 213.442C198.19 215.822 195.98 218.152 193.93 219.192C192.04 220.152 188.48 220.932 186 220.922C183.52 220.912 179.59 220.012 177.25 218.922C174.57 217.672 172.39 215.742 171.35 213.692C170.3 211.612 169.67 207.752 169.5 195.442L182 194.942V199.942C182 202.692 182.45 205.842 183 206.942C183.55 208.042 184.68 208.942 185.5 208.942C186.32 208.942 187.45 208.042 188 206.942C188.55 205.842 188.7 203.252 188.33 201.192C187.83 198.372 185.85 195.522 180.33 189.692C176.3 185.432 172.04 179.802 170.87 177.192C169.31 173.712 168.88 171.242 169.26 167.942C169.54 165.472 170.5 161.982 171.39 160.192C172.4 158.152 174.58 156.182 177.25 154.902C180.49 153.352 182.69 153.002 186.5 153.422V153.422ZM327 153.292C329.48 153.532 332.96 154.442 334.75 155.332C336.82 156.362 338.72 158.482 339.98 161.192C341.07 163.532 341.97 167.132 342 172.942H329L328.75 169.692C328.54 166.962 328.1 166.442 326 166.442C324.15 166.442 323.44 167.022 323.25 168.692C323.07 170.322 325.19 173.232 330.88 179.192C335.21 183.732 339.6 189.022 340.62 190.942C341.97 193.482 342.46 196.492 342.43 201.942C342.39 207.472 341.84 210.492 340.33 213.442C339.02 215.992 336.97 218.072 334.64 219.192C332.64 220.152 329.09 220.932 326.75 220.922C324.41 220.912 320.59 220.012 318.25 218.922C315.57 217.672 313.39 215.742 312.35 213.692C311.3 211.612 310.67 207.752 310.5 195.442L323 194.942V199.942C323 202.692 323.45 205.842 324 206.942C324.55 208.042 325.68 208.942 326.5 208.942C327.32 208.942 328.45 208.042 329 206.942C329.55 205.842 329.7 203.252 329.33 201.192C328.83 198.372 326.85 195.522 321.33 189.692C317.3 185.432 313.04 179.802 311.87 177.192C310.31 173.712 309.88 171.242 310.26 167.942C310.54 165.472 311.5 161.982 312.39 160.192C313.4 158.152 315.58 156.182 318.25 154.902C321.24 153.472 323.83 152.992 327 153.292ZM101.11 153.942H123.5L126.34 184.692C127.91 201.602 129.37 216.452 129.59 217.692C129.98 219.832 129.69 219.942 123.5 219.942C117.08 219.942 117 219.912 116.99 217.192C116.98 215.682 116.75 213.432 116.49 212.192C116.08 210.312 115.34 209.942 108 209.942L107.5 219.442L101.25 219.692C95.04 219.942 95 219.922 95 217.192C95 215.682 96.12 202.742 97.49 188.442C98.85 174.142 100.23 160.532 100.54 158.192L101.11 153.942ZM243 153.942H270L269.5 166.442L256 166.942L256.5 179.442L269 179.942V191.942L256.5 192.442L256 206.942H270V219.942H243V153.942ZM3.02 231.922L128.5 232.442V270.442L46 270.942V296.942L120.5 297.442L121 332.942L46.5 333.442L46 388.942H3L3.02 231.922ZM274.51 232.442L275.01 268.942L191.51 269.442L191.01 292.942H267.01L266.51 327.442L191.01 327.942V351.942L275.51 352.442L276.01 388.942H148.01L147.84 311.102C147.75 268.292 148.05 232.972 148.51 232.592C148.98 232.222 177.51 232.042 274.51 232.442ZM298.2 231.752L342.85 232.202C384.42 232.622 388.08 232.802 395.76 234.792C400.29 235.972 406.82 238.352 410.26 240.082C413.69 241.812 419.35 245.982 422.84 249.332C426.96 253.312 430.14 257.532 431.98 261.442C433.53 264.742 435.29 269.802 435.9 272.692C436.51 275.572 437.01 281.652 437.01 286.192C437.01 290.722 436.31 297.142 435.45 300.442C434.59 303.742 432.45 309.092 430.69 312.342C428.85 315.762 424.92 320.622 421.39 323.842C418.02 326.922 412.96 330.672 405.01 334.942L413.14 346.692C417.61 353.152 425.94 365.302 442.01 388.942H392.01L360.51 341.872L341.01 341.942V388.942H298.01L298.2 231.752ZM681.93 319.662C682.25 319.922 687.73 327.862 705.71 354.432L683.51 388.922L659.26 388.932C638.62 388.932 635.12 388.722 635.76 387.512C636.17 386.732 646.6 371.042 658.93 352.642C671.27 334.232 681.62 319.392 681.93 319.662V319.662ZM834.01 368.002C837.2 367.992 841.18 368.742 843.51 369.782C845.71 370.772 849.19 373.582 851.24 376.012C853.41 378.572 855.43 382.332 856.04 384.932C856.65 387.482 856.79 391.392 856.37 393.932C855.96 396.412 854.25 400.442 852.57 402.892C850.62 405.732 847.7 408.272 844.53 409.892C840.86 411.772 838.12 412.412 834.03 412.342C830.65 412.282 826.95 411.462 824.51 410.232C822.31 409.132 819.16 406.632 817.51 404.692C815.86 402.752 813.95 399.422 813.27 397.302C812.59 395.172 812.04 391.632 812.03 389.432C812.03 387.232 813.08 383.182 814.37 380.432C815.67 377.682 817.57 374.672 818.61 373.732C819.65 372.802 822.31 371.132 824.51 370.022C827.04 368.752 830.52 368.012 834.01 368.002V368.002Z" fill="#1DA4D6"/>
<path d="M695.3 338.942C661.08 288.612 633.32 247.102 633.61 246.672C633.9 246.252 646.3 246.032 688.23 246.442L813.5 430.842L857 430.942V458.942H0V430.942L757.52 430.442L695.3 338.942Z" fill="#C9D6DF"/>
<path d="M109.46 195.192C109.71 193.132 110.21 186.832 110.56 181.192C110.91 175.552 111.59 170.942 112.06 170.942C112.54 170.942 113.17 174.092 113.46 177.942C113.76 181.792 114.34 188.102 115.5 198.962L112.25 198.952C109.08 198.942 109.01 198.852 109.46 195.192Z" fill="white"/>
<path d="M520.5 272.542C523.25 271.142 528.2 269.632 531.5 269.182C534.8 268.732 539.75 268.552 542.5 268.782C545.25 269.012 549.98 270.132 553 271.262C556.02 272.402 560.75 275.172 563.5 277.432C566.25 279.692 569.98 283.992 571.79 286.992C573.59 289.992 575.82 294.922 576.74 297.942C577.71 301.152 578.4 306.782 578.38 311.442C578.37 316.962 577.68 321.452 576.18 325.942C574.97 329.512 572.31 334.672 570.25 337.392C568.19 340.112 564.7 343.732 562.5 345.442C560.3 347.142 555.91 349.532 552.75 350.742C548.56 352.342 544.83 352.942 539 352.942C533.51 352.942 529.2 352.302 525.25 350.912C522.09 349.792 517.48 347.282 515 345.332C512.52 343.372 508.78 339.452 506.68 336.612C504.58 333.772 501.98 328.512 500.91 324.942C499.67 320.812 498.96 315.522 498.97 310.442C498.98 306.042 499.7 299.962 500.58 296.942C501.46 293.922 503.46 289.422 505.04 286.942C506.61 284.462 509.61 280.782 511.7 278.762C513.79 276.732 517.75 273.932 520.5 272.542Z" fill="white"/>
<path d="M341.32 289.982C341.22 280.372 341.36 271.902 341.63 271.152C342.02 270.042 345.62 269.842 360.31 270.112C377.38 270.422 378.8 270.592 383.45 272.942C386.17 274.322 389.24 276.572 390.27 277.942C391.3 279.322 392.47 282.242 392.87 284.442C393.27 286.642 393.21 290.462 392.74 292.942C392.27 295.422 391.09 298.572 390.1 299.942C389.12 301.322 386.11 303.562 383.41 304.932C378.7 307.332 377.74 307.432 341.5 307.442L341.32 289.982Z" fill="white"/>
</svg>
