<svg width="233" height="235" viewBox="0 0 233 235" fill="none" xmlns="http://www.w3.org/2000/svg">
<path d="M116.5 189.997L61.8131 231.849C59.1034 234.071 56.1473 235.118 52.9449 234.989C49.7426 234.871 46.9097 233.948 44.4463 232.219C41.9829 230.491 40.0763 228.145 38.7264 225.182C37.3666 222.219 37.3025 219.009 38.5342 215.553L59.596 147.035L6.01767 108.887C3.06162 106.912 1.21409 104.32 0.475079 101.11C-0.263933 97.8999 -0.140763 94.937 0.844586 92.221C1.82994 89.505 3.5543 87.0951 6.01767 84.9915C8.48104 82.8977 11.4371 81.8508 14.8858 81.8508H81.0274L102.459 10.7406C103.69 7.28385 105.602 4.6271 108.193 2.77034C110.775 0.923449 113.544 0 116.5 0C119.456 0 122.225 0.923449 124.807 2.77034C127.398 4.6271 129.31 7.28385 130.541 10.7406L151.973 81.8508H218.114C221.563 81.8508 224.519 82.8977 226.982 84.9915C229.446 87.0951 231.17 89.505 232.155 92.221C233.141 94.937 233.264 97.8999 232.525 101.11C231.786 104.32 229.938 106.912 226.982 108.887L173.404 147.035L194.466 215.553C195.697 219.009 195.638 222.219 194.288 225.182C192.929 228.145 191.017 230.491 188.554 232.219C186.09 233.948 183.257 234.871 180.055 234.989C176.853 235.118 173.897 234.071 171.187 231.849L116.5 189.997Z" fill="#1F2A44"/>
</svg>
