<svg width="713" height="382" viewBox="0 0 713 382" fill="none" xmlns="http://www.w3.org/2000/svg">
<path d="M578.47 281.99C550 240.117 526.904 205.582 527.146 205.224C527.387 204.875 537.703 204.692 572.588 205.033L676.809 358.449L713 358.532V381.827H0V358.532L630.235 358.116L578.47 281.99Z" fill="#C9D6DF"/>
<path d="M693.873 306.168C696.527 306.16 699.839 306.783 701.777 307.648C703.608 308.472 706.503 310.81 708.208 312.832C710.013 314.962 711.694 318.09 712.201 320.253C712.709 322.374 712.825 325.627 712.476 327.74C712.134 329.804 710.712 333.157 709.314 335.195C707.692 337.558 705.263 339.671 702.626 341.019C699.573 342.583 697.292 343.116 693.89 343.058C691.078 343.008 688 342.325 685.97 341.302C684.139 340.387 681.518 338.306 680.146 336.692C678.773 335.078 677.184 332.308 676.618 330.544C676.052 328.772 675.595 325.827 675.587 323.997C675.587 322.167 676.46 318.797 677.533 316.509C678.615 314.221 680.195 311.717 681.061 310.935C681.926 310.161 684.139 308.771 685.97 307.848C688.075 306.791 690.97 306.176 693.873 306.168ZM579.469 0.00195312C580.841 -0.0313069 584.211 0.534059 586.956 1.25781C589.702 1.98163 593.446 3.44629 595.276 4.51953C597.107 5.59283 600.118 8.08883 601.965 10.0771C603.812 12.0571 606.25 15.5509 607.373 17.8389C609.137 21.4163 609.42 23.1644 609.42 30.3193C609.42 37.5321 609.137 39.2464 607.265 43.2148C606.083 45.7357 603.412 49.4793 601.324 51.5342C599.236 53.5891 595.9 56.1104 593.912 57.1338C591.915 58.1488 588.13 59.4542 585.492 60.0449C581.682 60.8852 579.544 60.8934 575.093 60.0947C570.717 59.3128 569.277 59.3129 568.545 60.0947C568.029 60.6521 564.094 67.9409 559.81 76.3105C555.525 84.6718 552.205 91.6188 552.43 91.752C552.655 91.8859 554.884 93.4662 557.371 95.2627C559.859 97.0681 563.761 100.787 566.041 103.532C568.312 106.278 571.415 111.145 572.93 114.348C574.444 117.551 576.299 122.61 577.048 125.58C578.088 129.673 578.321 133.318 578.005 140.556C577.705 147.436 577.097 151.462 574.061 159.69L576.765 161.255C578.254 162.12 585.642 165.906 606.924 176.505L610.668 172.52C612.997 170.032 616.458 167.577 619.819 166.021C624.437 163.883 626.209 163.518 631.883 163.534C636.683 163.551 639.811 164.059 643.114 165.356C645.627 166.338 649.695 168.934 652.149 171.113C655.122 173.759 657.48 176.88 659.222 180.474C661.559 185.299 661.834 186.655 661.834 193.369C661.834 199.659 661.493 201.614 659.713 205.449C658.548 207.962 655.927 211.864 653.889 214.102C651.642 216.581 648.231 219.11 645.194 220.549C642.45 221.855 639.83 222.903 639.371 222.896C638.914 222.879 633.356 230.649 615.493 257.447L637.066 289.479C648.928 307.096 658.885 321.97 659.196 322.549C659.596 323.298 658.831 323.589 653.099 323.589L620.493 275.543C602.564 249.12 584.402 222.347 572.396 204.617L575.476 204.825C578.479 205.025 578.753 205.341 585.925 216.681C589.968 223.087 593.545 228.636 593.861 229.011C594.186 229.393 597.206 225.274 606.732 210.024L604.387 205.033C602.357 200.715 602.056 199.143 602.189 193.386C602.273 189.725 602.431 185.69 602.548 184.417C602.756 182.212 602.048 181.738 571.149 165.656L567.821 170.273C565.991 172.819 563.087 176.155 561.373 177.694C559.659 179.233 555.916 182.004 553.054 183.859C550.192 185.706 544.859 188.21 541.198 189.408C535.582 191.255 532.978 191.605 524.559 191.655C516.222 191.714 513.618 191.406 508.751 189.783C505.548 188.727 500.681 186.613 497.936 185.099C495.19 183.584 490.722 180.34 488.01 177.886C485.306 175.431 481.354 170.798 479.241 167.595C477.128 164.392 475.131 160.739 474.807 159.482C474.482 158.21 473.759 157.336 473.185 157.511C472.611 157.685 466.246 159.649 445.938 165.931L445.912 172.586C445.904 177.819 445.447 180.315 443.791 184.233C442.626 186.979 441.511 189.6 441.303 190.058C441.07 190.573 442.585 190.782 445.305 190.599C447.709 190.432 453.234 190.756 457.585 191.313C461.936 191.871 468.293 193.244 471.729 194.375C475.156 195.498 480.031 197.52 482.544 198.868C485.056 200.216 489.707 203.269 492.877 205.665C496.038 208.061 500.656 212.462 503.127 215.433C505.598 218.403 509.25 224.21 511.255 228.328C513.252 232.446 515.548 238.253 516.363 241.224C517.437 245.176 517.836 249.777 517.845 258.279C517.853 266.682 517.453 271.433 516.422 275.335C515.631 278.305 513.335 284.112 511.313 288.23C509.292 292.349 505.457 298.314 502.786 301.483C500.116 304.653 495.314 309.254 492.111 311.708C488.908 314.162 483.667 317.474 480.464 319.055C477.261 320.644 472.019 322.699 468.816 323.614C465.613 324.529 459.623 325.636 455.505 326.068C450.804 326.568 445.23 326.567 440.529 326.076C436.411 325.644 430.795 324.712 428.05 324.005C425.304 323.289 419.872 321.201 415.986 319.346C412.101 317.499 407.043 314.57 404.755 312.84C402.467 311.118 398.773 307.865 396.552 305.627C394.322 303.381 390.977 299.295 389.113 296.55C387.25 293.804 384.704 289.312 383.465 286.566C382.225 283.821 380.603 279.329 379.862 276.583C379.122 273.838 378.273 267.847 377.981 263.271C377.649 258.005 377.84 252.506 378.506 248.296C379.088 244.635 380.569 238.836 381.809 235.4C383.048 231.973 385.877 226.357 388.09 222.921C390.303 219.493 394.205 214.501 396.768 211.847C399.33 209.184 402.85 205.998 404.58 204.775C406.311 203.544 407.708 202.346 407.683 202.121C407.657 201.896 405.678 200.873 403.282 199.85C400.886 198.835 397.117 196.214 394.904 194.026C392.691 191.847 389.887 187.994 388.664 185.481C386.717 181.455 386.452 179.907 386.46 172.586C386.468 164.907 386.667 163.883 389.063 159.274C390.494 156.529 393.481 152.618 395.711 150.58C397.941 148.542 401.261 146.221 403.091 145.414C404.921 144.607 408.482 143.534 410.994 143.043C414.322 142.386 417.043 142.394 420.978 143.084C423.956 143.6 428.208 145.023 430.438 146.237C432.667 147.46 436.036 150.148 437.925 152.203C439.822 154.258 441.927 156.787 443.857 159.674L471.745 150.955L471.112 146.795C470.763 144.507 470.531 139.831 470.589 136.396C470.647 132.968 471.313 127.718 472.078 124.748C472.835 121.778 474.84 116.537 476.521 113.101C478.775 108.5 481.329 105.096 486.263 100.138C491.504 94.8714 494.475 92.6673 500.016 89.9385C503.901 88.0166 509.891 85.8527 513.327 85.1289C517.637 84.2221 522.013 83.9476 527.471 84.2305C532.279 84.4801 537.496 85.3452 540.782 86.4268C543.761 87.4085 546.414 87.9159 546.697 87.5498C546.974 87.1887 550.769 79.9651 563.062 56.1104L558.961 51.9502C556.698 49.6624 553.836 45.7357 552.604 43.2148C550.608 39.1632 550.35 37.6819 550.35 30.3193C550.35 23.7052 550.7 21.2333 552.056 18.2549C552.996 16.1999 555.425 12.6895 557.463 10.46C559.501 8.23864 562.663 5.54301 564.493 4.46973C566.323 3.40485 569.884 1.97327 572.396 1.29102C574.909 0.617118 578.096 0.035232 579.469 0.00195312ZM106.908 193.386V225L38.2705 225.416V247.048L100.253 247.464L100.669 276.999L38.6865 277.415L38.2705 323.589H2.49609L2.5127 192.953L106.908 193.386ZM123.557 193.51C123.963 193.202 147.711 193.053 228.385 193.386L228.801 223.752L159.331 224.168L158.915 243.72H222.146L221.729 272.423L158.915 272.839V292.806L229.217 293.222L229.633 323.589H123.141L122.999 258.828C122.924 223.211 123.174 193.826 123.557 193.51ZM285.242 193.186C319.827 193.535 322.872 193.685 329.262 195.341C333.031 196.323 338.463 198.302 341.325 199.741C344.179 201.181 348.887 204.65 351.791 207.438C355.219 210.749 357.865 214.26 359.396 217.513C360.685 220.258 362.15 224.468 362.657 226.872C363.165 229.268 363.58 234.326 363.58 238.104C363.58 241.872 362.998 247.214 362.282 249.96C361.567 252.706 359.786 257.157 358.322 259.86C356.791 262.706 353.522 266.749 350.585 269.428C347.781 271.99 343.571 275.11 336.957 278.662L343.721 288.438C347.44 293.813 354.37 303.921 367.74 323.589H326.142L299.935 284.428L283.711 284.486V323.589H247.937L248.095 192.812L285.242 193.186ZM567.347 265.95C567.613 266.167 572.172 272.772 587.131 294.878L568.661 323.572L548.486 323.581C531.315 323.581 528.402 323.406 528.935 322.399C529.276 321.75 537.954 308.697 548.212 293.389C558.478 278.073 567.088 265.726 567.347 265.95ZM451.345 223.619C449.057 223.428 444.938 223.578 442.192 223.952C439.447 224.327 435.329 225.582 433.041 226.747C430.753 227.903 427.459 230.233 425.72 231.922C423.981 233.602 421.485 236.664 420.179 238.728C418.864 240.791 417.2 244.535 416.468 247.048C415.736 249.561 415.137 254.619 415.129 258.279C415.121 262.506 415.712 266.907 416.743 270.343C417.633 273.313 419.796 277.689 421.543 280.052C423.29 282.414 426.402 285.676 428.465 287.307C430.528 288.929 434.364 291.017 436.993 291.949C440.279 293.106 443.865 293.638 448.433 293.638C453.283 293.638 456.386 293.139 459.872 291.808C462.501 290.801 466.153 288.813 467.983 287.398C469.814 285.976 472.718 282.964 474.432 280.701C476.146 278.438 478.359 274.145 479.365 271.175C480.613 267.439 481.187 263.704 481.195 259.111C481.212 255.234 480.638 250.551 479.831 247.88C479.066 245.367 477.21 241.265 475.713 238.77C474.207 236.274 471.103 232.696 468.815 230.815C466.527 228.935 462.592 226.631 460.08 225.683C457.568 224.743 453.633 223.811 451.345 223.619ZM299.768 224.726C287.547 224.501 284.552 224.668 284.227 225.591C284.002 226.215 283.886 233.262 283.969 241.257L284.118 255.783C314.269 255.775 315.068 255.692 318.986 253.695C321.232 252.556 323.736 250.692 324.552 249.544C325.375 248.404 326.357 245.783 326.748 243.72C327.139 241.656 327.189 238.478 326.856 236.647C326.524 234.817 325.55 232.388 324.693 231.24C323.836 230.1 321.282 228.228 319.02 227.08C315.151 225.125 313.969 224.983 299.768 224.726Z" fill="#1DA4D6"/>
</svg>
