<svg width="612" height="336" viewBox="0 0 612 336" fill="none" xmlns="http://www.w3.org/2000/svg">
<path d="M612 336C426.432 336 0 336 0 336C0 150.432 120.432 0 306 0C491.568 0 612 150.432 612 336Z" fill="#FC011D"/>
<path d="M274.884 95.6778C274.714 94.742 281.541 87.0853 290.049 78.663C298.535 70.2194 306.085 63.3496 306.808 63.3709C307.531 63.4134 315.103 70.8361 323.632 79.854C332.16 88.8931 339.115 96.2733 339.051 96.2733C339.009 96.2733 324.61 96.5072 307.064 96.805C289.517 97.1028 275.033 96.5923 274.884 95.6778Z" fill="#F7E38D"/>
<path d="M214.354 119.137C216.013 113.586 218.906 103.526 220.777 96.805C222.67 90.0842 225.265 84.5756 226.52 84.5756C227.796 84.5756 238.068 87.2767 269.844 96.6349L261.336 101.909C256.657 104.823 244.215 112.118 233.687 118.159C223.159 124.178 213.822 129.133 212.95 129.176C212.078 129.218 212.695 124.688 214.354 119.137Z" fill="#F7E38D"/>
<path d="M342.157 96.6774L362.362 90.8498C373.485 87.6383 383.907 85.1711 385.566 85.3413C387.48 85.5327 390.755 93.5297 394.605 107.439C400.007 126.921 400.241 129.112 396.923 128.027C394.881 127.368 381.716 120.03 342.157 96.6774Z" fill="#F7E38D"/>
<path d="M258.146 125.496C264.59 122.391 275.118 118.69 281.541 117.308C287.986 115.925 298.024 114.692 303.873 114.564C309.722 114.437 320.25 115.351 327.269 116.627C334.287 117.882 346.729 122.115 354.918 126.007C363.531 130.09 374.846 137.853 381.737 144.446C388.309 150.699 396.476 160.143 399.922 165.396C403.346 170.649 407.323 177.838 408.77 181.347C410.216 184.857 411.13 187.877 410.811 188.068C410.471 188.281 404.963 184.389 398.518 179.476C392.095 174.541 381.078 168.331 374.059 165.651C367.041 162.993 356.045 159.824 349.601 158.611C343.177 157.399 331.203 156.974 323.015 157.654C314.827 158.314 302.874 160.674 296.429 162.886C290.006 165.098 281.392 168.608 277.288 170.692C273.204 172.776 265.547 178.157 250.702 190.727L225.711 190.833C207.059 190.897 200.742 190.238 200.785 188.26C200.827 186.792 203.677 180.348 207.123 173.903C210.568 167.459 218.438 156.952 224.627 150.508C230.816 144.064 238.26 137.088 241.152 135.003C244.066 132.898 251.723 128.623 258.146 125.496Z" fill="#F7E38D"/>
<path d="M165.755 144.127C166.542 143.532 174.965 140.98 184.472 138.427C194 135.897 203.465 133.748 205.506 133.642C208.782 133.514 208.548 134.706 203.677 143.596C200.636 149.147 194.723 159.441 190.555 166.459C186.386 173.478 181.686 181.369 180.154 184.006C178.602 186.643 176.9 188.557 176.39 188.26C175.858 187.962 172.944 178.157 169.903 166.459C166.861 154.762 164.99 144.723 165.755 144.127Z" fill="#F7E38D"/>
<path d="M433.781 186.665C432.25 184.899 424.721 172.223 417.064 158.484C409.386 144.744 404.239 133.514 405.601 133.514C406.962 133.536 416.703 135.96 427.231 138.895C437.759 141.852 446.649 144.468 446.968 144.723C447.308 144.978 446.053 151.401 444.182 159.015C442.331 166.63 439.843 176.668 438.673 181.347C436.865 188.642 436.163 189.408 433.781 186.665Z" fill="#F7E38D"/>
<path d="M306 295.134C184.769 295.134 122.027 294.411 122.027 293.007C122.027 291.603 184.769 290.88 306 290.88C427.231 290.88 489.973 291.603 489.973 293.007C489.973 294.411 427.231 295.134 306 295.134Z" fill="#F7E38D"/>
<path fill-rule="evenodd" clip-rule="evenodd" d="M192.213 218.695C196.381 218.674 201.315 220.29 203.442 222.353C206.505 225.289 207.229 229.457 207.165 243.558C207.122 255.744 207.909 261.381 209.76 261.998C211.227 262.487 210.27 262.976 207.633 263.061C204.995 263.147 202.38 262.274 201.784 261.104C201.125 259.807 198.848 260.233 195.934 262.189C193.297 263.955 189.001 265.379 186.364 265.379C183.727 265.358 179.665 264.401 177.325 263.231C174.489 261.814 173.071 258.977 173.071 254.724C173.071 251.214 174.518 246.897 176.261 245.153C178.027 243.409 182.557 241.409 186.364 240.75C190.171 240.069 194.956 239.113 196.998 238.624C199.316 238.05 200.72 235.688 200.72 232.392C200.72 229.01 198.678 225.713 195.127 223.353C189.81 219.801 189.256 219.801 183.428 223.353C180.069 225.394 177.156 226.16 176.964 225.055C176.772 223.949 178.431 222.055 180.685 220.864C182.94 219.673 188.129 218.695 192.213 218.695ZM476.467 218.567C483.272 218.567 485.719 219.418 485.719 221.758C485.718 223.502 485.25 224.948 484.655 224.948C484.081 224.948 481.677 223.757 479.338 222.289C476.169 220.311 474.106 220.227 471.362 221.971C469.32 223.268 467.406 226.373 467.108 228.883C466.683 232.456 468.661 234.37 476.147 237.709C481.422 240.048 486.548 243.643 487.548 245.685C488.568 247.726 488.802 251.703 488.079 254.511C487.377 257.318 484.868 260.913 482.528 262.508C480.189 264.082 474.68 265.379 470.299 265.379C465.322 265.358 461.727 264.146 460.727 262.146C459.855 260.381 459.835 258.233 460.707 257.361C461.579 256.489 463.982 257.446 466.023 259.445C468.086 261.466 471.447 263.146 473.489 263.167C475.531 263.209 478.615 261.083 480.316 258.446C482.372 255.256 482.755 252.597 481.465 250.47C480.38 248.726 475.403 245.366 470.384 243.026C462.961 239.56 461.153 237.581 460.664 232.392C460.302 228.606 461.514 224.501 463.62 222.289C465.959 219.864 470.426 218.567 476.467 218.567ZM247.128 218.567C253.976 218.567 256.763 219.673 259.23 223.353C261.485 226.713 262.42 233.668 262.42 246.748C262.398 261.87 261.803 265.358 259.209 265.358C256.678 265.358 256.018 262.21 255.997 249.938C255.976 241.452 254.742 232.136 253.274 229.201C251.743 226.16 248.361 223.586 245.342 223.161C242.428 222.778 238.386 223.97 236.344 225.82C233.665 228.266 232.177 234.264 231.028 247.301C230.114 257.786 228.539 265.103 227.305 264.678C226.114 264.272 224.903 253.915 224.584 241.261C224.009 219.652 224.179 218.567 228.305 218.567C230.666 218.567 232.155 219.525 231.559 220.694C230.985 221.864 231.453 223.289 232.623 223.885C233.793 224.48 235.537 223.502 236.494 221.758C237.621 219.716 241.407 218.567 247.128 218.567ZM365.552 218.567C368.188 218.568 368.741 222.588 368.741 241.963C368.741 261.337 368.188 265.358 365.552 265.358C362.914 265.358 362.361 261.338 362.361 241.963C362.361 222.587 362.914 218.567 365.552 218.567ZM390.01 207.934C393.136 207.934 394.263 209.358 394.263 213.25C394.263 217.27 395.434 218.631 403.835 219.142L399.049 219.929C394.498 220.652 394.263 221.631 394.263 239.836C394.263 258.552 394.392 259.041 405.962 265.187L398.517 265.337C392.605 265.443 390.52 264.379 388.415 260.104C386.947 257.148 385.757 247.067 385.757 237.709C385.757 225.607 384.99 220.652 383.097 220.524C380.971 220.397 380.971 220.184 383.097 219.461C384.565 218.972 385.757 216.185 385.757 213.25C385.757 209.358 386.883 207.934 390.01 207.934ZM430.42 218.695C434.588 218.674 439.523 220.29 441.65 222.353C444.67 225.246 445.436 229.415 445.372 242.494C445.329 256.297 445.904 259.19 449.03 260.317C452.22 261.466 452.306 261.891 449.562 263.401C447.627 264.486 444.691 264.039 442.118 262.316C438.545 259.913 437.183 259.935 433.61 262.444C431.271 264.082 426.975 265.379 424.04 265.337C421.126 265.294 417.021 263.593 414.936 261.572C412.852 259.573 411.172 255.766 411.215 253.129C411.257 250.492 412.725 246.897 414.469 245.153C416.212 243.409 420.764 241.409 424.571 240.75C428.378 240.069 433.164 239.113 435.206 238.624C437.524 238.05 438.927 235.688 438.927 232.392C438.927 229.01 436.885 225.713 433.334 223.353C428.017 219.801 427.464 219.801 421.636 223.353C418.276 225.394 415.363 226.16 415.171 225.055C414.979 223.949 416.638 222.055 418.892 220.864C421.147 219.673 426.315 218.695 430.42 218.695ZM282.774 220.801C285.029 219.588 291.132 218.822 296.385 219.12C304.127 219.524 306.404 220.631 308.573 224.948C310.04 227.884 311.273 237.199 311.295 245.685C311.316 256.234 312.125 261.104 313.869 261.104C315.506 261.105 315.697 261.891 314.4 263.316C313.018 264.826 310.55 264.677 306.51 262.784C301.81 260.594 300.129 260.573 298.109 262.699C296.705 264.167 292.664 265.336 289.091 265.294C285.518 265.273 280.902 263.593 278.818 261.572C276.734 259.573 275.054 255.766 275.096 253.129C275.139 250.492 276.606 246.897 278.35 245.153C280.116 243.409 284.646 241.409 288.453 240.75C292.26 240.069 297.045 239.113 299.087 238.624C301.568 238.014 302.858 235.568 302.958 231.286C303.064 226.267 301.894 224.395 297.64 222.778C293.621 221.247 290.473 221.545 285.795 223.885C282.286 225.629 279.245 226.16 279.052 225.055C278.861 223.949 280.52 222.034 282.774 220.801ZM146.315 218.567C151.675 218.567 157.503 219.035 159.247 219.631C161.012 220.226 162.437 222.141 162.437 223.885C162.437 225.628 161.969 227.074 161.374 227.075C160.8 227.075 158.885 225.629 157.12 223.885C155.376 222.141 151.782 220.652 149.144 220.631C146.507 220.588 141.977 222.353 139.042 224.544C136.128 226.756 133.044 231.328 132.215 234.731C131.406 238.113 131.64 244.494 132.746 248.875C134.298 254.958 136.596 257.722 142.402 260.572C149.633 264.124 150.292 264.124 156.226 260.572C160.352 258.105 162.189 257.752 161.735 259.51C161.352 260.977 157.779 263.018 153.76 264.061C149.761 265.103 143.848 265.358 140.636 264.593C137.425 263.848 132.406 260.849 129.47 257.914C125.132 253.575 124.175 250.619 124.324 241.793C124.452 232.924 125.557 229.882 130.534 224.777C135.489 219.694 138.361 218.567 146.315 218.567ZM346.941 218.546C348.409 218.567 349.599 220.014 349.599 221.758C349.599 223.736 347.601 224.948 344.283 224.948C341.093 224.948 338.115 226.649 336.839 229.201C335.669 231.541 334.712 240.644 334.712 249.406C334.712 263.401 334.244 265.294 330.99 264.805C327.8 264.315 327.183 261.423 326.736 244.217C326.438 233.222 326.651 222.929 327.204 221.396C327.757 219.844 329.693 218.567 331.479 218.567C333.244 218.568 334.712 220.014 334.712 221.758C334.712 224.586 335.243 224.586 339.497 221.736C342.134 219.971 345.474 218.546 346.941 218.546ZM434.675 242.516C432.931 242.218 429.315 243.196 426.657 244.685C424.02 246.173 421.382 249.045 420.807 251.065C420.254 253.065 420.978 256.212 422.445 257.999C423.913 259.807 426.551 261.274 428.295 261.274C430.039 261.253 432.973 259.53 434.802 257.446C436.632 255.362 438.078 251.278 437.993 248.364C437.929 245.408 436.461 242.835 434.675 242.516ZM300.151 242.261C298.683 242.41 295.493 242.962 293.026 243.473C290.58 243.962 287.454 246.238 286.114 248.492C284.434 251.321 284.328 253.916 285.796 256.851C286.965 259.19 289.773 261.104 292.027 261.104C294.281 261.104 297.62 259.658 299.47 257.914C301.3 256.17 302.81 251.852 302.81 248.343C302.81 244.493 301.746 242.069 300.151 242.261ZM196.999 242.218C196.126 242.345 193.489 242.92 191.15 243.494C188.811 244.068 185.663 245.643 184.153 246.982C182.622 248.322 181.431 251.555 181.495 254.192C181.559 257.552 183.153 259.297 186.896 260.041C189.831 260.637 193.702 259.913 195.489 258.445C197.297 256.978 198.743 252.682 198.679 248.875C198.637 245.068 197.871 242.069 196.999 242.218ZM361.319 199.83C362.17 198.32 364.339 197.363 366.168 197.703C367.975 198.065 369.763 199.553 370.167 201.02C370.55 202.488 369.4 204.402 367.593 205.274C365.806 206.146 363.318 205.913 362.063 204.743C360.808 203.573 360.468 201.361 361.319 199.83Z" fill="#F5EEF2"/>
</svg>
