<svg width="1399" height="766" viewBox="0 0 1399 766" fill="none" xmlns="http://www.w3.org/2000/svg">
<path fill-rule="evenodd" clip-rule="evenodd" d="M277.187 42.1599C497.307 42.2299 549.317 42.4899 543.687 43.4799C539.837 44.1599 534.547 45.6799 531.937 46.8599C529.327 48.0399 525.727 48.9899 523.937 48.9799C522.147 48.9599 519.107 49.5999 517.187 50.3899C515.267 51.1899 511.777 53.2199 509.437 54.9199C507.097 56.6099 504.397 57.9999 503.437 57.9999C502.477 57.9999 498.537 58.8499 494.687 59.8999C490.837 60.9499 483.637 62.5999 478.687 63.5699C473.737 64.5499 467.437 65.6599 464.687 66.0599C461.937 66.4499 456.307 67.5399 452.187 68.4799C448.057 69.4199 441.757 70.2099 438.187 70.2399C433.327 70.2699 428.847 71.2499 420.437 74.1399C412.717 76.7899 407.227 79.4199 402.937 82.5099C399.497 84.9999 396.237 87.0099 395.687 86.9799C395.137 86.9499 392.477 88.8599 389.767 91.2199C387.067 93.5699 383.387 96.3999 381.597 97.4999C379.817 98.5999 375.947 101.13 373.017 103.13C370.087 105.13 366.117 107.28 364.187 107.91C362.257 108.54 359.947 109.61 359.057 110.28C358.157 110.95 357.287 112.63 357.117 114C356.947 115.38 357.097 117.4 357.447 118.5C357.787 119.6 359.667 121.29 361.627 122.25C363.587 123.21 365.747 124.01 366.437 124.03C367.127 124.05 366.787 124.73 365.687 125.55C363.887 126.89 364.907 127.03 376.187 126.99C387.887 126.95 388.827 127.09 390.957 129.22C393.077 131.36 393.127 131.69 391.737 134.5C390.597 136.81 390.537 137.67 391.477 138.23C392.137 138.64 395.167 139 398.187 139.03C401.637 139.06 404.987 139.8 407.187 141C410.647 142.9 408.827 142.92 68.5267 142.5L63.6867 139.5C59.5767 136.95 56.5767 133.16 43.7667 114.3C35.4767 102.1 23.7367 85.0699 17.6867 76.4799C11.6367 67.8799 5.22672 58.5199 3.43672 55.6699C1.65672 52.8299 0.116722 49.0599 0.0167216 47.2999C-0.103278 45.0399 0.416722 43.7999 1.76672 43.0799C3.05672 42.3899 93.1467 42.0899 277.187 42.1599V42.1599ZM1223.94 42.0299C1234.53 42.0099 1243.19 42.1099 1243.2 42.2499C1243.2 42.3899 1239.9 48.7999 1235.85 56.4999C1231.81 64.1999 1221.75 83.0999 1213.5 98.4999C1205.26 113.9 1196.53 130.22 1189.69 143.04L1175.19 142.9C1167.22 142.83 1161.36 142.59 1162.19 142.37C1163.02 142.15 1164.14 141.12 1164.69 140.08C1165.24 139.04 1166.44 136.69 1167.36 134.85C1168.28 133.01 1169.97 129.47 1171.12 127C1172.28 124.53 1174.8 119.57 1176.72 116C1178.64 112.43 1182.3 104.78 1184.85 98.9999C1187.4 93.2199 1193.25 80.7399 1197.84 71.2499C1202.43 61.7599 1206.19 53.0999 1206.19 51.9999C1206.19 50.6999 1206.61 50.2599 1207.37 50.7499C1208.21 51.2799 1208.36 50.9099 1207.87 49.4999C1207.39 48.1099 1207.8 47.0499 1209.2 45.9999C1210.3 45.1699 1211.21 44.1599 1211.2 43.7499C1211.19 43.3399 1210.52 43.2199 1209.69 43.4999C1208.86 43.7799 1207.4 43.5599 1206.44 43.0299C1205.26 42.3799 1210.96 42.0499 1223.94 42.0299V42.0299ZM1293.29 42.1199C1295.16 42.1799 1295.9 42.3999 1294.94 42.6199C1293.98 42.8299 1293.19 43.8999 1293.19 44.9999C1293.19 46.0999 1293.64 46.9999 1294.19 46.9999C1294.74 46.9999 1295.19 47.7899 1295.19 48.7499C1295.2 49.7099 1296.57 53.8799 1298.26 57.9999C1299.94 62.1299 1301.95 66.1799 1302.73 66.9999C1303.5 67.8199 1304.15 68.8399 1304.16 69.2499C1304.18 69.6599 1305.39 72.5899 1306.86 75.7499C1308.33 78.9099 1309.9 81.6099 1310.36 81.7499C1310.82 81.8899 1311.2 82.7899 1311.2 83.7499C1311.21 84.7099 1314.76 92.6999 1319.08 101.5C1323.41 110.3 1328.04 119.75 1329.38 122.5C1330.72 125.25 1333.7 130.99 1336.01 135.25C1338.31 139.51 1339.74 143 1339.19 143C1338.64 143 1328.33 123.09 1316.28 98.7499C1304.23 74.4099 1293.62 52.4699 1292.71 49.9999C1291.8 47.5299 1290.79 44.7099 1290.47 43.7499C1289.98 42.2999 1290.47 42.0199 1293.29 42.1199V42.1199ZM1265.19 134.04C1265.47 134.05 1269.29 136.02 1273.69 138.41C1278.36 140.94 1281.17 143.01 1280.44 143.38C1279.75 143.72 1271.77 143.89 1262.69 143.75C1253.62 143.61 1246.19 143.16 1246.19 142.75C1246.19 142.34 1246.75 141.81 1247.44 141.57C1248.13 141.33 1252.29 139.53 1256.69 137.58C1261.09 135.62 1264.91 134.03 1265.19 134.04ZM247.847 219.5L251.517 222.25C253.537 223.76 255.697 226.01 256.317 227.25C256.947 228.49 258.717 235.8 260.257 243.5C261.797 251.2 265.307 269.2 268.067 283.5C270.817 297.8 276.717 329.52 281.177 354C285.627 378.48 290.827 406.82 292.727 417C294.627 427.18 296.187 438.31 296.187 441.75C296.187 445.25 296.627 448 297.187 448C297.737 448 299.057 442.94 300.117 436.75C301.187 430.56 302.347 423.25 302.707 420.5C303.057 417.75 305.327 404.02 307.747 390C310.167 375.98 313.477 356.85 315.107 347.5C316.727 338.15 320.117 318.57 322.627 304C325.147 289.43 328.327 270.98 329.707 263C331.087 255.02 333.137 243.77 334.267 238C335.387 232.23 336.957 226.49 337.747 225.25C338.537 224.01 341.217 222.1 343.687 221C348.087 219.04 350.067 219.01 434.937 219.25C509.787 219.47 522.077 219.71 524.517 221C526.067 221.82 528.097 223.63 529.017 225C530.567 227.32 530.707 246.32 530.977 485.5C531.177 656.14 530.937 744.69 530.267 747C529.617 749.26 528.107 751.21 525.977 752.5C522.777 754.44 520.927 754.5 459.357 754.5C397.167 754.5 395.997 754.46 394.587 752.5C393.367 750.79 393.157 735.79 393.167 650C393.177 594.73 392.877 528.12 391.827 454.5L389.987 467.5C388.977 474.65 387.037 487.48 385.667 496C384.297 504.52 379.817 534.9 375.707 563.5C371.607 592.1 366.637 626.3 364.687 639.5C362.727 652.7 360.687 666.42 360.147 670C359.607 673.58 357.807 686.4 356.157 698.5C354.497 710.6 352.477 724.66 351.667 729.75C350.857 734.84 349.707 741.14 349.127 743.75C348.547 746.36 347.077 749.52 345.877 750.76C344.647 752.04 341.497 753.48 338.687 754.06C335.677 754.68 320.767 754.97 301.187 754.79C270.717 754.52 268.487 754.37 265.437 752.5C263.657 751.4 261.537 749.15 260.737 747.5C259.927 745.85 257.917 736.17 256.267 726C254.607 715.83 250.787 692.2 247.757 673.5C244.737 654.8 240.907 630.73 239.227 620C237.557 609.27 234.837 592.63 233.187 583C231.527 573.38 228.377 554.25 226.177 540.5C223.977 526.75 221.737 512.58 221.197 509C220.667 505.42 218.857 493.95 217.177 483.5C215.507 473.05 213.727 463.6 213.227 462.5C212.687 461.3 212.297 517.26 212.257 603.25C212.197 715.27 211.917 746.56 210.937 748.62C210.247 750.06 208.337 751.97 206.687 752.87C204.047 754.3 198.377 754.51 159.687 754.57C135.487 754.61 106.157 754.38 94.5167 754.07C73.6467 753.51 73.3067 753.46 68.1367 748.5L68.1567 488.75C68.1767 317.98 68.5267 228.14 69.1867 226.5C69.7367 225.13 71.4167 223.21 72.9067 222.25C74.4067 221.29 77.4467 220.21 79.6567 219.86C81.8767 219.51 120.627 219.29 247.847 219.5V219.5ZM670.187 219.04C743.297 219.07 757.077 219.29 759.187 220.5C761.517 221.83 761.167 221.93 753.937 221.96C749.117 221.99 746.377 222.38 746.687 223C747.017 223.66 736.517 224 716.187 224C695.857 224 685.357 224.34 685.687 225C686.007 225.63 697.687 226 749.187 226L748.747 228.25C748.487 229.61 748.937 230.9 749.897 231.5C750.877 232.12 751.237 233.17 750.837 234.25C750.237 235.86 747.917 236 721.687 236C703.527 236 690.477 236.45 685.727 237.25C681.627 237.94 678.367 238.61 678.477 238.75C678.597 238.89 681.617 239.46 685.187 240.02C688.767 240.58 703.617 241.03 718.187 241.03C732.767 241.03 745.367 241.42 746.187 241.91C747.457 242.65 747.377 242.94 745.687 243.8C744.587 244.35 741.437 245.13 738.687 245.53C735.937 245.93 733.237 246.57 732.687 246.95C732.137 247.34 729.777 248.18 727.437 248.82C725.097 249.47 721.947 249.7 720.437 249.33C718.927 248.96 716.337 247.84 714.687 246.83C713.037 245.83 710.897 245.01 709.937 245C708.977 245 708.147 244.44 708.107 243.75C708.047 242.75 707.947 242.75 707.607 243.75C707.377 244.44 705.727 244.99 703.937 244.99C702.147 244.98 699.137 245.32 697.247 245.74C695.157 246.2 691.927 248.36 688.997 251.25C686.357 253.86 681.827 257.94 678.937 260.32C675.487 263.16 671.157 265.47 666.297 267.07C660.257 269.05 658.327 270.23 655.797 273.47C654.087 275.65 650.667 279.61 648.187 282.27C645.347 285.33 642.397 287.43 640.187 287.98C638.267 288.46 631.967 289.67 626.207 290.67C617.197 292.24 615.297 292.92 612.667 295.5C610.987 297.15 608.857 299.4 607.937 300.5C607.017 301.6 605.337 306.1 604.207 310.5C603.077 314.9 601.927 321.43 601.657 325C601.387 328.57 600.487 344.1 599.667 359.5C598.607 379.15 598.087 412.84 597.927 472.5C597.767 527.73 597.337 557.76 596.687 558.23C596.02 558.723 596.02 558.977 596.687 558.99C597.317 559 597.647 565.36 597.587 576.25C597.527 585.74 598.047 598.45 598.727 604.5C599.417 610.55 600.037 621.58 600.117 629C600.187 636.42 600.507 643.62 600.827 645C601.147 646.37 602.657 650.42 604.197 654C605.727 657.58 608.337 664.1 609.987 668.5C611.637 672.9 613.277 678.08 613.627 680C613.977 681.92 613.677 687.43 611.687 700.95L615.187 704.52C617.117 706.48 621.727 709.64 625.437 711.54C629.147 713.44 633.197 715 634.437 715.01C635.677 715.01 638.267 715.44 640.187 715.97C642.117 716.5 645.487 718.61 647.687 720.65C649.887 722.7 653.717 725.93 660.687 731.28L683.187 732.1C695.567 732.54 714.467 733.12 725.187 733.38C735.917 733.64 745.477 734.11 746.437 734.43C747.397 734.74 748.197 735.56 748.207 736.25C748.213 737.077 748.53 736.993 749.157 736C749.907 734.82 750.377 734.76 751.397 735.72C752.137 736.42 753.957 736.7 755.687 736.38C757.987 735.96 758.337 736.08 757.187 736.9C755.917 737.8 755.997 737.97 757.687 738C758.787 738.01 760.817 738.34 762.187 738.72C764.017 739.23 764.487 739.1 763.937 738.21C763.497 737.5 763.807 736.79 764.687 736.5C765.517 736.23 768.667 736 771.687 736C774.717 736 777.077 736.34 776.937 736.75C776.797 737.16 777.137 737.5 777.687 737.5C778.237 737.5 778.517 737.05 778.317 736.5C778.087 735.88 778.657 735.81 779.817 736.32C780.847 736.77 783.037 737.4 784.687 737.71C786.337 738.02 788.367 738.92 789.187 739.72C790.127 740.63 791.707 740.95 793.437 740.58C795.587 740.13 796.217 740.38 796.307 741.75C796.417 743.42 796.437 743.42 796.807 741.75C797.017 740.79 797.867 740 798.687 740C799.517 740 800.187 740.67 800.187 741.5C800.187 742.33 800.867 743 801.687 743C802.517 743 803.417 742.33 803.687 741.5C804.007 740.55 805.467 740 807.687 740C809.617 740 811.417 740.45 811.687 741C811.967 741.55 812.637 741.77 813.187 741.5C813.737 741.23 814.527 741.91 814.937 743.02C815.347 744.14 816.247 745.26 816.937 745.52C817.627 745.79 819.537 745.55 821.187 745C823.717 744.16 824.767 744.39 827.937 746.5C829.997 747.88 832.027 749.01 832.437 749C832.847 749 833.457 746.86 833.777 744.25C834.107 741.64 834.897 738.29 835.527 736.81C836.3 735.023 836.93 734.523 837.417 735.31C837.827 735.96 838.167 738.64 838.167 741.25C838.177 743.86 837.737 747.12 837.187 748.5C836.637 749.87 834.727 751.79 832.937 752.75C829.897 754.39 822.037 754.51 711.187 754.59C646.017 754.64 589.437 754.41 585.477 754.09C581.107 753.73 577.657 752.91 576.727 752C575.367 750.66 575.197 722.24 575.207 487.5C575.217 280.04 575.477 224.25 576.447 223.31C577.127 222.65 579.037 221.42 580.687 220.56C583.327 219.2 593.957 219.02 670.187 219.04V219.04ZM828.567 220C829.457 220 830.637 220.9 831.187 222C831.817 223.25 832.187 242.17 832.187 321L829.267 324C826.447 326.89 825.967 327.01 816.517 327.25C811.107 327.39 788.167 327.5 765.527 327.5C729.117 327.5 724.497 327.33 725.477 326C726.087 325.18 728.267 322.93 730.337 321C732.457 319.02 734.117 316.52 734.137 315.25C734.167 314.01 734.077 312.78 733.937 312.52C733.797 312.25 734.817 311.24 736.187 310.27C738.417 308.69 741.937 308.46 768.687 308.16C785.187 307.97 800.597 308.09 802.937 308.41C807.117 308.99 807.217 309.1 810.187 320L814.437 320.01C816.777 320.01 820.377 320.46 822.437 321.01C825.577 321.84 826.417 321.72 827.607 320.25C828.387 319.29 829.587 315.8 830.267 312.5C831.147 308.29 831.297 302.46 830.797 293C830.407 285.57 829.717 279.27 829.277 279C828.827 278.73 828.407 273.44 828.327 267.25C828.237 260.32 828.567 256 829.187 256C829.827 256 830.097 249.86 829.937 239.08C829.797 229.78 829.297 222.24 828.817 222.33C828.327 222.42 827.717 221.94 827.447 221.25C827.177 220.56 827.677 220 828.567 220V220ZM723.937 364C724.097 373.07 724.097 388.37 723.937 398C723.767 407.62 723.637 400.2 723.637 381.5C723.637 362.8 723.767 354.93 723.937 364ZM723.937 589C724.107 597.52 724.107 611.02 723.937 619C723.767 626.98 723.627 620 723.627 603.5C723.627 587 723.767 580.48 723.937 589ZM751.687 648.42C762.137 648.42 766.637 648.56 761.687 648.74C756.737 648.93 748.187 648.93 742.687 648.75C737.187 648.57 741.237 648.42 751.687 648.42ZM830.697 648.17C832.557 648.09 834.447 648.83 835.687 650.12C837.607 652.12 837.697 653.71 837.877 689.35C837.977 709.78 837.897 726.05 837.697 725.5C837.487 724.95 837.107 708.98 836.837 690C836.567 671.02 836.257 655.27 836.147 655C836.037 654.73 836.007 654.16 836.067 653.75C836.137 653.34 835.627 652.99 834.937 652.98C834.103 652.973 834.187 652.647 835.187 652C836.467 651.17 836.437 651.03 834.937 651.02C833.977 651.01 833.187 650.55 833.187 650C833.187 649.45 832.287 649.23 831.187 649.5C830.087 649.77 828.857 649.62 828.447 649.15C828.047 648.68 829.057 648.24 830.697 648.17Z" fill="#072950"/>
<path fill-rule="evenodd" clip-rule="evenodd" d="M623.686 41.46C964.686 41.45 1234.91 41.67 1224.19 41.97C1213.42 42.26 1205.7 42.84 1206.94 43.25C1208.18 43.66 1209.64 43.78 1210.19 43.5C1210.74 43.23 1211.19 43.34 1211.2 43.75C1211.21 44.16 1210.3 45.18 1209.2 46C1207.8 47.05 1207.39 48.11 1207.87 49.5C1208.36 50.91 1208.21 51.28 1207.37 50.75C1206.61 50.26 1206.19 50.7 1206.19 52C1206.19 53.1 1202.43 61.76 1197.84 71.25C1193.25 80.74 1187.4 93.23 1184.85 99C1182.3 104.78 1178.64 112.43 1176.72 116C1174.8 119.57 1172.28 124.53 1171.12 127C1169.97 129.48 1168.28 133.01 1167.36 134.85C1166.44 136.69 1165.24 139.03 1164.69 140.06C1164.14 141.08 1162.79 142.16 1161.69 142.45C1160.59 142.74 991.276 142.98 785.436 142.99C413.176 143 411.166 142.99 407.186 141C404.726 139.77 401.156 138.99 397.936 138.98C395.046 138.98 392.136 138.64 391.476 138.23C390.536 137.67 390.596 136.81 391.736 134.5C393.126 131.69 393.076 131.36 390.956 129.22C388.826 127.09 387.886 126.95 376.186 126.99C364.906 127.03 363.886 126.89 365.686 125.55C366.786 124.73 367.126 124.05 366.436 124.03C365.746 124.01 363.586 123.21 361.626 122.25C359.666 121.29 357.786 119.6 357.446 118.5C357.096 117.4 356.946 115.38 357.116 114C357.286 112.63 358.156 110.95 359.056 110.28C359.946 109.61 362.256 108.54 364.186 107.91C366.116 107.28 370.086 105.13 373.016 103.13C375.946 101.13 379.816 98.6 381.596 97.5C383.386 96.4 387.066 93.57 389.766 91.22C392.476 88.86 395.136 86.95 395.686 86.98C396.236 87.01 399.496 85 402.936 82.51C407.226 79.42 412.716 76.79 420.436 74.14C428.846 71.25 433.326 70.27 438.186 70.24C441.756 70.21 448.056 69.42 452.186 68.48C456.306 67.54 461.936 66.45 464.686 66.06C467.436 65.66 473.736 64.55 478.686 63.57C483.636 62.6 490.836 60.95 494.686 59.9C498.536 58.85 502.476 58 503.436 58C504.396 58 507.096 56.61 509.436 54.92C511.776 53.22 515.266 51.19 517.186 50.39C519.106 49.6 522.146 48.96 523.936 48.98C525.726 48.99 529.546 47.94 532.436 46.64C535.326 45.35 540.606 43.89 544.186 43.39C548.166 42.85 444.526 42.3 277.186 42C110.326 41.69 245.426 41.48 623.686 41.46ZM1342.19 41.1C1387.91 40.98 1393.91 41.14 1395.69 42.56C1396.79 43.43 1397.13 43.89 1396.44 43.57C1395.65 43.21 1395.38 43.56 1395.69 44.5C1395.97 45.33 1396.64 45.78 1397.19 45.5C1397.74 45.23 1398.19 45.9 1398.19 47C1398.19 48.1 1397.85 49 1397.44 49C1397.03 49 1396.62 50.01 1396.54 51.25C1396.46 52.49 1387.01 72.37 1375.54 95.43C1358.42 129.85 1354.06 137.85 1351.19 140.09C1349.24 141.61 1345.7 143.13 1343.19 143.52C1340.69 143.92 1339.01 143.85 1339.41 143.36C1339.8 142.89 1339.47 141.26 1338.66 139.75C1337.85 138.24 1336.74 137.23 1336.19 137.5C1335.59 137.8 1335.48 137.3 1335.92 136.25C1336.44 135.01 1336.29 134.72 1335.42 135.25C1334.63 135.73 1334.4 135.55 1334.77 134.75C1335.09 134.06 1334.19 131.59 1332.77 129.25C1331.35 126.91 1330.19 124.78 1330.19 124.5C1330.19 124.23 1328.73 121.09 1326.94 117.54C1325.15 113.98 1323.35 111.28 1322.94 111.54C1322.53 111.79 1322.52 111.21 1322.92 110.25C1323.5 108.86 1323.34 108.71 1322.18 109.5C1321.09 110.24 1320.9 110.17 1321.45 109.25C1321.88 108.53 1319.85 103.11 1316.69 96.5C1313.66 90.18 1311.19 84.32 1311.19 83.5C1311.19 82.68 1310.82 81.89 1310.36 81.75C1309.9 81.61 1308.33 78.91 1306.86 75.75C1305.39 72.59 1304.18 69.66 1304.16 69.25C1304.15 68.84 1303.5 67.82 1302.73 67C1301.95 66.18 1299.94 62.13 1298.26 58C1296.57 53.88 1295.2 49.71 1295.19 48.75C1295.19 47.79 1294.74 47 1294.19 47C1293.64 47 1293.19 46.1 1293.19 45C1293.19 43.81 1293.9 42.95 1294.94 42.88C1295.9 42.82 1295.34 42.42 1293.69 42C1292.04 41.58 1313.86 41.18 1342.19 41.1ZM1180.19 143.35C1184.86 143.35 1186.66 143.52 1184.19 143.73C1181.72 143.94 1177.89 143.94 1175.69 143.73C1173.49 143.52 1175.52 143.35 1180.19 143.35ZM793.186 219.05C814.446 219.04 829.056 219.4 828.186 219.9C827.356 220.38 827.026 221.28 827.436 221.89C827.846 222.5 828.526 222.82 828.936 222.59C829.346 222.37 829.796 229.8 829.936 239.09C830.096 249.86 829.826 256 829.186 256C828.566 256 828.236 260.32 828.326 267.25C828.406 273.44 828.826 278.73 829.276 279C829.716 279.27 830.406 285.57 830.796 293C831.296 302.46 831.146 308.29 830.266 312.5C829.586 315.8 828.386 319.29 827.606 320.25C826.416 321.72 825.576 321.84 822.436 321.01C820.376 320.46 816.776 320.01 810.186 320L808.686 314.5C807.216 309.1 807.116 308.99 802.936 308.41C800.596 308.09 785.186 307.97 768.686 308.16C741.936 308.46 738.416 308.69 736.186 310.27C734.816 311.24 733.796 312.25 733.936 312.52C734.076 312.78 734.186 313.9 734.186 315C734.186 316.1 731.936 319.25 729.186 322C726.436 324.75 724.256 327.56 724.346 328.25C724.426 328.94 724.426 330.51 724.346 331.75C724.256 332.99 723.736 333.77 723.186 333.5C722.636 333.23 722.516 332.44 722.926 331.75C723.413 330.923 723.246 330.757 722.426 331.25C721.706 331.69 721.436 332.94 721.776 334.25C722.096 335.49 722.586 337.18 722.856 338C723.136 338.82 723.496 359.3 723.666 383.5C723.836 407.7 724.136 428.02 724.336 428.65C724.526 429.29 725.026 429.63 725.436 429.4C725.846 429.18 726.186 429.34 726.186 429.75C726.186 430.16 746.546 430.36 771.436 430.2C816.376 429.89 816.706 429.91 819.186 432.02C820.556 433.19 821.126 433.89 820.436 433.58C819.646 433.21 819.366 433.55 819.686 434.5C819.956 435.32 820.636 435.77 821.186 435.5C821.846 435.17 822.106 450.67 821.936 481.25C821.716 521.53 821.496 527.51 820.186 527.6C819.356 527.65 817.896 527.76 816.936 527.85C815.976 527.93 815.416 528.45 815.686 529C816.02 529.667 815.52 529.667 814.186 529C812.706 528.26 812.246 528.32 812.436 529.25C812.636 530.23 804.686 530.53 775.686 530.65C748.756 530.76 738.496 530.48 737.996 529.65C737.486 528.79 736.726 528.81 734.996 529.73C733.726 530.41 731.246 530.86 729.476 530.73C727.716 530.6 725.826 530.95 725.276 531.5C724.616 532.17 739.026 532.49 812.686 532.46L770.186 532.73C746.806 532.88 727.016 533.3 726.186 533.66C725.356 534.02 724.456 534.28 724.186 534.24C723.916 534.2 723.686 558.77 723.686 588.83C723.686 623.42 724.056 644.16 724.686 645.29C725.236 646.27 727.036 647.52 728.686 648.06C730.586 648.69 749.356 648.86 779.936 648.53C811.636 648.18 828.356 648.34 828.686 649C828.956 649.55 829.636 650 830.186 650C830.736 650 830.956 649.55 830.686 649C830.416 648.45 830.856 648.23 831.686 648.5C832.516 648.77 833.186 649.45 833.186 650C833.186 650.55 833.976 651.02 834.936 651.04C836.506 651.08 836.536 650.91 835.186 649.29C833.786 647.62 833.816 647.6 835.526 649C837.316 650.46 837.316 650.54 835.526 651.77C834.516 652.46 834.246 653.03 834.936 653.02C835.626 653.01 836.136 653.34 836.066 653.75C836.006 654.16 836.026 654.73 836.106 655C836.196 655.27 836.476 666.75 836.726 680.5C836.976 694.25 837.396 712.48 837.666 721C837.926 729.52 837.816 735.96 837.416 735.31C836.93 734.523 836.3 735.023 835.526 736.81C834.896 738.29 834.106 741.64 833.776 744.25C833.456 746.86 832.846 749 832.436 749C832.026 749.01 829.996 747.88 827.936 746.5C824.766 744.39 823.716 744.16 821.186 745C819.536 745.55 817.626 745.79 816.936 745.52C816.246 745.26 815.346 744.14 814.936 743.02C814.526 741.91 813.736 741.23 813.186 741.5C812.636 741.77 811.956 741.55 811.686 741C811.416 740.45 809.606 740 807.686 740C805.466 740 804.006 740.55 803.686 741.5C803.416 742.33 802.516 743 801.686 743C800.856 743 800.186 742.33 800.186 741.5C800.186 740.67 799.516 740 798.686 740C797.856 740 797.136 740.79 797.066 741.75C796.956 743.42 796.936 743.42 796.566 741.75C796.276 740.41 795.536 740.14 793.436 740.58C791.706 740.95 790.126 740.63 789.186 739.72C788.356 738.92 786.336 738.02 784.686 737.71C783.036 737.4 780.846 736.77 779.816 736.32C778.656 735.81 778.086 735.88 778.316 736.5C778.516 737.05 778.236 737.5 777.686 737.5C777.136 737.5 776.796 737.16 776.936 736.75C777.076 736.34 774.706 736 771.686 736C768.666 736 765.516 736.23 764.686 736.5C763.806 736.79 763.496 737.5 763.936 738.21C764.486 739.1 764.016 739.23 762.186 738.72C760.816 738.34 758.786 738.01 757.686 738C755.996 737.97 755.916 737.8 757.186 736.9C758.336 736.08 757.986 735.96 755.686 736.38C753.956 736.7 752.136 736.42 751.396 735.72C750.376 734.76 749.906 734.82 749.156 736C748.53 736.993 748.213 737.077 748.206 736.25C748.196 735.56 747.396 734.74 746.436 734.43C745.476 734.11 735.916 733.64 725.186 733.38C714.456 733.12 695.556 732.54 660.686 731.28L656.186 727.83C653.706 725.93 649.886 722.7 647.686 720.65C645.486 718.61 642.106 716.5 640.186 715.97C638.266 715.44 635.676 715.01 634.436 715.01C633.196 715 629.146 713.44 625.436 711.54C621.726 709.64 617.106 706.48 611.686 700.95L612.976 692.22C613.676 687.43 613.976 681.92 613.626 680C613.276 678.08 611.636 672.9 609.986 668.5C608.336 664.1 605.726 657.58 604.196 654C602.656 650.42 601.146 646.38 600.826 645C600.506 643.63 600.186 636.42 600.116 629C600.036 621.58 599.416 610.55 598.726 604.5C598.046 598.45 597.526 585.74 597.586 576.25C597.646 565.36 597.316 559 596.686 558.99C596.02 558.977 596.02 558.723 596.686 558.23C597.336 557.76 597.766 527.73 597.926 472.5C598.086 412.84 598.606 379.15 599.666 359.5C600.486 344.1 601.386 328.57 601.656 325C601.926 321.43 603.076 314.9 604.206 310.5C605.336 306.1 607.016 301.6 607.936 300.5C608.856 299.4 610.986 297.15 612.666 295.5C615.296 292.92 617.196 292.24 626.206 290.67C631.966 289.67 638.266 288.46 640.186 287.98C642.396 287.43 645.346 285.33 648.186 282.27C650.666 279.61 654.086 275.65 655.796 273.47C658.326 270.23 660.256 269.05 666.296 267.07C671.156 265.47 675.486 263.16 678.936 260.32C681.826 257.94 686.356 253.86 688.996 251.25C691.926 248.36 695.156 246.2 697.246 245.74C699.136 245.32 702.146 244.98 703.936 244.99C705.836 244.99 707.216 244.48 707.266 243.75C707.326 242.75 707.426 242.75 707.766 243.75C707.996 244.44 708.976 245 709.936 245C710.896 245.01 713.036 245.83 714.686 246.83C716.336 247.84 718.926 248.96 720.436 249.33C721.946 249.7 725.096 249.47 727.436 248.82C729.776 248.18 732.136 247.34 732.686 246.95C733.236 246.57 735.936 245.93 738.686 245.53C741.436 245.13 744.586 244.35 745.686 243.8C747.376 242.94 747.456 242.65 746.186 241.91C745.356 241.42 732.766 241.03 718.186 241.03C703.606 241.03 688.766 240.58 685.186 240.02C681.606 239.46 678.596 238.89 678.476 238.75C678.366 238.61 681.626 237.94 685.726 237.25C690.476 236.45 703.526 236 721.686 236C747.916 236 750.236 235.86 750.836 234.25C751.236 233.17 750.876 232.12 749.896 231.5C748.936 230.9 748.486 229.61 749.186 226H717.686C697.686 226 686.006 225.63 685.686 225C685.356 224.34 695.856 224 716.186 224C736.516 224 747.016 223.66 746.686 223C746.376 222.38 749.116 221.99 753.936 221.96C761.166 221.93 761.516 221.83 759.186 220.5C756.986 219.24 761.036 219.07 793.186 219.05ZM574.936 358.5C575.076 428.9 575.076 544.33 574.936 615C574.796 685.67 574.676 628.08 574.676 487C574.676 345.93 574.796 288.1 574.936 358.5ZM754.686 327.4C762.936 327.4 766.536 327.55 762.686 327.74C758.836 327.93 752.086 327.93 747.686 327.74C743.286 327.56 746.436 327.4 754.686 327.4ZM815.186 327.35C819.856 327.35 821.666 327.52 819.186 327.73C816.706 327.94 812.886 327.94 810.686 327.73C808.486 327.52 810.516 327.35 815.186 327.35ZM823.186 754.34C827.316 754.34 828.886 754.51 826.686 754.73C824.486 754.94 821.116 754.94 819.186 754.73C817.266 754.51 819.066 754.34 823.186 754.34Z" fill="#123965"/>
<path fill-rule="evenodd" clip-rule="evenodd" d="M935.686 225.07C936.236 225.07 934.886 226.2 932.686 227.59C930.486 228.98 927.676 230.54 926.436 231.06C925.196 231.58 920.926 234.31 916.936 237.13C912.946 239.95 906.756 245.24 903.176 248.88C899.596 252.52 894.646 257.98 892.186 261C889.716 264.02 886.066 269.88 884.066 274C882.066 278.13 879.526 283.52 878.416 286C877.306 288.48 875.706 293.2 874.856 296.5C874.006 299.8 872.406 306.77 871.296 312C870.186 317.23 868.826 326.45 868.266 332.5C867.716 338.55 866.976 346.65 866.636 350.5C866.306 354.35 865.856 359.98 865.656 363C865.456 366.02 864.896 395.95 864.416 429.5C863.936 463.05 863.766 509.17 864.026 532C864.296 554.83 864.666 582.05 864.846 592.5C865.036 602.95 865.646 612.63 866.216 614C866.786 615.38 867.196 618.75 867.126 621.5C867.056 624.25 867.296 629.65 867.666 633.5C868.026 637.35 868.936 644.55 869.686 649.5C870.436 654.45 871.946 662.1 873.046 666.5C874.146 670.9 877.206 679.47 879.866 685.53C882.516 691.6 886.576 699.7 888.886 703.53C891.196 707.37 896.596 714.16 900.886 718.64C905.176 723.12 912.066 729.26 916.186 732.29C920.316 735.33 925.266 738.52 927.186 739.38C929.116 740.25 931.366 741.4 932.186 741.94C933.016 742.47 938.866 745.13 945.186 747.84C951.516 750.55 958.936 753.49 961.686 754.37C964.436 755.25 971.866 757.05 978.186 758.38C984.516 759.71 994.636 761.33 1000.69 761.99C1007.82 762.77 1021.01 763.02 1038.19 762.7C1052.77 762.43 1070.54 761.69 1077.69 761.07C1084.84 760.44 1091.14 759.53 1091.69 759.06C1092.24 758.58 1094.94 757.88 1097.69 757.5C1100.44 757.12 1105.16 756.24 1108.19 755.53C1111.22 754.83 1116.33 753.64 1119.56 752.88C1122.78 752.12 1125.59 751.16 1125.81 750.75C1126.02 750.34 1127.32 750 1128.69 750C1130.07 750 1131.53 749.43 1131.94 748.74C1132.35 748.05 1136.69 746.14 1141.57 744.49C1146.45 742.85 1150.95 740.92 1151.57 740.21C1152.19 739.49 1153.25 738.93 1153.94 738.96C1154.63 738.98 1160.48 735.73 1166.94 731.74C1173.4 727.75 1180.27 723.03 1182.19 721.25C1184.12 719.47 1186.14 718.02 1186.69 718.04C1187.24 718.06 1185.44 720.09 1182.69 722.55C1179.94 725 1174.43 729.26 1170.44 732.01C1166.45 734.75 1157.68 739.65 1150.94 742.88C1144.2 746.12 1133.07 750.59 1126.19 752.81C1119.32 755.04 1111.22 757.55 1108.19 758.4C1105.16 759.26 1099.32 760.59 1095.19 761.37C1091.07 762.15 1083.64 763.4 1078.69 764.14C1072.44 765.09 1059.14 765.5 1035.19 765.5C1010.77 765.5 998.496 765.11 993.186 764.16C989.066 763.42 981.866 761.93 977.186 760.83C972.516 759.74 964.866 757.7 960.186 756.31C955.516 754.92 947.866 752.21 943.186 750.3C938.516 748.38 931.646 745.06 927.936 742.91C924.226 740.76 920.966 739 920.686 739C920.416 739 917.146 736.68 913.436 733.83C909.726 730.99 904.886 727.07 902.686 725.12C900.486 723.16 896.746 719.3 894.376 716.53C891.996 713.76 888.126 708.58 885.766 705C883.406 701.42 880.106 695.8 878.436 692.5C876.766 689.2 874.266 682.67 872.886 678C871.496 673.33 869.836 667.02 869.196 664C868.556 660.98 867.646 657.15 867.166 655.5C866.686 653.85 865.346 644.85 864.176 635.5C863.006 626.15 861.616 611.52 861.086 603C860.556 594.48 859.866 553.3 859.546 511.5C859.206 465.73 859.406 421.58 860.056 400.5C860.646 381.25 862.046 356.27 863.166 345C864.296 333.73 865.906 320.68 866.746 316C867.596 311.32 869.466 303 870.916 297.5C872.366 292 875.086 284.35 876.976 280.5C878.856 276.65 882.266 270.35 884.546 266.5C886.826 262.65 892.516 255.63 897.186 250.9C901.866 246.16 909.066 240.09 913.186 237.4C917.316 234.71 923.836 230.83 927.686 228.79C931.536 226.75 935.136 225.07 935.686 225.07ZM1052.19 292.39C1057.47 292.59 1060.95 293.31 1063.94 294.83C1066.28 296.03 1069.27 298.46 1070.59 300.25C1071.91 302.04 1073.5 305.3 1074.13 307.5C1074.75 309.7 1075.68 321.85 1076.2 334.5C1076.71 347.15 1077.15 376.29 1077.19 441L1083.19 447L1143.44 447.22C1176.58 447.34 1207.97 447.31 1213.19 447.16C1221.88 446.91 1222.56 447.02 1221.19 448.49C1220.37 449.37 1217.33 450.75 1214.44 451.55C1210.09 452.75 1197.55 453 1140.94 452.99C1103.4 452.98 1071.67 452.64 1070.42 452.24C1069.16 451.83 1067.89 450.83 1067.57 450C1067.26 449.17 1066.82 433.65 1066.6 415.5C1066.37 397.35 1065.98 371.02 1065.73 357C1065.48 342.98 1064.78 327.23 1064.18 322C1063.34 314.75 1062.44 311.43 1060.38 308C1058.58 305.02 1056.15 302.71 1053.18 301.18C1049.35 299.2 1047.59 298.92 1041.19 299.28C1036.54 299.54 1032.27 300.43 1029.96 301.6C1027.01 303.11 1025.88 304.53 1024.48 308.5C1022.84 313.17 1022.7 313.3 1022.42 310.5C1022.26 308.85 1022.93 305.93 1023.91 304.01C1024.89 302.09 1027.72 299.19 1030.19 297.57C1032.66 295.94 1036.94 294.05 1039.69 293.36C1042.44 292.67 1048.07 292.23 1052.19 292.39ZM1343.69 524.35C1348.64 524.35 1350.89 524.52 1348.69 524.73C1346.49 524.94 1342.44 524.94 1339.69 524.74C1336.94 524.53 1338.74 524.36 1343.69 524.35ZM1285.92 528C1286.07 528 1286.21 528.11 1286.22 528.25C1286.24 528.39 1285.12 529.74 1283.72 531.25C1282.33 532.76 1280.89 535.24 1280.52 536.75C1280.15 538.26 1279.25 540.06 1278.52 540.75C1277.59 541.63 1277.2 544.91 1277.22 551.75C1277.24 560.16 1277.64 562.46 1280.13 568.5C1281.95 572.93 1283.5 575.38 1284.35 575.17C1285.09 574.98 1285.35 575.21 1284.93 575.67C1284.52 576.12 1285.19 577.06 1286.43 577.73C1287.67 578.41 1289.48 579.2 1290.44 579.48C1291.49 579.79 1291.89 580.47 1291.44 581.17C1290.89 582.03 1291.57 582.16 1293.94 581.67C1295.81 581.29 1297.4 581.42 1297.69 582C1297.98 582.57 1296.69 583 1294.69 583C1292.77 583 1289.5 582.14 1287.44 581.1C1285.38 580.05 1282.73 578.14 1281.56 576.85C1280.38 575.56 1278.7 573.04 1277.81 571.25C1276.92 569.46 1275.69 564.74 1275.07 560.75C1274.46 556.76 1274.22 550.8 1274.55 547.5C1274.87 544.2 1276.07 539.7 1277.21 537.5C1278.35 535.3 1280.72 532.26 1282.47 530.75C1284.22 529.24 1285.78 528 1285.92 528ZM1357.47 543.14C1357.9 543.06 1357.67 543.7 1356.97 544.54C1356.09 545.6 1354.12 546.04 1345.69 545.81L1351.19 544.54C1354.22 543.85 1357.04 543.21 1357.47 543.14ZM1076.11 544.49C1076.43 544.77 1075.67 546.02 1074.42 547.25C1072.54 549.11 1072.19 550.4 1072.42 554.75C1072.57 557.64 1073.03 560 1073.44 560C1073.85 560 1074.25 558.31 1074.33 556.25C1074.4 554.19 1074.63 553.51 1074.83 554.75C1075.03 555.99 1075.64 557 1076.19 557C1076.74 557 1077.37 556.21 1077.58 555.25C1077.8 554.29 1077.82 558.9 1077.64 565.5C1077.46 572.1 1076.86 581.1 1076.31 585.5C1075.75 589.9 1075.29 596.65 1075.27 600.5C1075.26 604.35 1075 607.27 1074.7 607C1074.4 606.73 1073.82 597.5 1072.65 566.5L1071.42 578C1070.75 584.33 1070 592.42 1069.76 596C1069.51 599.58 1068.81 613.98 1068.2 628C1067.58 642.02 1066.58 656.2 1065.97 659.5C1065.05 664.46 1064.13 666.23 1060.66 669.75C1058.34 672.09 1055.61 674.01 1054.57 674.03C1053.2 674.05 1053.63 673.43 1056.13 671.78C1058.02 670.53 1060.6 667.48 1061.86 665C1063.56 661.65 1064.41 657.56 1065.15 649C1065.7 642.67 1066.62 626.7 1067.18 613.5C1067.75 600.3 1068.21 582.41 1068.2 573.75C1068.2 565.09 1068.64 555.75 1069.19 553C1069.89 549.48 1070.98 547.41 1072.86 545.99C1074.33 544.88 1075.79 544.21 1076.11 544.49ZM1305.44 546.08C1309.24 546.02 1310.09 546.3 1309.69 547.5C1309.41 548.33 1309.75 548.99 1310.44 548.98C1311.13 548.97 1312.02 550.66 1312.43 552.73C1312.84 554.8 1313.17 558.41 1313.18 560.75C1313.19 563.09 1313.64 565.23 1314.19 565.5C1314.74 565.77 1314.97 566.67 1314.69 567.5C1314.41 568.33 1314.64 569 1315.19 569C1315.74 569 1315.92 569.79 1315.58 570.75C1315.25 571.71 1315.58 573.04 1316.33 573.7C1317.08 574.36 1319.67 576.61 1326.5 582.5H1337.69C1346.23 582.5 1349.28 582.14 1350.56 581C1351.48 580.17 1352.45 579.84 1352.71 580.25C1352.98 580.66 1351.73 581.76 1349.94 582.69C1347.9 583.75 1343.35 584.55 1337.69 584.86C1329.51 585.29 1328.19 585.1 1323.19 582.73C1320.16 581.29 1316.74 578.85 1315.57 577.31C1314.4 575.76 1312.71 572.02 1311.81 569C1310.91 565.98 1310.17 561.14 1310.18 558.25C1310.19 555.36 1309.74 551.88 1309.19 550.5C1308.46 548.68 1307.44 548 1305.44 548.01C1303.93 548.01 1300.92 548.48 1298.76 549.04C1296.6 549.61 1294.48 550.85 1294.04 551.79C1293.61 552.73 1293.23 553.05 1293.19 552.5C1293.16 551.95 1294.16 550.54 1295.41 549.38C1296.67 548.21 1298.37 547.01 1299.19 546.71C1300.02 546.4 1302.83 546.12 1305.44 546.08ZM1340.77 700C1340.93 700 1340.63 700.9 1340.12 702C1339.61 703.1 1339.19 709.63 1339.19 729L1336.44 730.05C1334.93 730.63 1329.64 730.95 1315.69 730.42L1325.44 730.21C1330.8 730.09 1335.41 729.55 1335.69 729C1335.97 728.45 1336.47 722.49 1336.8 715.75C1337.25 706.85 1337.83 703.02 1338.95 701.75C1339.79 700.79 1340.61 700 1340.77 700ZM1259.7 731C1259.9 731 1259.52 732.01 1258.84 733.25C1258.06 734.68 1257.72 738.69 1258.19 753L1306.44 752.74C1342.17 752.55 1355.47 752.16 1360.69 749.99L1358.19 752C1356.57 753.31 1353.57 754.21 1349.69 754.56C1346.39 754.86 1324.12 754.97 1256.69 754.5L1255.93 746.5C1255.51 742.1 1255.4 737.49 1255.68 736.25C1255.96 735.01 1256.9 733.33 1257.76 732.5C1258.63 731.67 1259.5 731 1259.7 731Z" fill="#CDA52C"/>
<path d="M124.756 541.5C125.006 487.6 125.496 401.54 125.826 350.25C126.27 281.361 126.48 262.93 127.329 258.424C127.257 258.304 127.281 258.192 127.401 258.08C127.587 257.288 127.803 257.068 128.056 257.08C129.416 257.14 129.436 257.25 128.186 257.69C127.798 257.826 127.537 257.953 127.401 258.08C127.376 258.185 127.352 258.299 127.329 258.424C127.408 258.557 127.605 258.699 127.916 258.86C128.856 259.35 129.496 277.86 130.626 336.5C131.446 378.85 132.596 441.85 133.176 476.5C133.766 511.15 134.686 559.3 135.216 583.5C135.746 607.7 136.176 630.76 136.186 634.75C136.186 641.95 136.206 642 138.686 641.5C140.066 641.23 141.186 641.23 141.186 641.5C141.186 641.77 139.496 642.75 137.436 643.66C133.796 645.28 133.756 645.35 138.686 646.59L140.686 727.09L143.686 726.8C146.646 726.5 146.686 726.42 146.346 715.5L152.016 716.3C155.136 716.75 160.166 718.1 163.186 719.31C168.116 721.28 168.686 721.82 168.686 724.47C168.686 726.89 167.956 727.84 164.686 729.65C162.486 730.87 157.196 732.57 152.936 733.43C148.676 734.29 145.186 735.45 145.186 736C145.186 736.61 147.056 736.77 149.936 736.42C152.546 736.11 157.166 735.38 160.186 734.82C163.216 734.25 167.146 733.16 168.936 732.39C170.726 731.63 172.186 731.23 172.186 731.5C172.186 731.77 169.376 733.73 165.936 735.85C162.496 737.97 157.886 740.24 155.686 740.9C153.486 741.56 146.356 742.41 139.846 742.8C129.736 743.4 128.056 743.29 128.346 742.04C128.546 741.17 127.876 740.5 126.686 740.39C125.586 740.29 119.286 739.22 112.686 738.02C106.086 736.82 98.8863 734.96 96.6863 733.9C94.4863 732.84 93.5863 732.26 94.6863 732.62C95.7863 732.97 99.1663 733.9 102.186 734.69C105.216 735.48 114.216 736.41 122.186 736.75C131.076 737.12 136.436 737 136.036 736.43C135.686 735.92 131.186 735.17 126.036 734.76C120.896 734.35 113.086 733.1 108.686 731.97C104.286 730.85 99.3363 729.13 97.6863 728.16C96.0363 727.18 94.5763 725.62 94.4363 724.69C94.2963 723.76 94.9763 722.33 95.9363 721.51C96.8963 720.7 100.616 719.13 104.186 718.03C107.766 716.93 111.026 716.02 111.436 716.02C111.846 716.01 112.186 718.25 112.186 721C112.186 725.4 112.486 726.12 114.686 727C116.066 727.55 118.316 728 119.686 728C121.466 728 122.326 727.35 122.676 725.75C122.936 724.51 123.166 706.29 123.186 647L125.436 646.98C126.676 646.98 128.366 646.53 129.186 646C130.316 645.27 129.836 645 127.186 644.92C125.266 644.85 122.566 644.49 121.186 644.1C119.816 643.72 118.576 642.64 118.436 641.7C118.216 640.21 118.656 640.12 121.936 640.98C123.996 641.51 126.366 641.93 127.186 641.91C128.156 641.88 127.906 641.45 124.286 639.5L124.756 541.5Z" fill="#FDFDFD"/>
<path d="M138.666 286.17C138.306 276.09 137.706 267.32 137.346 266.68C136.986 266.04 141.786 270.69 159.366 288.5L158.186 326L165.986 336.75C170.266 342.66 176.116 350.76 184.186 362L180.686 366.5C178.766 368.98 175.726 371.73 173.936 372.62C171.426 373.87 169.316 374.07 164.686 373.52C160.136 372.98 157.966 373.18 152.686 375.89L150.526 371.19C149.336 368.61 146.446 361.32 144.106 355C141.766 348.68 139.306 340.8 138.626 337.5C137.716 333.03 137.646 328.05 138.366 318C138.896 310.57 139.026 296.25 138.666 286.17Z" fill="#FDFDFD"/>
<path d="M132.197 275.5C132.057 265.6 132.087 257.05 132.247 256.5C132.417 255.95 132.857 264.05 133.237 274.5C133.617 284.95 133.907 304.75 133.847 343.5L133.147 318.5C132.757 304.75 132.327 285.4 132.197 275.5Z" fill="#072950"/>
<path d="M820.187 526.722V511.5C820.187 502.98 820.407 496 820.687 496C820.957 496 821.207 502.86 821.227 511.25C821.252 519.892 821.181 523.808 820.187 526.722V527C820.151 527.007 820.115 527.014 820.08 527.021C819.503 528.573 818.643 529.865 817.367 531.5L770.827 532C739.8 532.333 724.617 532.167 725.277 531.5C725.827 530.95 727.717 530.6 729.477 530.73C731.247 530.86 733.727 530.41 734.997 529.73C736.727 528.81 737.487 528.79 737.997 529.65C738.497 530.48 748.757 530.76 775.687 530.65C804.687 530.53 812.637 530.23 812.437 529.25C812.247 528.32 812.707 528.26 814.187 529C815.52 529.667 816.02 529.667 815.687 529C815.409 528.455 816.29 527.783 820.08 527.021C820.117 526.923 820.152 526.823 820.187 526.722Z" fill="#072950"/>
<path d="M517.437 607C517.847 607 518.227 600.36 518.287 592.25C518.337 584.14 518.677 578.53 519.037 579.78C519.397 581.03 519.527 588.91 519.327 597.28C519.137 605.65 518.797 611.94 518.577 611.25C518.367 610.56 517.737 610.23 517.187 610.5C516.637 610.77 516.107 612.01 516.017 613.25C515.917 614.49 515.557 611.67 515.207 607C514.867 602.33 514.237 597.83 513.817 597C513.327 596.06 513.727 594.78 514.867 593.58C516.147 592.22 516.317 591.56 515.437 591.33C514.747 591.15 514.187 589.88 514.187 588.5C514.187 587.13 514.637 586 515.187 586C515.737 586 516.367 584.54 516.597 582.75C516.817 580.96 516.937 585.69 516.847 593.25C516.757 600.81 517.027 607 517.437 607Z" fill="#072950"/>
<path fill-rule="evenodd" clip-rule="evenodd" d="M525.687 223.35L525.517 228.42C525.427 231.22 525.017 347.35 524.597 486.5C524.177 625.65 523.797 741.41 523.757 743.75C523.717 746.09 523.347 748 522.937 748C522.527 748 521.987 746.54 521.737 744.75C521.497 742.96 521.037 716.52 520.727 686C520.417 655.48 519.827 627.01 519.427 622.74C518.934 617.58 518.27 614.997 517.437 614.99C516.747 615 516.187 614.1 516.187 613C516.187 611.9 516.637 610.77 517.187 610.5C517.737 610.23 518.367 610.56 518.577 611.25C518.797 611.94 519.137 605.65 519.327 597.28C519.527 588.91 519.397 581.03 519.037 579.78C518.677 578.53 518.337 584.14 518.287 592.25C518.227 600.36 517.847 607 517.437 607C517.027 607 516.757 600.81 516.847 593.25C516.937 585.69 516.817 580.96 516.597 582.75C516.367 584.54 515.737 586 515.187 586C514.637 586 514.187 587.12 514.187 588.5C514.187 589.87 514.747 591.15 515.437 591.33C516.317 591.56 516.147 592.22 514.867 593.58C513.737 594.77 513.327 596.07 513.797 597C514.217 597.83 514.817 602.44 515.127 607.25C515.547 613.89 515.387 616 514.437 616C513.747 616 512.847 617.85 512.437 620.12C512.027 622.38 511.347 624.41 510.937 624.62C510.527 624.83 510.747 625.7 511.437 626.55C512.437 627.79 512.437 628.59 511.437 630.55C510.727 631.94 510.187 636.67 510.187 641.5C510.187 646.17 509.737 650.23 509.187 650.5C508.557 650.81 508.147 647.38 508.077 641.25C508.017 635.89 508.027 630.37 508.107 629C508.187 627.62 507.787 625.94 507.217 625.25C506.647 624.56 506.257 623.66 506.337 623.25C506.417 622.84 506.077 620.53 505.587 618.13C505.077 615.66 503.927 613.38 502.937 612.88C501.967 612.39 501.187 610.88 501.187 609.5C501.187 608.12 502.107 605.76 503.237 604.25C504.617 602.4 505.087 600.68 504.697 599C504.367 597.62 503.107 595.7 501.897 594.73C500.677 593.75 498.657 592.18 497.387 591.23C496.127 590.28 494.617 587.7 494.047 585.5C493.467 583.3 492.797 580.15 492.547 578.5C492.167 576.01 491.377 575.27 487.887 574.13C485.577 573.37 483.237 572.65 482.687 572.51C482.137 572.37 481.017 572.9 480.187 573.68C479.347 574.48 476.497 575.15 473.687 575.21C470.937 575.26 468.017 574.91 467.187 574.41C466.357 573.92 464.227 572.95 462.437 572.26C459.527 571.13 459.187 571.19 459.157 572.75C459.137 573.71 458.437 575.4 456.067 578.5L454.607 576.5C453.807 575.4 453.157 573.26 453.167 571.75C453.177 570.24 453.637 567.87 454.187 566.5C454.977 564.52 454.797 563.53 453.337 561.75C452.317 560.51 451.227 558.37 450.907 557C450.587 555.62 449.767 552.7 449.087 550.5C448.407 548.3 447.787 544.02 447.707 541C447.637 537.98 447.207 533.92 446.757 532C446.317 530.08 445.107 527.71 444.067 526.75C443.037 525.79 442.187 524.1 442.187 523C442.187 521.9 440.837 518.3 439.187 515C436.287 509.2 436.147 509.07 434.857 511.25C434.127 512.49 432.217 513.86 430.607 514.29C428.607 514.83 427.347 514.67 426.597 513.79C426.007 513.08 424.987 510.59 424.347 508.25C423.707 505.91 423.477 502.31 423.827 500.25C424.267 497.73 423.907 495.03 422.737 492C421.247 488.15 421.097 485.55 421.677 474C422.227 463.3 422.037 459.1 420.777 453.75C419.907 450.04 419.187 445.87 419.187 444.5C419.187 443.12 418.657 440.99 418.007 439.75C417.357 438.51 416.737 436.6 416.627 435.5C416.517 434.4 416.147 429.9 415.787 425.5C415.287 419.26 415.487 416.84 416.697 414.5C417.547 412.85 418.217 410.82 418.177 410C418.127 409.18 419.917 406.81 422.137 404.75C424.367 402.69 426.817 399.76 427.587 398.25C428.367 396.74 430.177 394.37 431.617 393C433.057 391.62 434.227 389.82 434.207 389C434.187 388.18 435.187 386.61 436.427 385.53C438.417 383.78 438.477 383.52 436.937 383.28C435.977 383.12 435.387 382.66 435.627 382.25C435.867 381.84 437.217 381.61 438.627 381.75C440.037 381.89 441.187 382.45 441.187 383C441.187 383.55 441.867 384 442.687 384C443.517 384 444.337 383.44 444.527 382.75C444.797 381.75 445.197 381.75 446.527 382.75C447.807 383.71 448.707 383.73 450.437 382.84C451.677 382.21 453.357 381.37 454.187 380.99C455.017 380.6 455.917 378.62 456.187 376.58C456.497 374.26 456.217 372.53 455.437 371.94C454.747 371.42 453.287 371.23 452.187 371.5C451.087 371.77 449.957 371.55 449.687 371C449.417 370.45 447.947 371.81 446.437 374.01C443.787 377.87 443.657 377.94 442.847 375.76C442.377 374.52 442.247 370.8 442.537 367.5C442.827 364.2 443.997 359.36 445.127 356.75C446.687 353.15 447.037 350.85 446.567 347.25C446.067 343.34 446.417 341.57 448.567 337.25C450.977 332.41 451.467 332 454.687 332C456.607 332 458.417 331.55 458.687 331C458.957 330.45 460.197 330.3 461.437 330.66C462.677 331.03 464.697 331.93 465.937 332.66C467.177 333.4 468.177 334.56 468.157 335.25C468.147 335.94 469.827 338.33 471.907 340.56C474.037 342.85 476.997 344.88 478.687 345.22C480.337 345.55 484.837 345.49 488.687 345.1C493.707 344.58 496.467 344.74 498.437 345.69C499.947 346.41 501.747 347.9 502.437 349C503.127 350.1 504.037 350.66 504.467 350.25C504.897 349.84 505.237 340.27 505.227 329C505.207 317.73 505.697 304.68 506.317 300C506.927 295.32 507.487 290.49 507.557 289.25C507.627 288.01 508.027 287 508.437 287C508.847 287 508.957 286.32 508.687 285.5C508.417 284.68 508.637 283.77 509.187 283.5C509.737 283.23 510.357 283.56 510.567 284.25C510.777 284.94 511.737 289.77 512.707 295C513.677 300.23 514.857 304.95 515.347 305.5C515.92 306.147 516.207 306.063 516.207 305.25C516.197 304.56 516.457 303.21 516.777 302.25C517.277 300.78 517.207 300.74 516.297 302C515.427 303.21 515.207 302.91 515.177 300.5C515.147 298.85 515.477 297.83 515.907 298.22C516.337 298.62 517.477 298.51 518.437 297.97C520.057 297.07 520.187 294.27 520.187 261.5C520.187 230.83 519.987 225.93 518.687 225.5C517.857 225.23 517.207 224.53 517.237 223.95C517.267 223.36 519.107 223 525.687 223.35V223.35ZM248.357 224C248.807 224 249.697 225.01 250.327 226.25C250.957 227.49 252.477 232.55 253.707 237.5C254.927 242.45 256.667 249.87 257.557 254C258.447 258.12 260.087 266.9 261.197 273.5C262.307 280.1 263.427 286.18 263.677 287C263.927 287.82 265.287 295.48 266.697 304C268.117 312.52 270.567 326.02 272.157 334C273.747 341.98 275.347 350.75 275.717 353.5C276.087 356.25 277.267 363.68 278.327 370C279.397 376.32 281.597 389.37 283.227 399C284.867 408.62 286.867 419.2 287.677 422.5C288.487 425.8 290.277 433.9 291.667 440.5C293.047 447.1 294.067 452.6 293.937 452.73C293.797 452.86 293.057 450.83 292.277 448.23C291.507 445.63 290.547 443.05 290.147 442.5C289.747 441.95 288.217 437.45 286.727 432.5C285.247 427.55 283.657 421.93 283.207 420C282.747 418.07 281.877 414.25 281.267 411.5C280.667 408.75 279.507 401.77 278.707 396C277.897 390.23 276.097 379.65 274.707 372.5C273.307 365.35 271.537 357.25 270.757 354.5C269.977 351.75 269.077 345.9 268.757 341.5C268.427 337.1 267.687 330.35 267.097 326.5C266.507 322.65 265.177 315.68 264.137 311C263.107 306.32 261.087 296.2 259.657 288.5C258.227 280.8 256.237 270.68 255.237 266C254.237 261.32 252.897 254.57 252.257 251C251.617 247.43 250.407 241.35 249.547 237.5C248.697 233.65 247.617 229.37 247.147 228C246.687 226.62 246.577 225.16 246.917 224.75C247.247 224.34 247.897 224 248.357 224V224ZM510.057 237C510.537 237 510.977 238.46 511.047 240.25C511.107 242.04 511.287 248.38 511.427 254.34C511.617 262.1 511.337 265.43 510.437 266.09C509.667 266.65 508.997 266.62 508.687 266C508.417 265.45 508.377 258.81 508.617 251.25C508.857 243.69 509.087 237.39 509.117 237.25C509.157 237.11 509.577 237 510.057 237ZM122.937 272.5C123.107 278 123.107 287.23 122.937 293C122.757 298.77 122.607 294.27 122.607 283C122.607 271.73 122.757 267 122.937 272.5ZM131.917 266C132.127 267.93 132.127 271.52 131.917 274C131.707 276.48 131.537 274.9 131.527 270.5C131.527 266.1 131.697 264.07 131.917 266ZM132.917 306.5C133.127 308.7 133.127 312.52 132.917 315C132.707 317.48 132.537 315.68 132.537 311C132.537 306.32 132.707 304.3 132.917 306.5ZM495.937 307.04C497.177 307.02 499.307 308.01 500.667 309.25C502.567 310.97 503.157 312.51 503.167 315.75C503.177 318.09 502.287 322.02 501.187 324.5C500.087 326.98 498.177 329.63 496.937 330.4C495.007 331.6 494.297 331.6 491.937 330.4C490.427 329.63 488.287 329.23 487.187 329.5C485.517 329.92 485.087 329.37 484.577 326.25C484.237 324.19 484.257 321.37 484.627 320C484.987 318.62 485.267 316.04 485.237 314.25C485.204 312.077 485.604 311.133 486.437 311.42C487.127 311.65 489.037 310.77 490.687 309.46C492.337 308.14 494.697 307.06 495.937 307.04ZM134.117 348C134.477 351.02 134.477 355.3 134.107 357.5C133.647 360.22 133.447 358.46 133.457 352C133.467 344.04 133.577 343.39 134.117 348ZM121.927 366C122.127 369.02 122.127 374.2 121.927 377.5C121.727 380.8 121.567 378.32 121.567 372C121.567 365.68 121.727 362.98 121.927 366ZM120.927 431.5C121.127 434.25 121.127 438.98 120.927 442C120.727 445.02 120.557 442.77 120.557 437C120.557 431.23 120.727 428.75 120.927 431.5ZM135.917 434.5C136.127 436.7 136.127 440.52 135.917 443C135.707 445.48 135.537 443.68 135.537 439C135.537 434.32 135.707 432.3 135.917 434.5ZM205.637 458C205.817 458 206.017 523.02 206.077 602.5C206.147 698.24 205.847 747 205.187 747C204.527 747 204.167 711.05 204.137 641.25C204.107 583.09 204.047 519.08 204.007 499C203.967 478.92 204.247 461.49 204.617 460.25C204.987 459.01 205.447 458 205.637 458ZM119.917 498.5C120.127 500.7 120.127 504.52 119.917 507C119.707 509.48 119.537 507.67 119.537 503C119.537 498.33 119.707 496.3 119.917 498.5ZM377.047 504C377.517 504 377.747 504.79 377.567 505.75C377.387 506.71 377.027 509.52 376.767 512C376.507 514.48 376.027 520.1 375.707 524.5C375.377 528.9 374.877 533.85 374.587 535.5C374.297 537.15 373.917 540.08 373.737 542C373.557 543.92 372.427 553.15 371.227 562.5C370.027 571.85 368.147 586.25 367.047 594.5C365.947 602.75 364.197 616.02 363.147 624C362.097 631.98 360.547 642.55 359.697 647.5C358.857 652.45 357.237 664.37 356.107 674C354.967 683.62 353.857 691.84 353.617 692.25C353.377 692.66 352.997 694.91 352.777 697.25C352.547 699.59 351.977 703.64 351.527 706.26C351.067 708.88 350.347 711.02 349.937 711.01C349.527 711.01 349.187 713.48 349.187 716.5C349.187 719.52 348.777 722.79 348.287 723.75C347.787 724.71 346.557 730.34 345.537 736.25C344.517 742.17 343.347 747.01 342.937 747C342.527 747 342.507 745.99 342.897 744.75C343.327 743.38 343.237 742.76 342.647 743.15C342.067 743.55 341.787 742.06 341.937 739.4C342.077 736.98 342.637 735 343.187 735C343.737 735 344.177 733.09 344.177 730.75C344.167 728.41 344.847 719.3 345.687 710.5C346.537 701.7 347.697 690.23 348.287 685C348.867 679.77 349.727 672.8 350.187 669.5C350.657 666.2 351.747 658.33 352.617 652C353.487 645.67 354.607 639.15 355.107 637.5C355.617 635.85 356.717 631.35 357.557 627.5C358.397 623.65 359.357 616 359.677 610.5C360.007 605 360.947 597.58 361.777 594C362.597 590.42 363.727 583.67 364.287 579C364.837 574.33 366.167 564.99 367.237 558.25C368.307 551.51 369.197 544.76 369.207 543.25C369.217 541.74 369.867 537.58 370.667 534C371.457 530.42 373.027 523.23 374.157 518C375.277 512.77 376.197 507.49 376.197 506.25C376.187 505.01 376.577 504 377.047 504V504ZM361.957 524.15C362.147 524.89 361.867 527.08 360.367 532.5L360.107 528.42C359.967 526.17 360.247 523.99 360.737 523.57C361.217 523.15 361.767 523.41 361.957 524.15V524.15ZM138.917 546.5C139.127 548.7 139.127 552.52 138.917 555C138.707 557.48 138.537 555.67 138.537 551C138.537 546.33 138.707 544.3 138.917 546.5ZM118.927 566C119.127 569.02 119.127 574.2 118.927 577.5C118.727 580.8 118.567 578.33 118.567 572C118.567 565.67 118.727 562.98 118.927 566ZM139.907 582.5C140.127 584.15 140.127 587.3 139.917 589.5C139.697 591.7 139.517 590.35 139.517 586.5C139.507 582.65 139.687 580.85 139.907 582.5V582.5ZM140.917 626.5C141.127 628.7 141.127 632.08 140.917 634C140.697 635.92 140.527 634.12 140.527 630C140.527 625.87 140.697 624.3 140.917 626.5ZM117.917 627.5C118.127 629.7 118.127 633.08 117.917 635C117.697 636.92 117.527 635.12 117.527 631C117.527 626.87 117.697 625.3 117.917 627.5ZM144.917 658.5C145.127 660.7 145.127 664.52 144.917 667C144.707 669.48 144.537 667.67 144.537 663C144.537 658.33 144.707 656.3 144.917 658.5ZM113.907 681.5C114.127 683.15 114.127 686.3 113.917 688.5C113.697 690.7 113.517 689.35 113.517 685.5C113.507 681.65 113.687 679.85 113.907 681.5V681.5Z" fill="#123965"/>
<path d="M232.187 145.73C229.707 145.94 225.887 145.94 223.687 145.73C221.487 145.52 223.507 145.35 228.187 145.35C232.867 145.35 234.667 145.52 232.187 145.73Z" fill="#B6BEC7"/>
<path d="M350.187 147.75C344.417 147.92 335.187 147.92 329.687 147.75C324.187 147.57 328.917 147.42 340.187 147.42C351.457 147.42 355.957 147.57 350.187 147.75Z" fill="#B6BEC7"/>
<path d="M416.187 147.73C413.707 147.94 409.887 147.94 407.687 147.73C405.487 147.52 407.507 147.35 412.187 147.35C416.867 147.35 418.667 147.52 416.187 147.73Z" fill="#B6BEC7"/>
<path d="M464.187 147.73C461.707 147.94 457.887 147.94 455.687 147.73C453.487 147.52 455.517 147.35 460.187 147.35C464.857 147.35 466.667 147.52 464.187 147.73Z" fill="#B6BEC7"/>
<path d="M134.387 265.29C134.227 263.33 133.897 260.78 133.647 259.62C133.407 258.45 133.957 259.07 134.867 261C135.777 262.93 136.677 265.06 136.857 265.75C137.037 266.44 136.627 267.41 135.937 267.92C135.007 268.6 134.607 267.93 134.387 265.29Z" fill="#B6BEC7"/>
<path d="M136.297 280C135.797 274.77 135.677 270.05 136.027 269.5C136.387 268.95 136.977 270.75 137.347 273.5C137.707 276.25 137.997 281.65 137.987 285.5C137.967 289.35 137.787 291.82 137.587 291C137.387 290.18 136.807 285.23 136.297 280Z" fill="#B6BEC7"/>
<path d="M136.727 300.5C136.927 296.65 137.107 293.39 137.137 293.25C137.167 293.11 137.417 293 137.687 293C137.967 293 138.017 299.41 137.807 307.25C137.597 315.09 136.927 322.85 136.317 324.5C135.457 326.87 135.347 325.41 135.797 317.5C136.117 312 136.527 304.35 136.727 300.5Z" fill="#B6BEC7"/>
<path d="M130.927 319.5C130.747 323.9 130.587 320.75 130.587 312.5C130.587 304.25 130.737 300.65 130.927 304.5C131.117 308.35 131.117 315.1 130.927 319.5Z" fill="#B6BEC7"/>
<path d="M135.957 342.28C135.547 342.95 135.217 340.57 135.217 337C135.217 332.44 135.507 330.95 136.187 332C136.717 332.82 137.167 334.4 137.167 335.5C137.177 336.6 138.707 341.77 140.567 347C142.427 352.23 145.147 359.65 146.617 363.5C148.087 367.35 150.167 371.96 151.237 373.75C152.977 376.66 153.027 377.13 151.647 378.25C150.767 378.96 150.087 379.06 150.067 378.5C150.047 377.95 149.847 376.49 149.617 375.25C149.377 374.01 148.247 370.64 147.107 367.75C145.967 364.86 143.747 359.35 142.187 355.5C140.617 351.65 138.747 346.82 138.017 344.78C137.167 342.41 136.417 341.5 135.957 342.28Z" fill="#B6BEC7"/>
<path d="M124.927 437C124.737 440.57 124.577 437.88 124.577 431C124.577 424.13 124.737 421.2 124.927 424.5C125.127 427.8 125.127 433.43 124.927 437Z" fill="#B6BEC7"/>
<path d="M132.917 435C132.707 437.48 132.537 435.68 132.537 431C132.537 426.32 132.707 424.3 132.917 426.5C133.127 428.7 133.127 432.52 132.917 435Z" fill="#B6BEC7"/>
<path d="M124.937 525C124.777 535.17 124.637 527.08 124.637 507C124.637 486.92 124.777 478.6 124.937 488.5C125.097 498.4 125.097 514.83 124.937 525Z" fill="#B6BEC7"/>
<path d="M122.537 668.03C122.437 657.32 122.527 647.98 122.737 647.28C122.957 646.58 124.387 646.07 128.687 646.3L123.187 647L122.737 687.5L122.537 668.03Z" fill="#B6BEC7"/>
<path d="M139.677 674.5L139.187 660.3C138.907 652.48 139.027 646.41 139.437 646.8C139.857 647.18 140.077 653.58 139.677 674.5Z" fill="#B6BEC7"/>
<path d="M1021.19 205.27C1021.47 205 1032.49 205.03 1045.69 205.35C1058.89 205.66 1072.39 206.2 1075.69 206.53C1078.99 206.86 1086.64 208.03 1092.69 209.14C1098.74 210.24 1107.06 212.04 1111.19 213.15C1115.31 214.25 1121.39 216.05 1124.69 217.16C1127.99 218.26 1132.26 219.86 1134.19 220.7C1136.11 221.55 1139.26 222.89 1141.19 223.68C1143.11 224.47 1149.86 227.65 1156.19 230.74C1162.51 233.83 1171.29 239.01 1175.69 242.26C1180.09 245.5 1185.94 250.49 1188.69 253.35C1191.44 256.2 1195.86 261.46 1198.52 265.02C1201.17 268.58 1205.15 275.32 1207.35 280C1209.56 284.68 1212.05 290.52 1212.89 293C1213.73 295.48 1215.06 300.43 1215.84 304C1216.62 307.57 1218.13 315.9 1219.19 322.5C1220.25 329.1 1221.62 341.48 1222.23 350C1222.88 358.97 1223.21 382.41 1223.02 405.67C1222.84 427.755 1222.47 446.081 1222.19 446.39C1221.91 446.7 1217.64 447.06 1212.69 447.19C1207.74 447.32 1176.58 447.34 1083.19 447L1077.19 441L1077.16 399.25C1077.15 376.29 1076.71 347.15 1076.2 334.5C1075.68 321.85 1074.75 309.7 1074.13 307.5C1073.5 305.3 1071.91 302.04 1070.59 300.25C1069.27 298.46 1066.28 296.03 1063.94 294.85C1061.39 293.56 1057.1 292.53 1053.19 292.27C1049.45 292.02 1044.14 292.44 1040.69 293.26C1037.39 294.04 1032.78 295.88 1030.44 297.34C1028.1 298.8 1025.52 301.01 1024.7 302.25C1023.88 303.49 1022.58 308.32 1021.82 313C1021.05 317.68 1020.25 328.02 1020.05 336C1019.85 343.98 1019.71 417.32 1019.73 499C1019.76 612.22 1020.06 649.4 1021.01 655.5C1021.9 661.23 1023.02 664.58 1024.97 667.3C1026.47 669.39 1029.26 671.83 1031.19 672.72C1033.11 673.62 1038.06 674.54 1042.19 674.78C1046.31 675.02 1051.49 674.75 1053.69 674.18C1056.16 673.53 1059.04 671.68 1061.24 669.32C1063.93 666.41 1065.06 664.06 1065.93 659.5C1066.56 656.2 1067.58 642.02 1068.2 628C1068.81 613.98 1069.51 599.58 1069.76 596C1070 592.42 1070.75 584.33 1072.65 566.5L1073.4 586.5C1073.82 597.499 1074.4 606.728 1074.7 607C1075 607.27 1075.26 604.35 1075.27 600.5C1075.29 596.65 1075.75 589.9 1076.31 585.5C1076.86 581.1 1077.46 572.1 1077.64 565.5C1077.82 558.9 1077.8 554.29 1077.58 555.25C1077.37 556.21 1076.74 557 1076.19 557C1075.64 557 1075.03 555.99 1074.83 554.75C1074.63 553.51 1074.4 554.19 1074.33 556.25C1074.25 558.31 1073.85 560 1073.44 560C1073.03 560 1072.57 557.64 1072.42 554.75C1072.17 550.1 1072.49 549.13 1078.19 543H1148.69C1193.69 543 1219.91 543.36 1221.19 544C1222.29 544.55 1223.71 546.69 1224.34 548.75C1225.17 551.47 1225.28 562.1 1224.75 587.5C1224.34 606.75 1223.68 622.95 1223.28 623.5C1222.87 624.05 1222.45 626.08 1222.33 628C1222.22 629.92 1221.93 632.62 1221.69 634C1221.45 635.37 1220.59 641.23 1219.79 647C1218.98 652.77 1217.38 661.1 1216.22 665.5C1215.07 669.9 1212.79 676.87 1211.15 681C1209.51 685.12 1207.14 690.52 1205.87 693C1204.61 695.48 1202.36 699.41 1200.88 701.75C1199.4 704.09 1195.83 708.48 1192.94 711.51C1190.05 714.55 1187.91 717.26 1188.19 717.54C1188.47 717.82 1188.01 718.05 1187.19 718.03C1186.36 718.02 1184.11 719.47 1182.19 721.25C1180.26 723.03 1173.4 727.75 1166.94 731.74C1160.48 735.73 1154.63 738.98 1153.94 738.96C1153.25 738.93 1152.19 739.49 1151.57 740.21C1150.95 740.92 1146.45 742.85 1141.57 744.49C1136.69 746.14 1132.35 748.05 1131.94 748.74C1131.53 749.43 1130.06 750 1128.69 750C1127.31 750 1126.02 750.34 1125.81 750.75C1125.59 751.16 1122.78 752.12 1119.56 752.88C1116.33 753.64 1111.22 754.83 1108.19 755.53C1105.16 756.24 1100.44 757.12 1097.69 757.5C1094.94 757.88 1092.24 758.58 1091.69 759.06C1091.14 759.53 1084.84 760.44 1077.69 761.07C1070.54 761.69 1052.76 762.43 1038.19 762.7C1021.01 763.02 1007.82 762.77 1000.69 761.99C994.637 761.33 984.507 759.71 978.187 758.38C971.857 757.05 964.437 755.25 961.687 754.37C958.937 753.49 951.507 750.55 945.187 747.84C938.857 745.13 933.008 742.471 932.187 741.94C931.357 741.4 929.107 740.25 927.187 739.38C925.257 738.52 920.307 735.33 916.187 732.29C912.057 729.26 905.177 723.12 900.887 718.64C896.597 714.16 891.197 707.37 888.887 703.53C886.577 699.7 882.517 691.6 879.867 685.53C877.207 679.47 874.147 670.9 873.047 666.5C871.947 662.1 870.437 654.45 869.687 649.5C868.937 644.55 868.026 637.35 867.666 633.5C867.306 629.65 867.067 623.8 867.127 620.5C867.187 617.2 866.887 615.02 866.467 615.66C866.037 616.3 865.557 613.37 865.397 609.16C865.247 604.95 864.977 595.2 864.817 587.5C864.657 579.8 864.307 554.83 864.037 532C863.767 509.17 863.936 463.05 864.416 429.5C864.896 395.95 865.457 366.02 865.657 363C865.857 359.98 866.307 354.35 866.637 350.5C866.977 346.65 867.717 338.55 868.267 332.5C868.827 326.45 870.187 317.23 871.297 312C872.407 306.77 874.007 299.8 874.857 296.5C875.707 293.2 877.306 288.48 878.416 286C879.526 283.52 882.067 278.12 884.067 274C886.067 269.87 889.717 264.02 892.187 261C894.647 257.98 899.597 252.52 903.177 248.88C906.757 245.24 912.837 240.03 916.687 237.32C920.537 234.6 925.866 231.281 928.537 229.94C931.206 228.601 934.126 226.81 935.037 225.96C935.947 225.11 940.507 222.93 945.187 221.11C949.857 219.29 954.587 217.43 955.687 216.97C956.787 216.5 960.157 215.44 963.187 214.6C966.217 213.77 972.057 212.37 976.187 211.5C980.307 210.63 988.407 209.28 994.187 208.51C999.967 207.73 1008.29 206.79 1012.69 206.43C1017.09 206.07 1020.91 205.55 1021.19 205.27ZM1355.19 699.18C1355.47 699.07 1356.7 699.66 1357.94 700.49C1360.17 701.99 1360.19 702.221 1360.19 750L1357.44 751.24C1355.4 752.16 1342.21 752.55 1258.19 753L1257.9 744.25C1257.71 738.45 1258.05 734.74 1258.9 733.25C1260.17 731.03 1260.49 731 1282.94 730.8C1295.45 730.7 1311.99 730.73 1319.69 730.88C1327.99 731.04 1334.81 730.71 1339.19 729L1339.17 716.25C1339.16 707.5 1339.55 702.96 1340.42 701.79C1341.34 700.55 1343.5 699.98 1348.19 699.73C1351.76 699.54 1354.91 699.3 1355.19 699.18ZM1292.65 526.09C1292.92 525.56 1306.79 525.25 1357.69 525.5L1358.19 543L1354.44 543.93C1352.38 544.45 1349.56 545.06 1348.19 545.3C1346.41 545.6 1346.76 545.77 1349.44 545.86C1351.5 545.94 1353.19 546.45 1353.19 547C1353.19 547.55 1354.3 549.24 1355.66 550.75C1357.01 552.26 1358.66 555.52 1359.31 558C1359.97 560.48 1360.28 564.98 1360.01 568C1359.73 571.13 1358.69 574.65 1357.6 576.16C1356.55 577.62 1353.89 579.64 1351.69 580.66C1348.6 582.08 1345.28 582.5 1326.49 582.5L1322.09 578.7C1319.67 576.61 1317.08 574.36 1316.33 573.7C1315.58 573.04 1315.25 571.71 1315.58 570.75C1315.92 569.79 1315.74 569 1315.19 569C1314.64 569 1314.41 568.33 1314.69 567.5C1314.97 566.67 1314.74 565.77 1314.19 565.5C1313.64 565.23 1313.19 563.09 1313.18 560.75C1313.17 558.41 1312.84 554.801 1312.43 552.73C1312.02 550.66 1311.13 548.97 1310.44 548.98C1309.75 548.99 1309.41 548.33 1309.69 547.5C1310.1 546.26 1309.16 546.04 1304.28 546.25C1299.54 546.45 1297.85 547 1295.75 549C1293.83 550.84 1293.15 552.49 1293.16 555.25C1293.18 557.31 1293.75 559.29 1294.44 559.65C1295.13 560 1298.1 560.57 1301.04 560.9C1303.99 561.23 1306.8 561.95 1307.29 562.5C1307.78 563.05 1308.07 567.54 1307.69 581.44L1303.44 582.22C1300.9 582.69 1298.59 582.6 1297.69 582C1296.86 581.45 1294.95 581.32 1293.44 581.7C1291.42 582.22 1290.89 582.08 1291.44 581.2C1291.9 580.47 1291.5 579.81 1290.44 579.51C1289.48 579.24 1287.4 578.23 1285.81 577.26C1283.81 576.04 1282.07 573.37 1280.09 568.5C1277.65 562.49 1277.24 560.12 1277.22 551.75C1277.2 544.91 1277.59 541.63 1278.52 540.75C1279.25 540.06 1280.15 538.26 1280.52 536.75C1280.89 535.24 1282.75 532.42 1284.66 530.5C1286.56 528.58 1289.04 527 1290.16 527C1291.27 527 1292.4 526.59 1292.65 526.09ZM1333.58 550.04C1332.76 550.03 1331.46 550.37 1330.7 550.78C1329.85 551.25 1329.42 552.87 1329.58 555.02C1329.72 556.93 1330.57 559.3 1331.46 560.28C1332.48 561.4 1334.47 562.05 1336.83 562.03C1339.36 562.01 1340.88 561.43 1341.5 560.25C1342.08 559.13 1342.01 557.77 1341.29 556.5C1340.67 555.4 1339.03 553.5 1337.63 552.28C1336.23 551.06 1334.41 550.05 1333.58 550.04ZM1266.09 0C1266.69 0.00133281 1268.6 2.81083 1270.32 6.25C1272.05 9.69 1275.13 15.65 1277.17 19.5C1279.22 23.35 1282.48 29.6501 1284.43 33.5C1286.38 37.35 1289.01 43.2 1290.27 46.5C1291.54 49.8 1294.73 57 1297.36 62.5C1300 68 1302.16 72.84 1302.17 73.25C1302.18 73.6602 1306.24 82.3201 1311.19 92.5C1316.14 102.679 1320.18 111.109 1320.17 111.25C1320.16 111.39 1323.77 118.47 1328.19 127C1332.61 135.53 1336.24 142.95 1336.24 143.5C1336.24 144.05 1337.26 145.85 1338.5 147.5C1339.75 149.15 1343.56 156.01 1353.19 175L1349.94 174.77C1348.15 174.65 1346.47 174.24 1346.19 173.86C1345.91 173.49 1338.49 169.5 1329.69 165C1320.89 160.5 1308.97 154.17 1303.19 150.95C1297.41 147.72 1292.13 145.06 1291.44 145.04C1290.75 145.02 1287.15 143.12 1283.44 140.82C1279.73 138.52 1274.22 135.64 1265.69 132.19L1261.19 134.14C1258.72 135.2 1253.76 137.58 1250.19 139.42C1246.61 141.26 1242.34 143.45 1240.69 144.3C1239.04 145.15 1223.51 152.88 1206.19 161.48C1188.86 170.08 1174.56 176.75 1174.4 176.31C1174.25 175.856 1177.77 168.297 1182.23 159.5C1186.7 150.7 1190.7 143.05 1191.13 142.5C1191.55 141.949 1194.27 136.999 1197.17 131.5C1200.07 126 1204.35 117.9 1206.68 113.5C1208.84 109.42 1212.67 102.16 1215.52 96.7402L1216.18 95.5C1219.08 90.0001 1223.03 82.5701 1224.96 79C1226.9 75.4302 1228.81 72.0503 1229.2 71.5C1229.6 70.95 1233.2 64.2 1237.19 56.5C1241.19 48.8 1244.62 41.6 1244.81 40.5C1245.01 39.4 1245.73 38.05 1246.43 37.5C1247.12 36.9498 1248.55 34.6998 1249.61 32.5C1250.67 30.3 1251.6 28.05 1251.69 27.5C1251.77 26.95 1252.82 25.04 1254.02 23.25C1255.21 21.46 1256.19 19.55 1256.19 19C1256.19 18.45 1257.2 17.0697 1258.44 15.9297C1259.68 14.7897 1260.69 13.0498 1260.69 12.0498C1260.69 11.0498 1261.48 9.3903 1262.44 8.36035C1263.41 7.34035 1264.31 5.49 1264.44 4.25C1264.58 3.01 1265.03 2 1265.44 2C1265.85 1.99998 1265.92 1.5499 1265.59 1C1265.26 0.45 1265.48 0 1266.09 0Z" fill="#FCC513"/>
<path d="M119.687 254C119.407 253.45 119.437 252.55 119.737 252C120.037 251.45 123.187 251 126.737 251C131.967 251 133.307 251.33 133.837 252.75C134.247 253.84 133.877 254.88 132.847 255.5C131.337 256.43 131.357 262.81 133.157 341C134.227 387.48 135.357 433.82 135.677 444C135.997 454.17 136.917 487.48 137.717 518C138.527 548.52 139.467 587.67 139.817 605C140.357 632.5 140.667 636.88 142.197 639.5C143.697 642.06 144.047 646.24 144.577 668C144.927 682.02 145.537 698.34 145.947 704.26C146.677 714.82 146.737 715.02 149.187 715.16C151.547 715.29 151.527 715.32 148.937 715.65C146.347 715.98 146.187 716.3 146.187 721C146.187 725.35 145.897 726.07 143.937 726.57C142.697 726.88 141.557 726.99 141.407 726.82C141.247 726.64 140.797 708.52 139.687 646.59L137.187 645.92C134.707 645.25 134.707 645.24 137.937 644.12C139.727 643.51 141.187 642.55 141.187 642C141.187 641.45 140.287 641 139.187 641C137.347 641 137.147 640.17 136.707 630.75C136.447 625.11 135.977 608.8 135.677 594.5C135.367 580.2 134.467 530.48 133.677 484C132.887 437.52 131.757 367.77 131.167 329C130.577 290.23 129.897 257.94 129.647 257.25C129.387 256.56 128.287 256 127.187 256C125.217 256 125.187 256.67 125.167 294.75C125.157 316.06 124.877 402.58 124.547 487C124.217 571.42 123.887 640.55 123.817 640.61C123.747 640.67 121.997 640.56 119.937 640.36C117.177 640.09 116.417 639.67 117.067 638.75C117.547 638.06 118.237 615.45 118.597 588.5C118.967 561.55 119.897 497.42 120.677 446C121.457 394.57 122.337 330.56 122.637 303.75C123.117 260.84 123.007 255 121.687 255C120.867 255 119.957 254.55 119.687 254Z" fill="#99A5B3"/>
<path d="M134.587 349C134.377 345.98 134.087 324.05 133.947 300.28C133.797 276.5 133.937 257.24 134.247 257.47C134.557 257.69 134.677 260.38 134.497 263.44C134.327 266.5 134.527 268.82 134.937 268.6C135.347 268.37 135.817 271.19 135.977 274.85C136.137 278.51 136.587 284.11 136.977 287.31C137.367 290.5 137.557 293.2 137.397 293.31C137.247 293.41 136.917 296.65 136.687 300.5C136.447 304.35 135.997 315.6 135.687 325.5C135.377 335.4 135.467 342.95 135.907 342.28C136.417 341.47 137.147 342.33 138.017 344.78C138.747 346.82 140.627 351.65 142.197 355.5C143.767 359.35 146.077 365.2 147.327 368.5C148.577 371.8 150.067 375.15 150.637 375.94C151.417 377.01 151.367 377.21 150.437 376.69C149.617 376.243 149.367 376.513 149.687 377.5C149.957 378.32 150.637 378.77 151.187 378.5C151.737 378.23 151.397 379.31 150.437 380.92C149.477 382.53 148.237 383.54 147.697 383.17C147.117 382.78 147.017 383.02 147.447 383.75C147.857 384.44 147.487 386.24 146.627 387.75C145.767 389.26 145.317 389.71 145.627 388.75C145.937 387.79 145.787 386.89 145.297 386.75C144.797 386.61 142.277 379.3 139.687 370.5C137.087 361.7 134.797 352.02 134.587 349Z" fill="#99A5B3"/>
<path d="M113.607 690C113.947 676.52 114.487 659.99 114.797 653.25C115.117 646.51 115.677 641.02 116.037 641.04C116.397 641.06 117.137 641.78 117.687 642.63C118.297 643.58 120.857 644.43 124.187 644.8C129.267 645.37 129.417 645.46 122.687 646.5L122.187 686C121.907 707.73 121.347 726.06 120.937 726.75C120.417 727.62 119.187 727.76 116.937 727.21C113.837 726.46 113.677 726.19 113.437 721.21C113.277 717.85 112.747 715.99 111.937 715.98C111.027 715.97 110.997 715.77 111.837 715.23C112.627 714.73 113.177 706.75 113.607 690Z" fill="#99A5B3"/>
<path d="M88.4365 726.88C89.6765 726.26 91.7265 724.46 92.9965 722.88C94.2765 721.29 95.5665 720 95.8765 720C96.1865 720 95.5865 720.9 94.5565 722C93.4065 723.24 92.9765 724.57 93.4365 725.5C93.8465 726.32 96.3265 727.97 98.9365 729.16C101.547 730.34 105.937 731.92 108.687 732.66C111.437 733.4 118.307 734.34 123.947 734.75C129.617 735.17 134.197 735.95 134.197 736.5C134.197 737.15 129.927 737.25 121.937 736.78C115.177 736.38 106.097 735.13 101.687 733.98C97.2865 732.84 93.1065 731.36 92.3965 730.7C91.3765 729.76 91.1065 729.77 91.1465 730.75C91.1665 731.44 92.1965 732.64 93.4365 733.43C94.6765 734.21 98.3865 735.53 101.687 736.36C104.987 737.19 111.397 738.35 115.937 738.94C123.047 739.85 124.087 740.23 123.437 741.66C122.797 743.07 121.577 743.22 115.187 742.7C111.057 742.37 104.077 741.06 99.6665 739.8C95.2665 738.53 90.4265 736.71 88.9165 735.75C86.9365 734.48 86.1865 733.18 86.1865 731C86.1865 728.89 86.8565 727.67 88.4365 726.88Z" fill="#99A5B3"/>
<path d="M169.997 725.24C170.497 723.61 170.137 722.56 168.687 721.44C166.737 719.93 166.747 719.92 168.937 720.94C170.177 721.53 171.527 722.92 171.937 724.04C172.347 725.17 173.477 726.29 174.437 726.54C175.397 726.8 176.407 727.9 176.687 729C176.957 730.1 176.987 731.79 176.737 732.75C176.497 733.71 174.137 735.46 171.487 736.64C168.847 737.81 165.557 739.11 164.187 739.53C161.877 740.24 161.797 740.16 163.187 738.55C164.007 737.58 166.257 735.85 168.187 734.7C170.117 733.55 171.997 732.13 172.377 731.55C172.767 730.97 172.877 730.39 172.627 730.25C172.387 730.11 171.177 730.64 169.937 731.43C168.697 732.21 164.197 733.56 159.937 734.43C155.677 735.29 150.497 735.96 148.437 735.92C145.547 735.85 146.637 735.38 153.187 733.88C157.867 732.81 163.397 730.93 165.497 729.72C167.587 728.5 169.617 726.48 169.997 725.24Z" fill="#99A5B3"/>
<path d="M137.687 743.73C135.487 743.94 131.437 743.94 128.687 743.74C125.937 743.53 127.737 743.36 132.687 743.35C137.637 743.35 139.887 743.52 137.687 743.73Z" fill="#99A5B3"/>
<path d="M1334.99 512.7C1334.85 507.48 1335.19 505.06 1336.19 504.2C1336.96 503.54 1337.71 503 1337.85 503C1337.99 503 1338.04 504.91 1337.97 507.25C1337.9 509.59 1337.92 512.96 1338.19 518L1346.94 517.9C1351.94 517.84 1356.27 517.3 1357.03 516.65C1358.1 515.74 1358.25 515.86 1357.78 517.25C1357.46 518.21 1356.18 519.21 1354.94 519.48C1353.7 519.74 1349.54 520.12 1345.69 520.32C1341.84 520.52 1337.9 520.53 1336.94 520.34C1335.49 520.06 1335.16 518.76 1334.99 512.7Z" fill="#CDA52C"/>
<path d="M1327.44 546.98C1325.94 546.97 1325.91 546.83 1327.19 546C1328.02 545.47 1329.7 545.02 1330.94 545.02C1332.18 545.01 1334.65 545.65 1336.44 546.45C1338.23 547.24 1340.62 548.7 1341.76 549.7C1342.9 550.69 1344.41 552.62 1345.11 554C1346.16 556.05 1346.15 556.91 1345.04 558.78C1344.3 560.03 1343.13 561.04 1342.44 561.03C1341.75 561.01 1341.45 560.44 1341.78 559.75C1342.1 559.06 1341.8 557.37 1341.12 556C1340.43 554.62 1338.71 552.48 1337.28 551.22C1335.56 549.71 1333.68 549.04 1331.69 549.22C1328.81 549.49 1328.7 549.68 1329.08 558.5L1328.01 554.5C1327.23 551.59 1327.24 550.02 1328.06 548.75C1328.98 547.32 1328.87 547 1327.44 546.98Z" fill="#CDA52C"/>
<path d="M1255.01 608.83C1254.86 601.12 1255.12 599.36 1256.66 597.83C1257.66 596.82 1258.88 596 1259.37 596C1259.85 596 1259.77 596.56 1259.19 597.25C1258.61 597.94 1257.92 602.66 1257.66 607.75C1257.24 615.94 1257.39 617.06 1258.94 617.5C1259.9 617.78 1267.89 617.78 1292.69 617.01L1288.19 619.9C1285.72 621.49 1283.11 623.4 1282.41 624.15C1281.71 624.89 1280.86 628.42 1280.53 632C1280.03 637.36 1280.29 639.33 1282.05 643.25C1283.81 647.15 1285.04 648.39 1288.94 650.17C1293.41 652.2 1295.24 652.34 1320.19 652.42C1343.52 652.49 1347.11 652.29 1350.19 650.75C1352.11 649.79 1353.81 649.12 1353.97 649.25C1354.12 649.39 1352.99 650.38 1351.47 651.46C1349 653.2 1346.09 653.5 1325.19 654.24C1312.27 654.7 1298.99 654.81 1295.69 654.49C1292.33 654.16 1287.97 652.94 1285.78 651.7C1283.64 650.49 1280.94 648.23 1279.78 646.67C1278.29 644.65 1277.58 641.95 1277.32 637.17C1277.04 632.16 1277.39 629.63 1278.74 627C1279.72 625.08 1281.46 622.77 1282.61 621.88C1284.64 620.3 1284.6 620.25 1280.69 619.56C1278.49 619.17 1272.41 618.97 1267.19 619.11C1261.97 619.26 1257.13 619.07 1256.44 618.69C1255.6 618.23 1255.13 614.97 1255.01 608.83Z" fill="#CDA52C"/>
<path d="M1298.29 665C1297.73 660.8 1297.46 660.46 1294.19 659.88C1291.14 659.34 1291.05 659.25 1293.44 659.13C1294.95 659.06 1296.86 659.22 1297.69 659.5C1298.77 659.86 1299.15 661.32 1298.89 669.5L1298.29 665Z" fill="#CDA52C"/>
<path d="M1278.74 667.25C1279.59 664.64 1280.77 661.94 1281.35 661.25C1281.94 660.56 1282.83 660 1283.33 660C1283.85 660 1283.88 660.54 1283.4 661.25C1282.93 661.94 1281.91 664.42 1281.12 666.77C1280.33 669.11 1279.13 671.25 1278.44 671.52C1277.51 671.88 1277.58 670.8 1278.74 667.25Z" fill="#CDA52C"/>
<path d="M1340.79 667.12C1340.85 665.13 1340.96 662.94 1341.04 662.25C1341.12 661.56 1341.71 661 1342.34 661C1342.98 661 1343.67 662.24 1343.88 663.75C1344.09 665.26 1344.02 667.29 1343.73 668.25C1343.43 669.21 1342.63 670.17 1341.94 670.37C1341.09 670.63 1340.72 669.59 1340.79 667.12Z" fill="#CDA52C"/>
<path d="M1332.19 671.74C1328.07 671.93 1320.86 671.93 1316.19 671.74C1311.52 671.56 1314.89 671.41 1323.69 671.4C1332.49 671.4 1336.32 671.56 1332.19 671.74Z" fill="#CDA52C"/>
<path d="M1256.01 685.33C1255.86 678.11 1256.14 676.35 1257.66 674.83C1258.66 673.82 1259.62 673 1259.79 673C1259.96 673 1259.81 674.01 1259.45 675.25C1259.09 676.49 1258.77 680.65 1258.74 684.5C1258.71 688.35 1259.13 691.83 1259.68 692.23C1260.24 692.64 1264.4 692.98 1268.94 692.98C1273.48 692.99 1277.41 693.45 1277.69 694C1277.97 694.55 1278.64 695 1279.19 695C1279.74 695 1279.9 694.44 1279.54 693.75C1279.09 692.897 1279.24 692.813 1279.98 693.5C1280.58 694.05 1281.2 696.52 1281.69 703.5L1289.69 703.27C1294.89 703.12 1297.95 702.59 1298.42 701.77C1299 700.77 1299.16 700.77 1299.17 701.75C1299.18 702.44 1298.4 703.41 1297.44 703.91C1296.48 704.41 1292.99 704.9 1289.69 704.99C1286.39 705.09 1282.68 705.13 1281.44 705.08C1279.68 705.02 1279.19 704.41 1279.18 702.25C1279.17 700.74 1278.94 698.49 1278.68 697.25C1278.21 695.11 1277.73 695 1268.69 695C1263.47 695 1258.52 694.77 1257.69 694.5C1256.53 694.11 1256.15 692.03 1256.01 685.33Z" fill="#CDA52C"/>
<path d="M1344.69 691.56C1347.44 691.19 1351.27 689.82 1353.19 688.51C1355.11 687.19 1356.91 686.11 1357.19 686.1C1357.47 686.09 1356.11 687.4 1354.19 689.02C1351.76 691.05 1348.86 692.26 1344.69 692.97C1341.39 693.53 1329.95 693.99 1319.27 693.99C1308.59 694 1300.1 693.7 1300.4 693.33C1300.7 692.95 1309.67 692.55 1320.32 692.44C1330.97 692.32 1341.94 691.92 1344.69 691.56Z" fill="#CDA52C"/>
<path d="M513.556 340.5C513.906 337.2 514.246 331.8 514.306 328.5C514.396 324.04 514.586 323.27 515.076 325.5C515.496 327.41 515.996 328.05 516.456 327.25C516.856 326.56 517.746 326.01 518.436 326.02C519.269 326.027 519.186 326.347 518.186 326.98C516.946 327.77 516.906 328.3 517.936 329.97C518.836 331.43 519.186 338.08 519.166 353.75C519.156 368.16 518.826 374.99 518.186 374C517.486 372.92 517.206 373.89 517.166 377.5C517.146 380.25 516.486 383.4 515.706 384.5C514.456 386.26 514.296 384.36 514.366 369C514.426 357.27 514.826 351.28 515.566 350.84C516.319 350.407 516.063 349.573 514.796 348.34C513.196 346.78 513.006 345.59 513.556 340.5Z" fill="#072950"/>
<path d="M514.186 473.49C513.916 473.23 514.096 472.23 514.586 471.26C515.446 469.59 515.516 469.59 515.836 471.25C516.046 472.29 516.796 472.8 517.686 472.5C518.576 472.2 519.186 472.61 519.186 473.5C519.186 474.54 518.506 474.84 516.936 474.48C515.696 474.19 514.456 473.74 514.186 473.49Z" fill="#072950"/>
<path d="M517.396 575.22C516.416 574.68 516.326 573.41 517.016 570.05C517.826 566.13 518.016 565.89 518.626 568.05C519.006 569.4 519.176 571.73 519.006 573.22C518.786 575.11 518.286 575.72 517.396 575.22Z" fill="#072950"/>
<path d="M1283.56 661.21C1284.21 660.32 1286.57 660.01 1297.69 660.5L1298.19 665.16C1298.47 667.72 1299.07 670.2 1299.53 670.66C1299.99 671.12 1308.76 671.64 1319.03 671.82C1332.95 672.06 1338.41 671.8 1340.5 670.82C1342.04 670.09 1343.52 668.83 1343.78 668C1344.05 667.17 1344.02 665.26 1343.73 663.75C1343.22 661.16 1343.41 660.99 1346.94 660.9C1349.01 660.85 1352.49 660.89 1354.69 661C1356.89 661.1 1359.02 661.71 1359.43 662.34C1359.83 662.98 1360.16 666.87 1360.16 671C1360.16 675.12 1359.69 680.08 1359.11 682C1358.39 684.41 1356.76 686.34 1353.88 688.19C1351.44 689.76 1347.4 691.19 1344.19 691.63C1341.17 692.04 1331.94 692.43 1323.69 692.51C1315.44 692.58 1306.78 692.72 1304.44 692.82C1300.99 692.97 1300.06 693.42 1299.5 695.25C1299.12 696.49 1298.89 698.17 1299 699C1299.1 699.83 1298.85 701.069 1298.44 701.769C1297.96 702.589 1294.88 703.12 1281.69 703.5L1281.38 699C1281.21 696.52 1280.58 694.05 1279.98 693.5C1279.24 692.813 1279.09 692.897 1279.55 693.75C1279.9 694.44 1279.74 695 1279.19 695C1278.64 695 1277.97 694.55 1277.69 694C1277.42 693.45 1273.48 692.989 1268.94 692.979C1264.41 692.979 1260.24 692.639 1259.69 692.229C1259.14 691.828 1258.71 688.349 1258.74 684.5C1258.78 680.65 1259.1 676.6 1259.47 675.5C1259.96 674.04 1261.43 673.29 1264.92 672.74C1267.54 672.33 1271.49 671.979 1273.69 671.979C1275.89 671.969 1278.19 671.639 1278.8 671.229C1279.41 670.829 1280.52 668.699 1281.26 666.5C1282 664.3 1283.04 661.92 1283.56 661.21ZM1308.64 594.98C1346.1 594.97 1356.97 595.25 1357.96 596.23C1358.74 597.021 1359.21 600.141 1359.19 604.5C1359.17 608.35 1358.83 612.06 1358.42 612.74C1358.02 613.42 1355.66 614.38 1353.19 614.88C1349.17 615.68 1349.04 615.79 1351.94 615.89C1354.11 615.963 1355.19 616.5 1355.19 617.5C1355.19 618.33 1356.29 620.24 1357.63 621.75C1359.51 623.88 1360.2 626.08 1360.7 631.5C1361.26 637.72 1361.06 639 1358.89 643C1357.11 646.29 1355.14 648.17 1351.57 650C1346.71 652.49 1346.57 652.5 1320.19 652.42C1295.24 652.34 1293.41 652.2 1288.94 650.17C1285.04 648.39 1283.81 647.15 1282.05 643.25C1280.29 639.33 1280.03 637.36 1280.53 632C1280.86 628.421 1281.71 624.891 1282.41 624.15C1283.11 623.4 1285.72 621.49 1292.69 617.01L1276.69 617.51C1267.89 617.78 1259.9 617.78 1258.94 617.5C1257.41 617.06 1257.24 615.91 1257.56 608.25C1257.76 603.41 1258.52 598.49 1259.26 597.25L1260.59 595L1308.64 594.98ZM1319.69 619.5C1319.69 619.5 1303.72 619.49 1302.53 619.93C1301.34 620.37 1299.69 621.58 1298.87 622.62C1298.04 623.65 1297.26 625.18 1297.12 626C1296.99 626.83 1297.17 628.29 1297.53 629.25C1298.13 630.83 1300.03 631 1317.62 631C1333.52 631 1337.33 630.73 1338.62 629.5C1339.48 628.68 1339.96 627.21 1339.68 626.25C1339.4 625.29 1338.17 623.459 1336.93 622.189C1334.82 620.013 1319.74 619.502 1319.69 619.5ZM1340.74 502.12C1342.36 501.55 1346.76 501.18 1357.32 501.5L1357.72 508.5C1357.98 513.12 1357.7 515.919 1356.9 516.729C1356.13 517.509 1352.51 517.97 1338.19 518L1337.94 515C1337.8 513.35 1337.69 510.87 1337.69 509.5C1337.69 508.12 1337.71 506.14 1337.74 505.08C1337.77 503.89 1338.9 502.77 1340.74 502.12Z" fill="#FCC513"/>
</svg>
