<svg width="409" height="306" viewBox="0 0 409 306" fill="none" xmlns="http://www.w3.org/2000/svg">
<path d="M208.734 276.421C209.379 276.44 209.912 276.767 209.921 277.149C209.931 277.532 207.237 283.94 203.935 291.393C200.156 299.91 197.369 305.018 196.434 305.168C195.611 305.299 194.937 305.187 194.937 304.935C194.937 304.682 195.779 302.58 198.679 296.062L194.853 287.423C192.749 282.67 190.823 278.216 190.57 277.523C190.28 276.72 190.681 276.384 191.663 276.589C192.561 276.776 194.638 280.157 200.081 292.438L203.823 284.416C205.88 279.998 208.088 276.402 208.734 276.421ZM126.264 0C128.219 0 130.193 0.727787 131.334 1.86719C132.438 2.96919 133.204 4.97739 133.204 6.77051C133.204 8.44228 131.942 12.4308 130.399 15.6436C128.855 18.8563 126.853 21.7047 125.955 21.9756C125.057 22.257 121.54 26.9822 118.136 32.4824C114.741 37.9928 108.062 49.0042 103.292 56.9707C98.5314 64.9279 92.5269 75.0149 89.9641 79.3857C87.3919 83.7567 78.7489 98.6719 70.7424 112.541C62.7453 126.41 51.8767 146.583 46.5921 157.37C41.3074 168.157 34.4792 183.287 31.4299 190.992C28.3714 198.697 24.3591 209.625 22.5071 215.275C20.6458 220.926 17.8766 230.806 16.3333 237.223C14.79 243.648 12.8826 253.838 12.0969 259.871C11.3206 265.904 10.6751 274.002 10.6751 277.85C10.6751 281.996 11.245 286.19 12.0774 288.123C13.1437 290.617 14.0424 291.393 15.8196 291.393C17.1104 291.392 19.1023 290.915 20.262 290.327C21.4219 289.748 24.6578 287.329 27.4544 284.957C30.251 282.594 36.7706 276.01 41.9524 270.341C47.1248 264.672 60.0423 248.701 70.6585 234.851C81.2746 221 96.1748 201.266 103.77 190.992C111.365 180.719 122.008 166.43 127.424 159.238C132.84 152.047 142.82 139.224 149.62 130.753C156.411 122.282 167.382 109.047 174.004 101.352C180.636 93.6559 192.365 81.0387 200.081 73.3057C207.798 65.582 218.105 55.9435 222.997 51.8994C227.889 47.8461 234.83 42.5596 238.431 40.1406C242.032 37.7311 247.504 34.4718 250.59 32.9121C253.677 31.3524 258.728 29.2228 261.815 28.1768C264.901 27.1308 270.794 25.8515 274.909 25.3379C281.138 24.5628 283.57 24.6844 289.407 26.0479C293.269 26.9538 297.684 28.3637 299.228 29.1855C300.771 29.9981 303.568 32.2774 305.439 34.248C307.319 36.2187 309.807 39.7206 310.976 42.0273C312.407 44.8571 313.249 48.5181 313.548 53.2344C313.847 58.0722 313.473 62.4063 312.323 67.2441C311.406 71.1013 310.088 75.827 309.386 77.751C308.498 80.207 307.553 81.2527 306.243 81.2529C305.215 81.2529 304.372 80.9357 304.372 80.5527C304.373 80.1691 305.42 76.4898 306.701 72.3809C307.983 68.2716 309.302 62.1731 309.629 58.8389C310.059 54.496 309.798 51.236 308.703 47.3975C307.787 44.1848 305.925 40.6268 304.045 38.5254C302.324 36.6015 298.639 33.986 295.861 32.7158C291.483 30.7079 289.491 30.4091 280.989 30.4277C272.552 30.4558 270.176 30.8297 264.153 33.0898C260.299 34.5375 254.191 37.414 250.59 39.4873C246.989 41.5607 240.254 46.0811 235.624 49.5273C230.994 52.983 222.614 59.9497 217.002 65.0303C211.39 70.1016 200.072 81.6082 191.86 90.5928C183.647 99.5867 170.955 114.502 163.65 123.748C156.345 132.994 145.317 147.283 139.154 155.502C132.98 163.721 121.615 179.486 113.899 190.525C106.173 201.565 94.4442 218.376 87.8313 227.884C81.2185 237.391 73.277 248.523 70.1809 252.633C67.0943 256.742 60.4915 265.148 55.5061 271.312C50.5301 277.477 42.9157 285.882 38.6038 289.991C34.2825 294.101 28.4461 298.621 25.6213 300.041C22.7219 301.507 18.9808 302.619 16.9885 302.609C15.062 302.609 12.4338 302.18 11.1428 301.666C9.86141 301.152 7.74667 299.573 6.44654 298.163C5.15576 296.753 3.16416 293.278 2.03248 290.458C0.18988 285.872 -0.0258523 283.668 0.00220781 269.911C0.0209175 256.621 0.386149 252.829 2.64967 242.359C4.09012 235.682 7.36368 223.279 9.9358 214.809C12.508 206.338 16.4086 194.775 18.6067 189.125C20.8047 183.475 25.0133 173.388 27.969 166.71C30.9153 160.032 37.7527 145.742 43.1497 134.955C48.556 124.168 57.8255 106.517 63.7649 95.7295C69.695 84.9424 77.917 70.2324 82.0325 63.041C86.1386 55.8496 92.2368 45.3427 95.5852 39.6924C98.9337 34.042 104.873 24.6279 108.782 18.7627C112.702 12.9069 117.509 6.28496 119.483 4.05273C122.391 0.756084 123.664 8.93136e-05 126.264 0ZM114.993 268.978C116.135 268.978 116.369 271.088 116.378 281.353C116.378 290.224 116.023 294.259 115.115 295.595C114.423 296.622 112.73 297.78 111.365 298.163C109.784 298.611 107.697 298.35 105.612 297.463C103.816 296.688 102.338 295.642 102.338 295.128C102.338 294.614 102.759 293.979 103.274 293.727C103.788 293.475 105.369 293.876 106.782 294.633C108.951 295.791 109.643 295.809 111.224 294.754C112.907 293.624 113.123 292.298 113.357 281.24C113.572 271.191 113.862 268.978 114.993 268.978ZM327.522 276.449C330.58 276.449 332.114 277.038 334.191 279.018C335.837 280.587 337.147 283.033 337.549 285.321C337.989 287.778 337.792 289.992 336.959 291.775C336.267 293.27 334.659 295.277 333.368 296.239C331.891 297.351 329.477 297.995 326.821 297.995C324.052 297.995 321.732 297.341 320.039 296.09C318.627 295.053 316.999 292.615 316.419 290.691C315.643 288.105 315.643 286.274 316.419 283.688C317.102 281.39 318.515 279.54 320.507 278.316C322.284 277.224 325.193 276.459 327.522 276.449ZM369.613 276.477C371.025 276.495 372.914 277.019 373.812 277.645C374.7 278.27 375.121 279.074 374.747 279.429C374.363 279.783 372.493 279.783 370.595 279.429C367.64 278.878 367.031 279.064 366.47 280.651C365.993 282.024 366.414 282.949 368.06 284.116C369.304 284.994 371.474 286.564 372.886 287.619C374.354 288.712 375.459 290.421 375.468 291.626C375.468 292.784 374.841 294.67 374.065 295.828C373.026 297.369 371.708 297.939 369.145 297.967C367.068 297.995 365.16 297.426 364.468 296.566C363.823 295.782 363.514 294.708 363.767 294.194C364.057 293.615 365.03 293.755 366.339 294.567C367.789 295.473 369.098 295.623 370.548 295.034C371.745 294.558 372.653 293.391 372.653 292.326C372.653 291.177 371.324 289.645 369.229 288.356C367.34 287.198 365.235 285.415 364.543 284.388C363.851 283.361 363.29 281.997 363.289 281.353C363.299 280.708 364.14 279.344 365.169 278.316C366.198 277.289 368.2 276.458 369.613 276.477ZM154.821 276.449C158.655 276.449 159.843 276.897 162.2 279.251C163.744 280.792 165.259 283.211 165.558 284.621C165.867 286.031 165.651 288.767 165.09 290.691C164.529 292.615 162.911 295.053 161.498 296.09C159.74 297.397 157.523 297.986 154.484 297.958C151.144 297.939 149.339 297.351 147.235 295.595C145.626 294.259 144.186 291.962 143.849 290.225C143.531 288.553 143.577 285.929 143.951 284.388C144.326 282.847 145.897 280.428 147.441 279.018C149.704 276.944 151.135 276.449 154.821 276.449ZM244.904 276.449C247.41 276.449 250.226 277.13 251.685 278.083C253.06 278.98 254.743 281.081 255.426 282.753C256.109 284.425 256.67 286.209 256.67 286.723C256.669 287.283 252.767 287.656 237.028 287.656L237.963 290.458C238.478 291.999 239.74 293.681 240.769 294.194C241.798 294.708 244.117 295.128 245.913 295.128C248.177 295.128 249.832 294.427 251.291 292.858C252.825 291.205 253.78 290.832 254.799 291.477C255.968 292.205 255.688 292.821 253.162 295.146C250.693 297.407 249.281 297.939 245.68 297.958C242.752 297.986 240.442 297.397 238.899 296.239C237.617 295.277 235.999 293.27 235.307 291.775C234.474 289.992 234.277 287.778 234.717 285.321C235.11 283.099 236.448 280.54 238 279.018C240.095 276.972 241.499 276.449 244.904 276.449ZM290.062 276.449C291.324 276.449 292.082 276.935 291.905 277.616C291.736 278.261 290.688 278.887 289.566 279.018C288.247 279.167 287.04 280.4 286.133 282.52C285.366 284.322 284.73 288.525 284.73 291.859C284.73 296.631 284.431 297.929 283.327 297.93C282.158 297.93 281.924 296.118 281.924 287.189C281.924 278.261 282.158 276.449 283.327 276.449C284.104 276.449 284.889 276.972 285.085 277.616C285.366 278.55 285.685 278.55 286.676 277.616C287.35 276.972 288.883 276.449 290.062 276.449ZM154.407 278.599C152.294 278.617 150.724 279.456 148.93 281.53C147.538 283.123 146.453 285.245 146.509 286.244C146.574 287.234 147.192 289.224 147.893 290.647C148.594 292.071 149.855 293.561 150.697 293.947C151.538 294.334 153.593 294.645 155.266 294.626C156.939 294.607 159.004 294.079 159.855 293.447C160.705 292.816 161.818 291.232 162.323 289.94C162.837 288.639 162.977 286.348 162.65 284.84C162.313 283.341 160.986 281.304 159.705 280.333C158.416 279.362 156.033 278.58 154.407 278.599ZM326.689 278.627C324.651 278.627 322.912 279.362 321.651 280.748C320.595 281.917 319.464 283.718 319.137 284.755C318.801 285.792 319.006 287.913 319.576 289.469C320.156 291.024 321.324 292.816 322.174 293.447C323.025 294.079 325.09 294.607 326.763 294.626C328.436 294.645 330.492 294.334 331.333 293.947C332.174 293.561 333.436 292.071 334.137 290.647C334.838 289.224 335.408 287.206 335.408 286.169C335.408 285.132 334.147 283.011 332.605 281.455C330.614 279.447 328.904 278.627 326.689 278.627ZM245.613 280.085C243.351 280.076 241.548 280.774 240.062 282.244C238.847 283.451 237.931 284.723 238.033 285.072C238.127 285.431 241.576 285.723 245.688 285.723C249.8 285.723 253.174 285.402 253.193 285.016C253.202 284.629 252.257 283.365 251.089 282.206C249.697 280.839 247.79 280.094 245.613 280.085ZM260.252 63.5078C262.282 63.5078 263.517 64.0966 264.153 65.376C264.667 66.4033 265.088 68.7102 265.088 70.5127C265.088 72.3152 263.984 76.8263 262.637 80.5527C261.3 84.2784 259.72 87.8641 259.13 88.5283C258.55 89.2008 257.549 89.7243 256.904 89.6963C256.258 89.6775 255.314 88.3982 254.799 86.8574C254.285 85.3165 253.546 84.0461 253.162 84.0273C252.779 84.018 251.554 84.9615 250.441 86.1289C249.328 87.3059 245.576 92.881 242.115 98.5312C238.655 104.182 232.772 114.063 229.049 120.479C225.317 126.905 220.07 135.937 217.376 140.56C214.692 145.183 209.958 154.008 206.863 160.172C203.767 166.336 198.726 176.843 195.667 183.521C192.599 190.198 188.717 199.23 187.033 203.601C185.35 207.971 183.292 214.276 182.45 217.61C181.609 220.945 180.804 227.501 180.673 232.18C180.495 238.661 180.776 241.052 181.842 242.257C182.618 243.135 183.984 243.826 184.882 243.798C185.78 243.779 189.568 241.706 193.3 239.185C197.032 236.672 205.142 229.63 211.324 223.541C217.507 217.452 226.739 207.224 231.836 200.799C236.934 194.383 242.639 187.238 244.51 184.922C246.371 182.606 249.178 178.833 250.749 176.517C252.311 174.2 255.866 170.259 258.644 167.737C261.412 165.225 265.368 162.394 267.426 161.451C269.484 160.517 272.009 159.724 273.038 159.687C274.086 159.649 276.574 161.395 278.688 163.637C280.773 165.841 283.224 168.904 284.141 170.445C285.469 172.668 286.376 173.2 288.546 173.014C290.052 172.883 291.521 173.304 291.811 173.948C292.1 174.594 289.921 179.954 286.975 185.855C284.019 191.758 279.942 200.584 277.921 205.469C275.901 210.353 272.767 218.544 270.962 223.681C269.148 228.817 267.455 235.122 267.193 237.69C266.837 241.286 267.08 242.687 268.268 243.761C269.661 245.022 270.42 244.853 275.639 242.22C278.838 240.604 284.823 236.148 288.939 232.319C293.054 228.49 298.582 222.251 301.22 218.45C303.858 214.649 312.005 200.191 319.338 186.322C326.662 172.454 336.127 155.223 340.373 148.031C344.62 140.84 349.307 133.555 350.784 131.846C352.505 129.847 354.142 128.839 355.329 129.044C356.349 129.212 357.612 130.519 358.136 131.938C358.875 133.946 358.678 135.731 357.247 139.877C356.228 142.819 353.253 149.432 350.634 154.568C348.015 159.705 342.806 168.746 339.055 174.648C335.314 180.551 328.139 191.272 323.116 198.464C318.094 205.655 313.295 212.697 312.453 214.107C311.612 215.517 311.135 216.674 311.387 216.676C311.649 216.676 317.729 208.373 324.904 198.23C332.078 188.088 339.448 178.001 341.272 175.815C343.825 172.762 345.237 171.847 347.398 171.847C349.521 171.847 351.167 172.883 354.179 176.096C356.829 178.929 359.869 180.983 363.299 182.26C366.601 183.493 371.792 184.361 377.797 184.697C383.549 185.015 389.488 184.763 393.23 184.062C396.578 183.427 400.993 181.942 403.051 180.766C405.108 179.58 407.353 178.88 408.027 179.206C408.709 179.524 409.131 180.607 408.962 181.625C408.803 182.634 406.98 184.399 404.922 185.548C402.864 186.697 398.552 188.284 395.334 189.078C392.014 189.9 385.448 190.525 380.135 190.525C374.991 190.525 368.575 190.068 365.871 189.498C363.168 188.938 359.277 187.5 357.219 186.313C355.161 185.127 352.215 182.848 350.672 181.251C349.129 179.654 347.548 178.356 347.164 178.365C346.781 178.375 341.683 185.006 335.837 193.094C330.001 201.182 322.209 212.007 318.533 217.144C314.867 222.28 309.432 229.341 306.477 232.824C303.522 236.317 300.361 239.146 299.462 239.128C298.564 239.109 297.199 238.456 296.422 237.69C295.534 236.803 295.244 235.523 295.646 234.188C296.085 232.694 294.392 233.843 289.781 238.157C286.217 241.491 280.783 245.582 277.697 247.235C274.619 248.888 270.635 250.27 268.829 250.308C266.454 250.354 264.816 249.654 262.88 247.768C260.299 245.265 260.215 244.891 260.626 238.157C260.897 233.889 262.01 228.602 263.479 224.614C264.807 221.019 267.192 214.509 268.773 210.139C270.363 205.768 271.541 202.116 271.41 202.004C271.277 201.904 269.277 204.163 266.958 207.038C264.648 209.915 259.382 215.378 255.267 219.188C251.152 222.999 245.68 227.145 243.108 228.406C240.536 229.676 237.271 230.704 235.859 230.694C234.203 230.685 232.23 229.602 230.303 227.65C227.403 224.699 227.337 224.456 227.964 218.777C228.319 215.569 228.506 212.929 228.376 212.903C228.245 212.885 225.429 216.134 222.109 220.141C218.788 224.138 212.007 231.405 207.04 236.289C201.84 241.398 195.667 246.441 192.496 248.169C189.466 249.822 185.621 251.185 183.947 251.204C182.272 251.223 179.653 250.494 178.119 249.598C176.586 248.701 174.836 246.918 174.219 245.629C173.611 244.349 172.92 239.091 172.686 233.954C172.321 225.988 172.638 223.101 174.818 214.341C176.23 208.69 179.513 198.604 182.132 191.927C184.742 185.249 190.616 172.435 195.19 163.441C199.764 154.457 205.647 143.314 208.276 138.691C210.904 134.068 217.666 122.515 223.316 113.008C228.956 103.5 237.093 90.3683 241.386 83.8213C245.67 77.2743 251.011 70.0271 253.238 67.7109C256.371 64.4703 257.97 63.5078 260.252 63.5078ZM170.488 162.488C171.329 162.479 172.555 163.012 173.209 163.656C173.854 164.31 174.388 166 174.378 167.41C174.369 168.82 171.02 176.6 166.933 184.688C162.845 192.776 156.261 205.068 152.295 212.007C148.339 218.946 144.738 225.979 144.298 227.65C143.578 230.359 143.166 230.658 140.453 230.452C137.732 230.247 137.424 229.929 137.498 227.417C137.554 225.773 142.305 215.611 148.955 202.9C155.213 190.955 160.339 180.868 160.358 180.485C160.368 180.101 161.902 176.422 163.753 172.313C165.605 168.205 167.541 164.32 168.046 163.675C168.542 163.03 169.646 162.498 170.488 162.488ZM273.099 168.778C272.09 168.26 270.64 168.553 268.893 169.637C267.416 170.542 263.098 174.87 259.304 179.244C255.5 183.619 250.173 190.595 247.463 194.743C244.753 198.891 241.258 205.048 239.706 208.414C238.155 211.78 236.649 216.135 236.36 218.077C235.995 220.557 236.183 221.613 237.005 221.604C237.65 221.603 240.276 220.388 242.846 218.917C245.416 217.437 250.883 212.874 254.995 208.772C259.108 204.671 265.65 197.506 269.529 192.839C273.407 188.181 277.547 183.1 278.725 181.544C280.585 179.093 280.725 178.404 279.735 176.358C279.108 175.057 277.697 173.012 276.613 171.796C275.519 170.58 273.931 169.221 273.099 168.778ZM350.997 140.498C350.838 140.234 347.521 145.853 343.623 152.99C339.726 160.127 335.436 168.187 334.1 170.912C332.763 173.637 331.885 175.862 332.137 175.862C332.389 175.862 334.66 172.364 337.174 168.084C339.688 163.804 343.895 155.96 346.521 150.643C349.146 145.328 351.164 140.766 350.997 140.498ZM178.569 131.696C179.597 131.678 180.972 132.191 181.627 132.835C182.273 133.489 182.825 134.657 182.834 135.423C182.853 136.189 182.188 137.459 181.356 138.225C180.018 139.476 179.504 139.448 176.642 137.991C174.874 137.095 173.349 135.749 173.265 135.002C173.181 134.255 173.911 133.218 174.903 132.695C175.894 132.172 177.54 131.724 178.569 131.696Z" fill="#201F21"/>
</svg>
