<svg width="659" height="464" viewBox="0 0 659 464" fill="none" xmlns="http://www.w3.org/2000/svg">
<path d="M239.392 7.97592C249.679 5.89462 265.521 3.28925 274.58 2.18121C283.698 1.07318 307.087 0.0999109 326.986 0.0100705C350.001 -0.0947433 369.646 0.62398 381.639 2.03148C391.926 3.24433 407.768 5.64007 416.827 7.39196C425.886 9.12887 441.713 12.9321 452.014 15.837C462.301 18.7268 473.426 22.1258 476.72 23.3686C480.015 24.6114 487.756 27.651 493.94 30.1066C500.109 32.5622 513.256 38.6265 523.138 43.5827C533.02 48.5239 547.17 56.6395 554.582 61.5957C561.994 66.5668 572.445 74.1134 577.791 78.3958C583.136 82.6632 593.498 92.1714 600.805 99.5233C608.097 106.875 618.429 118.959 623.729 126.371C629.045 133.782 637.041 147.258 641.488 156.317C646.085 165.646 651.295 179.272 653.511 187.762C656.536 199.276 657.629 207.751 658.243 224.446C658.842 240.513 658.423 249.856 656.671 260.383C655.353 268.199 652.314 279.998 649.918 286.586C647.522 293.174 643.015 303.611 639.916 309.795C636.816 315.964 631.575 325.068 628.251 330.009C624.942 334.95 617.665 344.383 612.08 350.972C606.495 357.56 598.334 366.319 593.947 370.437C589.56 374.555 580.247 382.341 573.269 387.731C566.291 393.137 553.833 401.687 545.598 406.748C537.363 411.794 522.539 419.759 512.657 424.446C502.774 429.118 483.908 436.545 470.731 440.962C457.555 445.379 440.38 450.365 432.549 452.057C424.718 453.734 410.568 456.399 401.105 457.957C391.642 459.529 372.431 461.61 358.431 462.583C344.221 463.572 324.366 463.931 313.51 463.407C302.804 462.883 287.307 461.745 279.072 460.891C270.836 460.038 253.317 457.298 240.141 454.797C225.077 451.937 206.181 446.936 189.231 441.321C174.407 436.41 153.52 428.13 142.814 422.889C132.108 417.663 116.61 409.098 108.375 403.858C100.139 398.617 88.6847 390.576 82.92 385.994C77.1552 381.398 67.6321 372.997 61.7625 367.308C55.893 361.618 47.433 352.574 42.9709 347.228C38.5238 341.883 32.3698 333.617 29.3302 328.886C26.2756 324.154 21.1696 315.05 17.9803 308.672C14.791 302.293 10.1492 291.003 7.66364 283.591C5.17805 276.179 2.30316 264.395 1.27 257.388C0.0870968 249.317 -0.287238 236.994 0.221857 223.698C0.835767 208.14 2.03364 198.872 4.89356 187.762C7.39412 178.089 11.961 166.439 17.8306 154.82C22.8317 144.938 31.1719 131.117 36.3677 124.125C41.5634 117.132 52.1496 105.078 59.8759 97.3522C67.6171 89.6109 78.982 79.4889 85.166 74.8172C91.335 70.1605 100.094 63.9315 104.631 60.9818C109.168 58.032 118.587 52.4469 125.594 48.5988C132.602 44.7356 144.041 39.0158 151.049 35.8714C158.057 32.727 170.185 27.7708 178.001 24.8509C185.817 21.9311 198.634 17.7835 206.451 15.6423C214.267 13.5011 229.09 10.0422 239.392 7.97592Z" fill="#3BB477"/>
<path d="M269.338 8.69466C276.346 7.73636 289.822 6.4187 299.285 5.78982C308.748 5.14596 327.63 4.92136 341.211 5.2957C354.792 5.68501 374.002 7.00267 383.885 8.24546C393.767 9.47328 409.939 12.1236 419.821 14.13C429.703 16.1364 444.527 19.7301 452.763 22.1108C460.998 24.4916 475.492 29.2981 484.955 32.8018C494.419 36.2906 507.565 41.8458 514.153 45.1399C520.742 48.4191 530.849 53.8694 536.614 57.2384C542.378 60.5925 549.116 64.785 551.587 66.5219C554.058 68.2738 561.125 73.4247 567.309 77.9766C573.478 82.5435 583.585 90.9885 589.769 96.7532C595.938 102.518 604.773 111.876 609.399 117.551C614.026 123.226 620.255 131.402 623.25 135.729C626.244 140.056 631.814 149.819 635.618 157.44C639.421 165.062 643.808 175.334 645.38 180.275C646.938 185.216 649.229 194.32 650.441 200.489C651.714 206.913 652.657 220.059 652.657 231.184C652.657 242.175 651.699 255.531 650.456 261.88C649.258 268.064 647.671 275.131 646.953 277.602C646.219 280.073 643.044 288.158 639.885 295.57C636.726 302.982 631.5 313.433 628.251 318.779C625.017 324.124 619.147 332.899 615.209 338.244C611.286 343.59 600.385 355.389 590.997 364.448C580.396 374.675 567.129 385.485 556.019 392.972C546.167 399.605 530.025 409.128 520.143 414.129C510.26 419.131 496.111 425.629 488.699 428.579C481.287 431.514 467.466 436.335 458.003 439.3C448.54 442.25 432.354 446.337 422.067 448.389C411.78 450.425 395.265 453.225 385.382 454.618C372.28 456.444 356.888 457.118 328.483 457.103C299.345 457.088 285.03 456.429 271.584 454.468C261.702 453.03 243.839 449.796 231.905 447.281C219.971 444.765 199.413 439 186.236 434.478C173.059 429.941 153.519 421.856 142.813 416.51C132.107 411.15 117.628 403.064 110.62 398.527C103.628 393.99 92.5025 386.054 85.9142 380.918C79.3259 375.768 67.5268 364.897 59.7107 356.766C51.8946 348.636 41.9523 336.762 37.625 330.383C33.2977 324.005 29.7639 318.105 29.7639 317.282C29.7639 316.458 29.2399 315.619 28.596 315.41C27.9521 315.2 25.0024 309.99 22.0227 303.805C19.0579 297.636 14.8804 287.185 12.7392 280.597C10.6129 274.008 8.18726 264.231 7.34875 258.885C6.51024 253.54 5.82146 240.738 5.82146 230.436C5.80649 220.149 6.77976 206.673 7.97763 200.489C9.1755 194.32 11.7809 184.542 13.7574 178.778C15.7488 173.013 20.151 162.741 23.5649 155.943C26.9789 149.145 32.2944 139.966 35.379 135.549C38.4635 131.117 43.3149 124.559 46.1448 120.95C48.9748 117.342 57.3899 108.328 64.8616 100.916C72.3183 93.489 83.8179 83.382 90.4062 78.4408C96.9945 73.4995 105.08 67.7198 108.374 65.5936C111.668 63.4823 118.406 59.3497 123.348 56.4299C128.289 53.4951 137.213 48.6736 143.187 45.6939C149.162 42.7142 160.946 37.6532 169.391 34.4489C177.836 31.2446 187.778 27.6061 191.477 26.3633C195.175 25.1055 204.623 22.3804 212.439 20.299C220.256 18.2177 233.402 15.1482 241.638 13.4712C249.873 11.8091 262.331 9.65296 269.338 8.69466Z" fill="#FAFDFC"/>
<path d="M306.398 37.3388C307.011 37.3687 309.003 33.9997 310.83 29.8521C313.749 23.159 314.648 22.3055 318.691 22.3055C321.191 22.3055 323.258 22.8146 323.273 23.4285C323.288 24.0424 320.592 29.7772 317.283 36.1559C312.057 46.218 311.264 49.048 311.264 57.493C311.264 66.8813 311.129 67.2257 307.521 67.2257C304.077 67.2257 303.777 66.6717 303.777 60.4877C303.777 56.7743 302.879 51.5635 301.786 48.8833C300.693 46.203 297.324 40.3035 294.299 35.7815C291.274 31.2596 288.789 26.7077 288.804 25.6745C288.804 24.5964 290.705 23.8028 293.296 23.8028C297.069 23.8028 298.387 24.8809 301.531 30.5409C303.598 34.2543 305.784 37.3088 306.398 37.3388Z" fill="#3BB477"/>
<path d="M329.981 66.477L329.157 22.3055H357.681V31.2895H347.949C338.56 31.2895 338.216 31.4243 338.216 35.0329C338.216 38.6115 338.62 38.7762 347.2 38.7762C352.186 38.7762 356.184 39.4351 356.184 40.2736C356.184 41.0971 356.349 42.9538 356.558 44.3913C356.873 46.6073 355.51 47.0715 338.216 47.7603L338.965 57.493L348.697 58.2417C357.876 58.9454 358.43 59.2 358.43 62.7337C358.43 66.4621 358.385 66.477 329.981 66.477Z" fill="#3BB477"/>
<path d="M365.078 53.3753C365.842 47.4009 366.89 37.9976 367.384 32.4575L368.298 22.3953L375.335 23.1889C379.213 23.6231 385.322 24.7761 388.931 25.7643C392.54 26.7376 396.073 28.7291 396.792 30.1665C397.511 31.604 398.095 35.4821 398.095 38.7762C398.095 43.5677 397.271 45.3795 389.859 50.9047L393.977 59.0652C396.253 63.5572 398.095 67.8995 398.095 68.723C398.095 69.5466 396.582 70.2054 394.726 70.1904C392.884 70.1904 390.608 69.6813 389.68 69.0674C388.751 68.4685 386.475 64.6054 384.619 60.4877C382.762 56.37 380.486 52.5068 379.573 51.9079C378.644 51.294 377.042 50.7849 376.009 50.7849C374.826 50.7699 373.868 53.7796 373.389 58.9903C372.7 66.5818 372.355 67.2257 368.897 67.2257C366.845 67.2257 364.824 66.5519 364.405 65.7284C364 64.9048 364.3 59.3497 365.078 53.3753Z" fill="#3BB477"/>
<path d="M253.931 32.3526C255.398 30.8852 258.947 29.1034 261.837 28.4296C264.712 27.7408 268.754 27.5162 270.821 27.9205C272.872 28.3248 276.076 29.5826 277.933 30.7205C279.79 31.8585 282.215 34.6436 283.339 36.9046C284.476 39.1655 285.824 43.5527 286.333 46.6373C286.857 49.7218 286.648 54.7828 285.854 57.8673C285.06 60.9518 282.53 65.354 280.239 67.63C277.708 70.1455 273.681 72.1669 270.072 72.7359C265.445 73.4696 262.795 72.9455 258.468 70.46C254.679 68.2738 252.388 65.6385 251.46 62.3593C250.696 59.6791 249.648 55.4716 249.154 53.001C248.645 50.5303 248.915 45.4693 249.753 41.7709C250.592 38.0575 252.478 33.82 253.931 32.3526Z" fill="#3BB477"/>
<path d="M401.748 67.6C402.122 66.1626 403.56 56.7293 404.952 46.6373C407.004 31.7986 407.947 28.2948 409.909 28.3098C411.226 28.3248 413.158 28.8339 414.206 29.4328C415.688 30.3163 415.464 34.8831 413.098 51.5036C411.466 63.0331 409.774 72.7958 409.34 73.2151C408.89 73.6193 406.854 73.1252 404.818 72.0921C402.392 70.8792 401.314 69.307 401.748 67.6Z" fill="#3BB477"/>
<path d="M231.905 51.1293C230.243 43.5078 229.27 36.6051 229.719 35.7815C230.168 34.958 232.189 34.2842 234.211 34.2842C237.445 34.2842 238.044 35.1976 239.317 42.1452C240.11 46.4726 241.488 54.3785 242.371 59.739C243.255 65.0845 243.629 70.6546 243.18 72.0921C242.731 73.5295 240.515 76.09 238.254 77.752C235.993 79.429 232.444 80.8066 230.393 80.8215C228.326 80.8215 225.182 79.6237 223.415 78.1413C221.633 76.6739 219.776 73.9488 219.297 72.0921C218.638 69.5765 219.267 68.3038 221.783 67.061C224.658 65.6385 225.511 65.908 227.607 68.9327C229.299 71.3733 230.812 72.122 232.474 71.3434C233.792 70.7295 234.885 69.0375 234.9 67.6C234.9 66.1626 233.552 58.7507 231.905 51.1293Z" fill="#3BB477"/>
<path d="M422.441 55.1122C427.577 46.3977 432.713 38.1324 433.866 36.7398C435.229 35.0928 437.04 34.5537 439.107 35.1826C440.844 35.7217 442.596 36.4703 443.015 36.8746C443.419 37.2639 445.261 47.1314 447.088 58.7807C448.929 70.415 450.442 80.4622 450.457 81.0761C450.487 81.69 448.989 82.2141 447.133 82.229C445.276 82.244 442.91 81.3905 441.862 80.3574C440.814 79.3092 439.975 76.599 439.99 74.3381C440.02 70.6097 439.346 70.0856 432.908 68.8279C429 68.0642 425.751 67.5701 425.721 67.7048C425.676 67.8546 424.568 69.6514 423.25 71.7177C421.558 74.383 419.746 75.3563 416.961 75.0867C414.82 74.8771 413.068 73.8739 413.083 72.8407C413.083 71.8076 417.291 63.8417 422.441 55.1122Z" fill="#3BB477"/>
<path d="M447.746 124.229C459.036 111.637 463.469 107.804 470.716 104.39C475.657 102.069 481.212 100.167 483.069 100.167C484.925 100.167 487.785 100.841 489.432 101.665C491.079 102.488 492.457 104.674 492.487 106.531C492.532 108.792 490.675 111.173 486.872 113.763C483.742 115.889 478.667 119.258 475.582 121.25C472.497 123.241 467.317 127.898 464.082 131.611C460.848 135.31 453.856 143.395 448.555 149.579C443.254 155.748 438.658 162.157 438.343 163.804C437.789 166.679 438.673 166.814 460.983 167.143C482.11 167.473 484.461 167.772 490.181 173.612L487.022 177.699C485.285 179.93 481.916 182.191 479.535 182.716C477.154 183.24 468.47 183.839 460.234 184.033C451.999 184.243 440.395 184.827 423.654 186.264L416.946 195.997C413.263 201.342 407.049 211.12 403.141 217.708C399.233 224.297 391.776 238.282 386.58 248.778C381.384 259.275 377.132 268.199 377.132 268.618C377.132 269.022 375.814 272.227 374.197 275.73C372.595 279.234 369.585 287.14 367.534 293.324C365.483 299.493 362.802 308.926 361.59 314.287C360.377 319.632 358.909 328.392 358.34 333.752C357.771 339.098 357.726 346.689 358.235 350.597C358.879 355.524 360.437 358.997 363.281 361.872C365.647 364.268 369.945 366.529 373.389 367.188C377.506 367.981 381.938 367.562 387.613 365.885C392.135 364.538 398.199 362.007 401.089 360.27C403.964 358.533 409.025 355.089 412.319 352.604C415.613 350.118 422.247 344.353 427.053 339.802C431.86 335.235 438.688 327.793 442.221 323.271C445.74 318.734 450.726 310.993 453.272 306.051C456.072 300.616 457.928 294.702 457.988 291.078C458.033 287.784 457.539 284.625 456.91 284.071C456.266 283.502 453.376 283.726 450.502 284.565C447.612 285.403 443.749 285.688 441.892 285.208C439.781 284.669 438.178 282.798 437.609 280.222C436.906 277.018 437.58 275.281 440.664 272.361C443.838 269.352 446.414 268.528 453.915 268.154C461.312 267.779 463.798 268.229 465.999 270.4C467.541 271.882 469.982 275.461 471.449 278.351C472.902 281.226 474.564 286.96 475.133 291.078C475.852 296.409 475.432 300.721 473.635 306.051C472.258 310.169 468.005 318.255 464.187 324.02C460.369 329.784 452.867 339.128 447.507 344.773C442.146 350.418 433.387 358.279 428.041 362.247C422.681 366.2 412.244 372.354 404.833 375.887C392.959 381.577 390.099 382.356 380.875 382.386C374.467 382.401 367.773 381.413 363.656 379.84C359.942 378.418 354.432 374.705 351.408 371.605C348.368 368.491 344.49 362.411 342.798 358.084C340.672 352.694 339.698 346.809 339.698 339.367C339.698 333.393 340.687 323.451 341.885 317.282C343.082 311.098 345.059 302.338 346.257 297.816C347.455 293.279 350.554 284.19 353.159 277.602C355.75 271.014 361.47 258.211 365.842 249.153C370.229 240.094 377.791 225.944 382.642 217.708C387.508 209.473 393.648 199.531 396.283 195.623C398.918 191.715 401.089 187.836 401.089 187.013C401.089 186.189 399.397 184.497 397.346 183.27C394.681 181.667 393.603 179.721 393.603 176.532C393.603 173.537 394.726 171.286 396.972 169.779C398.828 168.536 403.036 167.518 406.33 167.518C409.624 167.503 413.023 167.008 413.877 166.395C414.745 165.796 419.581 159.567 424.613 152.574C429.659 145.567 440.065 132.824 447.746 124.229Z" fill="#3BB477"/>
<path d="M267.107 142.841C271.944 136.253 277.229 129.35 278.846 127.494C280.748 125.337 283.473 124.14 286.423 124.17C288.954 124.199 293.221 125.547 295.901 127.164C298.581 128.781 301.127 131.626 301.591 133.483C302.085 135.519 298.626 148.067 292.817 165.301C287.531 180.949 282.71 196.102 282.096 198.992C281.182 203.274 281.332 203.888 282.934 202.361C284.012 201.327 285.435 200.489 286.094 200.489C286.752 200.489 290.062 203.02 293.461 206.104C296.845 209.189 300.558 213.576 301.696 215.837C302.834 218.098 303.433 221.467 303.029 223.323C302.639 225.18 301.187 227.696 299.809 228.938C298.057 230.511 293.925 231.184 274.564 231.199L273.336 246.173C272.318 258.601 272.513 261.82 274.459 265.249C275.747 267.51 276.81 270.37 276.81 271.613C276.81 272.84 275.747 274.862 274.459 276.105C273.157 277.333 270.626 278.366 268.844 278.396C267.047 278.426 264.232 277.003 262.585 275.251C259.935 272.436 259.501 269.382 258.093 226.692L247.612 224.072C241.847 222.65 233.417 221.047 220.66 219.58L209.58 229.882C203.5 235.542 197.092 241.157 195.355 242.355C193.633 243.553 191.192 245.529 189.964 246.757C188.722 247.97 181.31 253.106 173.494 258.182C165.663 263.258 154.208 269.801 148.039 272.721C141.855 275.655 132.766 278.8 127.825 279.698C122.884 280.612 116.475 281.36 113.6 281.375C110.71 281.375 104.99 279.713 100.873 277.677C96.7549 275.641 92.218 272.107 90.8105 269.801C89.388 267.51 87.5463 261.416 86.6928 256.265C85.465 248.838 85.6297 244.81 87.4864 236.799C88.7591 231.244 91.4544 223.653 93.4608 219.954C95.4822 216.241 99.4801 210.686 102.37 207.601C105.245 204.517 111.489 200.13 116.22 197.869C124.156 194.08 126.507 193.721 146.542 193.242C164.824 192.823 171.682 193.347 189.964 196.596C201.898 198.722 213.023 200.459 214.67 200.459C216.318 200.444 219.687 198.587 222.157 196.326C224.628 194.08 230.692 187.522 235.648 181.757C240.589 176.007 247.717 167.577 251.475 163.055C255.233 158.519 262.271 149.43 267.107 142.841Z" fill="#3BB477"/>
<path d="M515.426 198.453C519.649 194.455 526.492 189.588 530.609 187.612C534.727 185.65 539.773 184.018 541.839 183.973C543.891 183.943 547.439 185.291 549.7 186.968C552.066 188.705 554.222 192.074 554.776 194.874C555.315 197.554 555.675 202.091 555.6 204.981C555.48 209.069 554.162 211.375 549.625 215.462C546.436 218.337 539.489 222.23 534.218 224.087C528.932 225.959 521.625 227.98 517.957 228.579C511.788 229.612 510.919 230.346 506.053 238.671C503.178 243.612 500.438 250.47 499.989 253.914C499.195 259.903 499.36 260.233 503.657 261.221C506.173 261.805 510.785 261.446 514.139 260.413C517.433 259.379 522.823 257.223 526.117 255.591C529.636 253.839 533.499 252.986 535.476 253.51C538.201 254.229 538.77 255.307 538.47 259.26C538.156 263.258 536.763 265.009 530.609 269.082C526.492 271.822 519.754 275.057 515.636 276.269C510.844 277.692 505.993 278.111 502.16 277.452C498.012 276.719 494.449 274.637 490.555 270.639C484.94 264.875 484.94 264.875 485.345 253.27C485.689 243.567 486.573 240.079 490.72 231.933C493.46 226.573 498.401 218.487 501.711 213.965C505.02 209.428 511.189 202.451 515.426 198.453Z" fill="#3BB477"/>
<path d="M344.19 211.15C346.242 209.548 349.611 207.541 351.677 206.703C353.728 205.864 357.442 205.101 359.912 205.011C362.383 204.921 366.082 206.134 368.148 207.721C371.741 210.461 371.801 210.776 369.645 215.462C368.402 218.158 366.216 220.928 364.779 221.646C363.341 222.365 360.302 222.934 358.041 222.934C355.78 222.919 350.554 224.985 346.436 227.531C342.319 230.091 333.889 237.354 327.72 243.687C321.536 250.021 313.45 259.784 309.752 265.369C304.466 273.35 301.561 276.18 296.276 278.5C289.792 281.36 289.433 281.375 286.812 278.785C284.926 276.928 284.402 274.967 285.075 272.361C285.614 270.295 289.597 262.883 293.94 255.891C298.282 248.883 303.612 239.629 305.784 235.302C307.97 230.975 309.752 226.094 309.752 224.446C309.752 222.799 310.261 220.359 310.875 219.011C311.488 217.678 314.019 215.627 316.49 214.474C318.96 213.336 322.659 211.405 324.725 210.207C326.776 209.009 329.981 208.006 331.837 207.991C333.964 207.991 335.476 209.069 335.955 210.97C336.359 212.617 337.542 213.995 338.575 214.01C339.609 214.04 342.124 212.752 344.19 211.15Z" fill="#3BB477"/>
<path d="M171.293 396.641C174.347 387.162 177.462 378.238 178.21 376.801C178.959 375.363 180.381 374.195 181.4 374.195C182.403 374.21 184.11 374.72 185.203 375.318C186.76 376.202 186.086 379.721 181.969 392.149C178.6 402.315 177.267 408.395 178.21 409.368C179.004 410.191 182.478 411.958 185.922 413.291C190.264 414.983 192.33 416.705 192.585 418.906C192.794 420.658 192.121 422.47 191.087 422.934C190.054 423.398 184.155 421.586 177.986 418.906C171.802 416.241 166.531 414.01 166.247 413.95C165.962 413.905 168.238 406.104 171.293 396.641Z" fill="#3BB477"/>
<path d="M470.581 382.521C471.599 380.918 474.728 378.762 477.558 377.714C480.388 376.651 483.877 375.768 485.315 375.738C486.752 375.708 489.792 377.28 492.053 379.256C495.751 382.461 495.946 383.075 493.924 385.306C492.682 386.668 490.66 387.776 489.432 387.746C488.19 387.731 486.348 386.848 485.33 385.815C483.832 384.273 482.739 384.347 479.64 386.159C477.529 387.387 476.031 389.408 476.301 390.651C476.69 392.403 478.741 392.792 485.734 392.418C492.936 392.044 495.467 392.553 498.791 395.038C502.145 397.569 502.908 399.321 502.923 404.502C502.923 408.005 501.92 412.378 500.677 414.234C499.435 416.091 495.557 418.696 492.053 420.044C486.498 422.17 485.045 422.23 480.628 420.418C477.843 419.28 474.908 417.004 474.13 415.357C473.081 413.156 473.321 411.764 475.028 410.117C477.109 408.11 477.903 408.185 482.275 410.686C486.228 412.962 487.83 413.171 490.555 411.809C492.697 410.731 493.924 408.754 493.924 406.373C493.924 402.765 493.595 402.645 485.24 403.004C479.011 403.274 475.417 402.645 472.512 400.758C470.251 399.291 468.395 396.656 468.29 394.769C468.2 392.912 468.26 390.052 468.44 388.405C468.604 386.758 469.578 384.108 470.581 382.521Z" fill="#3BB477"/>
<path d="M202.632 409.742C207.947 402.121 213.368 394.38 214.67 392.523C215.973 390.666 218.189 389.169 219.597 389.169C221.004 389.184 223.056 389.693 224.134 390.292C225.511 391.055 226.664 398.183 227.877 413.381C228.85 425.479 229.135 435.916 228.506 436.59C227.877 437.263 225.676 436.979 223.64 435.946C220.795 434.523 219.911 432.906 219.941 429.208C219.971 424.895 219.342 424.132 214.326 422.5C211.227 421.481 208.007 420.613 207.184 420.583C206.36 420.538 204.848 422.215 203.815 424.296C202.362 427.231 201.179 427.875 198.574 427.171C196.717 426.662 194.696 425.659 194.082 424.925C193.468 424.192 197.316 417.364 202.632 409.742Z" fill="#3BB477"/>
<path d="M439.99 411.659C441.113 396.581 441.877 392.613 444.033 391.026C445.485 389.947 447.642 389.259 448.81 389.483C449.978 389.708 456.191 397.314 462.615 406.373C469.024 415.432 474.324 423.683 474.369 424.716C474.414 425.749 472.947 426.977 471.09 427.471C468.709 428.085 466.628 427.246 463.978 424.596C460.369 420.987 460.01 420.927 453.871 422.979C448.001 424.925 447.507 425.494 447.507 430.331C447.507 433.206 446.668 435.901 445.635 436.32C444.602 436.724 440.499 437.563 436.501 438.192C429.254 439.315 429.239 439.315 422.277 431.993C417.246 426.707 414.73 425.045 413.218 426.003C411.631 427.022 411.361 429.402 412.095 435.946C413.038 444.376 412.978 444.555 409.22 444.93C407.109 445.139 404.997 444.63 404.518 443.807C404.039 442.983 402.392 433.879 400.85 423.593C399.322 413.291 398.065 404.202 398.065 403.379C398.05 402.555 402.272 401.043 407.423 400.025C412.589 399.006 418.668 398.168 420.929 398.153C423.325 398.138 426.32 399.545 428.071 401.507C429.733 403.364 431.096 406.897 431.111 409.368C431.126 411.839 429.838 415.537 425.331 421.347L431.935 428.459C436.561 433.445 438.538 434.793 438.568 432.951C438.598 431.514 439.227 421.931 439.99 411.659Z" fill="#3BB477"/>
<path d="M238.254 408.934C237.939 403.633 238.508 402.151 241.847 399.635C244.033 397.988 247.911 396.641 250.457 396.641C253.002 396.656 257.285 398.003 259.965 399.635C262.645 401.282 265.251 404.142 265.76 405.999C266.269 407.856 266.344 410.371 265.909 411.614C265.445 412.962 263.708 413.68 261.612 413.396C259.681 413.156 257.42 411.464 256.596 409.667C255.772 407.871 253.751 406.179 252.104 405.909C250.457 405.64 248.091 405.804 246.863 406.283C245.037 407.002 245.321 407.871 248.361 410.925C250.412 412.992 252.778 414.669 253.601 414.639C254.425 414.624 256.955 416.286 259.216 418.352C261.477 420.403 263.663 424.117 264.083 426.587C264.502 429.088 263.828 433.071 262.585 435.571C261.343 438.042 258.483 440.782 256.222 441.651C253.182 442.834 250.397 442.744 245.576 441.276C241.982 440.198 238.104 438.297 236.981 437.069C235.843 435.826 234.405 432.277 233.777 429.178C232.698 423.862 232.848 423.533 236.382 423.503C239.047 423.488 240.649 424.671 241.967 427.65C242.985 429.941 245.336 432.292 247.208 432.861C249.079 433.43 251.79 433.266 253.227 432.487C254.664 431.708 255.847 430.406 255.847 429.582C255.847 428.759 251.969 425.195 247.238 421.661C239.362 415.777 238.598 414.698 238.254 408.934Z" fill="#3BB477"/>
<path d="M281.931 444.181C282.29 442.324 283.129 432.472 283.803 422.275L285.045 403.738L294.778 404.502C300.124 404.921 305.858 405.939 307.506 406.748C309.153 407.556 311.444 410.506 312.597 413.291C314.259 417.319 314.348 419.505 312.971 423.967C312.028 427.052 310.41 430.076 309.377 430.69C308.344 431.304 303.792 432.142 291.035 433.325L290.66 440.438C290.301 447.266 290.106 447.55 285.794 447.55C281.946 447.55 281.392 447.071 281.931 444.181Z" fill="#3BB477"/>
<path d="M362.173 408.994C362.159 406.283 363.102 405.52 367.01 405.116C369.69 404.831 374.916 404.472 378.614 404.307C383.391 404.112 386.565 404.906 389.47 407.062C391.806 408.799 394.232 412.542 395.085 415.732C395.894 418.816 396.567 424.551 396.582 428.459C396.582 432.547 395.474 437.473 393.962 440.048C392.525 442.504 389.994 445.184 388.347 446.008C386.7 446.831 381.309 448.119 376.368 448.868C371.427 449.616 367.234 450.141 367.055 450.021C366.875 449.901 366.336 445.753 365.857 440.812C365.378 435.871 364.36 427.441 363.596 422.095C362.832 416.735 362.188 410.85 362.173 408.994Z" fill="#3BB477"/>
<path d="M317.223 450.545L317.448 405.43L325.459 406.373L325.893 425.09C326.132 435.377 325.968 445.319 325.519 447.176C324.95 449.557 323.617 450.545 317.223 450.545Z" fill="#3BB477"/>
<path d="M330.714 407.107L337.827 406.628C341.735 406.373 348.128 406.029 352.051 405.879C359.014 405.625 359.164 405.699 359.164 410.102C359.164 414.579 359.119 414.594 349.805 414.968C340.776 415.327 340.432 415.492 339.698 423.578L349.057 423.203C358.28 422.844 358.415 422.889 358.789 426.947C359.149 430.99 358.999 431.064 350.928 431.064C344.19 431.064 342.409 431.618 341.196 434.059C340.372 435.706 340.028 438.072 340.447 439.3C341.001 440.992 343.606 441.546 360.661 441.546V450.53L331.463 449.781L330.714 407.107Z" fill="#3BB477"/>
<path d="M380.142 41.8458C377.491 41.1869 376.263 39.7196 375.919 36.8447C375.515 33.4607 375.994 32.7869 378.914 32.8018C380.815 32.8168 383.9 33.1612 385.757 33.5505C387.883 34.0147 389.126 35.3922 389.126 37.2789C389.126 38.926 387.943 40.8426 386.505 41.5313C385.068 42.2351 382.193 42.3698 380.142 41.8458Z" fill="#FAFDFC"/>
<path d="M257.899 50.755C256.97 44.7806 257.3 43.5527 260.789 39.8992C262.945 37.6382 266.089 35.7815 267.766 35.7815C269.458 35.7815 272.213 37.6382 273.875 39.8992C275.972 42.7142 276.915 46.2629 276.87 51.1293C276.84 56.1903 275.957 59.1101 273.83 61.2363C272.183 62.8834 269.653 64.246 268.215 64.2759C266.778 64.2909 264.098 62.7786 262.271 60.9069C260.399 58.9753 258.498 54.5582 257.899 50.755Z" fill="#FAFDFC"/>
<path d="M430.901 58.5711C430.826 57.9272 431.949 55.7411 433.417 53.7047L436.067 50.0063L437.355 53.7496C438.074 55.801 438.283 58.3315 437.849 59.3647C437.4 60.3978 435.693 60.8919 434.046 60.4877C432.399 60.0684 430.991 59.2149 430.901 58.5711Z" fill="#FAFDFC"/>
<path d="M243.24 196.461C247.417 191.67 255.787 181.847 261.837 174.615C267.886 167.383 272.977 161.738 273.157 162.052C273.321 162.382 271.569 170.318 269.234 179.691C266.913 189.064 264.232 199.441 263.289 202.735C262.346 206.029 261.133 209.278 260.594 209.967C260.055 210.656 254.979 210.327 249.319 209.218C243.659 208.125 238.269 206.763 237.34 206.194C236.262 205.55 238.403 202.016 243.24 196.461Z" fill="#FAFDFC"/>
<path d="M529.456 207.706C530.924 206.314 534.098 204.157 536.509 202.9C538.919 201.627 541.001 200.863 541.121 201.178C541.255 201.492 541.18 202.99 540.941 204.487C540.716 205.999 538.141 208.395 535.206 209.847C532.286 211.285 529.202 212.468 528.378 212.468C527.555 212.468 526.866 211.959 526.836 211.345C526.806 210.716 527.989 209.084 529.456 207.706Z" fill="#FAFDFC"/>
<path d="M114.364 216.001C116.834 214.145 121.551 211.584 124.845 210.312C129.277 208.62 134.967 208.17 146.556 208.56C155.211 208.859 170.709 210.267 180.995 211.674C191.297 213.097 200.266 214.684 200.925 215.223C201.584 215.762 197.87 220.029 192.69 224.701C187.494 229.358 180.217 235.482 176.503 238.297C172.805 241.112 166.396 245.769 162.279 248.643C158.161 251.503 150.075 256.145 144.31 258.96C135.551 263.228 131.748 264.171 121.102 264.71C108.479 265.354 108.359 265.324 105.38 261.071C103.014 257.657 102.415 254.438 102.475 245.469C102.55 236.62 103.358 232.577 106.218 226.782C108.24 222.724 111.893 217.873 114.364 216.001Z" fill="#FAFDFC"/>
<path d="M213.937 413.216C211.99 412.048 212.065 411.314 214.551 407.616L217.411 403.379L218.668 406.748C219.372 408.589 219.597 411.12 219.177 412.363C218.773 413.59 217.935 414.594 217.306 414.579C216.692 414.564 215.18 413.95 213.937 413.216Z" fill="#FAFDFC"/>
<path d="M452.014 415.342C449.453 415.986 449.019 415.342 449.019 410.85C449.019 407.975 449.528 405.64 450.142 405.67C450.771 405.699 452.089 406.882 453.092 408.29C454.095 409.697 454.934 411.689 454.964 412.722C454.994 413.755 453.661 414.938 452.014 415.342Z" fill="#FAFDFC"/>
<path d="M408.157 413.605C407.333 410.656 407.573 409.009 408.905 408.215C409.969 407.586 413.188 407.257 416.063 407.466C419.971 407.766 421.423 408.619 421.783 410.85C422.037 412.497 421.708 414.294 421.049 414.848C420.375 415.402 417.47 416.316 414.58 416.87C409.744 417.798 409.25 417.543 408.157 413.605Z" fill="#FAFDFC"/>
<path d="M293.296 422.964C292.892 422.574 292.787 420.194 293.071 417.678C293.49 413.98 294.299 413.096 297.189 413.096C299.165 413.096 301.801 414.115 303.029 415.342C304.271 416.585 304.945 418.936 304.526 420.583C303.972 422.799 302.519 423.593 298.911 423.623C296.246 423.638 293.715 423.353 293.296 422.964Z" fill="#FAFDFC"/>
<path d="M373.044 427.261C372.026 420.209 371.622 414.13 372.176 413.77C372.715 413.396 375.23 413.066 377.776 413.036C380.321 412.992 383.391 414.115 384.634 415.522C385.876 416.93 387.149 421.841 387.479 426.438C388.003 433.894 387.673 435.092 384.484 437.443C382.507 438.896 379.543 440.078 377.896 440.078C375.275 440.078 374.676 438.461 373.044 427.261Z" fill="#FAFDFC"/>
</svg>
