<svg width="827" height="367" viewBox="0 0 827 367" fill="none" xmlns="http://www.w3.org/2000/svg">
<path d="M0 339.133V183.5V27.8668C0 12.4764 12.4764 0 27.8668 0H798.672C814.062 0 826.539 12.4764 826.539 27.8668V339.133C826.539 354.524 814.062 367 798.672 367H27.8668C12.4764 367 0 354.524 0 339.133Z" fill="black"/>
<path d="M589.971 39.3396C592.695 37.4099 597.18 34.1658 599.924 32.131C602.669 30.0962 605.098 28.419 605.314 28.4085C605.529 28.4032 604.504 31.2898 603.037 34.8336C601.57 38.3774 599.851 41.7161 599.225 42.2577C598.599 42.794 594.356 45.1022 589.803 47.3841C585.249 49.6608 581.406 51.4695 581.269 51.3959C581.127 51.3223 581.911 49.3716 583.01 47.0582C584.934 43.0096 585.197 42.7204 589.971 39.3396Z" fill="#F5F4F5"/>
<path d="M181.481 42.4312C184.562 42.0001 188.232 41.5321 189.631 41.3954C191.029 41.2535 198.443 41.2114 206.109 41.2955C216.535 41.4112 220.936 41.6583 223.591 42.284C225.542 42.7414 228.739 43.7509 230.69 44.5291C233.245 45.5491 235.069 46.769 237.194 48.8669C239.47 51.1225 240.343 52.4475 241.011 54.6821C241.484 56.2752 241.873 59.1723 241.868 61.123C241.863 63.0737 241.594 65.9129 241.268 67.4324C240.948 68.952 240.001 71.5546 239.165 73.2161C238.335 74.8776 236.415 77.5065 234.896 79.0523C233.376 80.5982 230.595 82.8643 228.718 84.0841C226.836 85.304 223.523 87.1442 221.357 88.18C219.185 89.2106 215.92 90.5566 214.101 91.1665C212.276 91.7764 210.783 92.5125 210.783 92.8017C210.778 93.0909 212.508 93.9427 214.621 94.6893C216.735 95.4412 219.527 96.5979 220.831 97.2656C222.13 97.9281 224.496 99.353 226.089 100.426C227.677 101.503 229.911 103.423 231.052 104.69C232.193 105.962 233.655 108.181 234.302 109.627C234.948 111.073 235.637 113.323 235.837 114.622C236.074 116.141 235.895 118.397 235.343 120.931C234.87 123.098 233.839 125.989 233.045 127.351C232.256 128.718 230.427 131.179 228.981 132.83C227.535 134.476 224.932 136.831 223.197 138.062C221.462 139.287 218.623 141.095 216.888 142.073C215.153 143.051 211.84 144.602 209.527 145.528C207.213 146.448 203.307 147.694 200.851 148.293C197.817 149.035 193.769 149.487 188.232 149.697C183.747 149.871 173.1 149.724 164.572 149.376C156.038 149.029 147.215 148.577 140.869 148.009L150.113 137.715L153.793 137.736C155.817 137.741 158.299 137.525 159.314 137.252C160.323 136.973 161.969 136.205 162.968 135.543C163.962 134.881 165.513 133.393 166.412 132.236C167.306 131.079 168.536 128.829 169.146 127.241C169.751 125.653 171.086 120.563 172.106 115.936C173.132 111.309 174.819 102.792 175.866 97.008C176.912 91.2243 179.036 79.8673 180.587 71.7702C182.133 63.6731 183.795 54.5664 184.273 51.5273C184.746 48.4883 185.067 45.9277 184.978 45.8331C184.888 45.7384 182.506 46.0381 179.688 46.4903C176.812 46.9583 172.774 48.0677 170.487 49.0193C168.247 49.95 165.05 51.7271 163.389 52.9628C161.727 54.1984 159.435 56.4487 158.294 57.9683C157.153 59.4878 155.618 62.0904 154.876 63.7519C154.135 65.4134 153.178 68.2527 152.747 70.0614C152.321 71.8701 151.963 74.5884 151.953 78.8683L146.038 81.9652C141.227 84.4785 140.091 84.8991 139.954 84.1998C139.86 83.7266 140.296 80.7349 140.922 77.5539C141.547 74.3728 142.573 70.3506 143.198 68.6155C143.824 66.8804 145.165 64.0727 146.174 62.3796C147.184 60.6866 149.918 57.495 152.252 55.2815C155.213 52.479 157.92 50.5231 161.191 48.8195C163.773 47.4735 168.131 45.6596 170.881 44.792C173.626 43.9245 178.4 42.8624 181.481 42.4312Z" fill="#F5F4F5"/>
<path d="M438.381 49.8396C438.597 49.6345 441.725 48.5356 445.342 47.3947C448.955 46.2537 452.052 45.2968 452.225 45.2705C452.393 45.2389 452.456 45.7489 452.362 46.4009C452.262 47.0529 451.242 52.0794 450.085 57.5739C448.928 63.0684 447.982 67.8583 447.977 68.2211C447.971 68.7311 450.842 68.8784 473.209 68.8784L469.266 74.152L458.093 74.1415C446.936 74.1362 446.92 74.1362 446.646 75.3193C446.499 75.9712 445.332 81.7076 444.049 88.0696C442.771 94.4316 440.29 106.556 438.539 115.016C436.704 123.871 435.353 131.736 435.353 133.55C435.353 136.137 435.584 136.968 436.625 138.151C437.713 139.397 438.281 139.597 440.7 139.576C442.798 139.565 444.491 139.087 447.446 137.683C449.612 136.652 453.34 134.355 455.727 132.578C458.114 130.8 460.185 129.107 460.327 128.818C460.469 128.529 460.769 128.292 460.985 128.292C461.2 128.292 461.295 129.302 461.195 130.527C461.048 132.346 460.559 133.235 458.566 135.301C457.22 136.7 454.228 139.281 451.915 141.037C449.601 142.794 446.052 145.023 444.028 145.99C442.004 146.958 438.928 148.025 437.193 148.367C434.779 148.835 433.355 148.835 431.146 148.362C429.558 148.02 427.424 147.194 426.414 146.521C425.378 145.838 423.996 144.171 423.259 142.715C422.076 140.38 421.95 139.544 422.013 134.339C422.071 129.491 422.571 126.258 425.073 114.359C426.719 106.551 429.111 94.8418 430.389 88.3325C431.667 81.8285 432.829 75.9712 432.981 75.3193C433.249 74.1362 433.244 74.1362 426.151 74.1362C422.25 74.1362 419.048 74.0784 419.043 74.0048C419.032 73.9312 419.505 72.7482 421.156 68.8784L434.038 68.8941L436.015 59.5509C437.103 54.4139 438.171 50.0446 438.381 49.8396Z" fill="#F5F4F5"/>
<path d="M672.746 65.5554C675.958 65.3976 680.017 64.835 681.868 64.2935C684.029 63.6625 685.291 63.5153 685.438 63.8623C685.565 64.162 685.07 66.6543 684.345 69.4041C683.162 73.8681 682.783 74.62 680.759 76.5023C679.513 77.659 674.008 82.7276 668.524 87.7699C663.04 92.807 650.915 104.637 624.605 131.184L630.273 131.526C633.391 131.715 639.49 132.394 643.827 133.04C649.611 133.897 653.118 134.139 656.972 133.945C661.268 133.729 662.998 133.377 666.436 131.999C668.75 131.074 672.062 129.354 673.797 128.182C675.532 127.004 678.235 124.954 682.646 121.194L682.257 124.349C681.894 127.262 681.637 127.74 678.882 130.59C677.241 132.283 674.754 134.77 673.35 136.111C671.947 137.446 669.107 139.67 667.041 141.053C664.975 142.431 661.746 144.087 659.864 144.734C657.062 145.696 655.311 145.906 650.137 145.896C646.667 145.896 641.814 145.538 639.358 145.107C636.487 144.608 631.414 144.329 625.162 144.329C617.433 144.329 614.678 144.529 611.754 145.291C609.73 145.822 607.722 146.348 607.285 146.458C606.633 146.632 606.723 145.764 609.125 136.095L633.312 112.577C646.614 99.6369 659.275 87.4124 661.452 85.4091C663.623 83.4006 666.405 80.8716 667.63 79.7885C668.85 78.7053 669.854 77.7589 669.859 77.6853C669.859 77.6117 667.314 77.3856 664.207 77.1753C661.094 76.965 654.764 76.4129 650.137 75.9449C645.189 75.4402 639.884 75.2141 637.255 75.3876C634.8 75.5559 631.603 76.0396 630.157 76.4655C628.711 76.8914 625.577 78.5529 623.19 80.1565C620.803 81.7602 618.795 83.0694 618.721 83.0641C618.647 83.0589 618.742 82.0546 618.931 80.8295C619.215 78.9893 619.804 78.1217 622.349 75.7872C624.042 74.2414 626.96 71.8806 628.843 70.5398C630.725 69.2043 633.795 67.464 635.678 66.6806C637.56 65.8919 640.867 64.9928 643.034 64.6826C646.12 64.2356 649.122 64.2987 656.967 64.977C663.024 65.5028 669.244 65.7289 672.746 65.5554Z" fill="#F5F4F5"/>
<path d="M561.279 76.2604L578.036 70.5609C588.162 67.117 594.877 65.0874 595.008 65.4239C595.124 65.7341 594.135 70.5977 592.805 76.2394C591.48 81.8758 588.851 93.5904 586.964 102.266C585.081 110.941 582.967 120.994 582.268 124.612C581.564 128.224 580.991 132.546 580.996 134.208C580.996 136.731 581.211 137.446 582.31 138.545C583.13 139.365 584.219 139.86 585.202 139.86C586.07 139.86 587.784 139.355 589.014 138.745C590.244 138.13 592.784 136.395 594.666 134.891C596.549 133.387 599.856 130.222 602.027 127.861C604.194 125.495 606.086 123.56 606.234 123.56C606.381 123.566 606.37 124.922 606.213 126.584C605.929 129.549 605.845 129.68 601.743 133.65C599.44 135.874 595.902 139.018 593.878 140.643C591.853 142.263 588.436 144.466 586.28 145.538C582.805 147.263 581.916 147.484 578.393 147.484C575.123 147.484 574.024 147.252 572.131 146.169C570.722 145.359 569.308 143.945 568.451 142.489C567.215 140.38 567.068 139.613 567.115 135.391C567.152 131.731 567.893 127.257 570.37 115.673C572.126 107.429 574.176 97.3182 574.918 93.196C575.659 89.0739 576.264 84.4627 576.269 82.9432C576.269 81.35 575.938 79.6833 575.48 78.9998C575.044 78.3478 573.919 77.68 572.978 77.5171C571.994 77.3383 569.481 77.6643 567.062 78.2742C564.749 78.8578 562.388 79.4993 561.82 79.6991C560.884 80.0251 560.806 79.8673 561.279 76.2604Z" fill="#F5F4F5"/>
<path d="M535.242 69.993C537.114 68.6575 540.189 67.0381 542.077 66.3966C543.959 65.7499 546.452 65.2189 547.608 65.2084C548.765 65.1978 550.894 65.5343 552.34 65.9602C553.786 66.3861 555.443 67.0696 556.021 67.4798C557.036 68.2001 556.931 68.4104 553.108 73.4159C550.926 76.2709 548.886 79.0786 548.57 79.657C548.008 80.6928 547.95 80.6823 545.174 79.2574C543.292 78.29 541.562 77.8115 539.984 77.822C538.686 77.8325 536.551 78.332 535.252 78.9314C533.954 79.5308 531.377 81.4815 529.532 83.2587C527.686 85.0358 524.947 88.0328 523.448 89.9099C521.945 91.7869 519.295 95.4569 517.559 98.0596C515.83 100.662 512.491 105.983 510.146 109.89C507.801 113.796 505.414 118.05 504.835 119.354C504.262 120.658 502.674 127.041 501.307 133.55C499.94 140.054 498.61 145.617 498.342 145.906C498.079 146.195 494.798 146.553 491.055 146.695C485.239 146.921 484.251 146.842 484.246 146.169C484.24 145.738 485.202 141.237 486.375 136.179C487.553 131.116 489.346 123.071 490.355 118.302C491.37 113.534 493.268 104.422 494.572 98.0596C495.876 91.6976 497.08 84.836 497.248 82.8117C497.411 80.7875 497.396 78.4792 497.212 77.6853C497.022 76.8914 496.339 75.7609 495.687 75.1773C494.903 74.4727 493.794 74.1205 492.401 74.1362C491.244 74.152 489.23 74.6462 487.931 75.2456C486.627 75.8398 484.619 77.0544 483.462 77.9482C482.305 78.8368 479.109 81.7707 471.369 89.3683L471.506 86.8761C471.637 84.4785 471.832 84.2051 476.769 79.3941C479.587 76.6495 483.662 73.2214 485.828 71.786C488 70.3453 491.543 68.4735 493.715 67.6217C496.623 66.4808 498.552 66.0759 501.076 66.0654C503.205 66.0601 505.088 66.3703 506.071 66.8909C506.939 67.3536 508.153 68.2842 508.768 68.9572C509.378 69.6355 510.198 70.7817 510.582 71.5073C511.019 72.3328 511.282 74.6725 511.282 77.8167C511.276 81.6971 510.719 85.5721 508.779 95.1678C507.401 101.966 506.408 107.582 506.565 107.655C506.728 107.729 507.48 106.546 508.237 105.026C508.994 103.507 511.176 99.6632 513.085 96.4822C514.999 93.3012 518.285 88.3903 520.388 85.5721C522.491 82.7539 525.925 78.6422 528.023 76.4339C530.121 74.2309 533.365 71.3285 535.242 69.993Z" fill="#F5F4F5"/>
<path d="M287.08 67.9267C288.384 67.6007 289.92 67.2221 290.498 67.0854C291.076 66.9435 293.085 66.9119 294.967 67.0065C297.076 67.117 299.242 67.6112 300.619 68.2947C301.85 68.9046 303.632 70.1718 304.584 71.113C305.535 72.0541 306.839 74.1836 307.476 75.845C308.306 78.0113 308.643 80.0251 308.648 82.9432C308.653 85.5248 308.28 88.2694 307.623 90.4357C307.05 92.3127 305.662 95.2729 304.536 97.008C303.411 98.7431 301.093 101.488 299.384 103.102C297.68 104.721 294.862 106.951 293.127 108.06C291.392 109.169 288.553 110.736 286.817 111.536C285.082 112.34 281.649 113.576 279.193 114.291C276.738 115 271.885 115.978 268.415 116.457C264.945 116.935 261.869 117.561 261.58 117.834C261.229 118.174 261.264 119.959 261.685 123.187C262.032 125.847 262.863 129.433 263.525 131.147C264.193 132.861 265.681 135.317 266.837 136.605C267.994 137.893 269.887 139.434 271.044 140.023C272.453 140.738 274.535 141.169 277.353 141.321C280.892 141.516 282.206 141.337 285.634 140.18C287.874 139.423 291.308 138.004 293.258 137.026C295.209 136.043 299.352 133.561 302.46 131.505C305.567 129.449 308.238 127.824 308.396 127.898C308.553 127.972 308.49 129.092 308.259 130.396C307.844 132.693 307.66 132.877 301.792 136.873C298.474 139.139 292.917 142.389 289.446 144.098C285.976 145.812 281.244 147.689 278.931 148.272C276.375 148.919 273.021 149.334 270.387 149.329C267.726 149.324 264.882 148.961 263.026 148.388C261.364 147.873 258.725 146.511 257.158 145.365C255.596 144.219 253.677 142.331 252.894 141.174C252.11 140.017 250.875 137.888 250.149 136.442C249.423 134.996 248.551 132.509 248.214 130.921C247.878 129.333 247.594 125.9 247.588 123.297C247.583 120.695 247.841 117.025 248.161 115.148C248.482 113.271 249.444 109.601 250.296 106.998C251.148 104.395 252.741 100.489 253.829 98.3225C254.918 96.151 256.989 92.6282 258.43 90.483C259.876 88.343 262.589 84.9254 264.471 82.8959C266.354 80.8663 269.661 77.7957 271.832 76.0764C273.999 74.3571 277.79 71.9542 280.245 70.7344C282.701 69.5198 285.776 68.2527 287.08 67.9267Z" fill="#F5F4F5"/>
<path d="M363.845 70.2507C366.012 69.5198 369.682 68.5839 371.995 68.1633C374.309 67.7374 379.041 67.3799 382.511 67.3588C385.981 67.3378 391.423 67.6743 394.604 68.1107C397.785 68.5419 400.424 68.952 400.472 69.0203C400.519 69.0887 399.636 72.9269 398.511 77.5539C397.385 82.1808 394.688 93.8901 392.522 103.58C390.356 113.271 387.979 124.149 387.248 127.767C386.517 131.379 385.918 135.228 385.923 136.311C385.928 137.709 386.312 138.666 387.243 139.597C388.011 140.364 389.157 140.911 390.003 140.906C390.797 140.906 392.28 140.685 393.289 140.412C394.299 140.138 396.849 138.661 398.947 137.126C401.045 135.596 404.92 132.33 412.36 125.401L411.976 128.292C411.666 130.616 411.208 131.584 409.668 133.203C408.611 134.318 405.735 136.926 403.279 138.997C400.824 141.074 397.391 143.63 395.656 144.681C393.92 145.733 390.845 147.089 388.82 147.704C386.796 148.32 384.193 148.819 383.037 148.814C381.88 148.809 379.75 148.462 378.305 148.041C376.859 147.62 375.155 146.732 374.524 146.064C373.888 145.402 372.999 143.966 372.552 142.883C372.084 141.758 371.732 139.392 371.737 137.362C371.743 135.333 372.547 129.98 373.62 124.875C374.65 119.959 375.96 113.686 376.522 110.941C377.09 108.192 377.474 105.71 377.379 105.421C377.285 105.131 375.812 107.377 374.109 110.416C372.4 113.449 369.818 117.829 368.362 120.143C366.911 122.456 364.077 126.594 362.068 129.344C360.06 132.094 356.505 136.258 354.166 138.603C351.826 140.953 348.608 143.703 347.02 144.723C345.432 145.743 342.593 147.105 340.711 147.747C338.203 148.598 336.525 148.845 334.401 148.661C332.813 148.525 330.563 147.936 329.406 147.363C328.25 146.784 326.357 145.244 325.2 143.945C324.043 142.641 322.655 140.422 322.119 139.008C321.504 137.41 321.036 134.465 320.873 131.184C320.689 127.477 320.873 124.528 321.498 121.194C321.993 118.592 323.228 114.212 324.254 111.467C325.279 108.723 327.082 104.695 328.26 102.529C329.438 100.357 331.594 96.824 333.055 94.6735C334.517 92.523 337.63 88.7374 339.975 86.2609C342.314 83.7844 345.984 80.4194 348.124 78.7789C350.264 77.1332 353.787 74.846 355.959 73.6841C358.125 72.5221 361.674 70.9762 363.845 70.2507Z" fill="#F5F4F5"/>
<path d="M228.455 205.914C230.19 205.462 232.083 204.994 232.661 204.873C233.24 204.752 237.141 204.621 241.337 204.584C247.394 204.532 249.823 204.737 253.167 205.578C255.48 206.156 259.145 207.508 261.317 208.575C264.24 210.01 266.354 211.609 269.493 214.753C272.584 217.845 274.256 220.058 275.692 222.934C277.027 225.605 277.921 228.408 278.473 231.61C279.141 235.527 279.246 240.196 279.057 258.688C278.867 277.958 278.71 281.47 277.916 284.189C277.411 285.924 276.133 288.973 275.071 290.971C273.804 293.358 271.89 295.793 269.466 298.096C266.932 300.504 264.393 302.281 261.317 303.795C258.861 305.004 255.428 306.382 253.693 306.845C251.921 307.323 247.425 307.812 243.44 307.965C237.945 308.175 235.332 308.033 231.873 307.328C229.412 306.829 225.984 305.846 224.249 305.146C222.514 304.442 219.674 302.938 217.939 301.802C216.204 300.672 213.675 298.611 212.319 297.223C210.962 295.84 209.006 293.285 207.97 291.55C206.94 289.814 205.562 286.86 204.915 284.977C203.764 281.628 203.743 281.065 203.743 256.322C203.743 231.257 203.753 231.063 204.963 227.666C205.636 225.789 207.408 222.382 208.906 220.095C210.405 217.813 212.823 214.853 214.274 213.523C215.731 212.192 218.807 210.121 221.11 208.922C223.418 207.723 226.72 206.372 228.455 205.914Z" fill="#F5F4F5"/>
<path d="M365.423 207.161C367.011 206.524 369.734 205.678 371.469 205.278C373.657 204.779 377.279 204.605 383.3 204.721C391.26 204.868 392.343 205.01 396.444 206.409C398.9 207.25 402.217 208.796 403.805 209.847C405.393 210.899 408.001 213.081 409.589 214.7C411.177 216.315 413.38 219.128 414.473 220.947C415.567 222.761 416.987 225.789 417.623 227.666C418.769 231.047 418.785 231.489 419.053 306.535H400.125L399.862 233.187L398.295 230.032C397.433 228.297 395.955 226.11 395.009 225.169C394.062 224.228 392.164 222.892 390.792 222.198C389.42 221.504 386.875 220.668 385.14 220.342C382.9 219.921 380.997 219.906 378.567 220.284C376.685 220.584 373.967 221.394 372.521 222.093C371.075 222.792 368.651 224.69 367.132 226.305C365.144 228.418 364.15 230.017 363.577 232.004C362.915 234.312 362.783 239.339 362.789 262.631C362.794 277.958 362.62 294.105 362.005 306.54L343.603 306.535L343.445 270.912C343.308 239.66 343.187 234.969 342.43 232.661C341.836 230.832 340.684 229.133 338.644 227.072C336.499 224.911 334.869 223.807 332.561 222.961C330.826 222.324 328.223 221.583 326.777 221.31C325.331 221.041 320.184 220.821 306.534 220.831V306.535H287.08V205.057L306.929 205.063C321.625 205.063 328.076 205.262 331.772 205.825C334.522 206.246 338.071 206.977 339.659 207.445C341.247 207.918 344.086 209.159 345.969 210.205C347.851 211.251 350.217 212.886 353.067 215.568L355.17 213.638C356.327 212.581 358.456 210.952 359.902 210.016C361.348 209.085 363.835 207.802 365.423 207.161Z" fill="#F5F4F5"/>
<path d="M692.726 207.508C694.75 206.666 697.826 205.652 699.561 205.262C701.727 204.774 705.35 204.605 711.128 204.726C718.731 204.889 719.972 205.052 724.01 206.419C726.466 207.25 730.136 209.011 732.16 210.336C734.184 211.661 736.976 214.033 738.369 215.605C739.763 217.177 741.808 220.358 742.923 222.671C744.037 224.985 745.205 228.118 745.52 229.638C745.836 231.158 746.093 234.233 746.098 236.473C746.098 238.713 745.736 241.968 745.294 243.703C744.852 245.438 743.743 248.398 742.828 250.275C741.666 252.662 739.968 254.86 737.186 257.568C733.995 260.681 732.181 261.937 727.954 263.967C725.062 265.35 721.16 266.853 719.278 267.305C717.396 267.752 713.731 268.362 711.128 268.657C708.526 268.951 702.432 269.198 688.782 269.204L688.788 273.278C688.788 275.518 689.014 278.184 689.282 279.194C689.555 280.203 690.559 282.212 691.516 283.647C692.468 285.082 694.198 286.986 695.355 287.88C696.511 288.768 698.877 290.062 700.613 290.745C703.447 291.865 704.94 292.033 715.335 292.38C721.697 292.596 729.326 292.796 737.681 292.864V307.06L718.095 306.876C702.048 306.724 697.894 306.534 695.092 305.819C693.209 305.341 690.728 304.547 689.571 304.058C688.414 303.564 686.048 302.286 684.313 301.214C682.578 300.141 679.96 298.001 678.493 296.46C677.031 294.915 675.206 292.591 674.444 291.287C673.676 289.983 672.52 287.501 671.868 285.766C670.711 282.701 670.674 281.975 670.495 259.476C670.338 239.644 670.427 235.816 671.153 232.661C671.621 230.637 672.914 227.088 674.029 224.774C675.333 222.067 677.257 219.259 679.439 216.888C681.295 214.863 684.218 212.271 685.932 211.125C687.647 209.979 690.701 208.354 692.726 207.508Z" fill="#F5F4F5"/>
<path d="M764.364 206.992C765.305 206.509 767.314 205.757 768.834 205.32C770.632 204.81 772.835 204.626 775.143 204.795C777.325 204.958 779.807 205.562 781.584 206.372C783.177 207.097 785.459 208.691 786.658 209.921C787.862 211.151 789.455 213.46 790.207 215.047C791.385 217.54 791.574 218.633 791.558 222.934C791.548 227.183 791.353 228.318 790.244 230.532C789.529 231.962 787.941 234.155 786.71 235.395C785.48 236.642 783.235 238.287 781.715 239.06C779.628 240.122 777.93 240.527 774.749 240.711C771.746 240.885 769.79 240.711 767.913 240.106C766.467 239.639 764.217 238.571 762.918 237.725C761.62 236.883 759.669 234.922 758.596 233.376C757.445 231.72 756.283 229.149 755.773 227.141C755.095 224.448 755.021 223.055 755.421 220.568C755.699 218.833 756.493 216.251 757.187 214.832C757.881 213.412 759.396 211.267 760.552 210.063C761.709 208.859 763.423 207.476 764.364 206.992Z" fill="#F5F4F5"/>
<path d="M166.675 206.945C168.263 206.482 170.986 205.899 172.721 205.646C174.457 205.394 181.376 205.157 200.325 205.057V220.831L190.467 221.099C185.046 221.252 178.952 221.62 176.928 221.919C174.903 222.219 172.185 222.945 170.881 223.534C169.577 224.117 167.69 225.253 166.675 226.057C165.66 226.862 164.009 229.033 161.154 234.239L160.891 306.535H142.489L142.625 269.335C142.767 232.44 142.778 232.109 143.935 228.718C144.581 226.841 145.817 224.059 146.69 222.54C147.562 221.02 149.986 217.992 152.084 215.805C154.86 212.913 156.969 211.277 159.84 209.805C162.006 208.691 165.087 207.408 166.675 206.945Z" fill="#F5F4F5"/>
<path d="M443.765 221.357L443.823 213.149L443.881 204.942L459.465 205.189C473.257 205.404 475.533 205.562 479.256 206.561C481.569 207.182 484.997 208.459 486.88 209.395C489.109 210.51 491.68 212.476 494.262 215.047C496.596 217.366 498.91 220.29 499.882 222.146C500.797 223.881 501.907 226.841 502.354 228.718C503.042 231.631 503.163 237.635 503.179 306.535H479.519C460.801 306.535 455.007 306.371 451.783 305.756C449.333 305.288 445.926 304.095 443.239 302.765C439.885 301.108 437.855 299.631 435.09 296.844C433.065 294.799 430.768 291.944 429.989 290.498C429.206 289.052 428.081 285.976 427.482 283.663C426.719 280.692 426.409 277.832 426.414 273.936C426.425 270.849 426.787 266.906 427.24 264.997C427.681 263.115 428.743 260.16 429.59 258.425C430.442 256.69 432.382 253.872 433.901 252.168C435.421 250.459 438.087 248.051 439.822 246.816C441.557 245.575 444.575 243.84 446.526 242.951C448.476 242.062 451.91 240.869 454.149 240.296C456.389 239.723 460.354 239.013 462.956 238.724C465.559 238.429 471.416 238.187 484.251 238.182L484.256 236.21C484.261 235.127 483.909 233.177 483.478 231.873C483.047 230.569 481.801 228.466 480.712 227.198C479.624 225.931 477.784 224.422 476.627 223.849C475.47 223.271 472.988 222.482 471.106 222.088C468.814 221.609 463.745 221.373 443.765 221.357Z" fill="#F5F4F5"/>
<path d="M512.118 306.535V255.796V205.057H531.177C541.846 205.063 552.319 205.315 554.969 205.641C557.572 205.962 561.473 206.677 563.645 207.234C565.811 207.786 569.355 209.122 571.521 210.2C573.682 211.277 576.858 213.46 578.577 215.047C580.297 216.641 582.62 219.359 583.74 221.094C584.86 222.829 586.296 225.789 586.927 227.666C588.062 231.042 588.078 231.583 588.357 306.535H569.428L569.166 235.29L567.756 232.398C566.978 230.811 565.501 228.618 564.47 227.535C563.434 226.452 561.647 225.09 560.49 224.512C559.333 223.933 556.909 223.06 555.101 222.577C552.572 221.893 549.443 221.678 531.309 221.62L531.046 306.535H512.118Z" fill="#F5F4F5"/>
<path d="M618.327 207.997C620.493 207.203 624.279 206.246 626.739 205.862C629.663 205.404 636.719 205.142 663.019 205.057V221.357L648.428 221.362C640.405 221.362 632.297 221.615 630.42 221.925C628.538 222.23 625.819 223.071 624.373 223.791C622.927 224.517 620.735 226.099 619.505 227.309C618.274 228.518 616.739 230.69 616.087 232.135C614.925 234.722 614.909 235.106 614.909 278.405L616.224 281.239C616.965 282.837 618.626 285.077 620.036 286.365C621.408 287.627 623.774 289.241 625.293 289.956C626.813 290.671 629.237 291.481 630.683 291.76C632.129 292.039 639.994 292.343 663.019 292.601L663.024 306.272L657.104 306.666C653.849 306.882 646.809 307.055 641.461 307.055C636.109 307.055 629.721 306.824 627.265 306.54C624.804 306.256 621.376 305.662 619.641 305.22C617.906 304.778 614.709 303.548 612.543 302.481C609.83 301.15 607.522 299.473 605.156 297.102C602.963 294.909 601.102 292.407 600.04 290.235C599.12 288.358 597.963 285.398 597.474 283.663C596.706 280.981 596.543 277.29 596.38 258.951C596.259 245.427 596.391 236.074 596.738 233.844C597.043 231.894 597.711 229.049 598.215 227.524C598.72 226 599.961 223.371 600.976 221.683C601.985 219.99 604.115 217.329 605.708 215.768C607.296 214.206 609.898 212.145 611.492 211.178C613.079 210.215 616.155 208.785 618.327 207.997Z" fill="#F5F4F5"/>
<path d="M21.7891 209.311C22.6776 208.322 24.581 206.966 26.0269 206.293L28.6559 205.068H120.143L122.772 206.309C124.218 206.987 125.911 208.112 126.537 208.801C127.157 209.49 128.203 211.114 128.855 212.418C129.86 214.422 130.001 215.352 129.775 218.465C129.576 221.21 129.071 223.013 127.783 225.563C126.836 227.44 124.286 232.057 122.109 235.816C119.938 239.575 116.92 244.781 115.4 247.383C113.881 249.986 109.859 256.847 106.457 262.631C103.055 268.415 96.9557 278.71 92.8966 285.503C88.8428 292.296 84.5419 299.394 83.3431 301.277C82.1495 303.159 80.4723 305.236 79.6257 305.898C78.774 306.555 77.3701 307.234 76.5026 307.402C75.635 307.565 74.0366 307.56 72.9535 307.381C71.8704 307.207 70.2825 306.408 69.436 305.614C68.5842 304.82 65.9447 300.972 63.5734 297.07C61.2074 293.169 53.3101 280.035 46.0279 267.889C38.7405 255.743 30.9956 242.73 28.8136 238.971C26.6263 235.211 23.5873 229.769 22.0572 226.878C19.8331 222.677 19.2232 220.983 19.0287 218.465C18.8815 216.577 19.0655 214.464 19.4861 213.207C19.8699 212.05 20.9057 210.294 21.7891 209.311Z" fill="#F30B81"/>
<path d="M192.034 89.647C192.202 88.7794 194.195 78.5213 196.466 66.8541L200.588 45.6438L207.16 45.8383C212.334 45.9961 214.238 46.2642 216.099 47.1055C217.398 47.6944 219.411 49.0088 220.568 50.0341C221.756 51.0857 223.207 53.131 223.907 54.7347C224.59 56.2963 225.274 59.1145 225.421 60.9915C225.574 62.8686 225.395 66.1811 225.021 68.3526C224.643 70.5556 223.591 73.805 222.64 75.7136C221.451 78.0902 219.842 80.146 217.334 82.4647C215.179 84.4627 212.255 86.5028 210.052 87.5596C208.028 88.5323 205.247 89.5734 203.874 89.8783C202.502 90.1833 199.205 90.6144 191.723 91.2244L192.034 89.647Z" fill="black"/>
<path d="M278.399 77.5486C279.809 76.3919 282.164 75.0406 283.631 74.5464C285.287 73.9838 286.991 73.7629 288.132 73.9627C289.147 74.1362 290.624 74.7199 291.418 75.2562C292.217 75.7977 293.279 77.007 293.784 77.943C294.515 79.2995 294.704 80.9557 294.704 85.9612C294.704 91.8974 294.609 92.4757 293.106 95.6883C292.222 97.5706 290.445 100.273 289.162 101.693C287.874 103.112 285.398 105.195 283.663 106.32C281.927 107.44 278.736 108.917 276.564 109.595C274.398 110.279 270.376 111.094 267.626 111.415C264.881 111.735 262.557 111.935 262.468 111.862C262.379 111.788 262.689 109.716 263.162 107.256C263.635 104.8 264.598 101.072 265.297 98.9745C266.001 96.8818 267.616 93.0962 268.883 90.5619C270.155 88.0328 272.237 84.5416 273.51 82.8065C274.787 81.0714 276.985 78.7053 278.399 77.5486Z" fill="black"/>
<path d="M358.062 77.6906C359.366 77.0701 361.137 76.3761 362.005 76.1553C362.873 75.9292 365.596 75.8451 368.052 75.966C370.512 76.0869 373.883 76.5549 375.544 77.0018C377.211 77.4487 379.456 78.2321 380.539 78.7474C382.143 79.4993 382.484 79.9199 382.353 80.982C382.264 81.6971 381.454 85.3566 378.909 95.9512L373.662 103.838C370.775 108.176 366.364 114.448 363.851 117.771C361.342 121.1 357.299 125.916 354.865 128.476C352.43 131.037 349.376 133.824 348.072 134.675C346.773 135.522 344.759 136.458 343.602 136.747C342.162 137.115 340.963 137.11 339.79 136.731C338.718 136.379 337.75 135.543 337.188 134.465C336.567 133.282 336.226 131.069 336.073 127.236C335.926 123.559 336.145 119.966 336.73 116.457C337.214 113.565 338.518 108.481 339.622 105.152C340.726 101.829 342.514 97.334 343.592 95.1625C344.675 92.9963 346.799 89.3263 348.319 87.0128C349.838 84.6993 352.12 81.9127 353.387 80.8138C354.66 79.7149 356.763 78.311 358.062 77.6906Z" fill="black"/>
<path d="M188.868 104.627C189.725 101.015 190.556 97.4917 190.724 96.803C191.019 95.5674 191.092 95.5569 196.072 95.825C199.531 96.0143 202.16 96.4928 204.437 97.3393C206.267 98.0228 209.106 99.6002 210.746 100.841C212.392 102.082 214.511 104.211 215.463 105.573C216.414 106.935 217.671 109.348 218.26 110.936C218.849 112.529 219.459 115.721 219.611 118.034C219.806 120.947 219.632 123.334 219.049 125.79C218.586 127.746 217.629 130.464 216.93 131.836C216.23 133.214 214.984 135.065 214.169 135.958C213.349 136.852 211.498 138.33 210.052 139.25C208.491 140.238 205.825 141.264 203.48 141.779C200.42 142.447 197.954 142.568 192.438 142.331C188.537 142.163 181.555 141.416 176.928 140.669C172.301 139.923 168.105 139.197 167.595 139.061C166.896 138.866 167.453 138.198 169.961 136.248C171.77 134.844 174.451 132.415 175.923 130.858C177.396 129.302 179.835 126.131 181.339 123.818C182.848 121.504 184.809 117.719 185.698 115.405C186.592 113.092 188.016 108.244 188.868 104.627Z" fill="black"/>
<path d="M765.81 210.647C766.678 210.042 768.455 209.258 769.754 208.911C771.057 208.564 772.829 208.265 773.697 208.238C774.565 208.217 776.578 208.591 778.166 209.064C780.322 209.711 781.747 210.62 783.75 212.618C785.853 214.721 786.647 215.999 787.367 218.46C787.962 220.495 788.198 222.556 788.025 224.243C787.877 225.689 787.283 227.819 786.705 228.976C786.127 230.132 784.56 232.088 783.224 233.313C781.636 234.78 779.843 235.827 778.035 236.342C776.52 236.778 774.328 237.141 773.171 237.141C772.014 237.141 770.006 236.789 768.702 236.352C767.403 235.921 765.3 234.68 764.028 233.587C762.761 232.498 761.246 230.658 760.668 229.501C760.09 228.345 759.501 225.979 759.353 224.243C759.169 222.004 759.375 220.258 760.058 218.197C760.589 216.609 761.746 214.506 762.629 213.528C763.512 212.55 764.943 211.256 765.81 210.647Z" fill="black"/>
<path d="M230.821 223.018C232.125 222.272 234.133 221.357 235.29 220.984C236.584 220.568 239.223 220.374 242.125 220.479C245.774 220.61 247.525 220.952 249.749 221.956C251.342 222.671 253.588 224.101 254.744 225.132C255.901 226.163 257.557 228.276 260.002 232.656L260.144 255.265C260.26 273.704 260.149 278.363 259.529 280.503C259.114 281.949 257.983 284.183 257.021 285.471C256.059 286.754 254.324 288.547 253.167 289.446C252.01 290.351 249.644 291.513 247.909 292.028C245.564 292.733 243.545 292.917 240.022 292.759C236.421 292.601 234.601 292.233 232.398 291.234C230.81 290.514 228.486 288.868 227.24 287.58C225.989 286.292 224.517 284.288 223.965 283.132C223.413 281.975 222.697 279.609 222.382 277.874C222.009 275.829 221.867 267.626 222.145 234.233L223.502 231.342C224.243 229.754 225.663 227.535 226.657 226.415C227.645 225.29 229.522 223.765 230.821 223.018Z" fill="black"/>
<path d="M698.904 222.85C700.134 222.224 702.206 221.404 703.504 221.02C704.992 220.584 707.626 220.405 710.602 220.542C714.735 220.726 715.823 220.989 719.146 222.629C721.365 223.723 723.505 225.221 724.268 226.215C724.983 227.156 725.934 229.107 726.376 230.553C726.818 231.999 727.181 234.601 727.181 236.337C727.181 238.072 726.828 240.559 726.402 241.857C725.971 243.161 724.704 245.291 723.579 246.589C722.454 247.893 720.377 249.597 718.962 250.38C717.548 251.164 714.493 252.289 712.18 252.883C708.704 253.777 706.359 253.966 689.308 253.95L689.439 244.092C689.566 234.78 689.645 234.076 690.912 231.342C691.653 229.754 693.246 227.445 694.461 226.215C695.675 224.99 697.679 223.471 698.904 222.85Z" fill="black"/>
<path d="M51.5272 224.943C52.542 224.123 54.3139 223.092 55.4706 222.656C56.7641 222.167 58.6937 221.941 60.4656 222.067C62.0587 222.177 64.3039 222.745 65.4606 223.329C66.6173 223.907 68.5259 225.421 69.7037 226.683C70.8815 227.945 72.4168 230.222 73.1213 231.741C73.8259 233.261 74.5199 234.496 74.6619 234.496C74.8091 234.491 75.7555 232.924 76.765 231.01C77.8061 229.044 79.6358 226.641 80.9713 225.479C82.2753 224.349 84.4047 223.076 85.7034 222.645C87.0074 222.219 88.6636 221.867 89.3839 221.867C90.1095 221.867 91.8814 222.219 93.3274 222.65C94.7733 223.076 96.8449 224.144 97.928 225.022C99.0216 225.9 100.473 227.845 101.177 229.37C101.877 230.889 102.618 233.313 102.818 234.759C103.065 236.505 102.902 238.724 102.339 241.332C101.582 244.865 100.794 246.374 94.7575 255.791C91.0507 261.574 85.5036 270.092 82.433 274.719C79.3624 279.346 76.3549 283.605 74.6619 285.235L73.5682 284.183C72.9688 283.605 71.1023 281.123 69.425 278.662C67.7425 276.207 62.6266 268.278 58.0522 261.049C53.4779 253.819 49.0192 246.495 48.1359 244.77C46.7005 241.957 46.5322 241.137 46.5322 236.883C46.5322 232.588 46.6847 231.857 48.1096 229.281C48.9771 227.714 50.5177 225.763 51.5272 224.943Z" fill="black"/>
<path d="M456.121 256.553C457.856 255.728 460.58 254.834 462.168 254.566C463.761 254.297 469.381 254.05 484.251 253.95V292.333H475.312C469.46 292.333 464.97 292.06 462.299 291.539C460.059 291.097 457.041 290.198 455.595 289.536C454.149 288.873 451.941 287.396 450.69 286.26C449.438 285.119 447.793 282.885 447.041 281.291C446.163 279.446 445.584 277.169 445.432 274.982C445.258 272.469 445.49 270.56 446.32 267.752C447.24 264.645 447.956 263.399 450.206 260.996C451.941 259.145 454.139 257.494 456.121 256.553Z" fill="black"/>
<path d="M766.336 232.135L766.194 222.803L766.047 213.47H772.109C778.14 213.47 778.172 213.475 779.744 215.047C780.921 216.225 781.326 217.119 781.337 218.596C781.353 219.779 780.927 221.146 780.285 222.014C779.702 222.808 778.866 223.46 778.429 223.46C777.993 223.46 777.651 223.639 777.656 223.854C777.667 224.07 778.466 225.553 779.433 227.14C780.401 228.728 781.458 230.563 781.778 231.215C782.352 232.356 782.283 232.398 780.007 232.398C777.746 232.398 777.588 232.298 776.531 230.164C775.916 228.933 774.854 227.161 774.165 226.22C773.297 225.043 772.54 224.554 771.725 224.643C770.632 224.764 770.532 225.069 770.279 232.398L766.336 232.135Z" fill="#F5F4F5"/>
<path d="M770.19 228.807C770.142 226.83 770.3 225.053 770.542 224.864C770.784 224.669 771.473 224.543 772.077 224.585C773.076 224.648 773.071 224.669 771.988 224.848C770.905 225.021 770.794 225.353 770.674 228.807C770.574 231.657 770.348 232.619 769.753 232.75C769.317 232.845 769.259 232.803 769.622 232.661C770.069 232.482 770.253 231.257 770.19 228.807Z" fill="#7C7A7B"/>
<path d="M779.922 232.351C782.052 232.514 782.551 232.414 782.241 231.872C781.992 231.431 782.053 231.326 782.425 231.557C782.746 231.767 782.982 232.156 782.951 232.43C782.924 232.703 781.715 232.924 780.269 232.924C778.823 232.924 777.546 232.745 777.425 232.53C777.309 232.314 778.434 232.23 779.922 232.351Z" fill="#7C7A7B"/>
<path d="M770.805 221.357V218.991V216.625H773.171C774.575 216.625 775.858 216.945 776.325 217.413C776.762 217.845 777.114 218.381 777.119 218.596C777.119 218.812 776.767 219.522 776.331 220.174C775.705 221.11 775.037 221.357 770.805 221.357Z" fill="black"/>
</svg>
