<svg width="529" height="221" viewBox="0 0 529 221" fill="none" xmlns="http://www.w3.org/2000/svg">
<path d="M51.98 58.5343C54.466 52.7148 60.6245 45.398 65.6813 42.2905C72.2635 38.2508 79.8345 36.6688 92.5188 36.6405C102.237 36.6405 114.639 38.5615 120.062 40.878C125.486 43.2228 132.493 49.24 135.6 54.2968C138.679 59.3535 141.222 65.7098 141.25 68.4218C141.25 72.405 138.764 73.3655 128.538 73.3655C118.17 73.3655 115.571 72.3203 114.412 67.7155C113.537 64.2407 109.186 60.992 103.113 59.2405C96.5208 57.3572 89.9292 57.3572 83.3375 59.2405C74.8343 61.67 73.5348 63.139 74.1562 69.8343C74.806 76.9815 76.9813 78.3092 101.7 86.53C122.492 93.4512 130.374 97.604 136.702 104.892C144.047 113.367 144.753 115.938 143.764 130.261C143.03 140.968 140.826 148.256 137.012 152.522C133.905 156.025 127.238 160.63 122.181 162.748C117.125 164.867 104.412 166.59 93.9313 166.59C79.8345 166.562 72.4613 165.093 65.6813 160.94C60.6245 157.833 53.9575 151.166 50.85 146.109C47.7708 141.052 45.2283 134.075 45.2 130.572C45.2 125.119 46.7255 124.215 55.7938 124.131C64.3535 124.074 67.0655 125.43 69.9188 131.193C71.868 135.12 78.2243 140.374 84.0438 142.86C92.5753 146.505 96.6998 146.787 105.231 144.273C111.051 142.55 117.096 138.623 118.65 135.515C120.712 131.419 120.317 127.944 117.238 122.803C114.158 117.661 108.96 114.865 98.1688 112.52C90.0045 110.768 78.2525 107.011 72.0375 104.215C65.8225 101.418 58.5058 95.8807 55.7938 91.8975C53.0817 87.9142 50.0872 81.1625 49.155 76.8968C48.1945 72.405 49.381 64.6645 51.98 58.5343Z" fill="#41407E"/>
<path d="M166.675 163.765V101.616V39.4655H192.1V63.478C192.1 76.699 193.371 88.1403 194.925 88.903C196.564 89.7222 194.614 96.5023 190.264 105.147C184.218 117.153 182.721 124.159 182.213 163.765H166.675Z" fill="#41407E"/>
<path d="M432.225 163.765V101.616V39.4655H505.675L515.252 48.6468C521.439 54.6075 525.563 61.8113 526.947 69.128C528.379 76.6613 527.785 84.1664 525.167 91.6432C522.653 98.734 517.596 105.231 511.325 109.384C503.104 114.808 497.765 115.882 457.65 115.74V163.765H432.225Z" fill="#41407E"/>
<path d="M367.25 62.0655L373.352 53.5905C376.742 48.9293 380.867 45.0873 382.533 45.059C384.228 45.0308 389.031 48.5055 393.24 52.8278C397.421 57.1217 402.817 65.4272 405.246 71.2467C407.789 77.377 409.625 90.1743 409.625 101.616C409.625 113.085 407.789 125.826 405.218 131.984C402.817 137.804 398.043 145.572 394.624 149.217C391.234 152.861 383.663 158.257 377.844 161.223C370.866 164.754 361.233 166.619 349.594 166.675C339.876 166.703 330.977 165.771 329.79 164.556C328.604 163.342 331.146 158.822 335.44 154.528C339.734 150.205 345.469 146.731 348.181 146.759C350.893 146.787 357.56 144.923 363.013 142.578C368.465 140.233 375.443 134.216 378.55 129.159C381.629 124.103 384.172 115.514 384.143 110.09C384.115 104.667 385.98 97.6605 388.296 94.553C390.613 91.4455 392.534 87.9425 392.59 86.7842C392.647 85.626 390.754 85.3153 388.438 86.078C385.669 87.0103 383.24 84.7785 381.432 79.7217C379.934 75.456 376.121 69.7213 367.25 62.0655Z" fill="#41407E"/>
<path d="M290.919 109.384C290.89 95.8242 291.568 94.2705 298.687 91.3325C303.009 89.5527 308.744 87.9425 311.456 87.8013C315.637 87.547 316.4 90.033 316.4 103.734C316.428 115.006 318.152 122.803 322.05 129.159C325.158 134.216 329.593 138.99 331.938 139.753C334.282 140.516 336.147 142.747 336.119 144.697C336.09 146.646 333.209 151.109 329.762 154.669C326.288 158.2 322.191 161.053 320.638 161.025C319.084 160.997 314.31 157.776 310.044 153.878C305.778 150.008 299.733 141.73 296.625 135.515C293.15 128.594 290.947 118.481 290.919 109.384Z" fill="#41407E"/>
<path d="M245.747 104.384C249.645 104.384 254.73 103.113 257.075 101.616C259.42 100.118 262.584 99.2708 264.138 99.7793C265.748 100.288 267.273 114.3 268.375 163.765H242.95V138.34C242.95 118.255 242.074 112.633 238.713 111.503C236.368 110.74 235.435 108.819 236.565 107.265C237.724 105.712 241.876 104.412 245.747 104.384Z" fill="#41407E"/>
<path d="M0 220.265V200.49C0 189.19 1.21475 180.715 2.825 180.715C4.37875 180.715 5.65 187.693 5.65 211.79H15.5375C22.4305 211.79 25.425 213.062 25.425 216.028C25.425 219.164 22.1198 220.265 0 220.265Z" fill="#41407E"/>
<path d="M79.1 186.365C77.5462 186.365 76.275 185.094 76.275 183.54C76.275 181.987 77.5462 180.715 79.1 180.715C80.6537 180.715 81.925 181.987 81.925 183.54C81.925 185.094 80.6537 186.365 79.1 186.365Z" fill="#41407E"/>
<path d="M122.69 194.134C121.786 192.185 123.17 188.371 125.713 185.659C128.255 182.947 132.182 180.715 134.385 180.715C136.617 180.715 138.425 181.987 138.425 183.54C138.425 185.094 136.843 186.394 134.894 186.422C132.502 186.422 132.737 187.43 135.6 189.445C138.764 191.676 138.934 192.75 136.306 193.654C134.188 194.36 132.775 199.897 132.775 207.553C132.775 216.96 131.673 220.265 128.538 220.265C125.487 220.265 124.3 217.13 124.3 208.965C124.3 202.75 123.565 196.083 122.69 194.134Z" fill="#41407E"/>
<path d="M293.8 186.365C292.246 186.365 290.975 185.094 290.975 183.54C290.975 181.987 292.246 180.715 293.8 180.715C295.354 180.715 296.625 181.987 296.625 183.54C296.625 185.094 295.354 186.365 293.8 186.365Z" fill="#41407E"/>
<path d="M524.038 220.265C520.676 220.265 519.8 216.197 519.8 200.49C519.8 184.783 520.676 180.715 524.038 180.715C527.399 180.715 528.275 184.783 528.275 200.49C528.275 216.197 527.399 220.265 524.038 220.265Z" fill="#41407E"/>
<path d="M273.714 204.7C272.782 196.931 273.178 189.049 274.618 187.156C276.652 184.473 278.319 184.67 281.992 188.032C285.805 191.535 286.031 193.033 283.15 195.716C281.201 197.581 279.59 202.581 279.618 206.847C279.647 211.112 280.946 214.615 282.5 214.615C284.054 214.615 285.325 215.887 285.325 217.44C285.325 218.994 283.093 219.926 280.381 219.531C276.709 218.966 274.986 215.152 273.714 204.7Z" fill="#41407E"/>
<path d="M440.389 204.728C439.457 196.959 439.909 189.021 441.406 187.072C442.932 185.122 444.655 183.54 445.248 183.54C445.87 183.54 448.582 185.659 451.294 188.258C454.797 191.592 455.192 193.258 452.706 193.908C450.729 194.417 449.175 199.191 449.175 204.728C449.175 210.152 450.446 214.615 452 214.615C453.554 214.615 454.825 215.887 454.825 217.44C454.825 218.994 451.972 219.955 448.469 219.559C443.101 218.966 441.858 216.678 440.389 204.728Z" fill="#41407E"/>
<path d="M38.194 196.761C32.1485 198.4 31.6118 198.033 34.2955 193.936C35.9622 191.309 39.437 189.162 41.9795 189.134C44.522 189.106 48.2228 190.716 50.2003 192.665C52.1495 194.643 53.7598 201.649 53.675 220.265L43.0812 219.559C33.787 218.938 32.4027 217.892 31.7812 211.084C31.2162 204.785 32.431 203.033 38.1375 201.903C42.036 201.112 45.2 199.219 45.2 197.665C45.2 196.027 42.262 195.631 38.194 196.761Z" fill="#41407E"/>
<path d="M79.1 220.265C77.5462 220.265 76.275 213.288 76.275 204.728C76.275 196.168 77.5462 189.19 79.1 189.19C80.6537 189.19 81.925 196.168 81.925 204.728C81.925 213.288 80.6537 220.265 79.1 220.265Z" fill="#41407E"/>
<path d="M94.6375 220.265C91.417 220.265 90.3435 216.593 90.2023 204.926L90.0045 189.558L99.3835 189.755C104.553 189.84 110.401 191.366 112.407 193.089C114.441 194.84 116.023 201.649 115.938 208.259C115.882 214.87 114.554 220.265 113 220.265C111.446 220.265 110.147 216.141 110.118 211.084C110.118 206.027 108.989 200.01 107.632 197.665C106.276 195.321 103.734 194.388 102.011 195.547C100.287 196.705 98.875 202.75 98.875 208.965C98.875 217.13 97.6885 220.265 94.6375 220.265Z" fill="#41407E"/>
<path d="M140.996 205.66C140.911 201.507 142.945 196.083 145.488 193.654C148.03 191.196 151.957 189.219 154.16 189.219C156.392 189.219 160.743 191.761 163.85 194.869C166.958 197.976 169.5 202.101 169.528 204.05C169.528 205.971 167.635 210.434 165.291 213.937C162.946 217.412 158.172 220.294 154.669 220.322C151.166 220.35 146.702 218.768 144.725 216.791C142.775 214.841 141.081 209.813 140.996 205.66Z" fill="#41407E"/>
<path d="M177.975 220.294C176.421 220.294 175.065 213.372 174.98 204.926C174.783 189.699 174.868 189.558 182.749 190.462C187.1 190.97 191.337 191.62 192.1 191.902C192.891 192.157 190.659 193.597 187.156 195.038C182.071 197.157 180.8 199.925 180.8 208.994C180.8 215.209 179.529 220.294 177.975 220.294Z" fill="#41407E"/>
<path d="M197.75 220.294C196.196 220.294 194.925 213.598 194.925 205.462V190.631L211.169 190.998C220.096 191.196 228.995 191.507 230.944 191.705C233.26 191.931 234.475 196.931 234.475 206.169C234.475 213.937 233.204 220.294 231.65 220.294C230.096 220.294 228.825 215.209 228.825 208.994C228.825 202.779 227.413 196.733 225.689 195.575C223.966 194.388 221.424 195.349 220.068 197.694C218.712 200.01 217.581 206.056 217.581 211.112C217.553 216.141 216.254 220.294 214.7 220.294C213.146 220.294 211.875 215.209 211.875 208.994C211.875 201.46 210.462 197.223 207.637 196.281C205.321 195.49 202.779 196.761 201.988 199.106C201.225 201.423 200.575 207.157 200.575 211.819C200.575 216.48 199.304 220.294 197.75 220.294Z" fill="#41407E"/>
<path d="M250.069 196.761C244.023 198.428 243.487 198.061 246.171 193.936C247.866 191.337 251.312 189.19 253.855 189.162C256.397 189.134 260.098 190.716 262.075 192.693C264.025 194.671 265.635 201.677 265.55 220.294L254.956 219.587C245.238 218.938 244.363 218.175 244.363 210.406C244.363 203.711 245.69 201.762 250.719 201.225C254.222 200.829 257.075 199.247 257.075 197.694C257.075 196.055 254.137 195.66 250.069 196.761Z" fill="#41407E"/>
<path d="M293.8 220.294C292.246 220.294 290.975 213.288 290.975 204.756C290.975 196.196 292.246 189.219 293.8 189.219C295.354 189.219 296.625 196.196 296.625 204.756C296.625 213.288 295.354 220.294 293.8 220.294Z" fill="#41407E"/>
<path d="M304.846 205.66C304.761 201.507 306.795 196.083 309.337 193.654C311.908 191.196 315.157 189.219 316.598 189.219C318.038 189.219 321.146 189.84 323.462 190.631C325.807 191.394 327.7 193.936 327.7 196.281C327.7 198.598 326.74 200.519 325.581 200.547C324.423 200.575 321.824 198.993 319.818 197.016C316.88 194.134 315.666 194.247 313.49 197.694C312.05 200.01 310.835 204.135 310.806 206.875C310.778 209.587 312.982 212.666 315.694 213.74C318.604 214.87 320.92 214.305 321.344 212.327C321.739 210.491 323.971 209.615 326.288 210.406C329.734 211.536 329.875 212.638 326.994 216.169C325.044 218.57 320.92 220.491 317.812 220.463C314.705 220.407 310.552 218.768 308.575 216.791C306.626 214.841 304.931 209.813 304.846 205.66Z" fill="#41407E"/>
<path d="M335.61 195.095C335.299 193.682 336.881 191.874 339.141 191.083C341.401 190.292 345.159 189.529 347.475 189.388C349.82 189.247 353.323 190.716 355.3 192.693C357.249 194.671 358.86 201.366 358.831 207.581C358.803 218.74 358.662 218.881 347.475 219.587C338.209 220.152 335.921 219.277 334.763 214.644C334 211.536 334.932 207.016 336.881 204.615C338.831 202.214 342.644 200.321 345.356 200.377C348.068 200.462 350.3 199.247 350.3 197.694C350.3 196.14 347.136 195.49 343.238 196.281C339.367 197.044 335.921 196.507 335.61 195.095Z" fill="#41407E"/>
<path d="M384.906 196.479C377.448 198.005 377.363 197.891 382.731 193.654C385.782 191.196 389.596 189.219 391.206 189.247C392.788 189.275 395.67 190.236 397.591 191.366C399.512 192.524 401.404 199.389 402.562 219.842L391.263 219.361C381.234 218.938 379.962 218.09 379.962 211.819C379.962 207.214 382.166 203.767 386.347 201.931C389.85 200.377 392.703 198.146 392.703 196.987C392.675 195.801 389.172 195.575 384.906 196.479Z" fill="#41407E"/>
<path d="M409.371 205.66C409.286 201.507 411.32 196.083 413.863 193.654C416.433 191.196 419.682 189.219 421.123 189.219C422.564 189.219 425.671 189.84 427.988 190.631C430.332 191.394 432.225 193.936 432.225 196.281C432.225 198.598 431.265 200.519 430.106 200.547C428.948 200.575 426.716 199.247 425.163 197.609C423.185 195.518 421.264 195.942 418.806 198.993C416.857 201.366 415.925 205.886 416.688 208.994C417.478 212.101 420.021 214.644 422.337 214.644C424.682 214.644 426.575 213.372 426.575 211.819C426.575 210.265 428.496 209.615 430.812 210.406C434.259 211.536 434.4 212.638 431.519 216.169C429.57 218.57 425.445 220.491 422.337 220.463C419.23 220.407 415.077 218.768 413.1 216.791C411.15 214.841 409.456 209.813 409.371 205.66Z" fill="#41407E"/>
<path d="M459.062 218.881L458.215 204.05C457.509 192.157 458.215 189.219 461.746 189.219C465.051 189.219 466.125 192.298 466.125 201.931C466.125 211.339 467.227 214.644 470.363 214.644C473.498 214.644 474.6 211.339 474.6 201.931C474.6 192.496 475.702 189.219 478.837 189.219C482.086 189.219 483.075 192.807 483.075 220.294L459.062 218.881Z" fill="#41407E"/>
<path d="M495.081 196.479C487.623 198.005 487.539 197.891 492.906 193.654C495.957 191.196 499.771 189.219 501.381 189.247C502.963 189.275 505.929 190.236 507.935 191.366C509.969 192.524 512.511 199.445 515.562 220.068L502.85 219.474C491.324 218.938 490.138 218.203 490.138 211.819C490.138 207.214 492.341 203.767 496.522 201.931C500.025 200.377 502.878 198.146 502.878 196.987C502.85 195.801 499.347 195.575 495.081 196.479Z" fill="#41407E"/>
<path d="M268.544 29.0412C283.205 20.9617 304.732 11.159 316.399 7.204C328.066 3.27725 342.672 0.0284967 348.887 0.000246689C355.328 -0.0280033 364.142 2.37325 369.368 5.5655C374.425 8.673 379.962 14.0687 381.685 17.5717C383.408 21.0747 384.03 28.7022 383.097 34.5217C381.967 41.3865 377.645 49.0422 370.78 56.1895C364.961 62.2915 351.288 71.4163 340.412 76.5013C329.535 81.558 316.823 86.6995 312.162 87.886C307.5 89.1007 296.709 92.067 288.149 94.5247C279.589 96.9542 269.448 99.525 265.549 100.259C261.679 100.966 254.023 102.35 248.599 103.367C243.175 104.356 236.48 107.548 233.768 110.458C231.056 113.367 225.039 123.679 220.377 133.397C215.744 143.115 211.196 156.138 210.292 162.353C209.388 168.568 210.01 177.156 211.676 181.422C214.106 187.693 213.88 189.473 210.462 190.603C208.117 191.394 204.642 192.044 202.693 192.1C200.744 192.157 195.376 185.49 190.771 177.269C183.455 164.274 182.409 159.641 182.579 141.165C182.748 124.131 184.246 117.068 190.263 105.147C194.387 96.9825 197.297 90.3155 196.76 90.3155C196.195 90.3155 206.139 79.8347 218.824 67.0092C236.113 49.5225 248.514 40.0587 268.544 29.0412Z" fill="#E6383F"/>
<path d="M338.462 144.019C348.265 133.905 363.492 116.419 372.249 105.147C381.035 93.875 389.058 84.6655 390.075 84.6655C391.092 84.6655 391.77 85.965 391.601 87.5752C391.403 89.1572 381.12 102.83 368.746 117.944C356.345 133.029 337.276 153.341 326.371 163.059C315.439 172.777 301.737 183.908 295.918 187.778C290.098 191.676 285.324 193.569 285.324 192.015C285.324 190.462 286.906 188.597 288.855 187.863C290.805 187.128 298.743 181.083 306.512 174.472C314.28 167.833 328.66 154.132 338.462 144.019Z" fill="#E6383F"/>
<path d="M223.428 205.434C220.462 203.485 218.598 200.406 219.247 198.541C219.925 196.705 222.27 195.886 224.502 196.733C226.734 197.581 228.626 200.688 228.683 203.626C228.796 208.231 228.09 208.485 223.428 205.434Z" fill="#E6383F"/>
<path d="M265.069 200.971C264.815 199.671 265.662 197.75 266.962 196.733C268.261 195.688 270.38 194.84 271.679 194.84C272.979 194.84 274.024 196.112 274.024 197.665C274.024 199.219 272.131 201.112 269.787 201.903C267.442 202.694 265.323 202.27 265.069 200.971Z" fill="#E6383F"/>
<path d="M238.712 207.553C236.367 206.762 234.474 204.869 234.474 203.315C234.474 201.762 237.017 200.49 240.124 200.49C243.891 200.49 245.303 201.903 244.362 204.728C243.571 207.073 241.056 208.344 238.712 207.553Z" fill="#E6383F"/>
<path d="M316.399 87.4906L341.118 75.1454C354.706 68.3371 366.797 62.6306 367.955 62.4329C369.113 62.2351 372.701 65.5686 375.893 69.8344C379.114 74.1001 382.278 80.4564 382.956 83.9594C383.86 88.6206 379.481 96.0786 366.543 111.842C356.825 123.679 346.994 135.911 344.649 139.019C341.118 143.68 339.338 144.104 334.055 141.476C330.552 139.753 325.156 134.216 322.049 129.159C318.15 122.803 316.427 115.006 316.399 87.4906Z" fill="#F3F3F5"/>
<path d="M267.696 131.476C267.046 101.277 267.357 99.1296 272.64 97.9149C275.719 97.2086 281.115 96.4741 284.618 96.3046C290.409 95.9939 290.974 97.2369 290.974 110.091C290.974 118.566 293.234 128.736 296.624 135.516C299.731 141.731 306.201 150.319 319.789 162.353L308.913 171.563C302.924 176.619 296.454 180.744 294.505 180.744C292.556 180.716 290.352 182.608 289.561 184.953C288.77 187.298 286.256 189.191 283.911 189.191C281.567 189.191 279.617 187.609 279.561 185.659C279.504 183.71 276.651 185.688 273.205 190.066C267.526 197.27 266.594 197.581 262.724 193.456C260.379 190.97 256.594 188.936 254.249 188.936C251.904 188.936 248.119 191.112 245.774 193.767C241.875 198.231 242.158 198.457 249.305 196.733C253.853 195.632 257.074 195.999 257.074 197.666C257.074 199.219 251.989 200.491 245.774 200.491C237.61 200.491 234.474 199.304 234.474 196.253C234.474 193.908 232.892 191.479 230.943 190.829C228.993 190.151 224.558 190.151 221.055 190.829C215.772 191.818 214.162 190.236 211.563 181.422C209.84 175.602 209.275 166.365 210.348 160.941C211.394 155.517 216.309 142.437 221.253 131.9C226.197 121.362 231.818 112.153 233.768 111.418C235.717 110.684 238.57 110.712 240.124 111.503C241.706 112.294 242.949 124.216 242.949 163.766H268.374L267.696 131.476Z" fill="#F3F3F5"/>
<path d="M348.915 146.109C348.124 144.951 355.271 134.442 364.763 122.803C374.283 111.136 382.56 101.616 383.125 101.616C383.719 101.616 384.227 105.74 384.284 110.797C384.34 116.475 381.515 123.707 376.854 129.753C372.729 135.148 365.074 141.505 359.847 143.878C354.621 146.279 349.677 147.268 348.915 146.109Z" fill="#F3F3F5"/>
<path d="M306.032 52.2909C309.478 47.6862 316.71 42.3187 322.106 40.3977C327.53 38.4484 336.711 36.8099 342.53 36.7534C348.35 36.6969 353.124 37.9117 353.124 39.4654C353.124 41.0192 347.079 47.1494 339.705 53.1102C332.332 59.0427 319.309 67.9132 310.749 72.8004C302.189 77.6877 294.251 81.6992 293.093 81.7557C291.935 81.8122 292.952 77.0662 295.353 71.2467C297.782 65.4272 302.585 56.8957 306.032 52.2909Z" fill="#41407E"/>
<path d="M245.859 98.0842C240.943 97.4627 241.621 95.6829 251.848 82.5467C258.204 74.3824 264.532 67.7154 265.888 67.7154C267.244 67.7154 268.374 72.8004 268.374 79.0154C268.374 88.7334 267.188 90.9087 259.899 94.5529C255.238 96.8977 248.91 98.4797 245.859 98.0842Z" fill="#41407E"/>
<path d="M253.543 186.478C252.385 186.422 252.159 184.473 253.063 182.128C253.995 179.783 256.509 177.89 258.684 177.89C261.877 177.89 261.961 178.738 259.165 182.241C257.244 184.642 254.701 186.563 253.543 186.478Z" fill="#41407E"/>
<path d="M305.129 27.7984C312.107 22.1766 322.898 14.9164 329.113 11.6959C335.328 8.44714 344.538 5.76339 349.594 5.67864C356.374 5.59389 359.595 7.23239 361.911 11.9219C364.284 16.7526 364.115 20.3121 361.177 26.7531C358.324 33.0529 355.16 35.4259 348.86 35.9626C344.227 36.3864 336.289 37.3469 331.232 38.0814C325.921 38.9006 317.22 43.9291 310.581 50.0594C304.281 55.8789 297.275 65.7381 294.987 71.9531C291.936 80.2869 288.461 84.1571 281.738 86.7561C276.709 88.6771 271.653 90.2591 270.494 90.2874C269.336 90.2874 268.347 84.2701 268.319 76.8969C268.263 64.9189 269.534 62.1221 280.325 50.7656C286.992 43.7596 298.151 33.4484 305.129 27.7984Z" fill="#F3F3F5"/>
<path d="M457.594 97.3781L458.046 77.9139L458.526 58.4496L475.731 60.2011C486.55 61.3029 494.828 63.8171 497.992 66.9529C500.76 69.6931 503.048 74.4956 503.048 77.6031C503.048 80.7106 500.76 85.5131 497.992 88.2534C494.912 91.3326 486.155 94.0446 457.594 97.3781Z" fill="#F3F3F5"/>
<path d="M148.285 208.966C147.522 205.858 148.341 201.366 150.149 198.993C151.957 196.592 154.811 195.123 156.506 195.688C158.201 196.253 159.585 200.406 159.585 204.926C159.585 210.576 158.059 213.373 154.641 213.881C151.675 214.333 149.132 212.356 148.285 208.966Z" fill="#F3F3F5"/>
<path d="M341.232 210.604C340.922 208.429 342.504 205.971 344.764 205.18C347.024 204.417 349.171 203.655 349.566 203.542C349.962 203.429 350.272 205.858 350.272 208.966C350.272 212.101 348.408 214.616 346.035 214.616C343.718 214.616 341.543 212.808 341.232 210.604Z" fill="#F3F3F5"/>
<path d="M496.607 210.604C496.297 208.429 497.794 206.056 499.913 205.378C502.06 204.7 503.952 204.53 504.122 205.011C504.291 205.491 504.065 207.864 503.642 210.265C503.19 212.666 501.551 214.616 499.997 214.616C498.444 214.616 496.918 212.808 496.607 210.604Z" fill="#F3F3F5"/>
<path d="M40.9348 214.616C38.6183 214.616 36.6973 212.723 36.6973 210.378C36.6973 208.062 38.6183 206.141 40.9348 206.141C43.2795 206.141 45.1723 208.062 45.1723 210.378C45.1723 212.723 43.2795 214.616 40.9348 214.616Z" fill="#F3F3F5"/>
<path d="M252.81 214.616C250.493 214.616 248.572 212.723 248.572 210.378C248.572 208.062 250.493 206.141 252.81 206.141C255.155 206.141 257.047 208.062 257.047 210.378C257.047 212.723 255.155 214.616 252.81 214.616Z" fill="#F3F3F5"/>
<path d="M386.997 213.203C385.444 212.44 384.879 210.519 385.726 208.966C386.574 207.412 389.116 206.141 391.376 206.141C393.636 206.141 395.472 207.412 395.472 208.966C395.472 210.519 394.201 212.44 392.647 213.203C391.094 213.994 388.551 213.994 386.997 213.203Z" fill="#F3F3F5"/>
</svg>
