<svg width="609" height="372" viewBox="0 0 609 372" fill="none" xmlns="http://www.w3.org/2000/svg">
<path d="M0 371.341V185.671V0H609V371.341H0Z" fill="#FC011D"/>
<path d="M280.354 115.891C280.222 115.165 285.52 109.224 292.122 102.688C298.707 96.1361 304.566 90.8053 305.127 90.8218C305.688 90.8548 311.564 96.6147 318.182 103.612C324.8 110.627 330.197 116.354 330.147 116.354C330.114 116.354 318.941 116.535 305.325 116.766C291.709 116.997 280.47 116.601 280.354 115.891Z" fill="#F7E38D"/>
<path d="M233.384 134.095C234.671 129.788 236.916 121.981 238.368 116.766C239.837 111.551 241.851 107.276 242.824 107.276C243.815 107.276 251.786 109.372 276.443 116.634L269.841 120.727C266.211 122.988 256.556 128.649 248.386 133.336C240.217 138.007 232.971 141.852 232.295 141.885C231.618 141.918 232.097 138.403 233.384 134.095Z" fill="#F7E38D"/>
<path d="M332.557 116.667L348.236 112.145C356.867 109.653 364.954 107.738 366.242 107.871C367.727 108.019 370.269 114.225 373.256 125.018C377.448 140.136 377.629 141.836 375.055 140.994C373.47 140.483 363.254 134.789 332.557 116.667Z" fill="#F7E38D"/>
<path d="M267.366 139.03C272.367 136.621 280.536 133.749 285.52 132.676C290.521 131.603 298.311 130.646 302.85 130.547C307.388 130.448 315.558 131.158 321.004 132.148C326.45 133.122 336.105 136.406 342.459 139.426C349.143 142.595 357.924 148.619 363.271 153.735C368.371 158.588 374.708 165.915 377.382 169.992C380.039 174.068 383.125 179.647 384.248 182.37C385.37 185.093 386.08 187.437 385.832 187.585C385.568 187.75 381.293 184.73 376.293 180.918C371.308 177.089 362.759 172.269 357.313 170.19C351.867 168.127 343.334 165.668 338.333 164.727C333.349 163.786 324.057 163.456 317.703 163.984C311.349 164.496 302.074 166.328 297.073 168.044C292.089 169.761 285.405 172.484 282.219 174.101C279.051 175.719 273.109 179.894 261.589 189.648L242.197 189.731C227.723 189.78 222.821 189.269 222.854 187.734C222.887 186.595 225.099 181.594 227.773 176.593C230.446 171.593 236.553 163.44 241.355 158.439C246.158 153.438 251.935 148.025 254.179 146.408C256.44 144.774 262.382 141.456 267.366 139.03Z" fill="#F7E38D"/>
<path d="M195.672 153.488C196.283 153.026 202.818 151.045 210.196 149.065C217.59 147.101 224.934 145.434 226.518 145.351C229.06 145.252 228.878 146.176 225.099 153.075C222.739 157.383 218.151 165.371 214.916 170.817C211.681 176.263 208.034 182.386 206.845 184.433C205.641 186.479 204.32 187.965 203.924 187.734C203.512 187.503 201.251 179.894 198.89 170.817C196.53 161.74 195.078 153.95 195.672 153.488Z" fill="#F7E38D"/>
<path d="M403.656 186.496C402.468 185.126 396.626 175.29 390.684 164.628C384.726 153.966 380.732 145.252 381.788 145.252C382.845 145.269 390.404 147.15 398.573 149.428C406.743 151.722 413.641 153.752 413.889 153.95C414.153 154.148 413.179 159.132 411.727 165.041C410.291 170.949 408.36 178.739 407.452 182.37C406.049 188.031 405.505 188.625 403.656 186.496Z" fill="#F7E38D"/>
<path d="M413.74 236.008C413.328 237.361 412.981 235.893 412.981 232.707C412.981 229.522 413.328 228.416 413.74 230.232C414.153 232.047 414.153 234.655 413.74 236.008Z" fill="#F7E38D"/>
<path d="M296.248 98.1992L300.242 93.6606C302.437 91.1685 304.484 89.1219 304.781 89.1219C305.078 89.1219 305.821 90.0462 306.415 91.185C307.026 92.3402 306.844 92.6868 306.002 91.9937C305.177 91.3005 302.635 92.4228 296.248 98.1992Z" fill="#F58775"/>
<path d="M275.618 118.565C273.341 119.704 275.948 116.552 281.395 111.551C286.841 106.567 291.561 102.441 291.891 102.408C292.205 102.358 289.614 105.51 286.115 109.405C282.616 113.3 277.879 117.426 275.618 118.565Z" fill="#F58775"/>
<path d="M329.256 164.595C325.626 164.942 320.427 164.942 317.704 164.579C314.98 164.215 317.951 163.918 324.305 163.935C330.659 163.935 332.887 164.232 329.256 164.595Z" fill="#F58775"/>
<path d="M387.433 191.497C387.202 191.53 385.535 189.879 383.72 187.816C381.904 185.753 381.541 184.994 382.895 186.1C384.248 187.206 385.948 187.569 386.658 186.892C387.367 186.215 387.912 186.975 387.895 188.559C387.862 190.143 387.664 191.464 387.433 191.497Z" fill="#F58775"/>
<path d="M241.372 191.167C230.249 191.315 221.155 190.886 221.155 190.209C221.155 189.533 227.278 189.17 234.771 189.417C242.264 189.665 251.357 190.094 254.988 190.358C258.619 190.638 252.496 191.002 241.372 191.167Z" fill="#F58775"/>
<path d="M184.846 210.74C183.476 211.153 180.885 211.153 179.07 210.74C177.254 210.328 178.36 209.981 181.545 209.981C184.714 209.981 186.199 210.328 184.846 210.74Z" fill="#F58775"/>
<path d="M353.996 248.386L353.171 229.076C352.725 218.448 352.923 210.278 353.617 210.922C354.293 211.549 354.673 220.247 353.996 248.386Z" fill="#F58775"/>
<path d="M404.35 210.74C402.997 211.153 400.389 211.153 398.574 210.74C396.758 210.328 397.864 209.981 401.049 209.981C404.234 209.981 405.703 210.328 404.35 210.74Z" fill="#F58775"/>
<path d="M347.807 238.484C347.477 243.93 347.213 239.837 347.213 229.406C347.213 218.976 347.477 214.503 347.807 219.504C348.137 224.505 348.137 233.037 347.807 238.484Z" fill="#F58775"/>
<path d="M388.902 218.332C388.126 217.623 387.978 216.104 388.572 214.965C389.166 213.827 389.892 212.902 390.189 212.902C390.487 212.902 390.305 214.206 389.793 215.791C388.968 218.415 389.166 218.448 392.071 216.203C395.058 213.893 395.108 213.926 392.797 216.682C391.444 218.316 389.678 219.058 388.902 218.332Z" fill="#F58775"/>
<path d="M439.834 216.385C438.926 215.56 436.698 214.52 434.883 214.074L431.582 213.282L434.883 213.15C436.698 213.067 439.669 214.107 441.484 215.461C443.3 216.814 444.042 217.903 443.135 217.903C442.227 217.903 440.741 217.227 439.834 216.385Z" fill="#F58775"/>
<path d="M413.741 226.106C413.328 227.459 412.982 225.974 412.982 222.805C412.982 219.62 413.328 218.514 413.741 220.329C414.153 222.145 414.153 224.736 413.741 226.106Z" fill="#F58775"/>
<path d="M228.961 237.659C228.615 241.735 228.334 239.144 228.318 231.882C228.318 224.62 228.598 221.27 228.961 224.455C229.308 227.624 229.308 233.566 228.961 237.659Z" fill="#F58775"/>
<path d="M271.872 241.785C271.525 245.415 271.245 241.702 271.245 233.533C271.261 225.363 271.542 222.392 271.888 226.931C272.218 231.47 272.218 238.154 271.872 241.785Z" fill="#F58775"/>
<path d="M265.27 240.959C264.924 245.036 264.643 242.445 264.627 235.183C264.627 227.921 264.907 224.571 265.27 227.756C265.617 230.925 265.617 236.866 265.27 240.959Z" fill="#F58775"/>
<path d="M247.066 240.959C246.654 243.418 246.34 242.412 246.324 238.484C246.307 234.853 246.621 232.988 247.033 234.358C247.446 235.711 247.462 238.682 247.066 240.959Z" fill="#F58775"/>
<path d="M304.5 270.667C210.427 270.667 161.74 270.106 161.74 269.016C161.74 267.927 210.427 267.366 304.5 267.366C398.574 267.366 447.261 267.927 447.261 269.016C447.261 270.106 398.574 270.667 304.5 270.667Z" fill="#F58775"/>
<path d="M348.004 200.524C347.031 199.617 346.767 197.9 347.427 196.712C348.087 195.54 349.77 194.798 351.19 195.062C352.592 195.342 353.979 196.497 354.292 197.636C354.589 198.775 353.698 200.26 352.295 200.937C350.909 201.614 348.978 201.432 348.004 200.524Z" fill="#F5EEF2"/>
<path d="M364.327 211.945C365.466 211.566 366.39 209.404 366.39 207.126C366.39 204.106 367.265 203 369.691 203C372.117 203 372.992 204.106 372.992 207.126C372.992 210.245 373.899 211.302 380.418 211.698L376.705 212.308C373.173 212.869 372.992 213.629 372.992 227.756C372.992 242.28 373.091 242.659 382.069 247.429L376.292 247.544C371.704 247.627 370.087 246.802 368.453 243.484C367.314 241.19 366.39 233.368 366.39 226.106C366.39 216.715 365.796 212.869 364.327 212.77C362.676 212.671 362.676 212.506 364.327 211.945Z" fill="#F5EEF2"/>
<path d="M163.522 229.274C163.621 222.392 164.479 220.032 168.341 216.071C172.187 212.127 174.415 211.252 180.587 211.252C184.746 211.252 189.268 211.615 190.622 212.077C191.991 212.539 193.097 214.025 193.097 215.378C193.097 216.731 192.734 217.854 192.272 217.854C191.826 217.854 190.341 216.731 188.971 215.378C187.618 214.025 184.829 212.869 182.782 212.853C180.736 212.82 177.22 214.19 174.943 215.89C172.682 217.606 170.289 221.154 169.645 223.795C169.018 226.419 169.199 231.371 170.058 234.77C171.262 239.491 173.045 241.636 177.55 243.848C183.162 246.604 183.673 246.604 188.278 243.848C191.48 241.933 192.905 241.658 192.553 243.022C192.255 244.161 189.483 245.746 186.364 246.554C183.261 247.363 178.673 247.561 176.181 246.967C173.688 246.389 169.793 244.062 167.516 241.785C164.149 238.418 163.406 236.124 163.522 229.274Z" fill="#F5EEF2"/>
<path d="M204.369 216.286C204.221 215.428 205.508 213.959 207.258 213.034C209.007 212.11 213.034 211.351 216.203 211.351C219.438 211.335 223.267 212.589 224.917 214.19C227.294 216.467 227.855 219.702 227.805 230.644C227.772 240.101 228.383 244.475 229.819 244.953C230.958 245.333 230.215 245.713 228.168 245.779C226.122 245.845 224.092 245.168 223.63 244.26C223.118 243.253 221.352 243.584 219.091 245.102C217.045 246.472 213.711 247.578 211.664 247.578C209.618 247.561 206.465 246.818 204.65 245.911C202.45 244.81 201.349 242.61 201.349 239.309C201.349 236.586 202.472 233.235 203.825 231.882C205.195 230.529 208.71 228.977 211.664 228.466C214.619 227.938 218.332 227.195 219.916 226.815C221.715 226.37 222.805 224.538 222.805 221.98C222.805 219.356 221.22 216.797 218.464 214.965C214.338 212.209 213.909 212.209 209.387 214.965C206.779 216.55 204.518 217.144 204.369 216.286Z" fill="#F5EEF2"/>
<path d="M243.435 247.033C242.51 246.719 241.57 238.682 241.322 228.862C240.876 212.094 241.009 211.252 244.21 211.252C246.042 211.252 247.198 211.995 246.735 212.902C246.29 213.81 246.653 214.916 247.561 215.378C248.468 215.84 249.822 215.081 250.564 213.728C251.439 212.143 254.377 211.252 258.816 211.252C264.131 211.252 266.293 212.11 268.207 214.965C269.957 217.573 270.683 222.97 270.683 233.12C270.666 244.854 270.204 247.561 268.191 247.561C266.227 247.561 265.715 245.118 265.699 235.596C265.682 229.01 264.725 221.782 263.586 219.504C262.398 217.144 259.774 215.147 257.43 214.817C255.169 214.52 252.033 215.444 250.449 216.88C248.369 218.778 247.214 223.432 246.323 233.549C245.613 241.686 244.392 247.363 243.435 247.033Z" fill="#F5EEF2"/>
<path d="M283.589 216.286C283.44 215.428 284.728 213.942 286.477 212.985C288.227 212.044 292.963 211.45 297.04 211.681C303.047 211.995 304.813 212.853 306.497 216.203C307.635 218.481 308.593 225.71 308.609 232.295C308.626 240.481 309.253 244.26 310.606 244.26C311.877 244.26 312.025 244.871 311.019 245.977C309.946 247.148 308.032 247.033 304.896 245.564C301.248 243.864 299.945 243.848 298.377 245.498C297.287 246.637 294.152 247.544 291.379 247.511C288.606 247.495 285.025 246.191 283.407 244.623C281.79 243.072 280.486 240.118 280.519 238.071C280.552 236.025 281.691 233.235 283.044 231.882C284.414 230.529 287.93 228.977 290.884 228.466C293.838 227.938 297.551 227.195 299.136 226.815C301.061 226.342 302.063 224.444 302.14 221.121C302.222 217.227 301.314 215.774 298.014 214.52C294.894 213.332 292.452 213.563 288.821 215.378C286.098 216.731 283.738 217.144 283.589 216.286Z" fill="#F5EEF2"/>
<path d="M320.591 231.156C320.36 222.623 320.525 214.635 320.954 213.447C321.383 212.242 322.885 211.252 324.272 211.252C325.641 211.252 326.78 212.374 326.78 213.728C326.78 215.923 327.193 215.923 330.494 213.711C332.54 212.341 335.131 211.236 336.27 211.236C337.409 211.252 338.333 212.374 338.333 213.728C338.333 215.263 336.782 216.203 334.207 216.203C331.731 216.203 329.421 217.524 328.431 219.504C327.523 221.32 326.78 228.383 326.78 235.183C326.78 246.043 326.417 247.511 323.892 247.132C321.416 246.752 320.938 244.508 320.591 231.156Z" fill="#F5EEF2"/>
<path d="M350.711 247.561C348.665 247.561 348.235 244.442 348.235 229.407C348.235 214.371 348.665 211.252 350.711 211.252C352.758 211.252 353.187 214.371 353.187 229.407C353.187 244.442 352.758 247.561 350.711 247.561Z" fill="#F5EEF2"/>
<path d="M389.215 216.286C389.066 215.428 390.354 213.959 392.103 213.034C393.853 212.11 397.863 211.351 401.048 211.351C404.283 211.335 408.112 212.589 409.763 214.19C412.106 216.434 412.7 219.669 412.651 229.819C412.618 240.53 413.063 242.775 415.49 243.65C417.965 244.541 418.031 244.871 415.902 246.043C414.4 246.884 412.123 246.538 410.126 245.201C407.353 243.336 406.297 243.352 403.524 245.3C401.709 246.571 398.375 247.578 396.097 247.544C393.836 247.511 390.651 246.191 389.033 244.623C387.416 243.072 386.112 240.118 386.145 238.071C386.178 236.025 387.317 233.235 388.67 231.882C390.024 230.529 393.556 228.977 396.51 228.466C399.464 227.938 403.177 227.195 404.762 226.815C406.561 226.37 407.65 224.538 407.65 221.98C407.65 219.356 406.066 216.797 403.309 214.965C399.183 212.209 398.754 212.209 394.232 214.965C391.625 216.55 389.364 217.144 389.215 216.286Z" fill="#F5EEF2"/>
<path d="M424.517 221.98C424.237 219.042 425.177 215.857 426.811 214.14C428.627 212.259 432.093 211.252 436.78 211.252C442.061 211.252 443.959 211.912 443.959 213.728C443.959 215.081 443.596 216.203 443.134 216.203C442.688 216.203 440.823 215.279 439.008 214.14C436.549 212.605 434.948 212.539 432.819 213.893C431.234 214.899 429.749 217.309 429.518 219.257C429.188 222.029 430.723 223.515 436.532 226.106C440.625 227.921 444.603 230.71 445.378 232.295C446.171 233.879 446.352 236.965 445.791 239.144C445.246 241.322 443.299 244.112 441.483 245.349C439.668 246.571 435.393 247.578 431.994 247.578C428.132 247.561 425.342 246.62 424.567 245.069C423.89 243.699 423.874 242.032 424.55 241.355C425.227 240.679 427.092 241.421 428.676 242.973C430.277 244.541 432.885 245.845 434.469 245.861C436.054 245.894 438.447 244.244 439.767 242.197C441.362 239.722 441.659 237.659 440.658 236.008C439.816 234.655 435.955 232.047 432.06 230.232C426.3 227.542 424.897 226.007 424.517 221.98Z" fill="#F5EEF2"/>
<path d="M209.949 233.301C211.12 232.262 213.563 231.04 215.379 230.595C217.194 230.149 219.24 229.704 219.917 229.605C220.594 229.489 221.188 231.816 221.221 234.77C221.27 237.725 220.148 241.058 218.745 242.197C217.359 243.336 214.355 243.897 212.078 243.435C209.173 242.857 207.935 241.504 207.886 238.896C207.836 236.85 208.76 234.341 209.949 233.301Z" fill="#FC011D"/>
<path d="M289.069 234.473C290.109 232.724 292.535 230.958 294.433 230.578C296.347 230.182 298.823 229.753 299.962 229.638C301.2 229.489 302.025 231.37 302.025 234.358C302.025 237.081 300.853 240.431 299.434 241.785C297.998 243.138 295.407 244.26 293.657 244.26C291.908 244.26 289.729 242.775 288.822 240.959C287.683 238.682 287.765 236.668 289.069 234.473Z" fill="#FC011D"/>
<path d="M393.589 236.47C394.035 234.902 396.082 232.674 398.128 231.519C400.191 230.364 402.997 229.605 404.35 229.836C405.736 230.083 406.875 232.08 406.925 234.374C406.991 236.635 405.868 239.804 404.449 241.421C403.03 243.039 400.752 244.376 399.399 244.392C398.046 244.392 395.999 243.253 394.86 241.851C393.721 240.464 393.16 238.022 393.589 236.47Z" fill="#FC011D"/>
<path d="M220.214 243.435C220.594 241.62 220.957 237.725 221.023 234.77C221.106 231.816 221.551 229.406 222.046 229.406C222.525 229.406 222.723 232.262 222.459 235.761C222.178 239.59 222.971 243.385 224.456 245.25C226.651 248.04 226.651 248.155 224.456 246.34C223.086 245.201 221.436 244.838 220.759 245.514C220.082 246.191 219.835 245.25 220.214 243.435Z" fill="#F58775"/>
<path d="M405.043 243.022C405.44 241.438 405.803 239.953 405.869 239.722C405.951 239.49 406.347 239.309 406.76 239.309C407.189 239.309 407.189 240.052 406.76 240.959C406.347 241.867 407.668 243.732 409.714 245.102C411.761 246.472 412.503 247.577 411.364 247.577C410.226 247.561 408.938 246.818 408.476 245.911C408.014 245.003 406.908 244.623 406.001 245.085C405.093 245.547 404.664 244.607 405.043 243.022Z" fill="#F58775"/>
</svg>
