<svg width="631" height="341" viewBox="0 0 631 341" fill="none" xmlns="http://www.w3.org/2000/svg">
<path d="M0 341V170.5V0H631V341H0Z" fill="#0C7343"/>
<path d="M321.055 89.3018C323.395 88.1658 325.834 86.9183 326.471 86.5308C327.378 85.976 327.763 85.8879 328.232 86.1198C328.564 86.2813 329.462 86.8566 330.228 87.3938C330.995 87.931 333.34 89.428 335.439 90.7196C337.538 92.0112 339.319 93.068 339.402 93.068C339.481 93.068 340.241 93.4819 341.09 93.9897C341.938 94.4975 343.752 95.5073 345.126 96.2353C346.497 96.9604 347.753 97.6619 347.914 97.794C348.076 97.9232 351.311 99.5905 355.106 101.499C358.899 103.404 362.797 105.318 363.766 105.749C364.734 106.178 367.045 107.208 368.903 108.039C370.758 108.866 372.939 109.856 373.746 110.234C374.553 110.616 378.845 112.38 383.286 114.156C387.725 115.935 393.869 118.31 396.936 119.437C400.004 120.561 404.691 122.231 407.357 123.144C410.019 124.057 413.785 125.317 415.723 125.942C417.66 126.57 420.83 127.562 422.768 128.149C424.705 128.733 428.207 129.787 430.547 130.486C432.886 131.184 436.059 132.094 437.592 132.508C439.124 132.919 441.105 133.451 441.995 133.685C442.647 133.858 444.025 134.224 445.447 134.601L446.985 135.009C448.84 135.503 453.199 136.58 456.672 137.405C460.142 138.23 464.965 139.36 467.386 139.917C469.808 140.475 475.027 141.596 478.981 142.41C482.935 143.223 489.672 144.529 493.952 145.313C498.229 146.096 502.588 146.871 503.639 147.036C504.69 147.2 509.445 148.004 514.206 148.823C518.968 149.64 522.881 150.341 522.898 150.382C522.916 150.423 523.016 152.998 523.306 161.757L522.646 161.754C522.282 161.754 519.211 161.287 515.821 160.721C512.43 160.151 507.872 159.417 505.694 159.089C503.516 158.76 498.164 157.832 493.805 157.025C489.446 156.221 481.388 154.639 475.899 153.514C470.41 152.387 464.862 151.21 463.57 150.899C462.279 150.585 459.704 149.992 457.846 149.581C455.988 149.17 453.678 148.636 452.709 148.395C451.74 148.154 447.381 147.027 443.022 145.888C438.663 144.749 432.983 143.229 430.4 142.509C427.817 141.79 425.175 141.015 424.529 140.789C423.883 140.566 421.837 139.958 419.979 139.442C418.121 138.925 412.705 137.208 407.944 135.623C403.183 134.038 397.435 132.08 395.175 131.275C392.915 130.468 388.82 128.936 386.075 127.87C383.33 126.802 380.688 125.745 380.204 125.519C379.72 125.293 378.199 124.65 376.828 124.093C375.455 123.532 372.816 122.413 370.958 121.603C369.099 120.793 366.657 119.713 365.527 119.199C364.397 118.685 362.515 117.814 361.344 117.262C360.173 116.71 359.116 116.255 358.996 116.249C358.875 116.246 355.341 114.517 351.143 112.407C346.946 110.299 343.379 108.467 343.218 108.341C343.056 108.215 341.471 107.346 339.695 106.412C337.919 105.476 334.32 103.415 331.696 101.827C329.072 100.239 326.826 98.9418 326.706 98.9447C326.586 98.9506 324.041 100.175 321.055 101.672C318.067 103.166 314.568 104.871 313.276 105.461C311.985 106.048 309.607 107.123 307.993 107.845C306.378 108.567 302.612 110.214 299.627 111.505C296.638 112.794 292.543 114.544 290.527 115.392C288.507 116.24 282.366 118.68 276.877 120.814C271.388 122.948 264.187 125.639 260.879 126.793C257.568 127.947 254.133 129.156 253.247 129.479C252.357 129.802 247.866 131.308 243.266 132.825C238.664 134.343 232.787 136.248 230.204 137.061C227.621 137.871 223.394 139.145 220.81 139.894C218.227 140.64 214.132 141.828 211.711 142.539C209.289 143.246 204.598 144.558 201.29 145.457C197.979 146.352 189.856 148.459 183.237 150.136C176.618 151.812 169.417 153.605 167.239 154.122C165.058 154.636 160.831 155.563 157.846 156.183C154.857 156.802 149.706 157.782 146.397 158.364C143.086 158.945 138.53 159.752 136.27 160.157C134.01 160.562 128.726 161.414 124.528 162.051C120.331 162.687 114.915 163.462 112.493 163.777C110.071 164.091 105.821 164.654 103.047 165.033C100.273 165.412 97.9247 165.652 97.8307 165.573C97.7368 165.494 97.8072 162.916 97.9834 159.849C98.1624 156.781 98.3298 154.248 98.3562 154.219C98.3826 154.189 100.053 153.96 102.072 153.711C104.089 153.461 108.977 152.795 112.934 152.232C116.888 151.671 122.7 150.808 125.849 150.312C128.996 149.819 133.687 149.029 136.27 148.556C138.853 148.084 142.948 147.365 145.37 146.957C147.792 146.546 151.358 145.888 153.296 145.495C155.233 145.098 160.385 143.98 164.744 143.008C169.103 142.034 176.896 140.173 182.063 138.867C187.229 137.56 192.513 136.184 193.805 135.802C195.096 135.42 197.274 134.819 198.648 134.463C200.019 134.105 204.51 132.828 208.628 131.622C212.744 130.418 218.227 128.789 220.81 128.005C223.394 127.225 227.356 125.995 229.617 125.275C231.877 124.556 236.301 123.141 239.45 122.132C242.597 121.122 247.617 119.44 250.605 118.392C253.59 117.344 257.289 116.017 258.824 115.448C260.357 114.875 262.47 114.115 263.521 113.757C264.569 113.399 266.682 112.615 268.218 112.019C269.75 111.42 272.459 110.361 274.235 109.665C276.011 108.966 279.71 107.516 282.454 106.442C285.199 105.364 288.566 104.014 289.94 103.436C291.311 102.861 295.538 101.029 299.333 99.3674C303.126 97.7089 307.881 95.5602 309.901 94.6003C311.917 93.6374 314.295 92.5161 315.184 92.1081C316.071 91.6971 318.713 90.4349 321.055 89.3018Z" fill="#EDF1F0"/>
<path d="M350.069 132.999C350.506 132.438 351.322 131.816 351.883 131.616C352.447 131.416 353.665 131.246 354.593 131.24C355.673 131.231 356.677 131.425 357.381 131.777C357.986 132.08 358.911 132.808 359.436 133.392C359.961 133.979 360.61 134.886 360.877 135.412C361.144 135.937 361.564 137.026 361.814 137.833C362.189 139.051 362.292 142.16 362.592 173.055L364.206 173.249C365.093 173.358 367.734 173.596 370.077 173.778C372.416 173.96 374.829 174.171 376.535 174.379L376.682 145.759L377.415 144.024C377.894 142.894 378.543 141.975 379.279 141.382C380.178 140.663 380.753 140.452 382.068 140.364C383.251 140.284 384.105 140.416 385.048 140.819C385.773 141.13 387.011 141.972 387.798 142.691C388.588 143.411 389.36 144.329 389.521 144.731C389.68 145.137 389.994 146.126 390.217 146.933C390.507 147.99 390.663 151.272 390.772 158.675C390.857 164.325 390.986 181.829 391.059 197.569C391.153 217.151 391.097 226.747 390.883 227.951C390.71 228.92 390.37 230.108 390.123 230.593C389.879 231.077 389.263 231.914 388.758 232.451C388.25 232.988 387.372 233.619 386.809 233.851C386.207 234.101 384.839 234.274 383.506 234.268C382.001 234.265 380.859 234.092 380.131 233.76C379.526 233.484 378.863 233.056 378.657 232.806C378.452 232.557 377.923 231.694 376.682 229.419L376.514 197.129L373.664 196.912C372.094 196.791 368.929 196.691 362.445 196.689L362.298 229.419L361.535 230.886C361.115 231.694 360.387 232.662 359.92 233.041C359.451 233.42 358.605 233.919 358.042 234.15C357.466 234.385 356.078 234.567 354.886 234.561C353.386 234.558 352.432 234.391 351.657 233.998C351.052 233.69 350.275 233.129 349.928 232.75C349.585 232.372 349.036 231.532 348.71 230.886C348.387 230.24 347.973 228.92 347.797 227.951C347.568 226.715 347.471 213.517 347.474 183.626C347.477 155.725 347.583 140.405 347.782 139.154C347.95 138.106 348.355 136.518 348.681 135.632C349.006 134.745 349.632 133.559 350.069 132.999Z" fill="#EDF1F0"/>
<path d="M311.955 133.835C312.842 133.398 314.559 132.834 315.771 132.582C317.131 132.303 318.786 132.18 320.101 132.265C321.484 132.356 323.128 132.734 324.798 133.345C326.21 133.865 327.959 134.739 328.687 135.288C329.412 135.84 330.449 136.703 330.986 137.208C331.523 137.713 332.712 139.116 333.625 140.328C334.541 141.538 335.823 143.587 336.475 144.878C337.13 146.17 338.139 148.415 338.721 149.868C339.302 151.322 340.247 154.095 340.822 156.033C341.398 157.97 342.14 160.809 342.475 162.344C342.807 163.879 343.274 166.454 343.514 168.068C343.752 169.683 344.154 172.721 344.407 174.82C344.659 176.918 344.941 181.606 345.035 185.24C345.135 189.112 345.064 193.909 344.865 196.835C344.677 199.58 344.26 203.675 343.937 205.935C343.611 208.195 343.086 211.101 342.769 212.393C342.449 213.685 341.718 216.194 341.139 217.97C340.561 219.746 339.816 221.792 339.481 222.52C339.146 223.248 338.248 224.898 337.488 226.19C336.728 227.481 335.195 229.474 334.083 230.619C332.973 231.764 331.271 233.202 330.302 233.813C329.333 234.426 327.548 235.316 326.339 235.791C324.895 236.358 323.277 236.731 321.642 236.875C320.271 236.998 318.123 236.986 316.872 236.854C315.622 236.719 313.573 236.282 312.322 235.879C311.072 235.474 309.255 234.691 308.286 234.136C307.317 233.581 305.718 232.424 304.731 231.564C303.745 230.707 302.624 229.557 302.236 229.008C301.852 228.459 301.235 227.666 300.868 227.246C300.504 226.827 299.773 225.755 299.245 224.869C298.72 223.982 297.801 222.001 297.211 220.465C296.618 218.93 295.802 216.553 295.397 215.182C294.992 213.811 294.399 211.366 294.079 209.751C293.759 208.137 293.348 205.495 293.166 203.88C292.981 202.266 292.708 199.624 292.552 198.009C292.4 196.395 292.276 192.068 292.279 188.396C292.285 184.724 292.488 179.44 292.734 176.654C292.981 173.869 293.445 169.873 293.768 167.775C294.087 165.676 294.804 162.241 295.353 160.142C295.905 158.044 296.976 154.609 297.733 152.51C298.494 150.412 299.624 147.67 300.252 146.419C300.877 145.169 301.998 143.252 302.744 142.163C303.49 141.074 304.646 139.539 305.313 138.749C305.979 137.962 307.382 136.715 308.433 135.975C309.484 135.238 311.066 134.275 311.955 133.835Z" fill="#EDF1F0"/>
<path d="M266.75 146.237C268.928 145.744 271.041 145.28 271.447 145.204C271.849 145.128 273.501 145.116 275.116 145.178C276.73 145.239 278.644 145.474 279.372 145.7C280.097 145.929 281.354 146.475 282.161 146.915C282.968 147.359 284.072 148.137 284.615 148.647C285.158 149.158 286.088 150.235 286.684 151.043C287.28 151.85 287.985 152.971 288.249 153.538C288.513 154.104 289.068 155.458 289.482 156.547C289.896 157.636 290.509 159.881 290.844 161.537C291.217 163.366 291.519 166.275 291.616 168.949C291.71 171.503 291.636 174.646 291.437 176.434C291.252 178.128 290.829 180.705 290.497 182.158C290.116 183.837 289.276 186.083 288.196 188.323C286.802 191.208 286.118 192.241 282.314 196.248L283.218 198.156C283.717 199.207 284.63 201.318 285.246 202.853C285.862 204.388 287.838 210.001 289.637 215.329C291.716 221.481 292.966 225.658 293.072 226.777C293.166 227.795 293.084 229.096 292.875 229.859C292.643 230.71 292.086 231.611 291.302 232.395C290.515 233.182 289.62 233.737 288.766 233.968C288.002 234.174 286.388 234.277 284.95 234.206C282.995 234.115 282.176 233.933 281.169 233.367C280.288 232.874 279.495 232.049 278.647 230.739C277.966 229.689 276.933 227.578 276.352 226.043C275.77 224.508 274.094 219.755 272.627 215.475C271.159 211.195 269.624 206.772 269.213 205.642C268.799 204.511 268.309 203.155 268.121 202.63C267.933 202.101 267.645 201.629 267.484 201.579C267.322 201.529 266.562 201.532 264.402 201.679L264.255 229.712L263.5 230.886C263.086 231.532 262.358 232.342 261.886 232.689C261.413 233.035 260.43 233.478 259.705 233.678C258.892 233.898 257.621 233.966 256.402 233.854C255.313 233.757 253.925 233.422 253.32 233.114C252.716 232.806 251.864 232.178 251.427 231.72C250.992 231.262 250.397 230.358 250.106 229.712C249.607 228.605 249.575 226.504 249.501 192.579C249.434 161.237 249.484 156.423 249.868 155.079C250.112 154.231 250.74 153.056 251.265 152.466C251.791 151.876 252.683 151.11 253.247 150.764C253.811 150.417 255.131 149.783 256.182 149.349C257.233 148.917 259.147 148.242 260.439 147.849C261.73 147.456 264.572 146.731 266.75 146.237Z" fill="#EDF1F0"/>
<path d="M406.183 153.006C406.908 152.584 408.229 152.011 409.118 151.73C410.008 151.451 411.657 151.216 412.787 151.21C413.917 151.204 415.699 151.395 416.75 151.636C417.801 151.876 419.515 152.425 420.566 152.857C421.617 153.288 423.07 154.04 423.795 154.524C424.52 155.008 425.181 155.484 425.263 155.581C425.345 155.678 425.997 156.215 426.716 156.776C427.432 157.336 428.756 158.786 429.654 159.996C430.553 161.208 431.9 163.386 432.648 164.839C433.397 166.292 434.427 168.67 434.935 170.123C435.446 171.576 436.171 174.018 436.55 175.553C436.928 177.089 437.322 178.87 437.424 179.516C437.527 180.162 437.68 181.087 437.765 181.571C437.85 182.055 437.97 182.384 438.035 182.305C438.097 182.226 438.417 180.77 438.748 179.076C439.077 177.382 439.691 174.937 440.11 173.645C440.53 172.354 441.29 170.505 441.801 169.539C442.312 168.57 443.653 166.809 444.784 165.623C446.195 164.138 447.387 163.201 448.6 162.623C449.568 162.159 451.153 161.689 452.122 161.578C453.381 161.434 454.553 161.528 456.232 161.91C457.523 162.2 459.24 162.764 460.048 163.157C460.855 163.551 462.308 164.472 463.277 165.2C464.245 165.931 465.499 167.138 466.062 167.883C466.629 168.632 467.157 169.31 467.237 169.389C467.319 169.468 467.574 169.868 467.803 170.27C468.029 170.675 468.516 171.597 468.883 172.325C469.247 173.052 469.902 174.834 470.336 176.287C470.885 178.128 471.167 179.866 471.27 182.011C471.352 183.773 471.282 185.596 471.103 186.268C470.929 186.914 470.486 187.891 470.116 188.443C469.743 188.992 469.068 189.72 468.613 190.057C467.965 190.536 467.351 190.671 465.825 190.671C464.198 190.671 463.694 190.545 462.857 189.937C462.302 189.535 461.545 188.707 461.169 188.102C460.793 187.498 460.074 185.713 459.566 184.14C458.865 181.964 458.389 181.016 457.585 180.189C457.001 179.59 456.229 179.097 455.865 179.088C455.501 179.082 454.84 179.258 454.397 179.481C453.954 179.704 453.411 180.265 453.196 180.729C452.979 181.192 452.627 182.099 452.413 182.745C452.198 183.391 451.884 184.647 451.714 185.534C451.544 186.42 451.25 188.866 451.065 190.964C450.869 193.192 450.81 196.369 450.924 198.597C451.033 200.695 451.244 203.734 451.4 205.348C451.553 206.963 451.899 209.408 452.166 210.779C452.436 212.149 453.032 214.099 453.49 215.108C453.948 216.118 454.652 217.275 455.057 217.677C455.624 218.243 456.094 218.411 457.112 218.411C457.837 218.411 458.83 218.214 460.194 217.53L460.048 209.757L458.727 209.575C458.002 209.472 456.977 209.173 456.452 208.909C455.926 208.647 455.099 207.87 454.611 207.183C454.118 206.49 453.581 205.219 453.402 204.321C453.223 203.434 453.147 201.717 453.235 200.505C453.323 199.295 453.59 197.839 453.833 197.276C454.074 196.712 454.582 195.961 454.958 195.608C455.336 195.256 456.009 194.825 456.452 194.654C456.895 194.481 457.887 194.34 458.653 194.337C459.42 194.337 461.697 194.481 463.717 194.66C465.734 194.839 467.982 195.189 468.707 195.435C469.432 195.685 470.342 196.166 470.727 196.507C471.111 196.85 471.669 197.657 471.968 198.303C472.409 199.257 472.514 200.246 472.535 203.587C472.547 205.847 472.652 208.225 472.767 208.871C472.952 209.901 473.11 209.361 474.059 204.467C474.651 201.4 475.476 196.976 475.893 194.634C476.307 192.291 476.906 188.924 477.22 187.148C477.537 185.372 478.133 181.674 478.547 178.929C478.958 176.185 479.477 173.411 479.703 172.765C479.929 172.119 480.519 171.227 481.016 170.783C481.512 170.34 482.477 169.818 483.164 169.627C484.145 169.354 484.79 169.357 486.173 169.653C487.142 169.859 488.583 170.314 489.373 170.663C490.165 171.012 491.254 171.793 491.794 172.398C492.335 173.003 492.971 173.927 493.209 174.453C493.447 174.978 493.97 177.124 494.372 179.223C494.774 181.322 495.246 183.896 495.42 184.947C495.596 185.998 496.714 191.81 497.906 197.863C499.101 203.918 500.134 209.202 500.204 209.604C500.272 210.01 500.348 208.885 500.369 207.109C500.392 205.333 500.266 198.133 500.087 191.111C499.852 181.832 499.852 178.002 500.087 177.095C500.284 176.334 500.753 175.562 501.29 175.113C501.775 174.711 502.732 174.233 503.419 174.053C504.464 173.783 505.338 173.854 508.776 174.491C511.036 174.908 513.414 175.327 514.06 175.424C514.705 175.518 515.63 175.733 516.114 175.9C516.599 176.064 517.324 176.352 517.729 176.537C518.131 176.722 518.991 177.221 519.637 177.643C520.283 178.066 521.383 179.055 522.082 179.845C522.781 180.632 523.805 182.202 524.357 183.332C524.909 184.462 525.64 186.444 525.977 187.735C526.462 189.579 526.603 191.061 526.638 194.634C526.673 198.203 526.567 199.595 526.156 201.092C525.869 202.143 525.34 203.593 524.985 204.321C524.63 205.049 524.008 206.017 523.603 206.475C522.875 207.3 522.872 207.321 523.38 208.31C523.661 208.862 524.433 211.589 525.094 214.374C525.757 217.16 526.694 220.956 527.178 222.814C527.847 225.379 528.032 226.648 527.947 228.098C527.856 229.653 527.674 230.22 526.964 231.162C526.485 231.799 525.566 232.557 524.921 232.844C524.275 233.132 523.118 233.373 522.352 233.376C521.442 233.378 520.45 233.126 519.49 232.648C518.683 232.245 517.77 231.55 517.465 231.106C517.156 230.663 516.701 229.771 516.452 229.125C516.202 228.479 515.513 225.773 514.923 223.107C514.33 220.442 513.728 217.768 513.584 217.163C513.428 216.497 513.153 216.062 512.885 216.062C512.507 216.062 512.454 216.92 512.518 222.3C512.589 228.412 512.577 228.57 511.858 230.123C511.265 231.403 510.839 231.87 509.656 232.542C508.562 233.164 507.795 233.376 506.648 233.378C505.799 233.381 504.743 233.223 504.299 233.029C503.856 232.835 503.128 232.439 502.685 232.148C502.206 231.834 501.819 231.74 501.731 231.914C501.649 232.075 501.056 232.471 500.41 232.794C499.652 233.173 498.637 233.384 497.548 233.387C496.62 233.393 495.396 233.205 494.833 232.97C494.269 232.739 493.385 232.107 492.869 231.57C492.355 231.033 491.806 230.264 491.653 229.859C491.501 229.457 491.093 227.475 490.752 225.456C490.409 223.439 489.954 220.929 489.352 217.97L483.971 217.824L483.792 219.365C483.696 220.213 483.249 222.755 482.806 225.015C482.36 227.276 481.726 229.653 481.397 230.299C481.065 230.945 480.42 231.829 479.962 232.263C479.504 232.694 478.764 233.191 478.321 233.364C477.878 233.534 476.721 233.675 475.752 233.675C474.784 233.675 473.627 233.534 473.184 233.364C472.741 233.191 471.945 232.63 471.417 232.116C470.888 231.6 470.46 231.048 470.46 230.886C470.46 230.725 470.342 230.396 470.198 230.152C469.984 229.788 469.741 229.888 468.778 230.739C468.141 231.303 466.84 232.187 465.886 232.7C464.935 233.214 463.101 233.924 461.809 234.28C459.839 234.823 458.965 234.902 456.378 234.773C454.224 234.667 452.809 234.432 451.682 233.995C450.792 233.648 449.471 232.985 448.746 232.518C448.021 232.052 446.897 231.162 446.251 230.543C445.605 229.921 444.537 228.623 443.879 227.654C443.219 226.689 442.189 224.839 441.584 223.548C440.982 222.256 440.175 220.075 439.79 218.704C439.406 217.333 438.933 215.352 438.742 214.301C438.549 213.25 438.29 212.261 438.164 212.1C438.038 211.938 437.847 212.466 437.738 213.274C437.633 214.081 437.283 215.734 436.964 216.943C436.644 218.155 435.91 220.333 435.337 221.786C434.762 223.239 433.688 225.353 432.951 226.483C432.214 227.613 430.679 229.463 429.537 230.593C428.398 231.723 426.672 233.064 425.703 233.575C424.735 234.086 422.95 234.799 421.74 235.163C420.246 235.612 418.737 235.832 417.044 235.847C415.673 235.856 413.691 235.683 412.641 235.46C411.59 235.237 409.94 234.705 408.971 234.277C408.003 233.848 406.55 233.047 405.742 232.495C404.935 231.943 403.693 230.96 402.986 230.308C402.276 229.659 401.213 228.465 400.623 227.657C400.033 226.85 399.161 225.529 398.688 224.722C398.213 223.915 397.585 222.726 397.291 222.08C396.995 221.434 396.419 219.917 396.014 218.704C395.606 217.495 394.961 215.114 394.576 213.42C394.194 211.727 393.663 208.689 393.402 206.669C393.138 204.652 392.85 200.029 392.765 196.395C392.668 192.432 392.744 187.97 392.953 185.24C393.146 182.739 393.557 179.17 393.871 177.315C394.186 175.46 394.72 172.75 395.057 171.297C395.398 169.844 396.07 167.534 396.551 166.16C397.033 164.786 397.893 162.805 398.465 161.757C399.035 160.709 400.115 159.001 400.861 157.964C401.609 156.928 402.816 155.56 403.541 154.926C404.266 154.292 405.458 153.426 406.183 153.006Z" fill="#EDF1F0"/>
<path d="M227.268 155.314C229.69 154.815 233.653 154.093 236.075 153.705C238.496 153.318 241.335 152.989 242.386 152.968C243.437 152.951 244.758 153.121 245.321 153.347C245.885 153.573 246.686 154.14 247.094 154.603C247.505 155.067 248.034 155.974 248.268 156.62C248.568 157.439 248.697 159.042 248.697 161.904C248.697 165.817 248.659 166.087 247.89 167.554C247.447 168.403 246.654 169.41 246.128 169.794C245.603 170.182 244.843 170.598 244.441 170.725C244.036 170.851 242.386 171.165 237.836 171.884L237.542 229.419L236.809 230.698C236.354 231.494 235.576 232.266 234.754 232.744C233.621 233.399 233.095 233.508 231.084 233.496C229.156 233.487 228.475 233.349 227.268 232.73C226.461 232.316 225.578 231.732 225.308 231.432C225.035 231.133 224.541 230.293 224.213 229.565C223.623 228.265 223.611 227.807 223.599 174.379L220.15 174.567C216.997 174.737 216.592 174.699 215.453 174.127C214.766 173.78 214.141 173.531 214.059 173.572C213.98 173.613 214.129 174.506 214.397 175.553C214.661 176.601 214.881 178.583 214.887 179.957C214.895 181.62 214.724 182.941 214.376 183.919C214.091 184.727 213.504 185.907 213.076 186.544C212.647 187.181 211.708 188.006 210.977 188.387C210.249 188.769 209.127 189.159 208.482 189.259C207.78 189.371 206.894 189.288 206.28 189.056C205.714 188.842 204.889 188.328 204.445 187.909C204.002 187.492 203.45 186.62 203.218 185.974C202.987 185.328 202.59 183.975 202.338 182.965C202.085 181.956 201.613 180.602 201.29 179.957C200.967 179.311 200.406 178.636 200.042 178.46C199.523 178.204 199.103 178.254 198.061 178.694C197.169 179.07 196.443 179.675 195.83 180.558C195.328 181.278 194.697 182.525 194.43 183.332C194.16 184.14 193.737 185.989 193.487 187.442C193.241 188.895 192.959 192.594 192.865 195.661C192.762 199.031 192.839 203.155 193.056 206.082C193.256 208.747 193.655 211.85 193.942 212.98C194.23 214.11 194.732 215.563 195.061 216.209C195.387 216.855 196.009 217.712 196.441 218.117C197.031 218.666 197.547 218.851 198.504 218.851C199.523 218.851 199.972 218.672 200.712 217.97C201.219 217.486 201.909 216.561 202.238 215.916C202.57 215.27 203.154 213.585 203.533 212.173C203.914 210.761 204.41 209.24 204.636 208.797C204.865 208.354 205.361 207.699 205.737 207.347C206.116 206.992 206.923 206.496 207.528 206.246C208.132 205.994 209.057 205.788 209.582 205.791C210.108 205.791 211.065 205.935 211.711 206.114C212.45 206.317 213.381 206.939 214.229 207.799C215.265 208.853 215.65 209.516 215.917 210.705C216.105 211.554 216.258 212.939 216.258 213.787C216.255 214.636 216.008 216.517 215.709 217.97C215.409 219.423 214.719 221.669 214.179 222.961C213.639 224.252 212.747 225.969 212.198 226.777C211.649 227.584 210.586 228.881 209.841 229.656C209.092 230.434 207.754 231.509 206.867 232.043C205.978 232.577 204.525 233.261 203.638 233.563C202.37 233.998 201.205 234.112 198.208 234.098C195.137 234.083 194.075 233.966 192.777 233.487C191.888 233.161 190.206 232.278 189.034 231.523C187.749 230.695 186.31 229.427 185.397 228.318C184.57 227.308 183.404 225.491 182.805 224.282C182.21 223.069 181.44 221.155 181.097 220.025C180.757 218.895 180.275 216.846 180.029 215.475C179.782 214.104 179.447 211.592 179.28 209.898C179.113 208.204 178.981 206.023 178.986 205.055C178.992 204.086 178.895 203.196 178.769 203.076C178.643 202.959 178.329 203.287 178.071 203.81C177.812 204.332 177.152 205.063 176.603 205.436C176.054 205.806 175.141 206.235 174.577 206.384C174.011 206.537 171.501 206.863 169 207.106C166.496 207.35 164.418 207.55 164.377 207.55C164.336 207.55 164.336 210.142 164.45 219.071L170.615 219.109C175.235 219.139 177.096 219.259 178.05 219.588C178.749 219.829 179.691 220.421 180.14 220.906C180.589 221.39 181.106 222.415 181.291 223.181C181.473 223.947 181.622 225.4 181.622 226.41C181.622 227.42 181.487 228.708 181.323 229.272C181.159 229.835 180.598 230.734 180.076 231.265C179.553 231.796 178.599 232.372 177.953 232.542C177.213 232.741 173.098 232.841 166.799 232.812C161.18 232.785 156.24 232.636 155.497 232.466C154.769 232.298 153.912 232.019 153.589 231.843C153.266 231.67 152.838 231.283 152.635 230.986C152.28 230.464 152.248 230.464 151.608 231.015C151.244 231.33 150.419 231.826 149.773 232.116C148.746 232.58 147.525 232.656 139.939 232.736C132.545 232.815 130.957 232.753 129.078 232.319C127.596 231.978 126.492 231.512 124.528 229.976L123.648 230.886C123.078 231.476 122.198 231.946 121.153 232.222C119.873 232.559 117.598 232.633 110.145 232.574C104.978 232.536 100.091 232.375 99.2838 232.213C98.4765 232.055 97.3523 231.62 96.7887 231.247C96.2221 230.877 95.5029 230.05 95.1859 229.407C94.6575 228.335 94.5959 227.311 94.3963 216.356C94.2759 209.819 94.138 200.041 94 184.8L94.7339 183.488C95.183 182.687 95.9227 181.92 96.6419 181.515C97.2877 181.151 99.0049 180.582 100.458 180.253C101.911 179.924 106.402 179.193 110.438 178.63C114.475 178.066 118.305 177.602 118.951 177.599C119.597 177.597 120.586 177.779 121.153 178.005C121.716 178.231 122.565 178.862 123.034 179.408C123.504 179.951 123.93 180.265 123.98 180.103C124.029 179.942 124.379 179.349 124.752 178.782C125.127 178.216 125.958 177.467 126.595 177.112C127.235 176.76 128.55 176.323 129.519 176.141C130.781 175.906 131.714 175.9 132.821 176.123C133.752 176.311 134.726 176.754 135.278 177.241C135.783 177.685 136.411 178.509 136.672 179.076C137.095 179.98 137.168 182.405 137.444 218.789L141.994 218.737C145.223 218.698 146.97 218.807 148.012 219.106C148.819 219.341 149.776 219.608 150.801 219.878L150.874 197.936C150.944 177.156 150.977 175.938 151.496 174.966C151.796 174.4 152.324 173.637 152.67 173.267C153.014 172.894 154.352 172.187 155.644 171.693C156.936 171.197 159.642 170.422 161.662 169.967C163.678 169.515 167.245 168.802 169.587 168.388C171.927 167.971 174.437 167.634 175.165 167.637C175.89 167.64 177.014 167.877 177.66 168.165C178.305 168.456 179.116 169.081 179.462 169.553C179.805 170.029 180.234 170.945 180.413 171.591C180.592 172.236 180.742 173.754 180.742 174.966C180.745 176.176 180.554 177.828 180.319 178.636C180.084 179.443 179.588 180.394 179.215 180.746C178.846 181.101 178.076 181.583 177.513 181.821C176.946 182.055 174.569 182.593 172.229 183.009C169.887 183.429 167.509 183.843 166.945 183.931C166.379 184.016 165.554 184.148 164.303 184.36V192.872L165.404 192.87C166.009 192.87 167.958 192.717 169.734 192.532C171.51 192.347 173.556 192.28 174.284 192.382C175.009 192.485 176.057 192.87 176.606 193.236C177.158 193.6 177.886 194.428 178.834 196.248L179.022 192.726C179.122 190.788 179.43 187.686 179.703 185.827C179.973 183.969 180.457 181.395 180.774 180.103C181.091 178.812 181.766 176.698 182.274 175.407C182.782 174.115 183.883 171.937 184.719 170.563C185.72 168.925 186.988 167.381 188.409 166.072C189.601 164.974 191.368 163.688 192.337 163.216C193.305 162.743 194.891 162.156 195.859 161.91C196.828 161.663 198.281 161.463 199.088 161.466C199.896 161.469 201.481 161.713 202.611 162.004C203.741 162.294 205.376 162.919 206.245 163.392C207.114 163.865 208.602 165.077 209.547 166.087C210.495 167.097 211.502 168.379 212.298 169.953L212.336 166.662C212.362 164.381 212.524 162.966 212.864 162.051C213.137 161.323 213.68 160.301 214.077 159.776C214.47 159.25 215.321 158.557 215.967 158.234C216.613 157.912 218.43 157.327 220.003 156.934C221.577 156.541 224.847 155.813 227.268 155.314Z" fill="#EDF1F0"/>
<path d="M121.74 190.081C122.143 189.875 122.739 189.412 123.061 189.056L123.648 188.405L123.825 196.143C123.921 200.399 123.921 207.679 123.825 212.32C123.728 216.964 123.584 220.762 123.502 220.765C123.42 220.768 122.759 220.548 122.034 220.275C120.992 219.884 119.383 219.752 108.091 219.532L107.862 215.522C107.733 213.318 107.668 211.48 107.715 211.439C107.759 211.398 109.582 211.228 111.76 211.057C113.938 210.89 116.383 210.626 117.191 210.467C117.998 210.312 119.087 209.921 119.612 209.602C120.138 209.279 120.789 208.589 121.062 208.063C121.376 207.456 121.605 206.149 121.688 204.467C121.796 202.222 121.723 201.617 121.192 200.431C120.707 199.354 120.317 198.934 119.466 198.582C118.861 198.329 117.836 198.012 117.191 197.872C116.477 197.716 114.44 197.751 112.001 197.96C109.793 198.147 107.915 198.236 107.827 198.156C107.741 198.077 107.577 196.821 107.463 195.368C107.298 193.239 107.336 192.676 107.674 192.462C107.903 192.318 110.269 191.954 112.934 191.654C115.6 191.355 118.503 190.964 119.392 190.782C120.282 190.603 121.335 190.286 121.74 190.081Z" fill="#0C7343"/>
<path d="M352.118 138.714C352.33 138.23 352.782 137.537 353.122 137.173C353.554 136.709 354.076 136.512 354.863 136.512C355.691 136.512 356.21 136.727 356.827 137.32C357.291 137.763 357.842 138.655 358.057 139.301C358.359 140.214 358.465 144.652 358.629 177.902L360.17 178.052C361.019 178.134 365.342 178.463 369.784 178.782C374.222 179.102 378.417 179.431 380.351 179.663L380.425 163.592C380.495 148.122 380.519 147.482 381.085 146.519C381.411 145.961 382.03 145.407 382.479 145.272C383.055 145.096 383.604 145.172 384.387 145.539C385.121 145.881 385.684 146.444 386.075 147.227C386.639 148.354 386.671 149.229 386.883 168.508C387.006 179.569 387.07 197.334 387.029 207.99C386.965 225.247 386.903 227.461 386.477 228.244C386.213 228.729 385.817 229.292 385.597 229.495C385.377 229.697 384.666 229.944 384.021 230.041C383.037 230.191 382.691 230.097 381.892 229.454C381.173 228.876 380.865 228.324 380.645 227.217C380.469 226.342 380.351 219.048 380.351 192.579L378.81 192.438C377.962 192.362 374.099 192.098 370.224 191.851C366.349 191.601 362.155 191.402 358.629 191.405L358.632 208.797C358.635 223.436 358.565 226.433 358.192 227.731C357.848 228.928 357.552 229.369 356.868 229.712C356.383 229.956 355.523 230.152 354.96 230.152C354.238 230.152 353.683 229.912 353.093 229.345C352.52 228.796 352.145 228.024 351.913 226.923C351.66 225.732 351.593 214.096 351.652 182.452C351.716 147.784 351.804 139.427 352.118 138.714Z" fill="#CD2116"/>
<path d="M312.543 138.602C313.271 138.183 314.524 137.61 315.332 137.331C316.139 137.052 317.656 136.818 318.707 136.809C319.814 136.8 321.417 137.038 322.523 137.375C323.574 137.692 325.083 138.391 325.876 138.922C326.671 139.454 328.124 140.757 329.105 141.817C330.088 142.879 331.435 144.661 332.102 145.779C332.765 146.898 333.643 148.542 334.048 149.428C334.453 150.315 335.245 152.364 335.809 153.978C336.373 155.593 337.174 158.167 337.588 159.702C338.002 161.237 338.604 163.879 338.926 165.573C339.249 167.267 339.716 170.24 339.963 172.178C340.209 174.115 340.564 177.749 340.755 180.25C340.967 183.068 341.028 187.424 340.917 191.698C340.817 195.491 340.544 200.05 340.312 201.826C340.077 203.602 339.669 206.308 339.399 207.843C339.132 209.378 338.451 212.217 337.887 214.154C337.327 216.092 336.308 218.866 335.624 220.319C334.943 221.772 333.666 224.006 332.783 225.28C331.902 226.557 330.59 228.124 329.862 228.761C329.134 229.401 327.88 230.308 327.073 230.775C326.266 231.241 324.681 231.902 323.551 232.24C322.148 232.659 320.703 232.853 319.001 232.847C317.63 232.844 315.913 232.692 315.185 232.51C314.457 232.328 313.203 231.905 312.396 231.573C311.589 231.239 310.136 230.408 309.167 229.727C308.198 229.046 306.549 227.425 305.498 226.128C304.447 224.828 302.912 222.462 302.081 220.868C301.25 219.274 300.214 216.914 299.777 215.622C299.339 214.33 298.735 212.085 298.432 210.632C298.13 209.179 297.584 205.812 297.22 203.147C296.633 198.858 296.557 197.076 296.551 187.589C296.548 178.049 296.621 176.343 297.214 172.031C297.581 169.369 298.265 165.47 298.735 163.371C299.204 161.273 300.067 158.102 300.649 156.326C301.233 154.551 302.307 151.844 303.035 150.309C303.766 148.774 305.063 146.463 305.921 145.172C306.778 143.88 308.322 142.046 309.352 141.095C310.379 140.146 311.815 139.025 312.543 138.602Z" fill="#CD2116"/>
<path d="M264.842 151.304C266.618 150.875 269.128 150.356 270.42 150.153C271.711 149.948 273.825 149.769 275.116 149.757C276.898 149.742 277.858 149.892 279.097 150.388C279.992 150.749 281.251 151.504 281.891 152.07C282.534 152.637 283.447 153.69 283.922 154.418C284.398 155.146 285.144 156.664 285.578 157.794C286.015 158.924 286.611 160.97 286.908 162.344C287.339 164.34 287.445 166.128 287.439 171.297C287.433 177.039 287.357 178.063 286.752 180.544C286.379 182.079 285.472 184.586 284.739 186.121C283.661 188.375 283.004 189.303 281.316 190.967C280.083 192.18 278.504 193.383 277.465 193.903C276.496 194.384 275.671 194.813 275.63 194.854C275.589 194.895 276.185 195.556 276.957 196.322C277.726 197.088 278.835 198.641 279.425 199.771C280.012 200.901 281.876 205.721 283.57 210.485C285.261 215.249 287.055 220.433 287.559 222.007C288.223 224.085 288.472 225.432 288.472 226.923C288.472 228.826 288.411 229.022 287.665 229.574C287.143 229.962 286.418 230.17 285.61 230.161C284.923 230.158 284.034 230.02 283.629 229.859C283.227 229.697 282.531 229.075 282.088 228.479C281.642 227.877 280.453 225.021 279.431 222.095C278.413 219.18 276.516 213.691 275.219 209.898C273.919 206.105 272.339 201.911 271.711 200.578C270.883 198.826 270.302 197.995 269.612 197.569C268.881 197.12 268.145 196.985 266.457 196.985C265.244 196.985 263.363 197.085 260.286 197.422L260.289 212.32C260.292 224.913 260.225 227.376 259.852 228.244C259.608 228.808 259.147 229.404 258.825 229.565C258.502 229.727 257.774 229.859 257.21 229.859C256.646 229.859 255.786 229.662 255.302 229.419C254.803 229.169 254.231 228.532 253.981 227.951C253.597 227.056 253.541 222.418 253.544 192.212C253.544 170.141 253.649 157.098 253.837 156.4C254.019 155.707 254.48 155.041 255.082 154.603C255.607 154.219 257.289 153.497 258.825 152.995C260.36 152.493 263.066 151.733 264.842 151.304Z" fill="#CD2116"/>
<path d="M407.51 157.501C408.446 156.855 409.82 156.171 410.56 155.98C411.302 155.789 412.503 155.625 413.228 155.616C413.953 155.61 415.406 155.783 416.457 156.001C417.508 156.221 419.158 156.776 420.126 157.236C421.095 157.694 422.73 158.869 423.763 159.84C424.794 160.815 426.188 162.338 426.863 163.225C427.535 164.111 428.428 165.432 428.847 166.16C429.267 166.888 430.033 168.538 430.55 169.829C431.07 171.121 431.792 173.167 432.159 174.379C432.526 175.589 433.095 177.834 433.424 179.37C433.753 180.905 434.246 183.875 434.522 185.974C434.938 189.127 435 191.346 434.877 198.743C434.751 206.205 434.618 208.284 434.087 211.219C433.738 213.156 433.051 215.93 432.567 217.383C432.082 218.836 431.131 221.079 430.456 222.371C429.59 224.017 428.527 225.423 426.878 227.1C425.169 228.834 424.01 229.727 422.621 230.381C421.477 230.922 419.803 231.406 418.438 231.597C416.833 231.82 415.579 231.823 414.182 231.605C413.093 231.435 411.476 230.963 410.586 230.555C409.697 230.147 408.179 229.178 407.21 228.406C406.242 227.634 404.897 226.289 404.225 225.421C403.553 224.552 402.505 222.917 401.9 221.786C401.296 220.656 400.421 218.607 399.957 217.237C399.49 215.866 398.862 213.685 398.56 212.393C398.257 211.102 397.77 208.395 397.477 206.375C397.054 203.44 396.945 200.798 396.942 193.166C396.936 185.373 397.033 183.007 397.468 180.25C397.761 178.395 398.263 175.686 398.586 174.233C398.906 172.78 399.558 170.434 400.033 169.022C400.509 167.61 401.378 165.497 401.965 164.325C402.549 163.154 403.656 161.405 404.419 160.436C405.182 159.467 406.573 158.146 407.51 157.501Z" fill="#CD2116"/>
<path d="M223.326 160.606C225.98 160.054 231.055 159.106 234.607 158.499C238.159 157.891 241.594 157.38 242.239 157.363C243 157.342 243.672 157.533 244.147 157.903C244.826 158.431 244.89 158.695 244.99 161.364C245.072 163.6 244.99 164.466 244.623 165.206C244.362 165.732 243.916 166.283 243.634 166.433C243.352 166.583 241.271 166.985 239.01 167.328C236.75 167.672 234.669 168.009 234.387 168.083C233.903 168.206 233.873 169.859 233.873 197.569C233.873 223.011 233.815 227.061 233.433 227.951C233.189 228.514 232.729 229.11 232.406 229.272C232.083 229.433 231.258 229.562 230.571 229.557C229.884 229.551 229.115 229.386 228.857 229.19C228.601 228.993 228.205 228.5 227.976 228.098C227.624 227.475 227.586 223.005 227.709 198.376C227.847 170.91 227.829 169.389 227.342 169.389C227.06 169.389 225.143 169.662 223.086 169.994C221.028 170.326 218.879 170.557 218.316 170.508C217.476 170.434 217.194 170.229 216.775 169.389C216.458 168.752 216.261 167.692 216.264 166.6C216.264 165.632 216.396 164.343 216.557 163.738C216.739 163.046 217.153 162.447 217.676 162.124C218.131 161.842 220.673 161.158 223.326 160.606Z" fill="#CD2116"/>
<path d="M193.658 167.097C194.383 166.671 195.44 166.154 196.006 165.946C196.649 165.708 198.023 165.599 199.676 165.655C201.954 165.732 202.535 165.864 203.9 166.612C204.772 167.091 206.007 168.074 206.65 168.802C207.29 169.53 208.197 170.783 208.664 171.591C209.131 172.398 209.859 174.115 210.281 175.407C210.801 177.004 211.056 178.46 211.08 179.957C211.109 181.68 210.98 182.414 210.493 183.332C210.152 183.978 209.527 184.703 209.104 184.947C208.47 185.311 208.206 185.323 207.601 185.02C207.102 184.771 206.765 184.251 206.548 183.406C206.368 182.719 205.943 181.234 205.596 180.103C205.25 178.973 204.569 177.464 204.082 176.751C203.597 176.038 202.67 175.125 202.024 174.726C201.378 174.326 200.386 173.936 199.822 173.857C199.256 173.781 198.135 173.924 197.327 174.18C196.479 174.447 195.24 175.19 194.392 175.935C193.579 176.648 192.516 177.996 192.005 178.959C191.501 179.91 190.878 181.351 190.62 182.158C190.362 182.965 189.945 184.879 189.695 186.415C189.446 187.95 189.164 192.042 189.064 195.514C188.961 199.219 189.023 203.737 189.217 206.449C189.399 208.991 189.757 212.097 190.012 213.347C190.268 214.598 190.887 216.479 191.389 217.53C191.894 218.581 192.775 219.949 193.347 220.574C193.922 221.199 194.92 221.974 195.566 222.297C196.212 222.62 197.401 222.952 198.208 223.031C199.341 223.146 200.037 223.022 201.261 222.482C202.133 222.101 203.289 221.29 203.829 220.686C204.369 220.081 205.141 218.924 205.547 218.117C205.949 217.31 206.589 215.493 206.967 214.081C207.346 212.669 207.907 211.14 208.215 210.682C208.523 210.224 209.04 209.786 209.363 209.71C209.686 209.634 210.314 209.71 210.757 209.88C211.312 210.095 211.711 210.579 212.034 211.439C212.383 212.367 212.457 213.174 212.31 214.595C212.204 215.646 211.914 217.295 211.664 218.264C211.417 219.233 210.857 220.818 210.422 221.786C209.988 222.755 209.031 224.34 208.297 225.309C207.566 226.278 206.251 227.596 205.376 228.236C204.502 228.878 203.125 229.656 202.318 229.965C201.29 230.355 200.104 230.522 198.355 230.522C196.488 230.519 195.416 230.355 194.098 229.859C193.13 229.495 191.644 228.688 190.796 228.062C189.948 227.434 188.735 226.231 188.098 225.382C187.461 224.534 186.481 222.849 185.92 221.64C185.36 220.427 184.638 218.446 184.318 217.237C183.998 216.024 183.557 213.647 183.34 211.953C183.079 209.91 182.947 205.703 182.953 199.477C182.961 192.048 183.07 189.379 183.478 186.708C183.76 184.85 184.262 182.276 184.591 180.984C184.919 179.692 185.603 177.644 186.108 176.434C186.616 175.222 187.643 173.308 188.395 172.178C189.146 171.048 190.341 169.615 191.049 168.999C191.759 168.379 192.93 167.522 193.658 167.097Z" fill="#CD2116"/>
<path d="M448.967 167.481C449.572 167.076 450.596 166.545 451.242 166.301C452.061 165.99 453.018 165.902 454.397 166.007C455.486 166.093 457.072 166.43 457.92 166.756C458.768 167.085 460.101 167.845 460.882 168.444C461.663 169.046 462.904 170.328 463.641 171.297C464.375 172.266 465.373 173.918 465.854 174.966C466.333 176.014 466.973 178.063 467.272 179.516C467.575 180.969 467.821 182.654 467.824 183.259C467.824 183.864 467.627 184.824 467.387 185.387C467.128 185.986 466.67 186.488 466.286 186.591C465.922 186.685 465.361 186.693 465.038 186.611C464.715 186.526 464.228 185.951 463.955 185.334C463.682 184.718 463.239 183.42 462.969 182.452C462.702 181.483 462.182 180.098 461.815 179.37C461.448 178.642 460.77 177.594 460.306 177.042C459.84 176.487 458.865 175.659 458.14 175.201C457.165 174.588 456.452 174.373 455.425 174.376C454.659 174.376 453.602 174.555 453.076 174.773C452.551 174.99 451.67 175.683 451.116 176.314C450.564 176.945 449.821 178.122 449.463 178.929C449.108 179.736 448.535 181.686 448.195 183.259C447.787 185.129 447.482 188.029 447.308 191.625C447.153 194.863 447.153 198.881 447.305 201.385C447.449 203.728 447.713 206.895 447.892 208.43C448.072 209.966 448.515 212.408 448.882 213.861C449.249 215.314 449.847 217.096 450.211 217.824C450.575 218.552 451.295 219.673 451.811 220.319C452.325 220.965 453.335 221.789 454.051 222.15C454.996 222.626 455.874 222.808 457.259 222.808C458.759 222.814 459.543 222.635 460.929 221.971C461.897 221.508 462.992 220.815 463.362 220.43C464.031 219.738 464.034 219.679 463.949 212.93C463.902 209.191 463.8 206.053 463.717 205.962C463.635 205.868 462.578 205.715 461.369 205.624C460.157 205.533 458.871 205.401 458.507 205.33C458.078 205.245 457.691 204.817 457.4 204.101C457.154 203.496 456.954 202.307 456.96 201.459C456.966 200.211 457.107 199.777 457.7 199.184C458.296 198.588 458.639 198.476 459.534 198.591C460.139 198.67 462.188 198.867 464.084 199.031C465.981 199.195 467.736 199.43 467.986 199.551C468.232 199.671 468.567 200.167 468.722 200.651C468.89 201.162 469.01 206.114 469.007 212.466C469.001 222.588 468.96 223.483 468.446 224.502C468.144 225.106 467.384 226.134 466.758 226.783C466.136 227.431 464.9 228.374 464.011 228.876C463.121 229.377 461.671 230.02 460.782 230.302C459.561 230.693 458.525 230.786 456.526 230.687C454.436 230.581 453.578 230.396 452.416 229.797C451.609 229.38 450.297 228.465 449.501 227.76C448.703 227.059 447.408 225.491 446.624 224.282C445.838 223.069 444.793 221.023 444.302 219.732C443.809 218.44 443.099 216.062 442.72 214.448C442.342 212.833 441.863 210.259 441.655 208.724C441.411 206.936 441.273 202.559 441.27 196.542C441.264 189.062 441.367 186.462 441.778 183.773C442.06 181.915 442.609 179.208 442.999 177.755C443.39 176.302 444.097 174.253 444.573 173.205C445.045 172.157 445.982 170.604 446.651 169.756C447.32 168.908 448.362 167.883 448.967 167.481Z" fill="#CD2116"/>
<path d="M166.652 173.067C169.638 172.524 172.411 172.019 172.817 171.946C173.219 171.875 174.111 171.799 174.798 171.779C175.855 171.743 176.125 171.858 176.559 172.533C176.935 173.117 177.064 173.883 177.041 175.395C177.011 177.186 176.911 177.541 176.307 178.063C175.796 178.501 174.651 178.809 172.083 179.205C170.145 179.502 166.775 180.033 160.635 181.025L160.488 197.276H161.148C161.512 197.276 164.319 196.994 167.386 196.645C170.454 196.298 173.327 196.099 173.771 196.204C174.249 196.319 174.698 196.692 174.871 197.129C175.033 197.531 175.165 198.523 175.165 199.33C175.165 200.138 175.033 201.127 174.871 201.532C174.71 201.934 174.281 202.416 173.917 202.601C173.553 202.785 170.812 203.117 167.826 203.34C164.838 203.56 161.967 203.807 160.488 204.027L160.635 222.92L168.56 222.84C176.395 222.764 176.492 222.77 177.073 223.41C177.487 223.862 177.695 224.59 177.783 225.855C177.892 227.493 177.833 227.731 176.339 229.272L166.367 229.198C156.425 229.125 156.393 229.122 155.057 227.786L154.91 177.021L155.571 176.267C156.026 175.747 157.012 175.283 158.727 174.784C160.097 174.385 163.664 173.613 166.652 173.067Z" fill="#CD2116"/>
<path d="M482.815 176.141C482.991 175.413 483.288 174.638 483.479 174.417C483.74 174.112 484.292 174.059 485.733 174.203C486.781 174.306 487.958 174.555 488.349 174.752C488.739 174.952 489.3 175.442 489.596 175.847C489.957 176.34 490.618 179.129 491.607 184.36C492.417 188.64 493.87 196.169 494.833 201.092C495.799 206.014 497.252 213.611 498.059 217.97C498.869 222.33 499.533 226.392 499.53 226.997C499.53 227.613 499.327 228.291 499.069 228.538C498.807 228.787 498.077 228.975 497.381 228.972C496.706 228.972 496.007 228.873 495.831 228.752C495.652 228.635 495.367 228.274 495.194 227.951C495.021 227.628 494.419 224.854 493.855 221.786C493.295 218.719 492.755 215.648 492.658 214.962C492.564 214.275 492.385 213.664 492.264 213.603C492.144 213.541 489.614 213.441 481.236 213.274L479.812 220.466C479.031 224.422 478.192 227.954 477.951 228.318C477.711 228.682 477.185 229.11 476.78 229.272C476.378 229.433 475.697 229.466 475.268 229.345C474.84 229.225 474.308 228.861 474.091 228.538C473.871 228.215 473.695 227.358 473.698 226.63C473.701 225.902 474.358 222.007 475.157 217.97C475.952 213.934 477.394 206.472 478.353 201.385C479.316 196.298 480.64 188.836 481.301 184.8C481.961 180.764 482.642 176.869 482.815 176.141Z" fill="#CD2116"/>
<path d="M503.862 203C503.598 179.795 503.607 178.915 504.126 178.548C504.423 178.339 504.931 178.242 505.254 178.333C505.577 178.421 507.954 178.832 510.537 179.24C513.121 179.648 515.762 180.233 516.408 180.535C517.054 180.837 518.313 181.856 519.209 182.795C520.301 183.946 521.058 185.085 521.51 186.268C521.883 187.237 522.385 188.954 522.628 190.084C522.94 191.54 523.031 193.251 522.943 195.955C522.843 199.09 522.702 200.032 522.165 201.238C521.804 202.046 521.155 203.164 520.72 203.722C520.286 204.28 519.373 205.072 517.45 206.229L518.205 206.963C518.622 207.368 519.267 208.289 519.64 209.017C520.01 209.745 521.252 214.069 522.4 218.631C523.544 223.193 524.416 227.188 524.334 227.511C524.252 227.833 523.979 228.294 523.726 228.538C523.471 228.782 522.778 228.981 522.185 228.987C521.44 228.99 520.905 228.787 520.459 228.327C520.066 227.919 519.523 226.565 519.074 224.869C518.666 223.333 517.806 219.702 517.16 216.796C516.517 213.89 515.789 210.92 515.545 210.192C515.299 209.464 514.8 208.571 514.433 208.207C514.066 207.843 513.238 207.418 512.592 207.259C511.946 207.103 510.79 206.974 508.629 206.963L508.703 217.348C508.773 227.384 508.756 227.757 508.189 228.368C507.798 228.788 507.26 228.994 506.575 228.984C506.011 228.975 505.4 228.873 505.224 228.752C505.045 228.635 504.728 228.209 504.52 227.804C504.223 227.232 504.077 221.737 503.862 203Z" fill="#CD2116"/>
<path d="M128.489 180.632C128.829 180.28 129.399 179.933 129.754 179.866C130.109 179.798 130.728 179.719 131.134 179.69C131.536 179.663 132.196 179.898 132.601 180.212C133.3 180.758 133.344 180.981 133.541 184.847C133.655 187.081 133.655 196.471 133.335 222.52L140.38 222.509C146.944 222.497 147.475 222.535 148.159 223.069C148.778 223.557 148.908 223.938 148.996 225.506C149.078 227.041 148.99 227.505 147.865 228.978L138.481 228.905C130.614 228.843 129.023 228.761 128.635 228.391C128.383 228.148 128.057 227.358 127.919 226.63C127.778 225.902 127.711 215.402 127.767 203.293C127.872 181.377 127.875 181.275 128.489 180.632Z" fill="#CD2116"/>
<path d="M106.476 183.048C109.461 182.625 113.028 182.102 114.402 181.882C115.772 181.665 117.525 181.471 118.291 181.454C119.439 181.43 119.756 181.542 120.09 182.085C120.314 182.449 120.578 183.109 120.678 183.553C120.777 183.996 120.727 184.888 120.566 185.534C120.405 186.18 120.041 186.828 119.759 186.978C119.477 187.125 115.875 187.653 111.76 188.149C107.641 188.648 104.11 189.056 103.907 189.056C103.626 189.056 103.541 190.545 103.541 195.514C103.541 201.397 103.587 201.99 104.054 202.163C104.336 202.266 107.21 202.134 110.439 201.867C113.668 201.6 116.615 201.482 116.988 201.605C117.451 201.755 117.754 202.175 117.942 202.926C118.094 203.531 118.118 204.511 117.997 205.102C117.877 205.692 117.513 206.387 117.19 206.651C116.738 207.018 115.59 207.177 112.2 207.344C109.778 207.462 106.904 207.655 103.828 207.99L103.831 211.072C103.834 212.766 103.934 216.236 104.274 223.404L112.273 223.401C120.243 223.401 120.275 223.404 120.716 224.061C120.962 224.431 121.159 225.371 121.159 226.19C121.159 227.009 120.962 227.948 120.272 228.978L110.365 228.975C102.983 228.969 100.27 228.876 99.7244 228.6C99.3106 228.391 98.8468 227.786 98.6589 227.208C98.4358 226.518 98.2655 219.652 98.1334 205.935C97.9749 189.576 98.0102 185.601 98.3184 185.267C98.5268 185.038 99.2254 184.618 99.8712 184.333C100.517 184.046 103.488 183.467 106.476 183.048Z" fill="#CD2116"/>
<path d="M314.598 150.388C315.326 149.957 316.315 149.502 316.799 149.381C317.283 149.261 318.408 149.202 319.294 149.255C320.272 149.314 321.49 149.645 322.376 150.092C323.184 150.5 324.563 151.539 325.441 152.405C326.65 153.596 327.411 154.759 328.591 157.207C329.445 158.983 330.464 161.692 330.854 163.225C331.244 164.76 331.84 167.666 332.175 169.683C332.512 171.702 332.947 174.74 333.144 176.434C333.346 178.195 333.496 183.288 333.493 188.323C333.49 195.001 333.367 198.015 332.985 200.798C332.706 202.818 332.234 205.656 331.928 207.109C331.626 208.562 330.93 211.008 330.387 212.54C329.824 214.128 328.77 216.268 327.942 217.51C327.141 218.71 325.958 220.113 325.312 220.63C324.666 221.146 323.545 221.877 322.817 222.253C321.728 222.817 321.032 222.94 318.854 222.949C316.485 222.961 316.033 222.87 314.483 222.08C313.462 221.56 312.082 220.48 311.104 219.438C310.027 218.287 308.976 216.708 308.075 214.888C307.294 213.303 306.381 210.831 305.967 209.164C305.565 207.55 305.087 205.304 304.908 204.174C304.726 203.044 304.391 200.205 304.162 197.863C303.936 195.523 303.745 190.964 303.742 187.735C303.742 184.507 303.939 179.687 304.186 177.021C304.429 174.359 304.764 171.321 304.928 170.27C305.093 169.222 305.489 167.24 305.809 165.867C306.129 164.496 306.672 162.514 307.012 161.463C307.356 160.415 308.163 158.499 308.806 157.207C309.449 155.915 310.388 154.33 310.893 153.687C311.395 153.042 312.138 152.214 312.543 151.847C312.945 151.477 313.87 150.822 314.598 150.388Z" fill="#EDF1F0"/>
<path d="M261.948 161.742C262.893 161.557 265.385 161.035 267.484 160.58C269.583 160.128 271.828 159.743 272.474 159.729C273.12 159.717 274.177 159.849 274.822 160.025C275.612 160.242 276.502 160.865 277.538 161.933C278.756 163.187 279.208 163.932 279.701 165.5C280.141 166.909 280.365 168.582 280.473 171.297C280.567 173.687 280.491 175.879 280.265 177.168C280.068 178.298 279.628 179.951 279.284 180.837C278.944 181.724 278.186 183.045 277.599 183.773C277.015 184.501 275.821 185.481 274.946 185.954C273.543 186.711 272.941 186.837 269.832 187.025C267.895 187.145 264.989 187.336 260.439 187.662L260.228 162.08L261.948 161.742Z" fill="#EDF1F0"/>
<path d="M411.343 166.33C411.974 166.019 412.89 165.664 413.375 165.538C413.859 165.414 414.916 165.379 415.723 165.461C416.53 165.544 417.719 165.84 418.365 166.122C419.011 166.401 420.056 167.02 420.687 167.496C421.318 167.971 422.322 169.022 422.918 169.829C423.514 170.637 424.353 171.99 424.779 172.838C425.207 173.687 425.894 175.404 426.305 176.654C426.716 177.905 427.303 180.382 427.611 182.158C427.917 183.934 428.325 187.236 428.516 189.497C428.724 191.948 428.794 195.737 428.695 198.89C428.601 201.796 428.313 205.627 428.055 207.403C427.796 209.179 427.318 211.624 426.992 212.833C426.666 214.046 426.023 215.828 425.565 216.796C425.105 217.765 424.092 219.268 423.308 220.137C422.527 221.006 421.227 222.045 420.42 222.447C419.612 222.849 418.291 223.245 417.484 223.333C416.677 223.419 415.356 223.33 414.549 223.137C413.742 222.943 412.485 222.379 411.76 221.883C411.035 221.39 409.887 220.307 409.215 219.479C408.54 218.648 407.589 217.113 407.099 216.062C406.611 215.011 405.869 212.965 405.455 211.512C405.038 210.059 404.471 207.285 404.198 205.348C403.82 202.671 403.699 199.744 403.702 193.166C403.702 186.203 403.805 183.931 404.222 181.571C404.507 179.957 405.009 177.579 405.337 176.287C405.666 174.996 406.435 172.882 407.049 171.591C407.659 170.299 408.616 168.714 409.177 168.068C409.735 167.422 410.709 166.642 411.343 166.33Z" fill="#EDF1F0"/>
<path d="M484.849 190.671C485.331 187.603 485.877 184.236 486.065 183.186C486.326 181.741 486.464 181.418 486.64 181.865C486.769 182.188 487.145 183.905 487.479 185.681C487.814 187.457 488.748 192.676 489.555 197.276C490.362 201.875 491.023 205.973 491.02 207.109L486.834 206.88C484.532 206.751 482.566 206.554 482.463 206.44C482.363 206.323 482.66 203.983 483.126 201.238C483.593 198.494 484.368 193.738 484.849 190.671Z" fill="#EDF1F0"/>
<path d="M508.697 201.147C508.418 200.775 508.333 198.749 508.359 192.922L508.394 185.193L509.172 185.355C509.601 185.443 511.074 185.666 512.445 185.854C514.562 186.144 515.131 186.344 516.188 187.187C517.027 187.853 517.603 188.631 517.949 189.57C518.337 190.621 518.463 191.866 518.463 194.634C518.463 197.716 518.369 198.491 517.876 199.474C517.553 200.117 516.825 200.957 516.261 201.338C515.29 201.993 515.07 202.019 512.152 201.837C509.753 201.688 508.987 201.535 508.697 201.147Z" fill="#EDF1F0"/>
<path d="M314.592 156.646C315.161 156.018 316.154 155.261 316.799 154.967C317.445 154.671 318.338 154.427 318.781 154.424C319.224 154.421 320.072 154.65 320.665 154.932C321.258 155.214 322.262 156.039 322.896 156.767C323.53 157.495 324.449 158.948 324.942 159.996C325.433 161.044 326.081 162.632 326.387 163.518C326.692 164.405 327.261 166.653 327.652 168.508C328.042 170.364 328.585 174.326 328.855 177.315C329.237 181.524 329.31 184.462 329.178 190.377C329.084 194.575 328.808 199.462 328.562 201.238C328.318 203.014 327.969 205.128 327.787 205.935C327.605 206.742 327.217 208.195 326.924 209.164C326.633 210.133 326.116 211.554 325.779 212.32C325.441 213.086 324.605 214.451 323.918 215.355C323.008 216.55 322.233 217.198 321.056 217.75C319.764 218.355 319.192 218.469 318.194 218.311C317.507 218.205 316.582 217.932 316.139 217.709C315.696 217.483 314.947 216.922 314.48 216.462C314.011 216.001 313.115 214.829 312.49 213.861C311.865 212.892 311.099 211.307 310.788 210.338C310.477 209.37 310.027 207.784 309.787 206.816C309.546 205.847 309.15 203.666 308.903 201.972C308.659 200.279 308.304 196.644 308.113 193.9C307.914 191.061 307.841 186.884 307.943 184.213C308.043 181.63 308.257 178.128 308.425 176.434C308.592 174.74 308.874 172.492 309.056 171.444C309.235 170.396 309.684 168.282 310.051 166.747C310.421 165.212 311.072 163.034 311.501 161.904C311.932 160.774 312.572 159.388 312.922 158.821C313.274 158.255 314.025 157.277 314.592 156.646Z" fill="#0C7343"/>
<path d="M264.549 165.749L267.925 165.103C269.783 164.748 271.829 164.44 272.474 164.416C273.244 164.393 273.928 164.584 274.456 164.977C274.949 165.341 275.463 166.172 275.777 167.114C276.167 168.288 276.291 169.633 276.291 172.765C276.291 175.125 276.141 177.373 275.938 178.049C275.742 178.694 275.281 179.684 274.908 180.25C274.532 180.825 273.652 181.559 272.915 181.917C271.832 182.443 270.963 182.575 264.549 182.745V165.749Z" fill="#0C7343"/>
<path d="M411.637 172.665C412.033 172.128 412.782 171.435 413.305 171.127C413.827 170.819 414.752 170.566 415.356 170.563C415.961 170.563 416.953 170.816 417.558 171.121C418.163 171.429 418.955 172.022 419.319 172.442C419.683 172.862 420.306 173.701 420.702 174.306C421.098 174.911 421.767 176.331 422.19 177.461C422.613 178.592 423.153 180.441 423.388 181.571C423.623 182.701 424.01 185.675 424.248 188.176C424.486 190.677 424.676 194.047 424.673 195.661C424.67 197.276 424.541 200.114 424.386 201.972C424.23 203.83 423.904 206.505 423.658 207.917C423.411 209.328 422.997 211.113 422.739 211.879C422.481 212.645 421.943 213.934 421.544 214.741C421.145 215.549 420.464 216.585 420.033 217.043C419.601 217.501 418.882 218.061 418.439 218.29C417.995 218.519 417.103 218.704 416.457 218.704C415.811 218.704 414.919 218.516 414.476 218.29C414.033 218.061 413.255 217.433 412.75 216.896C412.245 216.356 411.473 215.255 411.033 214.448C410.592 213.641 409.932 212.055 409.562 210.925C409.195 209.795 408.599 206.822 408.238 204.321C407.654 200.264 407.598 198.99 407.736 192.579C407.827 188.355 408.071 184.298 408.329 182.745C408.57 181.292 408.969 179.311 409.218 178.342C409.471 177.373 409.955 175.92 410.299 175.113C410.642 174.306 411.244 173.205 411.637 172.665Z" fill="#0C7343"/>
<path d="M512.149 195.441C512.149 194.27 512.061 192.62 511.955 191.772C511.768 190.251 511.776 190.231 512.545 190.231C512.974 190.231 513.59 190.363 513.913 190.524C514.236 190.686 514.633 191.314 514.791 191.918C514.952 192.523 515.082 193.812 515.079 194.78C515.076 196.043 514.929 196.688 514.565 197.064C514.28 197.361 513.646 197.584 512.152 197.569L512.149 195.441Z" fill="#0C7343"/>
</svg>
