<svg width="771" height="192" viewBox="0 0 771 192" fill="none" xmlns="http://www.w3.org/2000/svg">
<path d="M373.293 59.8398C374.076 59.5753 375.546 59.1913 376.564 58.9865C377.583 58.7817 379.662 58.6025 381.187 58.5855C382.711 58.5712 384.631 58.7021 385.453 58.8756C386.275 59.0519 387.586 59.4871 388.369 59.8484C389.151 60.2068 390.539 61.1824 391.455 62.0187C392.593 63.054 393.403 64.1264 394.012 65.3864C394.834 67.0931 394.902 67.4629 394.905 70.2276C394.911 73.0123 394.848 73.3451 394.012 75.0631C393.469 76.1724 392.564 77.4097 391.736 78.172C390.98 78.8689 389.72 79.7279 388.938 80.0835C388.155 80.439 386.491 81.0022 385.24 81.3379C383.621 81.7702 382.06 81.9522 379.835 81.9722C377.372 81.9949 376.283 81.8698 374.716 81.3862C373.62 81.0477 372.116 80.3793 371.373 79.9043C370.631 79.4293 369.49 78.4963 368.842 77.8307C368.19 77.1651 367.297 75.8538 366.854 74.9152C366.413 73.9765 365.915 72.5031 365.747 71.6441C365.528 70.5121 365.534 69.5677 365.77 68.2308C365.949 67.2125 366.339 65.9013 366.637 65.3153C366.933 64.7294 367.721 63.657 368.387 62.9346C369.052 62.2149 370.108 61.3303 370.733 60.9719C371.359 60.6107 372.511 60.1044 373.293 59.8398Z" fill="#232022"/>
<path d="M515.514 60.4941C516.452 60.0532 518.372 59.4473 519.78 59.1458C521.188 58.8472 523.461 58.5912 524.829 58.5798C526.197 58.5684 527.989 58.7021 528.811 58.8756C529.633 59.0463 531.072 59.5469 532.011 59.9849C532.95 60.423 534.403 61.4014 535.242 62.1609C536.3 63.1194 537.08 64.1833 537.802 65.6567C538.761 67.6193 538.838 67.9635 538.838 70.3499C538.835 72.6681 538.744 73.1147 537.913 74.8441C537.404 75.8994 536.445 77.2903 535.78 77.9359C535.114 78.5788 533.962 79.4093 533.22 79.7848C532.478 80.1574 530.942 80.7263 529.807 81.0534C528.564 81.409 526.499 81.7019 524.616 81.793C522.295 81.9039 520.992 81.8271 519.567 81.4858C518.512 81.2355 516.848 80.6268 515.869 80.1318C514.891 79.6369 513.483 78.6129 512.74 77.8563C511.998 77.0997 510.974 75.6149 510.465 74.5596C509.62 72.8075 509.54 72.4036 509.54 69.9318C509.54 67.4714 509.623 67.0561 510.439 65.3807C510.951 64.3283 511.867 63.0569 512.572 62.4169C513.252 61.7996 514.575 60.9349 515.514 60.4941Z" fill="#232022"/>
<path d="M319.676 139.839C319.676 126.188 319.591 102.893 319.486 88.0706L319.298 61.1198H346.983V164.656H319.676V139.839Z" fill="#232022"/>
<path d="M694.102 133.225C694.202 115.86 694.364 92.5334 694.463 81.3862L694.643 61.1198H721.588V62.1865C721.588 62.7724 721.465 68.8851 721.315 75.7685C721.161 82.652 720.97 90.4911 720.888 93.1905C720.788 96.3734 720.837 98.0971 721.019 98.0971C721.175 98.0971 722.361 97.1869 723.65 96.0747C724.941 94.9625 727.021 93.3782 728.272 92.5505C729.524 91.7256 731.316 90.6646 732.254 90.1953C733.193 89.726 735.113 88.9779 736.521 88.5342C738.813 87.8146 739.485 87.7292 742.921 87.7349C745.703 87.7406 747.273 87.8828 748.61 88.2469C749.628 88.5257 751.676 89.3278 753.161 90.0332C754.648 90.7358 756.631 91.8621 757.569 92.5391C758.508 93.2132 760.053 94.5814 761.003 95.5769C761.95 96.5725 763.247 98.154 763.878 99.0926C764.513 100.031 765.483 101.695 766.034 102.79C766.586 103.885 767.485 106.061 768.031 107.626C768.577 109.19 769.291 111.816 769.618 113.457C769.945 115.098 770.364 117.914 770.543 119.715C770.742 121.68 770.813 125.366 770.725 128.959C770.62 133.325 770.409 135.891 769.948 138.488C769.601 140.442 768.876 143.514 768.333 145.314C767.789 147.115 766.799 149.737 766.131 151.145C765.465 152.553 764.427 154.473 763.83 155.412C763.23 156.35 761.705 158.142 760.439 159.394C759.114 160.705 757.174 162.244 755.863 163.026C754.611 163.772 752.307 164.83 750.743 165.373C748.991 165.982 746.863 166.479 745.196 166.667C743.208 166.889 741.82 166.883 739.934 166.636C738.526 166.454 736.35 165.982 735.099 165.592C733.847 165.202 731.737 164.355 730.405 163.709C729.077 163.063 726.42 161.476 724.503 160.182C722.589 158.888 720.956 157.83 720.877 157.83C720.8 157.83 720.325 158.117 719.824 158.47C719.321 158.822 718.345 160.006 717.654 161.101C716.963 162.196 716.061 163.578 714.903 165.248L707.081 165.236C702.781 165.231 698.059 165.131 693.917 164.798L694.102 133.225Z" fill="#232022"/>
<path d="M557.989 113.363C557.961 82.5553 558.046 61.9845 558.202 61.8565C558.345 61.7399 558.845 61.72 559.314 61.811C559.784 61.9049 565.512 61.9788 583.919 61.9732L583.921 165.083L576.17 164.869C571.907 164.753 566.081 164.656 558.035 164.656L557.989 113.363Z" fill="#232022"/>
<path d="M261.079 67.3832C262.723 67.0589 265.027 66.6863 266.199 66.5526C267.373 66.4218 270.317 66.2966 272.741 66.2739C275.167 66.254 278.495 66.3678 280.136 66.5299C281.78 66.692 284.596 67.0845 286.394 67.4003C288.194 67.716 290.945 68.2934 292.509 68.6831C294.074 69.0728 297.274 70.0285 299.62 70.8079C301.967 71.5844 304.038 72.3154 304.223 72.432C304.476 72.5885 304.464 73.1147 304.169 74.6307C303.955 75.7258 303.404 77.7112 302.943 79.0396C302.482 80.3679 301.825 82.1599 301.484 83.0217C301.142 83.8807 300.007 86.4919 297.06 93.0511L295.923 92.889C295.297 92.798 292.034 91.8365 288.67 90.7471C285.307 89.6577 281.53 88.5313 280.279 88.2441C278.643 87.8686 276.885 87.7235 274.021 87.7292C270.744 87.7321 269.689 87.843 268.048 88.3522C266.952 88.6906 265.098 89.4444 263.923 90.0218C262.313 90.8182 261.215 91.6573 259.443 93.4493C257.466 95.4461 256.875 96.2823 255.686 98.7371C254.912 100.341 254.019 102.611 253.703 103.786C253.388 104.958 252.935 107.23 252.696 108.835C252.449 110.496 252.264 113.679 252.264 116.23C252.264 118.693 252.403 121.862 252.577 123.27C252.748 124.678 253.191 127.045 253.564 128.532C253.945 130.062 254.827 132.406 255.592 133.937C256.65 136.05 257.412 137.108 259.085 138.786C260.493 140.203 261.901 141.289 263.212 141.975C264.307 142.544 266.227 143.295 267.479 143.639C269.413 144.174 270.482 144.267 274.59 144.267C278.652 144.27 280.042 144.151 283.265 143.522C285.379 143.11 289.858 142.015 293.221 141.087C296.585 140.16 299.689 139.324 300.9 139.056L300.898 148.799C300.898 154.157 300.801 159.019 300.474 160.665L297.06 161.795C295.183 162.415 291.793 163.379 289.523 163.936C287.256 164.491 283.672 165.205 281.558 165.521C279.448 165.834 275.799 166.169 273.452 166.266C270.861 166.371 267.792 166.303 265.63 166.095C263.676 165.905 260.86 165.501 259.372 165.197C257.887 164.892 255.583 164.318 254.252 163.917C252.924 163.518 250.171 162.383 248.137 161.394C246.103 160.407 243.352 158.822 242.021 157.878C240.693 156.931 238.452 155.014 237.044 153.62C235.636 152.223 233.758 150.073 232.874 148.838C231.986 147.604 230.792 145.764 230.214 144.745C229.64 143.727 228.621 141.616 227.956 140.052C227.287 138.488 226.408 136.056 226.004 134.648C225.598 133.24 225.074 131.126 224.841 129.954C224.605 128.78 224.255 126.604 224.065 125.119C223.871 123.631 223.712 119.919 223.709 116.87C223.706 113.818 223.863 110.106 224.056 108.621C224.252 107.134 224.673 104.639 224.992 103.075C225.31 101.51 226.016 98.885 226.559 97.2438C227.1 95.5997 228.121 93.0397 228.826 91.5549C229.532 90.0673 230.957 87.5728 231.992 86.0084C233.247 84.1121 235.019 82.0186 237.308 79.7279C239.589 77.4467 241.649 75.7002 243.443 74.5255C244.931 73.5527 247.298 72.1959 248.706 71.5047C250.114 70.8164 252.802 69.7412 254.679 69.1126C256.556 68.4868 259.438 67.7075 261.079 67.3832Z" fill="#232022"/>
<path d="M453.503 88.9978C454.754 88.6707 456.674 88.2896 457.769 88.1474C458.864 88.0051 461.808 87.9426 464.311 88.008C467.312 88.0876 469.736 88.3123 471.422 88.6736C472.83 88.9751 474.816 89.524 475.831 89.8938C476.85 90.2607 478.448 91.0117 479.387 91.5578C480.325 92.1039 482.129 93.5745 483.395 94.826C484.66 96.0775 486.176 97.9321 486.765 98.9504C487.354 99.9687 488.145 101.536 488.52 102.435C488.896 103.334 489.524 105.191 489.92 106.559C490.315 107.927 490.912 110.84 491.251 113.03C491.794 116.577 491.865 118.241 491.882 128.248C491.894 134.426 491.774 145.146 491.333 164.656H463.885L463.805 141.688C463.725 119.376 463.708 118.659 463.128 116.586C462.801 115.411 462.212 113.812 461.823 113.03C461.43 112.248 460.517 111.065 459.794 110.399C458.884 109.56 457.98 109.048 456.845 108.727C455.741 108.414 454.518 108.303 453.076 108.385C451.551 108.471 450.499 108.715 449.378 109.247C448.457 109.688 447.234 110.621 446.392 111.528C445.609 112.373 444.568 113.889 444.079 114.896C443.59 115.903 442.867 117.752 442.475 119.003C442.08 120.255 441.556 122.494 441.309 123.981C441.061 125.466 440.72 128.154 440.549 129.954C440.381 131.755 440.253 136.809 440.265 141.19C440.273 145.57 440.407 151.842 440.558 155.127C440.709 158.413 440.834 161.9 440.845 164.656H436.65C434.343 164.656 428.199 164.559 413.539 164.229V89.2794L423.708 89.268C431.692 89.2567 433.945 89.3335 434.189 89.6236C434.36 89.8256 435.242 91.7199 436.143 93.8305C437.048 95.941 437.867 97.7671 437.967 97.8837C438.063 98.0004 438.783 97.7785 439.565 97.3917C440.347 97.0048 442.333 95.5968 443.974 94.26C445.618 92.9231 447.922 91.3274 449.094 90.7102C450.269 90.0958 452.251 89.3249 453.503 88.9978Z" fill="#232022"/>
<path d="M627.438 88.5911C629.082 88.3493 630.937 88.1047 631.562 88.0506C632.188 87.9966 635.166 87.9312 638.176 87.9056C641.188 87.88 644.9 87.9938 646.424 88.1587C647.952 88.3266 650.415 88.7077 651.9 89.0121C653.387 89.3136 655.819 89.9564 657.304 90.4343C658.792 90.915 661.138 91.9077 662.524 92.6387C663.909 93.3725 665.823 94.6127 666.779 95.3949C667.737 96.1771 669.037 97.5197 669.674 98.3815C670.309 99.2405 671.233 100.905 671.728 102.079C672.223 103.251 672.957 105.493 673.364 107.057C673.77 108.621 674.345 111.631 674.644 113.741C674.945 115.852 675.323 119.533 675.491 121.919C675.659 124.305 675.79 130.384 675.787 135.43C675.781 140.476 675.594 149.083 675.369 154.558C675.141 160.034 674.954 164.514 674.948 164.514C674.945 164.514 670.75 164.474 665.624 164.423C660.501 164.372 656.181 164.227 656.024 164.099C655.868 163.971 654.588 161.98 653.18 159.676C651.772 157.372 650.526 155.437 650.406 155.378C650.29 155.318 649.394 155.887 648.415 156.643C647.44 157.4 645.423 158.942 643.935 160.074C642.451 161.203 640.209 162.625 638.958 163.234C637.706 163.843 635.724 164.605 634.549 164.926C633.377 165.251 631.008 165.663 629.287 165.845C626.929 166.093 625.214 166.095 622.318 165.851C620.207 165.672 617.71 165.322 616.771 165.074C615.833 164.827 614.297 164.309 613.358 163.928C612.419 163.544 610.96 162.816 610.113 162.307C609.265 161.8 607.661 160.489 606.546 159.394C605.431 158.299 603.923 156.441 603.195 155.27C602.464 154.095 601.554 152.306 601.17 151.287C600.783 150.269 600.248 148.349 599.978 147.021C599.6 145.155 599.523 143.761 599.642 140.905C599.745 138.388 599.984 136.551 600.391 135.145C600.718 134.011 601.386 132.284 601.872 131.305C602.362 130.327 603.306 128.76 603.972 127.821C604.637 126.882 605.806 125.529 606.569 124.809C607.331 124.092 608.787 122.969 609.803 122.311C610.821 121.654 612.613 120.721 613.785 120.238C614.96 119.754 617.136 119.052 618.62 118.679C620.108 118.304 622.284 117.869 623.456 117.712C624.631 117.553 630.518 117.297 636.54 117.14C642.564 116.984 647.525 116.827 647.565 116.79C647.605 116.756 647.497 115.767 647.329 114.595C647.158 113.42 646.703 111.756 646.316 110.897C645.927 110.035 645.267 108.968 644.846 108.525C644.425 108.078 643.438 107.376 642.656 106.96C641.31 106.243 641.031 106.206 637.393 106.232C633.838 106.258 633.229 106.349 629.145 107.441C626.721 108.089 623.137 109.071 621.18 109.62C619.226 110.169 617.05 110.689 615.065 110.937L611.865 102.81C610.107 98.3417 608.699 94.6297 608.736 94.5615C608.776 94.4961 609.769 93.967 610.94 93.3896C612.115 92.8093 614.035 91.9816 615.207 91.5493C616.382 91.1169 618.942 90.3745 620.896 89.8967C622.853 89.4216 625.797 88.8329 627.438 88.5911Z" fill="#232022"/>
<path d="M366.825 89.3079L367.642 89.1941C368.088 89.1287 374.016 89.0917 393.161 89.1372L393.358 89.8483C393.463 90.238 393.702 91.902 393.887 93.546C394.069 95.1873 394.339 101.075 394.49 106.63C394.658 112.988 394.658 123.367 394.487 134.648C394.339 144.504 394.131 155.318 393.841 164.798L389.825 164.73C387.615 164.693 381.488 164.596 366.606 164.372V155.056C366.606 149.933 366.657 133.043 366.825 89.3079Z" fill="#232022"/>
<path d="M511.102 164.656V127.394V90.1327H536.275L536.488 108.55C536.608 118.679 536.701 135.447 536.701 164.656H511.102Z" fill="#232022"/>
<path fill-rule="evenodd" clip-rule="evenodd" d="M132.586 0.00206075C135.186 -0.0206945 138.468 0.147125 140.408 0.400277C142.245 0.639207 144.965 1.15973 146.452 1.55511C147.94 1.94763 150.435 2.77535 151.999 3.38975C153.563 4.00414 156.251 5.34669 157.972 6.37352C159.693 7.40035 162.062 8.95909 163.234 9.83232C164.409 10.7084 166.978 13.038 168.949 15.0091C170.917 16.9831 173.523 19.9413 174.743 21.5825C175.96 23.2238 177.596 25.6557 178.378 26.9869C179.16 28.3181 180.232 30.2694 180.762 31.3246C181.291 32.3799 182.235 34.5246 182.861 36.089C183.486 37.6534 184.368 40.2447 184.821 41.8489C185.273 43.4532 185.79 45.5324 185.967 46.4711C186.209 47.7397 186.214 50.8714 185.984 58.702C185.708 67.9861 185.591 69.6131 184.985 72.4974C184.607 74.2979 183.731 77.4324 183.037 79.4662C182.343 81.4999 181.171 84.5719 180.437 86.2927C179.701 88.0136 178.648 90.3176 178.099 91.4127C177.55 92.5078 176.33 94.7491 175.386 96.3904C174.444 98.0316 172.59 101.041 171.264 103.075C169.941 105.108 167.606 108.436 166.076 110.47C164.546 112.504 162.225 115.445 160.919 117.007C159.611 118.568 156.94 121.569 154.986 123.674C153.029 125.779 150.085 128.714 148.443 130.199C146.802 131.681 143.986 134.062 142.186 135.484C140.385 136.909 137.444 139.15 135.644 140.464C133.843 141.781 130.453 144.162 128.106 145.761C125.759 147.356 121.919 149.868 119.573 151.339C117.226 152.809 113.514 155.05 111.324 156.319C109.134 157.588 105.55 159.536 103.36 160.651C101.169 161.763 98.0321 163.242 96.3908 163.934C94.7496 164.625 92.1897 165.529 90.702 165.942C89.2144 166.354 87.9344 166.619 87.8576 166.528C87.7808 166.437 87.7808 166.314 87.8576 166.257C87.9344 166.201 93.4384 162.073 100.089 157.09C106.736 152.107 114.097 146.5 116.444 144.629C118.791 142.76 122.246 139.941 124.124 138.368C126.001 136.795 129.392 133.828 131.661 131.778C133.931 129.727 137.578 126.205 139.768 123.953C141.958 121.7 145.076 118.321 146.697 116.443C148.318 114.566 150.895 111.366 152.426 109.332C153.953 107.299 156.283 103.971 157.602 101.937C158.925 99.9032 160.586 97.2152 161.3 95.9637C162.011 94.7122 163.297 92.2802 164.159 90.5593C165.021 88.8385 166.238 86.2159 166.867 84.7283C167.492 83.2407 168.482 80.7461 169.063 79.1817C169.643 77.6173 170.562 74.8013 171.102 72.924C171.642 71.0467 172.322 68.1028 172.612 66.3819C172.902 64.661 173.23 61.9077 173.335 60.2664C173.449 58.5257 173.395 55.9145 173.204 54.0087C173.025 52.2082 172.683 49.7791 172.445 48.6044C172.208 47.4325 171.591 45.1911 171.074 43.6267C170.556 42.0623 169.592 39.6957 168.929 38.3645C168.269 37.0333 166.915 34.7322 165.922 33.2446C164.93 31.757 162.993 29.3392 161.613 27.8658C160.236 26.3953 158.086 24.3985 156.834 23.4286C155.583 22.4586 153.407 20.9795 151.999 20.1376C150.591 19.2985 148.159 18.0811 146.595 17.4383C145.03 16.7926 142.47 15.9279 140.906 15.5154C139.341 15.103 136.781 14.5711 135.217 14.335C133.653 14.0989 130.709 13.9055 128.675 13.9027C126.57 13.8998 123.814 14.0961 122.275 14.3578C120.787 14.6081 118.358 15.1969 116.871 15.6662C115.383 16.1355 112.888 17.1367 111.324 17.8905C109.76 18.6443 107.373 20.0067 106.019 20.9198C104.665 21.8329 102.233 23.676 100.615 25.0186C98.9963 26.3611 95.7964 29.4331 93.5038 31.8452C91.214 34.2572 87.7467 38.0232 85.7983 40.2134C82.9738 43.3906 82.1205 44.187 81.5743 44.15C81.196 44.1244 80.1834 43.8429 79.3244 43.5214C78.4654 43.2029 76.0334 41.8404 73.9201 40.495C71.8067 39.1496 69.1187 37.5965 67.9468 37.0419C66.7721 36.4872 64.8521 35.7875 63.6802 35.4831C62.5055 35.1816 59.9455 34.7863 57.9914 34.6042C55.2209 34.3454 53.5883 34.3511 50.5959 34.627C48.4826 34.8232 45.9226 35.1731 44.9071 35.4063C43.8917 35.6367 42.0343 36.1573 40.7828 36.5583C39.5312 36.9594 37.1817 37.9464 35.5604 38.7514C33.942 39.5563 31.5726 40.9984 30.2983 41.957C29.024 42.9184 26.8935 44.8384 25.5595 46.2236C24.2283 47.6117 22.5075 49.6426 21.7366 50.7377C20.9629 51.8328 19.5919 54.1993 18.6846 55.9998C17.7772 57.8003 16.5854 60.6789 16.0364 62.3997C15.4875 64.1206 14.7934 66.7431 14.4919 68.2308C14.1904 69.7184 13.7894 72.5969 13.6045 74.6307C13.4025 76.8095 13.3343 79.9668 13.4367 82.3106C13.5334 84.5008 13.8662 88.0221 14.179 90.1327C14.4919 92.2432 15.2514 95.958 15.8658 98.3814C16.4802 100.805 17.5838 104.454 18.3205 106.488C19.06 108.522 20.1409 111.275 20.7269 112.603C21.3128 113.932 22.5786 116.588 23.5371 118.506C24.4957 120.423 26.1341 123.429 27.1751 125.19C28.219 126.951 29.8403 129.542 30.7818 130.95C31.7233 132.358 33.3276 134.662 34.3516 136.07C35.3727 137.478 37.2386 139.91 38.493 141.474C39.7502 143.039 41.7299 145.408 42.8905 146.736C44.051 148.065 46.2924 150.48 47.8682 152.098C49.4468 153.719 57.4566 161.47 65.6713 169.324C73.8831 177.177 81.9128 185.005 83.5142 186.717C85.1128 188.43 86.6175 190.116 86.8564 190.469C87.175 190.941 87.1949 191.109 86.9332 191.112C86.7369 191.115 85.6817 190.81 84.5866 190.435C83.4915 190.059 81.6341 189.314 80.4622 188.777C79.2874 188.239 76.9209 186.987 75.2 185.998C73.4792 185.008 70.5978 183.213 68.8001 182.004C67.0025 180.798 63.7371 178.431 61.5469 176.742C59.3567 175.055 56.225 172.509 54.5838 171.084C52.9454 169.662 49.7455 166.755 47.4728 164.628C45.203 162.503 41.3573 158.615 38.9339 155.989C36.5076 153.364 33.0716 149.473 31.2967 147.339C29.5218 145.209 26.8281 141.801 25.3064 139.768C23.7874 137.734 21.529 134.599 20.2917 132.799C19.0544 130.998 16.7845 127.417 15.2485 124.834C13.7154 122.252 11.3858 117.965 10.0746 115.306C8.7633 112.646 7.21879 109.318 6.64706 107.91C6.0725 106.502 5.03144 103.686 4.33172 101.653C3.632 99.6188 2.68765 96.4842 2.22971 94.6837C1.7746 92.8832 1.12608 89.8767 0.790437 87.9994C0.341022 85.4849 0.144758 82.9762 0.0423592 78.4706C-0.0600393 73.7774 0.0139152 71.5957 0.366621 69.0841C0.616929 67.2836 1.15168 64.533 1.55274 62.9686C1.95095 61.4042 2.73317 58.9097 3.29067 57.422C3.84817 55.9344 4.81811 53.6959 5.44388 52.4443C6.0725 51.1928 7.10501 49.3354 7.73932 48.3199C8.37077 47.3045 9.74462 45.3191 10.7914 43.9111C11.8353 42.5031 13.9572 40.02 15.5017 38.393C17.0462 36.766 19.5294 34.4193 21.0141 33.1735C22.4989 31.9305 25.1243 29.9735 26.8452 28.8244C28.566 27.6753 31.3166 26.0966 32.9606 25.3144C34.6047 24.5322 36.9713 23.5537 38.2228 23.1356C39.4743 22.7203 41.6503 22.1315 43.0583 21.8272C44.489 21.5171 47.3761 21.2014 49.6004 21.1075C51.9385 21.0108 54.817 21.0762 56.5692 21.2697C58.2133 21.4517 60.8358 21.8641 62.4002 22.1884C63.9646 22.5127 67.358 23.4172 69.9379 24.2022C72.5178 24.9873 75.8457 25.98 77.3333 26.4123C78.821 26.8419 80.4821 27.277 81.0311 27.3738C82.0181 27.553 82.0579 27.5188 85.8665 23.2551C87.9799 20.8885 91.0604 17.6573 92.713 16.0729C94.3685 14.4886 96.9284 12.3325 98.4018 11.283C99.8781 10.2334 102.43 8.60923 104.071 7.67626C105.712 6.74045 108.403 5.40358 110.044 4.7067C111.685 4.00983 114.245 3.05126 115.733 2.57625C117.22 2.10407 119.715 1.45271 121.279 1.13129C122.844 0.812716 125.02 0.43441 126.115 0.29219C127.21 0.152814 130.123 0.0219716 132.586 0.00206075V0.00206075ZM76.4857 68.2251L98.5241 68.373L98.7432 78.4706C98.8655 84.0229 99.0361 88.6337 99.1243 88.7105C99.2125 88.7873 103.53 88.9494 108.718 89.066C113.907 89.1826 118.708 89.3106 120.625 89.4216L120.58 99.8036C120.554 105.515 120.511 110.211 120.48 110.24C120.452 110.268 115.593 110.396 98.9508 110.755V131.519L87.5021 131.297C81.2046 131.175 76.0363 131.047 76.0135 131.012C75.9908 130.978 75.8343 126.405 75.6665 120.852C75.4987 115.3 75.3252 110.726 75.2797 110.689C75.237 110.652 70.3503 110.462 53.648 109.901L53.8272 105.919C53.9239 103.729 54.1003 99.1039 54.4359 89.3448L56.7114 89.177C57.963 89.0859 62.5709 88.9295 66.9513 88.8328C71.3316 88.7361 75.0777 88.5711 75.274 88.4687C75.5385 88.335 75.7462 85.9941 76.0505 79.7506C76.2781 75.0573 76.4686 70.5433 76.4772 69.7212L76.4857 68.2251Z" fill="#ED1C24"/>
<path d="M725.991 111.025C727.225 109.785 728.104 109.173 729.128 108.837C729.91 108.582 731.253 108.362 732.115 108.351C732.977 108.34 734.319 108.516 735.101 108.744C735.909 108.98 737.075 109.634 737.804 110.263C738.506 110.874 739.493 112 739.994 112.768C740.494 113.539 741.228 115.033 741.629 116.088C742.028 117.143 742.565 119.257 742.821 120.781C743.174 122.886 743.248 124.584 743.128 127.821C743.009 131.038 742.798 132.753 742.269 134.79C741.885 136.277 741.177 138.323 740.696 139.341C740.216 140.359 739.337 141.753 738.742 142.438C738.148 143.124 737.215 143.909 736.666 144.182C736.117 144.455 734.902 144.836 733.964 145.024C733.002 145.22 731.7 145.286 730.977 145.178C730.274 145.07 729.12 144.731 728.417 144.424C727.715 144.117 726.642 143.391 726.036 142.811C725.43 142.234 724.52 141.119 724.011 140.336C723.505 139.554 722.768 138.018 722.378 136.923C721.989 135.828 721.491 134.036 721.275 132.941C721.027 131.698 720.894 129.297 720.914 126.541C720.945 122.744 721.056 121.737 721.704 119.288C722.122 117.723 722.871 115.613 723.368 114.595C723.917 113.477 724.955 112.063 725.991 111.025Z" fill="white"/>
<path d="M632.703 132.608C633.485 132.247 635.021 131.769 636.116 131.547C637.211 131.328 639.899 131.132 642.089 131.115C644.28 131.098 646.49 131.183 647.002 131.303C647.929 131.519 647.935 131.527 647.923 133.225C647.915 134.164 647.784 136.115 647.63 137.563C647.477 139.011 647.101 140.737 646.797 141.403C646.49 142.069 645.562 143.263 644.735 144.06C643.904 144.856 642.556 145.849 641.734 146.264C640.912 146.679 639.441 147.228 638.463 147.482C637.405 147.755 636.108 147.885 635.263 147.8C634.481 147.723 633.263 147.413 632.561 147.109C631.858 146.807 630.769 146.108 630.143 145.553C629.517 144.998 628.692 143.855 628.308 143.01C627.813 141.921 627.611 140.976 627.614 139.768C627.617 138.419 627.793 137.739 628.453 136.531C628.914 135.689 629.736 134.611 630.285 134.133C630.834 133.658 631.921 132.969 632.703 132.608Z" fill="white"/>
</svg>
