<svg width="600" height="346" viewBox="0 0 600 346" fill="none" xmlns="http://www.w3.org/2000/svg">
<path d="M0 345.583V172.792V0H600V345.583H0Z" fill="#201F21"/>
<path fill-rule="evenodd" clip-rule="evenodd" d="M245.842 67.9548C247.2 67.9548 248.571 68.4609 249.364 69.2523C250.13 70.0178 250.663 71.4126 250.663 72.6582C250.663 73.8194 249.786 76.5896 248.714 78.8212C247.642 81.0529 246.252 83.0316 245.628 83.2197C245.004 83.4143 242.561 86.6969 240.196 90.518C237.838 94.3456 233.199 101.994 229.885 107.528C226.578 113.055 222.407 120.062 220.627 123.098C218.84 126.134 212.837 136.494 207.276 146.128C201.721 155.762 194.171 169.775 190.5 177.268C186.829 184.761 182.086 195.27 179.968 200.622C177.844 205.974 175.057 213.565 173.77 217.489C172.477 221.414 170.554 228.278 169.482 232.735C168.41 237.198 167.085 244.276 166.539 248.467C166 252.658 165.551 258.282 165.551 260.955C165.551 263.836 165.948 266.748 166.526 268.091C167.267 269.823 167.89 270.362 169.125 270.362C170.021 270.362 171.405 270.031 172.211 269.622C173.017 269.22 175.265 267.54 177.207 265.892C179.15 264.251 183.678 259.677 187.278 255.739C190.871 251.801 199.843 240.708 207.217 231.087C214.591 221.466 224.941 207.758 230.217 200.622C235.492 193.486 242.886 183.56 246.648 178.565C250.41 173.57 257.342 164.663 262.065 158.778C266.782 152.894 274.403 143.702 279.003 138.356C283.61 133.011 291.757 124.246 297.117 118.874C302.477 113.509 309.637 106.814 313.035 104.005C316.433 101.19 321.254 97.5179 323.755 95.8377C326.257 94.1639 330.057 91.8998 332.201 90.8164C334.345 89.7331 337.854 88.2539 339.998 87.5273C342.142 86.8007 346.235 85.912 349.094 85.5552C353.421 85.0167 355.11 85.101 359.164 86.0482C361.848 86.6775 364.914 87.6571 365.986 88.228C367.058 88.7924 369.001 90.3753 370.3 91.7441C371.606 93.113 373.334 95.5458 374.147 97.1482C375.141 99.1138 375.725 101.657 375.933 104.933C376.141 108.294 375.881 111.304 375.082 114.664C374.445 117.343 373.529 120.626 373.042 121.962C372.425 123.669 371.769 124.395 370.859 124.395C370.144 124.395 369.56 124.175 369.56 123.909C369.56 123.643 370.287 121.087 371.177 118.232C372.067 115.378 372.984 111.141 373.211 108.825C373.51 105.809 373.328 103.545 372.568 100.878C371.931 98.6467 370.638 96.175 369.332 94.7154C368.137 93.379 365.577 91.5625 363.647 90.6802C360.607 89.2854 359.223 89.0778 353.317 89.0908C347.457 89.1103 345.806 89.3698 341.622 90.9397C338.945 91.9453 334.703 93.9434 332.201 95.3836C329.7 96.8238 325.022 99.9637 321.806 102.358C318.59 104.758 312.769 109.597 308.87 113.127C304.972 116.649 297.111 124.642 291.406 130.883C285.702 137.13 276.885 147.49 271.811 153.913C266.737 160.335 259.077 170.261 254.795 175.97C250.507 181.679 242.613 192.63 237.253 200.298C231.887 207.966 223.739 219.643 219.146 226.247C214.552 232.852 209.036 240.585 206.886 243.439C204.742 246.294 200.155 252.132 196.692 256.414C193.235 260.696 187.947 266.534 184.952 269.389C181.95 272.243 177.896 275.383 175.934 276.369C173.92 277.388 171.321 278.16 169.937 278.153C168.599 278.153 166.773 277.855 165.876 277.498C164.986 277.141 163.518 276.045 162.615 275.065C161.718 274.086 160.334 271.672 159.548 269.713C158.268 266.528 158.119 264.997 158.138 255.441C158.151 246.209 158.405 243.575 159.977 236.303C160.977 231.664 163.251 223.049 165.038 217.165C166.825 211.281 169.534 203.25 171.061 199.325C172.588 195.4 175.511 188.393 177.565 183.755C179.611 179.117 184.36 169.191 188.109 161.698C191.865 154.205 198.303 141.944 202.429 134.451C206.548 126.958 212.259 116.74 215.118 111.745C217.97 106.75 222.206 99.4512 224.532 95.5263C226.858 91.6014 230.983 85.0621 233.699 80.988C236.422 76.9204 239.761 72.3209 241.132 70.7704C243.152 68.4803 244.036 67.9548 245.842 67.9548ZM338.913 112.069C340.323 112.069 341.18 112.478 341.622 113.367C341.979 114.08 342.272 115.683 342.272 116.935C342.272 118.187 341.505 121.32 340.57 123.909C339.641 126.497 338.543 128.988 338.133 129.449C337.73 129.916 337.035 130.279 336.587 130.26C336.139 130.247 335.482 129.358 335.125 128.288C334.768 127.217 334.254 126.335 333.988 126.322C333.722 126.316 332.871 126.971 332.097 127.782C331.324 128.599 328.719 132.472 326.315 136.397C323.911 140.322 319.824 147.186 317.239 151.642C314.646 156.106 311.001 162.379 309.13 165.59C307.266 168.802 303.978 174.932 301.828 179.214C299.677 183.496 296.175 190.794 294.051 195.432C291.92 200.071 289.223 206.344 288.054 209.38C286.884 212.416 285.455 216.795 284.87 219.111C284.285 221.427 283.727 225.982 283.636 229.232C283.512 233.734 283.707 235.395 284.448 236.232C284.987 236.841 285.936 237.321 286.559 237.302C287.183 237.289 289.814 235.849 292.407 234.097C294.999 232.352 300.632 227.461 304.927 223.231C309.221 219.001 315.634 211.897 319.175 207.434C322.716 202.977 326.679 198.014 327.978 196.405C329.271 194.797 331.22 192.176 332.312 190.567C333.397 188.958 335.866 186.22 337.795 184.469C339.719 182.724 342.467 180.758 343.896 180.103C345.325 179.454 347.08 178.902 347.794 178.876C348.522 178.851 350.25 180.064 351.719 181.621C353.167 183.152 354.87 185.28 355.506 186.35C356.429 187.894 357.059 188.264 358.567 188.134C359.613 188.043 360.633 188.335 360.834 188.783C361.035 189.23 359.522 192.954 357.475 197.054C355.422 201.154 352.589 207.285 351.186 210.678C349.782 214.071 347.606 219.76 346.352 223.328C345.092 226.896 343.916 231.275 343.734 233.059C343.487 235.557 343.656 236.53 344.481 237.276C345.449 238.152 345.975 238.035 349.601 236.206C351.823 235.083 355.981 231.989 358.839 229.329C361.698 226.669 365.538 222.336 367.37 219.695C369.202 217.055 374.861 207.012 379.955 197.379C385.042 187.745 391.617 175.775 394.567 170.78C397.517 165.785 400.772 160.725 401.798 159.538C402.994 158.149 404.131 157.449 404.956 157.591C405.664 157.708 406.541 158.616 406.905 159.602C407.418 160.997 407.282 162.236 406.288 165.117C405.579 167.16 403.513 171.753 401.694 175.321C399.875 178.889 396.256 185.169 393.651 189.269C391.052 193.369 386.069 200.817 382.58 205.812C379.091 210.807 375.758 215.699 375.173 216.679C374.588 217.658 374.257 218.463 374.432 218.463C374.614 218.463 378.837 212.695 383.821 205.65C388.804 198.605 393.924 191.598 395.191 190.08C396.964 187.959 397.945 187.323 399.446 187.323C400.921 187.323 402.064 188.043 404.157 190.275C405.997 192.243 408.109 193.67 410.491 194.557C412.785 195.413 416.391 196.016 420.562 196.25C424.557 196.47 428.683 196.295 431.282 195.809C433.608 195.367 436.674 194.336 438.104 193.519C439.533 192.695 441.092 192.208 441.56 192.435C442.034 192.656 442.327 193.408 442.21 194.115C442.099 194.816 440.833 196.042 439.403 196.84C437.974 197.638 434.979 198.741 432.744 199.292C430.437 199.863 425.876 200.298 422.186 200.298C418.613 200.298 414.156 199.98 412.278 199.584C410.4 199.195 407.697 198.196 406.268 197.372C404.839 196.548 402.792 194.965 401.72 193.856C400.648 192.747 399.55 191.845 399.284 191.851C399.017 191.858 395.476 196.464 391.416 202.082C387.362 207.7 381.95 215.219 379.396 218.787C376.849 222.355 373.075 227.26 371.021 229.679C368.968 232.106 366.772 234.071 366.149 234.058C365.525 234.045 364.576 233.591 364.037 233.059C363.42 232.443 363.218 231.554 363.498 230.626C363.803 229.589 362.627 230.386 359.424 233.384C356.949 235.7 353.174 238.541 351.03 239.689C348.892 240.838 346.125 241.798 344.871 241.824C343.22 241.856 342.083 241.37 340.739 240.059C338.945 238.321 338.887 238.061 339.173 233.384C339.361 230.419 340.134 226.747 341.154 223.977C342.077 221.479 343.734 216.958 344.832 213.921C345.936 210.885 346.755 208.349 346.664 208.271C346.573 208.2 345.183 209.769 343.571 211.768C341.967 213.766 338.309 217.561 335.45 220.208C332.591 222.855 328.79 225.735 327.004 226.611C325.217 227.493 322.95 228.207 321.969 228.2C320.819 228.194 319.448 227.441 318.109 226.085C316.095 224.035 316.05 223.867 316.485 219.922C316.732 217.691 316.862 215.855 316.771 215.842C316.68 215.829 314.724 218.086 312.418 220.869C310.111 223.646 305.401 228.693 301.951 232.086C298.339 235.635 294.051 239.138 291.848 240.338C289.743 241.486 287.073 242.434 285.91 242.447C284.747 242.46 282.928 241.953 281.862 241.331C280.797 240.708 279.582 239.469 279.153 238.574C278.73 237.685 278.25 234.032 278.087 230.464C277.834 224.931 278.055 222.926 279.569 216.841C280.55 212.916 282.83 205.909 284.649 201.271C286.462 196.632 290.542 187.732 293.719 181.484C296.896 175.244 300.983 167.504 302.809 164.293C304.634 161.082 309.332 153.057 313.256 146.452C317.174 139.848 322.826 130.727 325.808 126.179C328.784 121.632 332.494 116.597 334.04 114.989C336.217 112.737 337.328 112.069 338.913 112.069V112.069ZM282.174 159.434C282.889 159.421 283.844 159.778 284.298 160.225C284.747 160.679 285.13 161.49 285.137 162.022C285.15 162.554 284.688 163.436 284.11 163.968C283.181 164.838 282.824 164.818 280.836 163.806C279.608 163.183 278.549 162.249 278.49 161.73C278.432 161.211 278.938 160.491 279.627 160.128C280.316 159.765 281.459 159.453 282.174 159.434ZM276.56 180.823C277.145 180.816 277.996 181.186 278.451 181.634C278.899 182.088 279.27 183.262 279.263 184.242C279.257 185.221 276.931 190.625 274.092 196.243C271.252 201.861 266.678 210.399 263.924 215.219C261.175 220.039 258.674 224.924 258.369 226.085C257.868 227.967 257.582 228.174 255.698 228.032C253.808 227.889 253.593 227.668 253.645 225.923C253.684 224.781 256.985 217.723 261.604 208.894C265.951 200.596 269.511 193.59 269.524 193.324C269.531 193.058 270.596 190.502 271.883 187.647C273.169 184.793 274.514 182.094 274.865 181.647C275.209 181.199 275.976 180.829 276.56 180.823ZM238.013 254.792C238.806 254.792 238.968 256.258 238.975 263.388C238.975 269.551 238.728 272.353 238.098 273.281C237.617 273.995 236.441 274.799 235.492 275.065C234.394 275.377 232.946 275.195 231.497 274.579C230.249 274.04 229.223 273.314 229.223 272.957C229.223 272.6 229.515 272.159 229.872 271.984C230.23 271.809 231.328 272.087 232.309 272.613C233.816 273.417 234.297 273.43 235.395 272.697C236.564 271.912 236.714 270.991 236.876 263.31C237.026 256.33 237.227 254.792 238.013 254.792V254.792ZM265.678 259.982C268.342 259.982 269.167 260.293 270.804 261.928C271.876 262.999 272.929 264.679 273.136 265.658C273.351 266.638 273.201 268.539 272.812 269.875C272.422 271.212 271.298 272.905 270.317 273.625C269.095 274.533 267.556 274.942 265.444 274.922C263.125 274.91 261.871 274.501 260.409 273.281C259.291 272.353 258.291 270.758 258.057 269.551C257.836 268.39 257.868 266.567 258.128 265.496C258.388 264.426 259.48 262.746 260.552 261.766C262.124 260.326 263.118 259.982 265.678 259.982ZM291.27 260.079C291.894 260.209 293.336 262.557 297.117 271.088L299.716 265.516C301.145 262.447 302.679 259.95 303.127 259.963C303.575 259.976 303.946 260.203 303.952 260.469C303.959 260.735 302.087 265.185 299.794 270.362C297.169 276.278 295.233 279.827 294.583 279.931C294.012 280.022 293.544 279.944 293.544 279.769C293.544 279.593 294.129 278.134 296.143 273.606L293.485 267.605C292.023 264.303 290.685 261.208 290.51 260.728C290.308 260.17 290.588 259.937 291.27 260.079V260.079ZM328.251 259.982C329.992 259.982 331.948 260.456 332.962 261.117C333.917 261.74 335.086 263.2 335.56 264.361C336.035 265.522 336.424 266.761 336.424 267.118C336.424 267.507 333.715 267.767 322.781 267.767L323.43 269.713C323.788 270.784 324.665 271.951 325.379 272.308C326.094 272.665 327.705 272.957 328.953 272.957C330.525 272.957 331.675 272.47 332.689 271.38C333.754 270.232 334.417 269.973 335.125 270.42C335.937 270.926 335.742 271.354 333.988 272.97C332.273 274.54 331.292 274.91 328.79 274.922C326.757 274.942 325.152 274.533 324.08 273.729C323.19 273.061 322.066 271.666 321.585 270.628C321.007 269.389 320.871 267.851 321.176 266.145C321.449 264.601 322.378 262.823 323.456 261.766C324.912 260.345 325.886 259.982 328.251 259.982V259.982ZM354.941 259.982C355.48 259.982 356.026 260.345 356.163 260.793C356.358 261.442 356.578 261.442 357.267 260.793C357.735 260.345 358.8 259.982 359.619 259.982C360.496 259.982 361.022 260.319 360.899 260.793C360.782 261.241 360.054 261.675 359.275 261.766C358.359 261.87 357.521 262.726 356.89 264.199C356.358 265.451 355.916 268.37 355.916 270.686C355.916 274.001 355.708 274.903 354.941 274.903C354.129 274.903 353.967 273.644 353.967 267.443C353.967 261.241 354.129 259.982 354.941 259.982ZM385.64 259.982C387.764 259.982 388.83 260.391 390.272 261.766C391.416 262.856 392.325 264.556 392.605 266.145C392.91 267.851 392.774 269.389 392.195 270.628C391.715 271.666 390.597 273.061 389.701 273.729C388.674 274.501 386.998 274.948 385.153 274.948C383.229 274.948 381.618 274.494 380.442 273.625C379.461 272.905 378.331 271.212 377.928 269.875C377.389 268.078 377.389 266.807 377.928 265.01C378.402 263.414 379.383 262.129 380.767 261.279C382.001 260.52 384.022 259.988 385.64 259.982V259.982ZM414.877 260.001C415.858 260.014 417.17 260.378 417.794 260.812C418.411 261.247 418.703 261.805 418.444 262.051C418.177 262.298 416.878 262.298 415.559 262.051C413.506 261.669 413.084 261.798 412.694 262.901C412.362 263.855 412.655 264.497 413.798 265.308C414.662 265.918 416.17 267.008 417.151 267.741C418.171 268.5 418.937 269.687 418.944 270.524C418.944 271.328 418.509 272.639 417.969 273.443C417.248 274.514 416.332 274.91 414.552 274.929C413.109 274.948 411.784 274.553 411.303 273.956C410.855 273.411 410.641 272.665 410.816 272.308C411.017 271.906 411.693 272.003 412.603 272.568C413.61 273.197 414.519 273.301 415.526 272.892C416.358 272.561 416.988 271.75 416.988 271.011C416.988 270.213 416.066 269.149 414.61 268.253C413.298 267.449 411.836 266.21 411.355 265.496C410.874 264.783 410.485 263.836 410.485 263.388C410.491 262.94 411.076 261.993 411.791 261.279C412.505 260.566 413.896 259.988 414.877 260.001Z" fill="#A8A9AB"/>
<path d="M390.209 187.674C391.137 185.782 394.117 180.182 396.824 175.225C399.531 170.267 401.836 166.364 401.946 166.548C402.063 166.731 400.661 169.901 398.836 173.594C397.012 177.288 394.091 182.736 392.345 185.71C390.598 188.683 389.021 191.112 388.845 191.112C388.67 191.112 389.28 189.567 390.209 187.674Z" fill="#201F21"/>
<path d="M339.254 192.461C341.89 189.423 344.889 186.417 345.915 185.788C347.129 185.035 348.135 184.832 348.836 185.192C349.414 185.5 350.518 186.443 351.277 187.288C352.03 188.133 353.011 189.554 353.446 190.457C354.134 191.879 354.036 192.357 352.744 194.059C351.926 195.14 349.051 198.67 346.356 201.905C343.662 205.146 339.118 210.124 336.262 212.972C333.405 215.821 329.608 218.991 327.822 220.019C326.037 221.04 324.213 221.885 323.765 221.885C323.194 221.892 323.064 221.158 323.317 219.436C323.518 218.087 324.563 215.061 325.641 212.723C326.719 210.386 329.147 206.109 331.029 203.228C332.912 200.346 336.612 195.5 339.254 192.461Z" fill="#201F21"/>
<path d="M259.905 267.786C259.866 267.092 260.619 265.618 261.586 264.512C262.833 263.071 263.923 262.488 265.39 262.475C266.52 262.462 268.175 263.005 269.071 263.68C269.961 264.354 270.882 265.769 271.116 266.81C271.343 267.858 271.246 269.449 270.889 270.353C270.538 271.25 269.766 272.351 269.175 272.789C268.584 273.228 267.15 273.595 265.988 273.608C264.826 273.621 263.397 273.405 262.813 273.136C262.229 272.868 261.352 271.833 260.866 270.844C260.379 269.855 259.95 268.474 259.905 267.786Z" fill="#201F21"/>
<path d="M323.479 265.972C323.408 265.73 324.044 264.846 324.888 264.007C325.92 262.986 327.173 262.501 328.744 262.508C330.257 262.514 331.581 263.032 332.548 263.981C333.36 264.787 334.015 265.664 334.009 265.933C333.996 266.201 331.652 266.424 328.796 266.424C325.94 266.424 323.544 266.221 323.479 265.972Z" fill="#201F21"/>
<path d="M379.815 266.751C380.043 266.031 380.828 264.78 381.562 263.968C382.438 263.005 383.646 262.495 385.061 262.495C386.599 262.495 387.787 263.064 389.17 264.459C390.241 265.54 391.118 267.013 391.118 267.734C391.118 268.454 390.722 269.855 390.235 270.844C389.748 271.833 388.871 272.868 388.287 273.136C387.703 273.405 386.275 273.621 385.113 273.608C383.951 273.595 382.516 273.228 381.925 272.789C381.334 272.351 380.523 271.106 380.12 270.026C379.724 268.945 379.582 267.472 379.815 266.751Z" fill="#201F21"/>
</svg>
