<svg width="630" height="101" viewBox="0 0 630 101" fill="none" xmlns="http://www.w3.org/2000/svg">
<path fill-rule="evenodd" clip-rule="evenodd" d="M46.041 1.43206L51.1477 4.27686C53.9563 5.8415 57.2284 8.40182 58.42 9.96646C59.6115 11.5311 61.3138 14.5181 62.2027 16.6043C63.1768 18.8707 63.8009 22.6922 63.7631 26.087C63.7347 29.2163 62.9971 33.7016 62.1365 36.0438C61.2665 38.386 59.3184 41.9136 55.025 47.423L59.7061 51.9272C62.2784 54.4022 65.314 58.5651 66.4677 61.1728C67.9146 64.4728 68.5482 67.7917 68.5577 72.0779C68.5577 75.4632 67.8673 80.3752 67.0162 82.983C66.1651 85.5907 64.0562 89.4312 62.3162 91.5174C60.5761 93.6036 56.8407 96.4863 54.0131 97.9276C49.5589 100.203 47.781 100.545 32.3286 100.526V70.1814H36.395C38.6268 70.1814 40.9816 69.6504 41.6152 68.996C42.2488 68.3417 42.7595 66.853 42.75 65.6771C42.7406 64.5013 42.0975 62.8987 41.3126 62.1211C40.3669 61.1728 38.0027 60.6987 28.5459 60.6987V100.526H0.175381L0.0146146 51.3773C-0.0704968 22.787 0.222665 1.92516 0.723877 1.51741C1.19672 1.12862 11.5803 0.948448 46.041 1.43206V1.43206ZM28.5459 37.9403C37.057 37.9403 38.1918 37.561 38.9484 36.0438C39.4685 35.0007 39.8941 33.5024 39.8941 32.7249C39.8941 31.9378 39.251 30.6576 38.4755 29.8801C37.6339 29.0361 35.3264 28.4577 32.8014 28.4577H28.5459V37.9403Z" fill="#363636"/>
<path d="M394.052 101L393.806 50.5048L393.561 0.0096377L410.829 0.000155038C420.323 -0.00932763 430.442 0.417392 433.298 0.948421C436.154 1.46997 441.478 3.35702 445.119 5.13028C449.554 7.28284 453.299 10.0423 456.467 13.4845C459.068 16.3103 462.35 20.7293 463.749 23.3085C465.158 25.8783 467.201 31.3973 468.279 35.5696C469.65 40.842 470.199 45.6118 470.076 51.216C469.981 55.6539 469.319 61.8366 468.6 64.9659C467.891 68.0952 466.085 73.2158 464.581 76.3451C463.078 79.4744 459.749 84.3769 457.177 87.2501C454.368 90.3794 450.075 93.7552 446.443 95.6897C443.114 97.463 437.837 99.4164 434.717 100.023C431.596 100.64 427.548 101.095 422.423 100.934L421.95 70.1813H426.678C429.44 70.1813 432.882 69.4322 434.953 68.3891C436.901 67.3934 439.218 65.8004 440.098 64.8331C440.977 63.8659 442.358 61.4668 443.171 59.5133C443.984 57.5599 444.646 53.397 444.646 50.2678C444.646 47.1385 444.079 43.1937 443.389 41.4963C442.689 39.7989 440.883 37.3239 439.369 36.0058C437.847 34.6783 435.114 33.0757 433.298 32.4498C431.482 31.824 427.548 31.1981 419.151 30.8283L418.64 101H394.052Z" fill="#C92E24"/>
<path d="M543.688 9.20782C546.165 6.7044 549.901 3.82167 551.981 2.80702C555.074 1.29928 557.788 0.957904 577.988 0.957904V29.4059L570.186 29.4249C563.405 29.4438 562.1 29.7188 560.237 31.5585C558.384 33.3791 558.081 34.6308 558.128 47.423H566.639V74.9227L557.655 74.9322L557.315 87.4872C557.135 94.4001 556.644 100.26 556.227 100.526C555.811 100.791 550.856 100.991 534.959 100.972L534.978 62.5857C534.997 25.243 535.054 24.0482 537.087 18.975C538.335 15.8552 540.983 11.9293 543.688 9.20782Z" fill="#C92E24"/>
<path d="M586.499 30.9136C588.324 29.8516 591.303 28.4576 593.118 27.8128C594.944 27.168 599.199 26.618 602.575 26.5895C607.483 26.5516 609.763 27.0637 613.867 29.1593C616.685 30.6007 620.364 33.4834 622.028 35.5696C623.692 37.6558 626.161 41.6006 627.522 44.3411C629.726 48.76 630 50.4384 630 69.2331H614.396C601.365 69.2331 598.717 68.996 598.32 67.8107C598.064 67.0331 597.856 65.0038 597.856 63.3064C597.866 61.609 598.083 59.2668 598.329 58.091C598.745 56.1944 599.369 55.9574 609.195 55.9574L608.628 52.8755C608.316 51.1781 607.446 49.1583 606.708 48.3712C605.961 47.5842 603.852 46.9488 602.017 46.9488C599.577 46.9488 598.197 47.5842 596.854 49.3195C595.852 50.6186 594.603 53.1789 594.083 55.0091C593.553 56.8392 593.128 60.1392 593.128 62.3581C593.118 64.5771 593.648 68.3796 594.301 70.8072C595.01 73.4434 596.438 75.9468 597.847 76.9994C599.842 78.4976 601.885 78.7726 621.489 78.7157V100.526L616.997 100.659C614.529 100.734 608.249 100.81 603.048 100.829C594.915 100.858 592.939 100.535 588.929 98.563C586.357 97.2923 582.829 94.5518 581.08 92.4656C579.34 90.3794 577.089 86.9657 576.096 84.8795C575.094 82.7933 573.571 78.308 572.711 74.9227C571.585 70.4943 571.292 66.6159 571.67 61.1728C571.973 56.8961 573.155 50.96 574.385 47.5747C575.586 44.2652 578.063 39.5998 579.879 37.1912C581.704 34.792 584.683 31.9662 586.499 30.9136Z" fill="#C92E24"/>
<path d="M87.1781 29.074C89.0033 27.9835 92.4077 26.5706 94.7436 25.9542C97.0794 25.3284 100.701 25.0534 102.782 25.3378C104.862 25.6318 107.841 26.3714 109.402 26.9878C110.962 27.6042 114.102 29.7947 116.371 31.8429C118.641 33.8912 121.487 37.2765 122.698 39.3627C123.899 41.4489 125.781 46.3609 126.878 50.2678C128.514 56.0806 128.996 61.3056 130.207 100.526H107.983L107.974 81.3235C107.974 70.7598 107.576 60.6323 107.094 58.8022C106.602 56.972 105.477 54.8384 104.588 54.0608C103.69 53.2832 101.647 52.6858 100.039 52.7522C98.1291 52.8186 96.3607 53.7289 94.98 55.3599C93.3723 57.2375 92.8428 59.0771 92.8238 62.8323C92.7955 66.8719 93.2399 68.3038 95.188 70.4184C96.9186 72.3055 98.4885 73.0261 104.2 73.0261V100.526L99.2356 100.535C95.6703 100.545 92.8238 99.8147 89.1357 97.9276C86.3081 96.4863 82.6105 93.6035 80.9272 91.5173C79.2344 89.4312 76.7 85.164 75.2814 82.0347C73.8629 78.9054 72.2836 73.358 71.7635 69.7072C71.0921 64.9754 71.1393 61.0211 71.9337 55.9574C72.5484 52.0505 74.1372 46.5031 75.4706 43.6299C76.7945 40.7566 79.2249 36.7644 80.8704 34.7446C82.5159 32.7248 85.353 30.174 87.1781 29.074Z" fill="#363636"/>
<path d="M219.574 29.074C221.399 27.9835 224.794 26.5706 227.139 25.9542C229.484 25.3284 233.097 25.0534 235.177 25.3378C237.258 25.6318 240.237 26.3714 241.797 26.9878C243.358 27.6042 246.497 29.7947 248.767 31.8429C251.037 33.8912 253.902 37.2765 255.122 39.3627C256.332 41.4489 258.205 46.5695 259.273 50.7419C260.938 57.2754 261.203 61.2487 261.184 100.526H240.379L240.369 81.3235C240.369 70.7598 239.972 60.6323 239.49 58.8022C238.998 56.972 237.873 54.8384 236.984 54.0608C236.085 53.2832 234.043 52.6858 232.435 52.7522C230.525 52.8186 228.756 53.7289 227.376 55.3599C225.768 57.2375 225.238 59.0771 225.219 62.8323C225.191 66.8719 225.635 68.3038 227.584 70.4184C229.314 72.3055 230.884 73.0261 236.596 73.0261V100.526L231.631 100.535C228.283 100.545 225.125 99.7957 221.938 98.2405C219.337 96.9794 215.753 94.3052 213.966 92.3044C212.188 90.3036 209.445 85.8941 207.885 82.5088C206.249 78.9433 204.641 73.3486 204.083 69.2331C203.374 63.9986 203.431 60.3668 204.291 55.4832C204.934 51.8324 206.542 46.5031 207.866 43.6299C209.19 40.7566 211.62 36.7644 213.266 34.7446C214.911 32.7248 217.749 30.174 219.574 29.074Z" fill="#363636"/>
<path d="M347.714 28.3818C349.274 27.4051 352.461 26.2387 354.806 25.793C357.152 25.3378 360.547 25.1671 362.372 25.4042C364.197 25.6508 367.384 26.5611 369.464 27.4335C371.545 28.3154 374.959 30.7145 377.049 32.7722C379.148 34.83 381.881 38.6515 383.139 41.2592C384.387 43.867 386.023 48.1342 386.78 50.7419C387.735 54.0798 388.246 62.1401 388.851 100.526H368.046L367.772 80.3752C367.564 64.9469 367.176 59.5608 366.107 57.3798C365.332 55.8151 363.544 54.0039 362.116 53.3496C360.055 52.4014 359.062 52.4014 357.152 53.3496C355.847 54.0039 354.088 55.8151 353.246 57.3798C352.158 59.3996 351.884 61.4573 352.3 64.4917C352.65 67.0616 353.728 69.6124 355.024 70.921C356.508 72.4098 358.267 73.0641 364.263 73.0261V100.526L358.353 100.232C355.099 100.08 350.957 99.2362 349.132 98.3733C347.307 97.5104 344.167 95.1871 342.144 93.2053C340.129 91.2329 336.933 86.4251 335.051 82.5088C331.665 75.4632 331.637 75.2925 331.637 63.0694C331.637 51.2919 331.769 50.4669 334.531 44.5782C336.12 41.1834 339.098 36.5558 341.151 34.2895C343.203 32.0136 346.153 29.3585 347.714 28.3818Z" fill="#363636"/>
<path d="M148.591 29.3774C150.444 28.1731 153.877 26.8835 156.213 26.5137C158.549 26.1439 160.894 25.793 161.414 25.7361C161.934 25.6792 163.315 25.8499 164.488 26.0964C166.587 26.5516 166.615 26.7887 166.615 55.9574L164.015 55.9384C162.587 55.9289 160.563 56.5358 159.523 57.2849C157.745 58.5651 157.622 59.8737 157.159 100.526H134.462L134.755 75.1597C135.03 51.8703 135.219 49.3669 137.082 44.5782C138.198 41.7049 140.486 37.6084 142.16 35.4653C143.843 33.3222 146.737 30.5817 148.591 29.3774Z" fill="#363636"/>
<path d="M184.111 28.6757C185.671 27.8413 188.65 26.8551 190.73 26.5042C192.811 26.1439 194.939 25.8025 195.459 25.7456C195.979 25.6887 197.36 25.8499 198.532 26.0964C200.632 26.5516 200.66 26.7887 200.66 55.9574L198.059 55.9763C196.631 55.9763 194.958 56.2987 194.352 56.6875C193.738 57.0668 192.782 58.5556 192.225 59.9875C191.619 61.5426 191.203 70.2667 191.203 100.526H168.507V81.3235C168.507 70.7598 168.961 58.4987 169.509 54.0608C170.067 49.6324 171.363 44.0756 172.394 41.7334C173.424 39.3911 175.845 35.8351 177.775 33.8343C179.694 31.8335 182.55 29.5102 184.111 28.6757Z" fill="#363636"/>
<path d="M282.282 29.624C283.738 28.8275 286.074 27.8413 287.483 27.443C288.883 27.0542 292.58 26.6844 295.701 26.637C298.822 26.5801 303.607 27.187 306.34 27.974C309.603 28.9128 312.79 30.7904 315.646 33.436C318.133 35.7498 321.121 39.8937 322.653 43.1558C324.128 46.285 325.537 50.5522 325.802 52.6384C326.058 54.7246 325.982 56.9056 325.641 57.4841C325.282 58.0815 320.629 58.7927 304.685 59.7504L303.503 57.266C302.85 55.9005 301.148 54.1936 299.72 53.4729C298.292 52.7522 296.164 52.1453 294.992 52.1358C293.819 52.1169 291.691 53.1789 290.263 54.5065C288.835 55.8246 287.398 58.0815 287.076 59.5134C286.755 60.9452 286.755 63.5056 287.076 65.2029C287.417 66.9667 288.873 69.2995 290.5 70.6555C292.06 71.9641 293.98 73.0261 294.755 73.0261C295.531 73.0261 297.243 72.5994 298.538 72.0779C299.843 71.5563 301.753 69.6408 304.685 64.4917L325.963 64.4633L325.235 69.9348C324.828 72.9408 323.079 78.3839 321.339 82.0347C319.599 85.6855 316.525 90.332 314.511 92.3613C312.487 94.3906 308.487 97.1121 305.631 98.4207C301.243 100.422 299.399 100.725 293.81 100.384C289.961 100.147 285.601 99.1983 283.407 98.1362C281.327 97.1216 277.818 94.4759 275.605 92.2475C273.392 90.0191 270.31 85.5338 268.749 82.2717C267.179 79.0097 265.449 73.5667 264.891 70.1813C264.163 65.7909 264.163 62.1116 264.891 57.3798C265.449 53.7289 267.113 48.1816 268.598 45.0523C270.083 41.923 273.165 37.5041 275.454 35.2283C277.752 32.9429 280.816 30.43 282.282 29.624Z" fill="#363636"/>
<path d="M489.093 29.1214C490.909 28.0025 493.897 26.5421 495.713 25.8689C497.528 25.1861 501.15 24.8068 503.751 25.0154C506.352 25.2145 510.607 26.4473 513.208 27.7464C515.808 29.0455 519.393 31.7671 521.18 33.7869C522.958 35.8067 525.379 39.5997 526.551 42.2075C527.724 44.8152 529.351 50.2583 530.164 54.2979C531.223 59.5513 531.649 67.1848 531.649 100.526H509.898V80.6123C509.898 65.0228 509.586 59.978 508.479 57.3797C507.695 55.5496 506.106 53.691 504.933 53.2453C503.76 52.7901 501.746 52.7712 500.441 53.2074C499.079 53.6531 497.33 55.5022 496.299 57.5789C495.051 60.1107 494.682 62.2918 495.06 64.9659C495.401 67.3745 496.479 69.5365 498.02 70.8925C499.543 72.2391 501.671 73.0261 507.061 73.0261V100.526L501.623 100.535C497.538 100.545 494.909 99.9 491.051 97.9276C488.223 96.4862 484.525 93.6035 482.842 91.5173C481.149 89.4312 478.69 85.382 477.385 82.5088C476.071 79.6356 474.482 74.0977 473.849 70.1813C472.96 64.6435 472.96 61.4952 473.839 55.9573C474.463 52.0505 475.929 46.7117 477.111 44.104C478.293 41.4963 480.724 37.5136 482.52 35.2567C484.317 32.9903 487.277 30.2309 489.093 29.1214Z" fill="#C92E24"/>
</svg>
