<svg width="515" height="187" viewBox="0 0 515 187" fill="none" xmlns="http://www.w3.org/2000/svg">
<path d="M134.97 0.88279C135.228 0.59267 135.794 0.284641 136.224 0.202262C136.657 0.1163 137.209 0.0267571 137.456 0.00168501C137.703 -0.0269688 138.129 0.313295 138.409 0.757429C138.684 1.20156 139.082 2.45159 139.286 3.53327C139.49 4.61853 139.759 7.0362 139.881 8.90586C140.002 10.7791 139.934 14.9697 139.73 18.2184C139.526 21.467 139.089 28.0753 138.763 32.9034C138.272 40.0741 138.24 42.4308 138.573 45.7977C138.799 48.0613 139.25 50.7225 139.576 51.7075C139.902 52.6925 140.547 54.1037 141.005 54.8415C141.467 55.5793 142.366 56.4139 143.007 56.6968C143.835 57.0622 144.766 57.141 146.235 56.9655C148.054 56.7506 148.298 56.7971 148.294 57.3487C148.294 57.6926 147.768 58.2979 147.126 58.6919C146.446 59.1109 145.332 59.4046 144.44 59.4082C143.602 59.4082 142.073 59.0966 141.038 58.7205C139.934 58.3158 138.731 57.5386 138.129 56.8401C137.563 56.1847 136.818 55.0851 136.471 54.3938C136.127 53.7025 135.557 52.0119 135.206 50.633C134.694 48.6344 134.569 46.7432 134.587 41.3205C134.601 37.5776 134.873 31.854 135.192 28.6054C135.514 25.3567 135.93 21.3273 136.12 19.651C136.313 17.9748 136.471 14.7512 136.471 12.4876C136.474 10.2239 136.306 7.40153 136.102 6.21956C135.898 5.03759 135.454 3.47238 135.117 2.74171C134.605 1.64212 134.58 1.32692 134.97 0.88279Z" fill="black"/>
<path d="M68.9552 21.3488C69.7432 20.9369 70.9539 20.4856 71.6415 20.3459C72.3328 20.2062 73.2175 20.0737 73.6115 20.0558C74.0055 20.0343 74.8938 20.2026 75.5814 20.4283C76.2727 20.6503 77.4798 21.0551 78.2677 21.3201C79.0557 21.5888 80.3451 22.4126 81.1331 23.1576C81.9211 23.899 83.0028 25.389 83.5329 26.4671C84.0666 27.5452 84.9226 29.5545 85.4419 30.9335C85.9577 32.3125 86.6024 34.7301 86.8746 36.3061C87.1683 38.0002 87.4692 43.5591 87.6125 49.9166C87.8345 59.616 87.7951 60.8875 87.2149 62.9899C86.8603 64.2686 86.0508 66.4463 85.4097 67.8253C84.7686 69.2042 83.4648 71.1957 82.5121 72.2487C81.5558 73.3017 80.0514 74.5661 79.1632 75.0568C78.2462 75.569 76.2405 76.1743 74.5069 76.4644C72.6014 76.7868 70.456 76.8978 68.7762 76.7617C67.3005 76.6435 65.2052 76.2996 64.1199 75.9988C63.0382 75.6979 61.5053 75.1248 60.7173 74.7237C59.9293 74.3261 58.6793 73.5346 57.9414 72.9722C57.1176 72.3418 56.6663 71.7365 56.7774 71.407C56.8777 71.1133 57.4794 70.7229 58.1205 70.5474C58.7616 70.3683 59.8505 70.354 60.5382 70.5116C61.2295 70.6692 63.1636 71.3103 64.8363 71.9407C67.6121 72.9794 68.2568 73.0833 72.1788 73.1083C75.3773 73.1262 76.7527 72.9937 77.5514 72.5854C78.1424 72.2809 79.1775 71.4106 79.8544 70.6477C80.5278 69.8812 81.4483 68.4521 81.8996 67.4671C82.3473 66.4821 82.9813 64.548 83.3001 63.169C83.7012 61.4462 83.934 58.305 84.0486 53.1402C84.1525 48.3872 84.0773 45.4216 83.8481 45.0813C83.5257 44.6049 83.4326 44.6049 82.9992 45.0813C82.7306 45.375 82.0715 46.668 81.5379 47.9467C81.0006 49.2254 79.6431 51.4747 78.5185 52.9396C77.3974 54.4045 75.9933 55.891 75.4024 56.242C74.8114 56.593 73.9267 57.1087 73.4324 57.3917C72.9417 57.6711 71.5699 58.1761 70.3879 58.5128C68.5863 59.0214 67.9774 59.0536 66.6271 58.6955C65.7424 58.4591 64.4244 57.8394 63.7044 57.3165C62.9845 56.7936 62.0604 55.8802 61.6521 55.2892C61.2438 54.6982 60.5561 53.3264 60.1263 52.2448C59.4816 50.6294 59.3132 49.3436 59.1879 45.0813C59.0733 41.1092 59.1843 39.1285 59.6607 36.6642C60.0045 34.8913 60.7746 32.3125 61.3727 30.9335C61.9709 29.5545 63.0203 27.6204 63.708 26.6354C64.3957 25.6504 65.5347 24.2249 66.2403 23.4727C66.9459 22.717 68.1673 21.7607 68.9552 21.3488Z" fill="black"/>
<path d="M105.453 23.0394C106.51 21.9971 107.96 20.987 108.892 20.6503C109.78 20.328 111.069 20.0558 111.757 20.045C112.448 20.0343 113.738 20.1955 114.622 20.3996C115.511 20.6038 116.757 21.1661 117.398 21.6461C118.039 22.1224 118.956 23.1217 119.436 23.8596C119.92 24.5974 120.675 26.4921 121.116 28.0681C121.865 30.7508 121.915 31.5567 121.843 40.6041C121.8 46.2919 121.929 51.0843 122.155 52.2448C122.362 53.3264 122.81 54.7663 123.143 55.4397C123.48 56.113 124.16 56.9118 124.651 57.209C125.224 57.5565 126.292 57.7284 127.606 57.6854C129.229 57.6317 129.666 57.732 129.666 58.1546C129.666 58.4483 129.143 59.0142 128.501 59.4082C127.713 59.8917 126.703 60.1246 125.367 60.1246C124.2 60.1281 123.068 59.9097 122.592 59.5909C122.147 59.2936 121.521 58.5271 121.198 57.886C120.876 57.2449 120.396 55.9984 120.127 55.1101C119.862 54.2219 119.644 53.0542 119.64 52.5134C119.637 51.9725 119.436 50.7189 119.189 49.7304C118.942 48.7418 118.541 47.9359 118.294 47.9395C118.046 47.9431 117.577 48.3908 117.244 48.9317C116.915 49.4725 115.801 51.2061 114.773 52.782C113.566 54.623 112.043 56.353 110.51 57.6174C109.2 58.699 107.613 59.7664 106.986 59.9885C106.359 60.2069 104.962 60.5042 103.877 60.6439C102.319 60.8481 101.621 60.7657 100.528 60.2463C99.5754 59.7915 98.8376 59.0357 98.1356 57.7964C97.5732 56.8007 96.9285 54.8917 96.6886 53.4984C96.4128 51.9045 96.3304 49.4259 96.4665 46.6931C96.5847 44.3291 97.0002 40.8656 97.3942 38.9924C97.7882 37.1191 98.5582 34.3827 99.1026 32.9034C99.6507 31.4278 100.894 29.0101 101.864 27.5308C102.835 26.0552 104.45 24.0315 105.453 23.0394Z" fill="black"/>
<path d="M190.476 22.9319C190.394 21.3667 190.505 20.9297 191.092 20.4999C191.486 20.2134 192.292 20.0235 192.883 20.0844C193.882 20.1811 193.972 20.3137 194.19 21.9792C194.319 22.9641 194.559 27.3553 194.728 31.7394C194.914 36.6105 195.172 39.7123 195.39 39.7123C195.587 39.7123 195.924 39.4293 196.142 39.0819C196.357 38.7381 196.733 37.5668 196.977 36.4852C197.217 35.4035 197.994 32.9858 198.696 31.1126C199.402 29.2393 200.415 27.0652 200.949 26.2772C201.483 25.4893 202.586 24.2392 203.403 23.5014C204.216 22.7636 205.527 21.8359 206.314 21.4419C207.102 21.0479 208.431 20.7184 209.269 20.7112C210.405 20.7005 211.25 20.9978 212.583 21.8753C213.575 22.5308 214.896 23.8524 215.552 24.8445C216.2 25.8295 216.723 27.0795 216.716 27.6204C216.705 28.3582 216.454 28.7021 215.717 28.985C215.176 29.1928 214.37 29.2716 213.926 29.1641C213.363 29.0244 212.822 28.3009 212.135 26.7608C211.594 25.5501 210.827 24.3431 210.433 24.0745C210.039 23.8058 209.194 23.5874 208.553 23.5874C207.912 23.5909 206.945 23.8094 206.404 24.0816C205.863 24.3503 204.957 25.1168 204.388 25.783C203.822 26.4492 202.994 27.7171 202.55 28.6054C202.106 29.4936 201.382 31.3454 200.945 32.7243C200.509 34.1033 199.996 35.7939 199.807 36.4852C199.617 37.1764 199.309 38.3835 199.119 39.1715C198.933 39.9594 198.603 41.6536 198.388 42.9323C198.177 44.2109 197.897 48.3156 197.768 52.0513C197.539 58.8172 197.536 58.8495 196.644 59.3581C196.139 59.6482 195.358 59.7771 194.853 59.6589C194.026 59.4619 193.922 59.1969 193.481 56.113C193.22 54.2828 192.869 51.9761 192.704 50.9912C192.539 50.0062 192.228 47.2662 192.013 44.9022C191.794 42.5383 191.386 37.0582 191.096 32.7243C190.809 28.3905 190.53 23.9849 190.476 22.9319Z" fill="black"/>
<path d="M246.247 23.7342C247.984 21.9756 249.256 21.0157 250.37 20.6289C251.258 20.3172 252.547 20.0522 253.235 20.0379C253.926 20.0235 255.133 20.1883 255.921 20.3996C256.709 20.6109 257.977 21.2163 258.744 21.7392C259.517 22.2764 260.485 23.4047 260.936 24.3073C261.376 25.1956 262.043 26.8861 262.408 28.0681C263.002 29.9772 263.071 31.3203 263.006 40.0669C262.949 47.6422 263.053 50.4969 263.465 52.4238C263.755 53.8028 264.235 55.2928 264.525 55.7369C264.815 56.1811 265.492 56.8258 266.022 57.1696C266.67 57.5923 267.551 57.7678 268.708 57.7069C269.654 57.6567 270.589 57.6997 270.786 57.7964C271.024 57.9158 271.024 58.2143 270.786 58.6919C270.589 59.0859 269.904 59.573 269.263 59.7736C268.622 59.9741 267.333 60.1353 266.398 60.1317C264.969 60.1246 264.507 59.9383 263.497 58.9605C262.705 58.194 262.107 57.1231 261.745 55.8265C261.444 54.7448 260.997 52.5671 260.75 50.9912C260.502 49.4152 260.202 48.0147 260.08 47.8822C259.962 47.7461 259.614 47.8285 259.313 48.0613C259.012 48.2941 257.974 49.7734 257.003 51.3493C256.029 52.9253 254.424 55.0743 253.429 56.1238C252.436 57.1732 250.9 58.4877 250.012 59.05C249.105 59.6195 247.379 60.2571 246.072 60.5006C244.313 60.8302 243.414 60.8373 242.4 60.5293C241.58 60.2822 240.642 59.6016 239.993 58.7814C239.406 58.0436 238.643 56.55 238.296 55.4683C237.798 53.921 237.673 52.3844 237.705 48.3049C237.737 44.562 237.963 42.087 238.507 39.4401C238.926 37.42 239.603 34.9235 240.011 33.8884C240.423 32.8533 241.426 30.7186 242.246 29.1426C243.249 27.2085 244.549 25.4499 246.247 23.7342Z" fill="black"/>
<path d="M162.617 23.6339C163.9 22.7277 165.751 21.7141 166.736 21.381C167.721 21.0479 168.971 20.765 169.512 20.7506C170.053 20.7363 171.264 20.9046 172.199 21.1231C173.133 21.3416 174.745 21.9039 175.78 22.3767C176.901 22.8853 178.058 23.7664 178.646 24.5508C179.505 25.697 179.631 26.1913 179.631 28.4012C179.631 30.0381 179.383 31.5674 178.939 32.7243C178.56 33.7093 177.779 35.1599 177.202 35.9479C176.626 36.7359 175.487 37.9608 174.67 38.67C173.853 39.3756 172.499 40.3857 171.661 40.9086C170.823 41.4315 168.932 42.2625 167.453 42.7532C165.207 43.5018 164.107 43.645 160.737 43.6343C157.406 43.62 156.614 43.7202 156.17 44.2181C155.751 44.6837 155.683 45.3428 155.862 47.1874C155.988 48.4911 156.414 50.2032 156.804 50.9912C157.195 51.7791 158.18 53.0292 158.993 53.767C159.806 54.5048 160.83 55.3 161.274 55.5328C161.718 55.7656 162.886 56.1488 163.871 56.3888C165.078 56.6789 166.539 56.7255 168.348 56.5321C169.949 56.3637 171.905 55.8587 173.184 55.2856C174.394 54.7448 176.196 53.4984 177.302 52.4382C178.388 51.3995 179.634 50.3679 180.078 50.1459C180.522 49.9202 181.289 49.7376 181.78 49.7376C182.274 49.7376 182.775 49.9381 182.897 50.1853C183.019 50.4324 182.492 51.5141 181.733 52.5922C180.759 53.9712 179.598 55.0099 177.84 56.088C176.461 56.9297 174.527 57.8537 173.542 58.1439C172.557 58.434 171.106 58.8351 170.318 59.0357C169.53 59.2399 167.152 59.4046 165.035 59.4046C161.589 59.4082 160.948 59.3043 158.946 58.4053C157.678 57.8394 155.912 56.636 154.874 55.6295C153.577 54.3759 152.803 53.2297 152.234 51.7075C151.625 50.0957 151.425 48.7991 151.425 46.514C151.421 44.8377 151.614 42.4201 151.847 41.1414C152.08 39.8627 152.606 37.8462 153.015 36.6642C153.423 35.4823 154 34.0317 154.297 33.4407C154.598 32.8497 155.497 31.3991 156.299 30.2171C157.102 29.0352 158.327 27.4413 159.025 26.6748C159.72 25.9119 161.339 24.5437 162.617 23.6339Z" fill="black"/>
<path d="M223.865 28.874C224.076 26.1841 224.445 23.8667 224.768 23.2328C225.172 22.4376 225.566 22.1583 226.29 22.1511C226.827 22.1475 227.429 22.3015 227.626 22.4914C227.855 22.717 227.959 28.6197 227.909 39.064C227.869 47.9897 227.748 55.8122 227.64 56.4533C227.533 57.0944 227.085 57.9111 226.641 58.2728C226.175 58.6489 225.455 58.8674 224.044 58.6453L223.775 51.4138C223.629 47.4381 223.507 41.7682 223.507 38.8133C223.503 35.8584 223.664 31.3848 223.865 28.874Z" fill="black"/>
<path fill-rule="evenodd" clip-rule="evenodd" d="M350.708 134.266C350.687 134.592 350.139 134.907 349.322 135.069C348.581 135.215 347.41 135.337 346.718 135.344C346.031 135.352 344.337 135.907 342.958 136.576C341.579 137.246 339.888 138.367 339.197 139.062L337.943 140.327C338.914 142.293 339.358 142.862 339.555 142.862C339.77 142.862 339.892 144.048 339.856 145.817C339.806 148.185 339.942 149.059 340.536 150.205C340.945 150.993 341.69 152.039 342.195 152.533L343.112 153.428C339.913 156.48 338.685 158.013 338.319 158.801C337.958 159.589 337.578 161.201 337.481 162.383C337.367 163.815 337.5 165.129 337.882 166.323C338.305 167.634 338.867 168.443 339.992 169.346C340.834 170.023 342.252 170.811 343.137 171.097C344.233 171.452 345.726 171.57 347.793 171.466C349.931 171.359 351.264 171.094 352.27 170.571C353.058 170.166 354.226 169.568 354.867 169.242C355.508 168.916 356.425 168.128 356.905 167.487C357.385 166.846 358.03 165.717 358.338 164.98C358.66 164.202 358.893 162.616 358.889 161.219C358.886 159.682 358.649 158.278 358.241 157.368C357.886 156.58 356.84 155.291 355.916 154.503C354.989 153.715 354.233 152.87 354.236 152.623C354.24 152.375 354.57 151.974 354.971 151.727C355.372 151.48 356.3 150.427 357.03 149.388C357.843 148.231 358.638 147.486 359.075 147.465C359.53 147.447 359.595 147.383 359.255 147.289C358.832 147.175 358.717 146.484 358.706 144.016C358.699 141.824 358.52 140.57 358.112 139.818C357.79 139.227 357.07 138.328 356.511 137.823C355.952 137.318 355.093 136.659 354.598 136.354C354.108 136.054 353.098 135.624 352.36 135.394C351.6 135.162 350.959 134.71 350.88 134.356C350.787 133.931 350.73 133.901 350.708 134.266ZM512.13 144.922C512.065 145.069 511.37 145.484 510.582 145.846C509.447 146.362 507.885 146.541 503.061 146.698C499.39 146.82 496.789 147.057 496.51 147.3C496.177 147.587 496.048 148.908 496.059 151.996C496.069 154.36 495.908 157.744 495.704 159.517C495.414 162.057 495.432 162.838 495.797 163.203C496.094 163.507 497.194 163.661 498.942 163.647C500.89 163.633 502.319 163.866 504.135 164.489C505.84 165.076 507.101 165.8 508.075 166.745C508.953 167.601 509.694 168.762 509.988 169.74C510.339 170.918 510.368 171.713 510.103 172.77C509.891 173.612 509.247 174.657 508.548 175.306C507.864 175.94 506.754 176.52 505.926 176.674C505.138 176.821 503.688 176.814 502.703 176.663C501.607 176.491 500.428 175.997 499.658 175.388C498.971 174.84 497.971 174.031 497.441 173.583C496.506 172.795 496.445 172.791 495.561 173.397C495.056 173.74 494.472 174.468 494.261 175.008C494.049 175.549 493.967 176.677 494.081 177.516C494.21 178.472 494.669 179.468 495.317 180.202C495.922 180.886 497.14 181.645 498.272 182.046C499.744 182.569 500.783 182.684 502.703 182.537C504.082 182.433 505.937 182.032 506.822 181.649C507.71 181.262 509.347 180.073 510.461 179.006C511.739 177.781 512.85 176.28 513.48 174.919C514.307 173.124 514.476 172.268 514.497 169.725C514.515 167.272 514.361 166.333 513.699 164.89C513.244 163.905 512.359 162.562 511.729 161.903C511.098 161.247 509.859 160.291 508.971 159.775C508.061 159.249 506.188 158.64 504.673 158.382C503.197 158.128 501.503 157.916 500.912 157.916L499.837 157.913C500.221 154.439 500.461 153.124 500.622 152.752C500.872 152.171 501.163 152.107 502.703 152.3C503.688 152.422 505.944 152.354 507.717 152.15C509.49 151.946 511.456 151.613 512.087 151.412C512.714 151.211 513.48 150.696 513.788 150.266C514.11 149.822 514.347 148.765 514.347 147.787C514.347 146.852 514.182 145.764 513.985 145.37C513.788 144.976 513.315 144.653 512.936 144.653C512.556 144.653 512.191 144.775 512.13 144.922ZM289.948 146.799C288.963 146.935 287.835 147.186 287.441 147.354C287.047 147.526 285.736 148.64 284.525 149.832C283.164 151.168 281.932 152.816 281.302 154.145C280.36 156.122 280.277 156.623 280.277 160.413C280.277 164.156 280.363 164.697 281.212 166.323C281.746 167.351 282.817 168.615 283.719 169.292C284.583 169.937 286.098 170.707 287.083 170.997C288.068 171.287 289.841 171.523 291.023 171.523C292.205 171.523 293.978 171.28 294.963 170.979C295.947 170.682 297.52 169.876 298.455 169.185C299.39 168.497 300.618 167.25 301.18 166.412C301.743 165.574 302.502 164.002 302.871 162.92C303.344 161.538 303.537 159.99 303.519 157.727C303.501 155.216 303.322 154.109 302.706 152.712C302.269 151.727 301.238 150.223 300.407 149.374C299.579 148.522 298.419 147.619 297.828 147.372C297.237 147.121 295.625 146.835 294.246 146.734C292.867 146.634 290.933 146.663 289.948 146.799ZM318.781 146.842C317.699 147.021 316.528 147.207 316.184 147.254C315.84 147.3 315.557 147.501 315.554 147.698C315.55 147.895 314.838 148.779 313.967 149.668C313.093 150.556 311.936 152.168 311.388 153.249C310.572 154.876 310.371 155.814 310.239 158.622C310.113 161.333 310.217 162.422 310.761 163.984C311.166 165.162 312.012 166.538 312.871 167.422C314.078 168.665 314.673 168.973 316.632 169.367C317.914 169.621 319.687 169.74 320.572 169.625C321.46 169.514 322.99 169.159 323.974 168.837C324.959 168.518 325.805 168.346 325.855 168.454C325.905 168.561 325.558 169.335 325.081 170.173C324.605 171.011 323.598 172.319 322.843 173.078C322.087 173.837 320.5 174.926 319.318 175.496C317.603 176.323 316.682 176.531 314.752 176.531C312.638 176.531 312.269 176.631 311.807 177.337C311.517 177.781 311.173 178.866 311.044 179.754C310.865 180.986 310.948 181.513 311.392 181.993C311.718 182.34 312.495 182.62 313.14 182.62C313.781 182.62 315.432 182.29 316.811 181.885C318.477 181.395 320.131 180.553 321.736 179.375C323.158 178.336 324.888 176.609 325.937 175.187C326.919 173.859 328.23 171.724 328.849 170.442C329.469 169.159 330.192 167.308 330.454 166.323C330.715 165.338 331.03 163.404 331.156 162.025C331.281 160.646 331.206 158.228 330.987 156.652C330.769 155.076 330.196 152.981 329.716 151.996C329.236 151.011 328.068 149.435 327.123 148.493C325.83 147.2 325.146 146.781 324.333 146.788C323.742 146.792 322.696 146.731 322.005 146.655C321.317 146.577 319.866 146.663 318.781 146.842ZM379.849 146.967C379.061 147.239 378.177 147.379 377.879 147.279C377.403 147.114 377.403 147.132 377.879 147.436C378.32 147.716 378.123 148.031 376.805 149.155C375.92 149.911 373.818 151.91 372.138 153.593C370.458 155.273 368.366 157.619 367.489 158.801C366.615 159.983 365.207 162.161 364.366 163.636C363.219 165.642 362.833 166.706 362.836 167.845C362.836 168.941 363.08 169.643 363.699 170.352C364.559 171.33 364.598 171.337 369.699 171.434C372.525 171.488 375.197 171.606 375.641 171.702C376.44 171.874 376.447 171.91 376.2 176.262L375.956 180.65C377.675 182.408 378.205 182.616 379.402 182.609C380.243 182.602 381.407 182.301 381.998 181.932C382.589 181.567 383.274 180.768 383.521 180.152C383.943 179.102 383.893 178.952 382.715 177.605C381.87 176.642 381.393 175.675 381.246 174.65C381.128 173.812 381.092 172.806 381.16 172.412C381.264 171.846 381.658 171.652 383.052 171.495C384.499 171.326 384.993 171.072 385.824 170.062C386.379 169.385 386.913 168.386 387.013 167.845C387.113 167.304 386.991 166.609 386.744 166.308C386.433 165.922 385.677 165.757 384.237 165.771C382.335 165.785 382.178 165.725 382.178 164.98C382.178 164.535 382.5 161.838 382.894 158.98C383.291 156.122 383.614 152.297 383.614 150.474C383.61 147.519 383.535 147.121 382.894 146.802C382.5 146.605 381.977 146.451 381.73 146.458C381.483 146.469 380.637 146.698 379.849 146.967ZM402.593 146.878C401.315 147.067 399.703 147.232 399.012 147.243C398.324 147.254 398.041 147.322 398.385 147.39C398.729 147.461 399.012 147.68 399.012 147.877C399.012 148.074 398.431 148.679 397.719 149.22C397.006 149.761 395.831 151.093 395.104 152.175C394.38 153.257 393.492 155.191 393.13 156.473C392.629 158.257 392.525 159.471 392.69 161.666C392.837 163.661 393.177 165.105 393.807 166.412C394.502 167.852 395.154 168.572 396.594 169.478C397.629 170.13 399.119 170.854 399.907 171.086C400.695 171.316 402.307 171.505 403.489 171.509C404.671 171.509 406.283 171.334 407.071 171.119C407.859 170.9 409.392 170.184 410.473 169.525C411.784 168.726 412.859 167.691 413.682 166.43C414.363 165.384 415.223 163.565 415.591 162.383C416.097 160.764 416.229 159.482 416.122 157.189C416.025 155.133 415.738 153.622 415.24 152.533C414.836 151.645 413.725 150.115 412.769 149.13C411.813 148.145 410.946 147.361 410.842 147.386C410.738 147.411 410.33 147.314 409.936 147.168C409.542 147.021 408.253 146.82 407.071 146.72C405.889 146.616 403.876 146.688 402.593 146.878ZM427.397 147.164C425.961 147.623 424.642 148.357 423.722 149.22C422.408 150.448 422.293 150.703 422.379 152.175C422.472 153.772 422.486 153.787 423.726 153.737C424.417 153.711 425.867 153.353 426.949 152.945C428.034 152.533 429.764 152.193 430.799 152.186C432.336 152.178 432.845 152.34 433.575 153.07C434.07 153.565 434.471 154.206 434.471 154.503C434.471 154.8 434.188 155.631 433.844 156.358C433.5 157.082 432.232 158.572 431.029 159.671C429.825 160.767 427.1 162.634 424.968 163.815C422.633 165.112 420.943 166.29 420.71 166.792C420.445 167.354 420.438 167.909 420.681 168.543C420.878 169.056 421.444 169.775 421.935 170.141C422.59 170.632 423.89 170.904 426.77 171.162C429.356 171.391 431.974 171.387 434.381 171.154C436.401 170.961 438.536 170.56 439.127 170.263C439.718 169.965 440.524 169.403 440.918 169.009C441.416 168.511 441.631 167.827 441.624 166.77C441.616 165.932 441.416 164.972 441.176 164.636C440.936 164.299 440.377 164.016 439.933 164.009C439.489 164.002 439.048 164.156 438.948 164.353C438.851 164.55 438.085 165.058 437.247 165.485C436.126 166.054 434.829 166.305 432.322 166.437C429.951 166.563 428.837 166.491 428.65 166.201C428.479 165.932 429.177 165.309 430.62 164.446C431.853 163.712 433.962 162.06 435.305 160.775C436.845 159.306 438.103 157.712 438.701 156.473C439.349 155.123 439.643 153.937 439.632 152.712C439.621 151.573 439.349 150.463 438.88 149.668C438.429 148.898 437.472 148.074 436.398 147.526C435.13 146.881 433.962 146.612 432.143 146.544C430.402 146.476 428.951 146.666 427.397 147.164ZM452.738 146.777C451.656 146.92 450.366 147.207 449.872 147.411C449.381 147.615 448.371 148.45 447.634 149.263C446.595 150.406 446.287 151.047 446.276 152.085C446.265 152.88 446.484 153.611 446.813 153.876C447.265 154.245 447.816 154.131 449.872 153.249C451.419 152.587 452.995 152.175 453.991 152.175C454.879 152.175 456.169 152.415 456.857 152.712C457.548 153.009 458.271 153.572 458.468 153.966C458.665 154.36 458.827 155.248 458.827 155.936C458.827 156.623 458.587 157.673 458.289 158.264C457.996 158.855 456.867 159.904 455.782 160.592C454.7 161.28 453.69 161.842 453.543 161.835C453.397 161.828 452.999 162.111 452.659 162.462C452.301 162.831 452.036 163.665 452.032 164.442C452.025 165.245 452.276 166.05 452.648 166.441C452.992 166.803 454.002 167.222 454.887 167.372C455.775 167.523 457.265 167.995 458.203 168.418C459.435 168.977 460.066 169.532 460.485 170.442C460.868 171.265 460.986 172.125 460.839 172.949C460.714 173.637 460.252 174.586 459.811 175.055C459.367 175.524 458.483 176.126 457.842 176.398C457.2 176.667 455.549 176.889 454.17 176.889C452.791 176.889 451.14 176.677 450.499 176.416C449.858 176.158 448.69 175.356 447.902 174.639C447.114 173.923 446.108 173.329 445.664 173.321C445.22 173.314 444.539 173.669 444.152 174.113C443.762 174.557 443.371 175.324 443.278 175.814C443.189 176.309 443.26 177.354 443.443 178.142C443.626 178.93 444.141 179.94 444.586 180.388C445.033 180.836 446.162 181.52 447.096 181.91C448.031 182.301 449.643 182.72 450.678 182.838C451.925 182.985 453.343 182.86 454.887 182.466C456.169 182.136 457.899 181.473 458.737 180.99C459.575 180.506 460.911 179.428 461.706 178.59C462.501 177.752 463.497 176.344 463.92 175.456C464.393 174.46 464.744 172.884 464.837 171.337C464.941 169.614 464.815 168.382 464.436 167.397C464.131 166.609 463.146 165.28 462.251 164.442C461.352 163.604 460.377 162.92 460.08 162.92C459.786 162.92 459.543 162.68 459.543 162.383C459.543 162.086 459.965 161.563 460.478 161.219C460.993 160.875 461.986 159.704 462.684 158.622C463.626 157.164 463.999 156.14 464.127 154.682C464.221 153.6 464.12 152.146 463.902 151.459C463.687 150.771 463.1 149.721 462.602 149.13C462.1 148.539 461.695 147.974 461.699 147.877C461.699 147.78 461.176 147.508 460.535 147.275C459.89 147.042 458.318 146.777 457.036 146.684C455.757 146.595 453.823 146.634 452.738 146.777ZM477.272 146.852C475.893 147.021 474.403 147.16 473.959 147.16C473.458 147.16 473.221 147.329 473.336 147.608C473.433 147.855 473.032 148.378 472.441 148.772C471.846 149.166 471.123 150.012 470.825 150.653C470.46 151.444 470.385 152.132 470.585 152.802C470.8 153.518 471.144 153.812 471.839 153.876C472.365 153.926 473.479 153.625 474.317 153.206C475.156 152.787 476.646 152.361 477.631 152.261C478.616 152.157 479.866 152.178 480.406 152.304C480.947 152.429 481.635 152.773 481.929 153.07C482.226 153.368 482.466 154.091 482.466 154.682C482.466 155.273 482.247 156.201 481.979 156.742C481.71 157.282 480.46 158.654 479.203 159.79C477.946 160.921 475.625 162.515 474.049 163.328C472.473 164.141 470.661 165.187 470.019 165.653C469.203 166.247 468.852 166.795 468.845 167.487C468.837 168.028 469.16 168.916 469.561 169.457C469.991 170.041 470.84 170.574 471.631 170.764C472.369 170.943 474.425 171.187 476.198 171.308C477.971 171.43 480.994 171.366 482.914 171.165C484.833 170.965 486.85 170.571 487.391 170.291C487.932 170.015 488.738 169.45 489.182 169.038C489.74 168.522 489.988 167.881 489.991 166.95C489.991 166.212 489.751 165.245 489.454 164.8C489.157 164.356 488.673 163.995 488.376 163.995C488.082 163.995 487.008 164.518 485.987 165.159C484.221 166.269 483.977 166.323 480.56 166.323C478.49 166.323 476.936 166.172 476.871 165.965C476.81 165.768 477.756 165.04 478.977 164.353C480.199 163.665 482.348 161.971 483.752 160.592C485.389 158.984 486.585 157.44 487.083 156.294C487.534 155.252 487.856 153.754 487.86 152.712C487.86 151.387 487.627 150.574 486.954 149.578C486.456 148.84 486.051 148.113 486.055 147.966C486.055 147.82 485.532 147.511 484.891 147.282C484.246 147.053 482.835 146.795 481.75 146.706C480.668 146.616 478.651 146.681 477.272 146.852ZM237.569 149.191C237.125 149.281 236.197 149.99 235.509 150.764C234.818 151.541 234.252 152.415 234.252 152.712C234.252 153.009 234.858 153.643 235.595 154.12C236.333 154.6 237.153 155.449 237.415 156C237.726 156.666 237.877 158.357 237.855 160.95C237.838 163.117 237.669 165.857 237.483 167.039C237.297 168.221 236.734 171.606 236.24 174.561C235.746 177.516 235.337 180.861 235.334 181.993C235.327 183.809 235.456 184.181 236.401 185.127C237.214 185.94 237.805 186.201 238.819 186.201C239.557 186.198 240.685 185.875 241.326 185.485C241.967 185.091 242.723 184.246 243.002 183.605C243.504 182.466 243.486 182.408 242.196 181.079L240.878 179.718C240.878 172.501 241.036 170.316 241.237 170.109C241.48 169.861 242.171 170.03 243.386 170.635C244.646 171.265 245.76 171.527 247.146 171.527C248.232 171.527 249.843 171.28 250.728 170.979C251.616 170.678 253.135 169.833 254.109 169.095C255.087 168.354 256.405 166.874 257.053 165.785C257.702 164.704 258.497 162.687 258.826 161.308C259.224 159.646 259.367 157.956 259.253 156.294C259.145 154.729 258.791 153.214 258.307 152.264C257.881 151.426 257.011 150.38 256.369 149.936C255.399 149.263 254.729 149.13 252.311 149.13C249.561 149.13 249.31 149.198 247.386 150.474C246.269 151.211 244.711 152.623 243.923 153.608L242.49 155.398C242.487 153.593 242.322 152.504 242.125 151.817C241.924 151.129 241.563 150.298 241.319 149.976C241.079 149.65 240.316 149.306 239.625 149.206C238.937 149.109 238.009 149.102 237.569 149.191ZM197.493 149.943C197.074 150.284 196.547 150.925 196.329 151.369C196.107 151.813 195.928 152.658 195.928 153.249C195.928 154.12 196.15 154.421 197.092 154.833C197.733 155.112 198.517 155.635 198.836 155.997C199.158 156.355 199.667 157.458 199.968 158.443C200.269 159.428 200.684 161.201 200.885 162.383C201.089 163.565 201.354 165.499 201.472 166.681C201.594 167.863 202.006 169.353 202.393 169.994C202.88 170.807 203.5 171.258 204.434 171.491C205.401 171.731 206.254 171.681 207.479 171.312C208.464 171.015 210.086 170.044 211.329 169.009C212.511 168.024 213.532 167.258 213.596 167.308C213.661 167.358 214.08 168.121 214.531 169.009C214.979 169.897 215.531 170.743 215.756 170.889C215.982 171.036 216.809 171.334 217.597 171.548C218.733 171.86 219.478 171.824 221.179 171.369C222.927 170.904 223.733 170.409 225.491 168.737C226.935 167.365 228.02 165.907 228.761 164.353C229.374 163.07 230.126 161.058 230.434 159.876C230.742 158.694 231.097 156.52 231.222 155.04C231.38 153.196 231.301 151.906 230.971 150.921C230.516 149.56 230.413 149.485 228.88 149.388C227.64 149.313 226.96 149.499 225.925 150.194C225.187 150.692 224.399 151.462 224.173 151.906C223.822 152.594 223.93 152.977 224.886 154.503C225.506 155.488 226.104 156.86 226.218 157.547C226.333 158.235 226.261 159.446 226.057 160.234C225.857 161.022 225.312 162.232 224.85 162.92C224.392 163.608 223.375 164.535 222.597 164.972C221.756 165.449 220.563 165.775 219.657 165.778C218.432 165.785 218.059 165.628 217.74 164.98C217.454 164.396 217.454 163.536 217.737 161.846C217.955 160.563 218.131 158.267 218.134 156.742C218.134 155.062 217.92 153.436 217.583 152.623L217.035 151.279C214.417 151.663 213.256 152.082 212.762 152.458C212.271 152.834 211.827 153.489 211.777 153.912C211.727 154.335 212.088 155.366 212.576 156.204C213.12 157.136 213.464 158.282 213.464 159.159C213.464 159.947 213.145 161.276 212.755 162.114C212.3 163.092 211.501 163.98 210.523 164.603C209.413 165.309 208.521 165.574 207.217 165.588L205.43 165.606C204.714 156.595 204.313 153.894 203.922 152.891C203.578 152.003 202.926 150.835 202.479 150.294C201.791 149.471 201.383 149.309 199.957 149.317C198.89 149.324 197.973 149.557 197.493 149.943Z" fill="#F05A4E"/>
<path d="M32.2428 58.7707C58.5685 58.6847 63.6223 58.5916 63.8265 58.1725C64.0306 57.7534 64.2599 57.7678 65.2592 58.2585C65.9863 58.6131 67.179 58.8101 68.3287 58.7671C69.3638 58.7241 70.596 58.6525 71.0687 58.6023C71.5451 58.5522 71.8675 58.391 71.7851 58.2441C71.7063 58.0973 71.7242 57.9755 71.8209 57.9755C71.9176 57.9755 72.6447 58.3767 74.8654 59.7664L74.9549 66.303C75.0051 69.8991 74.9907 72.9221 74.9263 73.0188C74.8582 73.1155 73.2464 73.1692 71.3445 73.137C68.4254 73.0832 67.401 72.8934 64.8365 71.9371C63.1603 71.3103 61.2297 70.6692 60.5385 70.5116C59.8472 70.354 58.7619 70.3683 58.1208 70.5474C57.4797 70.7229 56.8744 71.1133 56.7776 71.407C56.6666 71.7365 57.1179 72.3418 57.9417 72.9722C58.6795 73.5345 59.9296 74.3261 60.7175 74.7237C61.5055 75.1248 63.1173 75.7337 64.2993 76.0811C65.7678 76.511 67.7843 76.7223 74.8654 76.7796V146.086L74.0595 146.627C73.3539 147.1 68.7191 147.168 37.0781 147.168C8.35985 147.171 0.809573 147.078 0.447818 146.72C0.0860635 146.358 -0.00347965 137.415 0.000102079 102.837C0.00726553 68.4807 0.10039 59.3509 0.454981 59.1396C0.702121 58.9927 15.004 58.8244 32.2428 58.7707Z" fill="#B2C306"/>
<path d="M93.9381 59.0464C96.6602 59.05 97.8565 58.9175 98.0177 58.6023C98.1824 58.2835 98.4116 58.3731 98.8235 58.9211C99.1423 59.3437 99.9625 59.967 100.654 60.3072C101.596 60.7728 102.352 60.8695 103.698 60.6905C104.683 60.5615 106.051 60.2786 106.743 60.0637C107.434 59.8488 108.222 59.4942 108.498 59.2721C108.838 58.9999 110.855 58.9139 114.766 59.0106C118.81 59.1073 120.611 59.025 120.801 58.742C120.987 58.459 121.406 58.6131 122.144 59.2291C123.011 59.9526 123.616 60.1281 125.278 60.1353C126.919 60.1425 127.628 59.9526 128.77 59.1969C129.608 58.6417 130.239 58.4125 130.293 58.6489C130.354 58.9175 131.843 59.05 134.859 59.05C137.968 59.05 139.365 58.9247 139.426 58.6345C139.49 58.3373 140.024 58.3874 141.306 58.8172C142.291 59.1467 143.703 59.4154 144.44 59.4118C145.178 59.4118 146.307 59.1432 146.948 58.8208C147.743 58.4196 148.14 58.3623 148.201 58.6417C148.262 58.9211 149.806 59.05 153.126 59.05C156.11 59.05 157.961 58.9139 157.961 58.6919C157.961 58.4913 158.391 58.4232 158.946 58.5414C159.487 58.656 160.214 58.896 160.558 59.0787C160.902 59.2614 161.468 59.4082 161.812 59.4082C162.406 59.4082 162.435 61.6933 162.36 103.016C162.285 144.338 162.245 146.648 161.643 147.078C161.138 147.436 153.47 147.529 124.83 147.519C102.674 147.512 88.4473 147.375 88.1178 147.168C87.6486 146.87 87.5554 141.713 87.3656 105.716C87.251 83.1013 87.1185 64.4405 87.0755 64.2435C87.0325 64.0465 87.208 62.8896 87.4695 61.6719C87.8993 59.6374 88.0282 59.4404 89.0132 59.2506C89.6042 59.136 91.8213 59.0429 93.9381 59.0464Z" fill="#B2C306"/>
<path d="M184.617 59.1396C191.092 59.0715 193.062 58.9462 193.055 58.6023C193.052 58.3552 193.374 58.5164 193.772 58.9605C194.169 59.4046 194.857 59.7735 195.301 59.7771C195.745 59.7843 196.551 59.4619 197.092 59.0608C197.658 58.6417 198.152 58.4841 198.256 58.6919C198.37 58.9211 202.912 59.05 210.792 59.05C218.672 59.05 223.213 58.9211 223.328 58.6919C223.443 58.4662 223.869 58.4519 224.492 58.6525C225.069 58.8387 225.738 58.8387 226.104 58.6525C226.491 58.4555 226.799 58.4698 226.91 58.6919C227.021 58.9139 229.492 59.0214 233.446 58.9784C239.528 58.9068 239.85 58.939 240.878 59.7055C241.469 60.1496 242.436 60.5973 243.027 60.7084C243.618 60.8194 245.069 60.7155 246.251 60.4827C247.433 60.2499 248.762 59.8308 249.206 59.5551C249.987 59.0644 250.019 59.0966 250.205 60.5723C250.313 61.4104 250.356 81.0848 250.295 104.298C250.191 146.032 250.184 146.509 249.475 147.017C248.862 147.454 243.45 147.529 212.493 147.526C180.741 147.519 176.16 147.451 175.691 146.981C175.218 146.509 175.154 141.197 175.147 103.553C175.143 66.8582 175.215 60.5579 175.655 59.9455C176.142 59.2685 176.633 59.2255 184.617 59.1396Z" fill="#B2C306"/>
<path d="M269.532 59.5873C270.22 59.29 270.804 58.8781 270.822 58.6704C270.843 58.4555 271.04 58.4196 271.269 58.5808C271.495 58.742 286.474 58.9533 304.558 59.05C333.258 59.2076 337.474 59.2972 337.771 59.7664C337.979 60.0959 338.119 76.862 338.133 103.284C338.151 143.253 338.112 146.304 337.546 146.802C337.087 147.211 335.644 147.383 331.607 147.519C327.463 147.658 326.177 147.594 325.841 147.225C325.536 146.892 324.279 146.745 321.646 146.724C319.573 146.709 317.563 146.874 317.169 147.085C316.689 147.346 313.287 147.441 306.961 147.372C301.739 147.315 296.341 147.096 294.963 146.885C293.19 146.616 291.775 146.616 290.127 146.885C288.845 147.096 282.398 147.329 275.8 147.4C264.629 147.526 263.769 147.494 263.347 146.899C262.988 146.398 262.892 137.329 262.892 102.926C262.888 79.0898 263.01 59.4727 263.164 59.3294C263.318 59.1897 263.766 59.3115 264.16 59.6016C264.557 59.8953 265.635 60.1281 266.577 60.1281C267.512 60.1245 268.845 59.881 269.532 59.5873Z" fill="#B2C306"/>
<path d="M438.858 59.4977C439.106 59.3509 454.296 59.1467 472.616 59.0464C490.937 58.9462 507.216 58.8208 508.792 58.7742C510.869 58.7098 511.879 58.8351 513.269 59.7664V102.21C513.269 139.7 513.204 144.653 512.732 144.653C512.438 144.653 512.155 144.775 512.105 144.922C512.055 145.069 511.37 145.484 510.583 145.842C509.451 146.358 507.911 146.534 503.24 146.677C499.991 146.777 497.008 147.014 496.614 147.203C496.205 147.4 493.519 147.486 490.346 147.404C487.291 147.322 483.909 147.089 482.824 146.885C481.492 146.634 479.869 146.63 477.81 146.87C476.137 147.064 471.542 147.239 467.602 147.257C463.451 147.275 459.496 147.11 458.2 146.867C456.534 146.552 455.252 146.544 453.185 146.835C451.66 147.049 447.992 147.307 445.037 147.408C440.438 147.565 439.575 147.508 439.038 147.017C438.447 146.476 438.411 143.923 438.411 103.105C438.411 68.8174 438.504 59.7091 438.858 59.4977Z" fill="#B2C306"/>
<path d="M350.637 96.7728C350.608 63.1475 350.655 60.1281 351.199 59.6088C351.736 59.0966 355.379 59.05 388.241 59.136C420.04 59.2184 424.768 59.2972 425.298 59.7664C425.864 60.2678 425.907 63.3051 425.875 146.802L424.711 147.161C424.069 147.354 420.728 147.529 417.279 147.544C413.199 147.565 410.634 147.426 409.936 147.146C409.345 146.913 407.25 146.724 405.28 146.731C403.31 146.738 401.297 146.895 400.803 147.085C400.312 147.272 396.361 147.454 392.027 147.486C385.208 147.54 384.004 147.469 383.073 146.942C382.084 146.383 381.855 146.38 380.208 146.892C378.814 147.325 376.422 147.461 369.462 147.508C364.538 147.54 360.107 147.469 359.613 147.347C358.746 147.135 358.717 147.035 358.707 144.009C358.699 141.824 358.52 140.57 358.112 139.818C357.79 139.227 357.07 138.328 356.511 137.823C355.952 137.318 355.093 136.659 354.598 136.354C354.108 136.054 353.141 135.627 352.449 135.409C351.665 135.158 351.095 134.703 350.931 134.191C350.787 133.74 350.655 116.902 350.637 96.7728Z" fill="#B2C306"/>
<path d="M81.6634 48.484C82.1075 47.499 82.6447 46.4639 82.8561 46.1881C83.1569 45.7977 83.3181 46.1702 83.5581 47.7999C83.73 48.9639 83.7766 52.1732 83.6584 54.9311C83.5438 57.689 83.1498 61.3173 82.7809 62.99C82.4155 64.6662 81.7135 66.8403 81.2228 67.8253C80.7357 68.8103 79.7901 70.1642 79.1203 70.8375C78.4541 71.5109 77.4262 72.2631 76.8352 72.5102C76.015 72.8505 75.6496 72.8576 75.2986 72.5389C74.9512 72.2273 74.8366 70.5653 74.8652 59.7664L72.5371 58.4161L73.7907 57.4885C74.482 56.9798 75.2055 56.5608 75.4025 56.5572C75.5995 56.5536 76.4233 55.8659 77.2328 55.0242C78.0422 54.1861 79.1884 52.7749 79.7829 51.8866C80.3739 51.0019 81.2228 49.469 81.6634 48.484Z" fill="#FCFDFC"/>
<path d="M111.961 56.901C112.867 56.0164 114.658 53.7133 115.937 51.7899C117.216 49.863 118.444 48.3694 118.67 48.4661C118.895 48.5628 119.125 49.648 119.182 50.8909C119.239 52.1266 119.544 54.0285 119.855 55.1102C120.167 56.1954 120.486 57.5243 120.711 59.0501H115.518C112.66 59.0501 110.321 58.9283 110.321 58.7815C110.317 58.6346 111.055 57.7893 111.961 56.901Z" fill="#FCFDFC"/>
<path d="M222.522 9.72971C224.542 8.40805 227.321 6.63868 228.7 5.79339C230.527 4.67589 231.598 4.25683 232.64 4.24967C233.428 4.2425 234.395 4.48248 234.789 4.78335C235.495 5.31702 235.488 5.34209 234.431 6.21604C233.84 6.70315 231.462 8.27553 229.144 9.70464C226.827 11.1373 224.932 12.4303 224.936 12.5772C224.936 12.724 223.851 13.6123 222.522 14.5471C220.344 16.0801 219.925 16.2413 218.313 16.1768C217.206 16.1303 216.318 15.8831 215.985 15.5285C215.502 15.0092 215.559 14.8695 216.519 14.1675C217.11 13.7377 217.873 13.1001 218.22 12.7563C218.567 12.4124 220.502 11.0478 222.522 9.72971Z" fill="black"/>
<path d="M350.877 144.686C350.899 143.783 350.938 142.68 350.967 142.236C350.995 141.792 351.217 141.426 351.465 141.419C351.712 141.416 352.263 141.777 352.693 142.225C353.119 142.676 353.581 143.525 353.717 144.116C353.854 144.707 353.868 145.714 353.746 146.355C353.574 147.25 353.338 147.522 352.718 147.533C352.274 147.544 351.672 147.275 351.375 146.942C351.049 146.57 350.852 145.689 350.877 144.686Z" fill="#B2C306"/>
<path d="M67.6738 26.922C68.3794 25.8976 69.5184 24.7228 70.2097 24.3145C71.1373 23.7593 71.9289 23.5945 73.2541 23.6805C74.2391 23.7414 75.2886 23.9814 75.5823 24.2106C75.876 24.4398 76.7642 25.1812 77.5522 25.851C78.3402 26.5244 79.5042 28.0216 80.1382 29.182C81.1411 31.0195 81.2915 31.6391 81.3023 33.978C81.3059 35.4572 81.073 37.7925 80.7793 39.1715C80.4856 40.5504 80.0236 42.4022 79.755 43.2905C79.4827 44.1787 78.6804 46.1129 77.9677 47.5885C77.2191 49.1466 75.8795 51.113 74.7835 52.2699C73.7448 53.3694 72.4124 54.5228 71.8214 54.8344C71.2304 55.1424 70.1846 55.5042 69.4933 55.6367C68.802 55.7692 67.7956 55.7011 67.2547 55.4934C66.7139 55.2821 65.9438 54.5872 65.5498 53.9461C65.1523 53.305 64.5219 51.7362 64.153 50.4539C63.7805 49.1752 63.3829 47.4811 63.2683 46.6931C63.1501 45.9051 63.2217 43.4875 63.4259 41.3205C63.6264 39.1536 64.1243 36.0912 64.529 34.5152C64.9338 32.9393 65.5176 31.0051 65.8256 30.2172C66.1372 29.4292 66.9682 27.9463 67.6738 26.922Z" fill="#FCFDFC"/>
<path d="M163.961 26.202C164.799 25.3568 166.007 24.4219 166.648 24.1211C167.396 23.7736 168.453 23.6339 169.603 23.7378C170.605 23.8238 171.787 24.1963 172.289 24.5795C172.78 24.9592 173.553 25.8188 174.001 26.4886C174.538 27.2909 174.814 28.2293 174.807 29.2322C174.8 30.0703 174.442 31.6821 174.008 32.8139C173.471 34.2108 172.518 35.6077 171.053 37.155C169.86 38.4121 168.242 39.7625 167.454 40.1565C166.666 40.554 165.133 40.9588 164.051 41.0555C162.969 41.1558 160.992 41.1343 159.663 41.0089C157.464 40.8047 157.246 40.7116 157.242 39.9774C157.242 39.5332 157.579 38.2044 157.994 37.0224C158.406 35.8405 159.574 33.2688 160.591 31.306C161.612 29.3396 163.123 27.0509 163.961 26.202Z" fill="#FCFDFC"/>
<path d="M107.281 25.8654C108.069 25.0416 109.118 24.2966 109.609 24.207C110.103 24.1211 111.066 24.1246 111.758 24.2178C112.449 24.3073 113.574 24.8302 114.265 25.3747C114.956 25.9155 115.912 27.1476 116.392 28.1111C117.051 29.4292 117.302 30.6111 117.417 32.9035C117.521 34.9271 117.363 36.9687 116.951 38.9924C116.615 40.6686 115.941 43.0863 115.458 44.365C114.974 45.6472 114.025 47.8213 113.341 49.2003C112.66 50.5793 111.417 52.5958 110.576 53.6775C109.684 54.8272 108.384 55.9913 107.449 56.4748C106.364 57.0336 105.504 57.2377 104.773 57.1016C104.182 56.9942 103.262 56.4605 102.732 55.9196C102.198 55.3752 101.51 54.2076 101.202 53.3193C100.869 52.363 100.644 50.5435 100.647 48.8421C100.654 47.2662 100.984 44.0426 101.381 41.6787C101.779 39.3147 102.438 36.1736 102.85 34.6943C103.258 33.2186 104.1 30.9622 104.72 29.6871C105.339 28.4084 106.493 26.6927 107.281 25.8654Z" fill="#FCFDFC"/>
<path d="M248.465 25.9585C249.02 25.389 249.959 24.712 250.55 24.4506C251.173 24.1784 252.154 24.0673 252.878 24.1891C253.565 24.3037 254.583 24.6619 255.131 24.9807C255.682 25.2994 256.517 26.1268 256.982 26.8145C257.452 27.5058 258.089 28.9564 258.404 30.0381C258.716 31.1198 258.974 32.7315 258.974 33.6198C258.974 34.5081 258.734 36.521 258.44 38.097C258.146 39.6729 257.52 42.0906 257.054 43.4695C256.585 44.8485 255.453 47.4668 254.54 49.2899C253.605 51.1559 252.133 53.3945 251.176 54.4117C250.242 55.4074 248.83 56.4748 248.042 56.7828C246.71 57.3058 246.513 57.2986 245.199 56.6754C244.317 56.2563 243.551 55.5364 243.15 54.752C242.799 54.0643 242.344 52.6101 242.136 51.5284C241.875 50.1459 241.885 48.3873 242.161 45.6186C242.38 43.4516 242.867 40.2281 243.243 38.4551C243.623 36.6822 244.274 34.1857 244.697 32.9035C245.12 31.6248 245.911 29.7694 246.459 28.7845C247.004 27.7995 247.906 26.528 248.465 25.9585Z" fill="#FCFDFC"/>
<path d="M14.9973 74.9314C15.2301 74.5052 15.617 74.0754 15.8605 73.9751C16.1041 73.8748 25.3306 73.7781 36.3623 73.7638C48.6083 73.7495 56.9429 73.8784 57.7632 74.0969C58.501 74.2903 59.2532 74.7344 59.4287 75.0783C59.6077 75.4221 60.1056 76.6722 60.5318 77.8541C60.9616 79.0361 62.2725 82.8256 63.4474 86.2712C64.6222 89.7204 65.5355 92.8616 65.4782 93.2556C65.4101 93.7212 64.6795 94.3122 63.4044 94.939C62.3227 95.4726 60.7109 96.0099 59.8227 96.1317C58.4401 96.3215 58.0963 96.2356 57.3942 95.5228C56.9465 95.0643 56.1191 93.8 55.5532 92.7183C54.9873 91.6366 53.7265 89.8601 52.7487 88.7784C51.6635 87.5785 50.1806 86.4252 48.9485 85.8235C47.3869 85.0606 46.7064 84.9066 44.9585 85.4366V103.789C44.9585 121.737 44.9728 122.157 45.6748 122.651C46.0688 122.93 47.2794 123.274 48.3611 123.414C49.4428 123.553 50.5316 123.876 50.7788 124.134C51.0259 124.388 51.2408 125.04 51.2587 125.581C51.2766 126.121 51.2766 127.611 51.2552 128.894C51.2372 130.176 51.051 131.383 50.8468 131.58C50.614 131.806 45.639 131.938 37.4333 131.938C25.3736 131.938 24.3421 131.888 23.7511 131.297C23.2353 130.781 23.1099 130.054 23.1099 127.597C23.1099 124.943 23.2031 124.474 23.8263 124.044C24.2203 123.772 25.3091 123.464 26.244 123.356C27.3185 123.235 28.2569 122.866 28.7906 122.357C29.3851 121.791 29.7146 120.96 29.8902 119.581C30.0298 118.5 30.0943 110.584 30.0298 101.995C29.9331 88.739 29.8328 86.2891 29.378 85.7733C29.0843 85.4402 28.3572 85.1752 27.7662 85.1895C27.1752 85.2003 26.047 85.5083 25.259 85.8665C24.471 86.2246 22.9416 87.3959 21.8563 88.4632C20.7496 89.552 19.3133 91.5005 18.5791 92.9045C17.8627 94.2799 16.9959 95.6482 16.6592 95.9419C16.1972 96.3466 15.6564 96.4111 14.4744 96.2105C13.6112 96.0636 12.0567 95.5694 11.0216 95.1145C9.7107 94.5378 9.06599 94.022 8.89406 93.4132C8.72572 92.8186 9.05524 91.3895 9.92202 88.9575C10.624 86.9875 11.96 83.2016 12.8913 80.5404C13.8189 77.8792 14.7681 75.3577 14.9973 74.9314Z" fill="#FCFDFC"/>
<path d="M118.294 74.6413C118.738 74.5482 119.501 74.3978 119.996 74.3082C120.486 74.2151 123.148 74.2044 125.906 74.2796C130.168 74.3978 131.006 74.516 131.497 75.0604C131.812 75.415 132.886 77.8004 133.886 80.3613C134.888 82.9223 136.937 88.2411 138.442 92.181C139.946 96.1209 142.041 101.522 143.094 104.18C144.151 106.837 145.605 110.545 146.325 112.418C147.048 114.291 148.119 117.031 148.707 118.507C149.294 119.986 150.046 121.497 150.376 121.87C150.705 122.246 151.823 122.93 152.858 123.392C153.893 123.858 154.921 124.599 155.143 125.043C155.38 125.516 155.491 127.006 155.412 128.654C155.301 130.95 155.147 131.551 154.559 131.981C153.958 132.418 151.812 132.486 141.049 132.4C129.315 132.304 128.205 132.243 127.618 131.655C127.109 131.139 126.98 130.412 126.98 128.002C126.98 126.007 127.138 124.832 127.446 124.524C127.704 124.27 128.911 123.736 130.132 123.342C131.991 122.74 132.371 122.479 132.471 121.73C132.535 121.24 132.134 119.567 131.575 118.012C131.017 116.462 130.401 115.054 130.204 114.886C130.007 114.717 127.184 114.57 123.936 114.56C120.687 114.549 117.18 114.545 116.145 114.553C114.415 114.567 114.208 114.66 113.559 115.731C113.172 116.372 112.513 117.941 112.091 119.223C111.546 120.885 111.428 121.755 111.668 122.268C111.901 122.758 112.646 123.124 114.032 123.432C115.404 123.736 116.231 124.141 116.597 124.685C116.957 125.222 117.137 126.387 117.137 128.177C117.141 129.947 116.966 131.107 116.629 131.58C116.135 132.268 115.705 132.296 105.737 132.296C95.8512 132.296 95.3211 132.261 94.5905 131.58C93.9207 130.953 93.8276 130.477 93.8383 127.73C93.8491 124.879 93.9207 124.549 94.6549 124.083C95.0991 123.801 95.862 123.475 96.3563 123.356C96.847 123.242 97.6529 122.783 98.1471 122.339C98.6378 121.895 99.7231 119.925 100.554 117.959C101.389 115.996 102.965 112.052 104.061 109.194C105.157 106.336 106.21 103.678 106.396 103.284C106.586 102.89 107.377 100.874 108.154 98.8072C108.935 96.7406 110.203 93.4346 110.977 91.4647C111.751 89.4947 113.531 84.9424 114.935 81.3463C117.069 75.877 117.621 74.781 118.294 74.6413Z" fill="#FCFDFC"/>
<path d="M184.463 75.1678C184.653 74.8741 185.498 74.5195 186.34 74.387C187.182 74.2545 195.767 74.1864 205.42 74.2402C220.75 74.3261 223.311 74.4193 225.657 74.9744C227.136 75.3219 229.31 76.0633 230.492 76.622C231.778 77.2273 233.325 78.3663 234.342 79.448C235.277 80.4437 236.473 82.1844 237 83.3163C237.598 84.6057 238.021 86.2461 238.128 87.7039C238.232 89.047 238.11 90.7913 237.842 91.8229C237.587 92.8078 237.018 94.2584 236.57 95.0464C236.126 95.8344 234.897 97.2958 233.844 98.2951C232.788 99.2908 231.481 100.38 230.94 100.713C230.399 101.042 229.955 101.436 229.955 101.583C229.958 101.73 231.044 102.41 232.372 103.095C233.701 103.782 235.528 105.072 236.43 105.96C237.333 106.852 238.422 108.267 238.848 109.105C239.274 109.943 239.873 111.956 240.177 113.582C240.675 116.243 240.675 116.741 240.177 118.596C239.873 119.728 239.271 121.422 238.837 122.357C238.404 123.292 237.075 125.036 235.882 126.236C234.539 127.583 232.831 128.84 231.387 129.546C230.105 130.169 227.77 131.028 226.194 131.455C223.472 132.193 222.426 132.239 205.241 132.382C193.636 132.479 186.705 132.4 185.899 132.167C185.086 131.935 184.553 131.516 184.381 130.978C184.238 130.52 184.116 128.98 184.112 127.551C184.109 125.652 184.259 124.811 184.671 124.417C184.983 124.119 185.466 123.879 185.745 123.879C186.028 123.879 187.146 123.639 188.228 123.342C190.047 122.844 190.226 122.705 190.552 121.462C190.767 120.659 190.91 113.195 190.907 102.926C190.903 89.9962 190.792 85.519 190.463 84.8636C190.115 84.183 189.463 83.8535 187.511 83.37C186.021 83.0047 184.821 82.4853 184.549 82.0949C184.273 81.6937 184.101 80.3148 184.109 78.5705C184.116 76.9945 184.273 75.4651 184.463 75.1678Z" fill="#FCFDFC"/>
<path d="M293.351 75.0389C293.652 74.7058 294.598 74.3834 295.5 74.3082C296.389 74.233 299.129 74.2294 301.589 74.3011C304.659 74.387 306.292 74.584 306.783 74.9243C307.205 75.218 308.223 77.3276 309.254 80.0426C310.221 82.582 311.471 85.6659 312.03 86.898C312.592 88.1301 313.054 89.2584 313.058 89.4052C313.065 89.5521 314.018 92.1739 315.178 95.2255C316.335 98.2771 317.453 101.182 317.653 101.673C317.857 102.167 318.742 104.42 319.62 106.687C320.497 108.954 322.037 112.901 323.04 115.462C324.043 118.023 325.189 120.641 325.583 121.283C326.042 122.024 327.052 122.805 330.422 124.417L330.676 126.745C330.816 128.027 330.856 129.678 330.766 130.416C330.659 131.29 330.351 131.884 329.885 132.117C329.452 132.336 324.33 132.483 316.901 132.49C305.243 132.504 304.591 132.472 303.738 131.802C302.889 131.136 302.846 130.935 302.936 127.937C302.99 126.007 303.201 124.603 303.473 124.334C303.717 124.091 304.806 123.607 305.887 123.26C307.506 122.737 307.879 122.468 307.975 121.73C308.04 121.24 307.739 119.789 307.309 118.507C306.883 117.224 306.306 115.817 306.031 115.373C305.536 114.578 305.422 114.567 297.739 114.553C291.804 114.538 289.848 114.646 289.53 115C289.297 115.255 288.695 116.591 288.194 117.969C287.689 119.348 287.266 120.881 287.255 121.372C287.241 121.866 287.438 122.457 287.696 122.69C287.95 122.923 288.885 123.278 289.77 123.478C290.69 123.686 291.664 124.195 292.044 124.667C292.596 125.351 292.685 125.982 292.581 128.392C292.499 130.301 292.273 131.505 291.919 131.913C291.428 132.483 290.497 132.526 280.958 132.415C272.33 132.318 270.432 132.203 269.92 131.759C269.404 131.308 269.321 130.685 269.533 124.42L270.965 123.79C271.753 123.439 272.792 122.955 273.272 122.712C273.752 122.468 274.515 121.544 274.963 120.656C275.414 119.768 277.255 115.255 279.053 110.627C280.851 105.999 282.61 101.486 282.961 100.598C283.315 99.7098 285.142 95.0393 287.026 90.2111C288.906 85.3829 290.98 80.1321 291.632 78.5347C292.28 76.9408 293.054 75.3684 293.351 75.0389Z" fill="#FCFDFC"/>
<path d="M357.661 76.1779C357.865 75.2359 358.209 74.7595 358.868 74.5052C359.423 74.2939 365.616 74.1399 374.298 74.122C382.278 74.1076 390.577 74.2617 392.744 74.4694C394.911 74.6736 397.812 75.1857 399.191 75.6048C400.57 76.0239 402.583 76.8835 403.668 77.5139C404.754 78.1443 406.161 79.2438 406.803 79.9602C407.444 80.673 408.289 81.9015 408.683 82.6895C409.077 83.4774 409.564 85.3722 409.768 86.898C409.972 88.4238 410.044 90.7233 409.926 92.002C409.811 93.2806 409.496 94.9748 409.224 95.7628C408.944 96.5866 408.063 97.8044 407.161 98.6282C406.294 99.4161 404.428 100.666 403.017 101.404C401.602 102.142 400.445 102.83 400.445 102.926C400.445 103.023 401.598 103.711 403.013 104.448C404.424 105.186 405.946 106.275 406.398 106.866C406.906 107.529 407.426 109.037 407.759 110.806C408.056 112.382 408.479 115.444 408.701 117.611C408.919 119.778 409.328 122.157 409.607 122.894C409.979 123.879 410.377 124.295 411.101 124.452C411.803 124.606 412.261 124.477 412.691 124.005C413.024 123.639 413.59 122.468 413.944 121.404C414.303 120.337 414.833 119.309 415.13 119.119C415.427 118.929 416.273 118.876 417.01 118.997C417.841 119.137 418.49 119.495 418.712 119.939C418.966 120.452 418.898 121.3 418.475 122.894C418.149 124.126 417.526 125.856 417.096 126.745C416.663 127.633 415.682 128.883 414.915 129.528C414.145 130.172 412.634 131.05 411.548 131.476C409.99 132.092 408.794 132.257 405.818 132.275C402.533 132.293 401.81 132.182 400.115 131.401C399.044 130.907 397.597 129.846 396.892 129.033C396.186 128.228 395.294 126.695 394.911 125.631C394.388 124.18 394.163 122.325 393.998 118.149C393.851 114.416 393.604 112.185 393.239 111.343C392.941 110.656 392.225 109.739 391.645 109.312C391.068 108.886 389.868 108.367 388.983 108.159C388.099 107.948 385.839 107.769 383.969 107.754C381.63 107.736 380.423 107.876 380.108 108.195C379.757 108.546 379.678 110.208 379.768 115.104C379.857 119.839 380.025 121.816 380.405 122.543C380.692 123.088 381.329 123.672 381.82 123.844C382.314 124.012 383.521 124.377 386.297 125.165L386.494 127.3C386.602 128.471 386.602 129.818 386.494 130.287C386.383 130.767 385.903 131.286 385.402 131.469C384.904 131.652 378.79 131.748 358.832 131.58L358.134 130.685C357.636 130.047 357.439 129.248 357.45 127.909C357.457 126.734 357.665 125.828 358.001 125.491C358.299 125.194 359.223 124.786 360.061 124.578C360.899 124.37 361.988 124.076 362.479 123.929C362.976 123.779 363.653 123.113 364.008 122.425C364.592 121.286 364.631 119.782 364.545 102.504C364.452 84.4588 364.423 83.7819 363.732 82.8471C363.224 82.1558 362.339 81.683 360.688 81.2174C359.405 80.8592 358.238 80.4366 358.091 80.2825C357.944 80.1285 357.722 79.4408 357.6 78.7496C357.475 78.0619 357.504 76.905 357.661 76.1779Z" fill="#FCFDFC"/>
<path d="M447.391 74.9207C447.598 74.6879 448.121 74.4264 448.551 74.344C448.984 74.2581 458.927 74.1793 470.647 74.1614C482.366 74.147 492.603 74.2473 493.391 74.387C494.555 74.5948 494.942 74.8777 495.45 75.8878C495.794 76.5755 497.105 79.9602 498.362 83.4058C499.619 86.855 500.83 90.2791 501.049 91.017C501.41 92.224 501.367 92.4425 500.644 93.1803C500.2 93.6352 498.631 94.3874 497.152 94.853C494.763 95.6088 494.369 95.6446 493.602 95.1933C493.129 94.9175 492.205 93.7212 491.55 92.5392C490.894 91.3572 489.669 89.6917 488.828 88.8357C487.99 87.9797 486.496 86.8228 485.511 86.2604C484.229 85.5334 482.857 85.1358 480.676 84.86C479.003 84.6522 475.908 84.4803 473.806 84.4803C470.632 84.4803 469.88 84.5878 469.382 85.1071C468.859 85.6516 468.799 86.4754 468.91 91.3895C469.01 95.9132 469.142 97.1167 469.572 97.4068C469.87 97.6074 471.077 97.6933 472.259 97.6002C473.441 97.5071 474.852 97.2134 475.393 96.9555C475.933 96.694 476.535 96.1174 476.736 95.6732C476.933 95.2291 477.09 94.022 477.083 92.9869C477.072 91.5184 477.237 90.9489 477.835 90.3902C478.459 89.8064 479.096 89.6738 481.238 89.6738C483.287 89.6738 484.014 89.8171 484.512 90.315C485.099 90.9024 485.153 91.873 485.153 102.21C485.153 111.723 485.07 113.553 484.616 114.037C484.275 114.395 483.219 114.671 481.75 114.782C480.21 114.9 479.125 114.803 478.541 114.495C477.979 114.198 477.567 113.575 477.398 112.776C477.255 112.088 477.047 110.917 476.936 110.179C476.825 109.441 476.345 108.392 475.873 107.851C475.07 106.938 474.805 106.866 472.276 106.866C470.238 106.866 469.461 107.002 469.207 107.403C469.021 107.701 468.863 110.519 468.856 113.671C468.849 116.823 469.006 119.925 469.207 120.566C469.465 121.379 469.87 121.813 470.557 121.999C471.098 122.146 473.398 122.25 475.661 122.225C478.158 122.2 480.765 121.945 482.287 121.58C483.666 121.247 485.601 120.516 486.585 119.954C487.57 119.395 489.343 117.909 490.525 116.651C491.743 115.355 493.373 113.052 495.905 108.299L497.692 108.32C498.91 108.335 500.164 108.675 501.629 109.395C503.298 110.211 503.803 110.648 503.889 111.343C503.953 111.838 503.52 113.611 502.932 115.283C502.457 116.629 501.485 119.399 500.566 122.019L499.913 123.879C498.842 126.931 497.703 129.954 497.381 130.595C497.058 131.236 496.471 131.92 496.077 132.117C495.615 132.347 486.951 132.443 471.736 132.386C449.611 132.304 448.068 132.257 447.469 131.659C446.932 131.125 446.846 130.506 446.929 127.898C446.989 126.057 447.208 124.592 447.466 124.327C447.706 124.08 448.469 123.79 449.156 123.679C449.844 123.568 451.015 123.328 451.753 123.141C452.831 122.873 453.168 122.576 453.462 121.641C453.687 120.921 453.82 114.069 453.816 103.643C453.813 94.3838 453.659 86.2461 453.476 85.5548C453.243 84.6881 452.831 84.1723 452.133 83.8822C451.581 83.653 450.482 83.3736 449.694 83.259C448.906 83.1443 447.939 82.7217 447.545 82.3205C446.921 81.683 446.839 81.178 446.918 78.4666C446.968 76.751 447.179 75.1535 447.391 74.9207Z" fill="#FCFDFC"/>
<path d="M344.806 141.831C345.2 141.333 346.067 140.867 346.902 140.706C347.69 140.556 348.814 140.513 349.405 140.613C349.996 140.713 350.526 140.817 350.587 140.846C350.645 140.871 350.723 142.114 350.766 143.611C350.814 145.426 351.017 146.535 351.375 146.938C351.673 147.275 352.274 147.544 352.718 147.533C353.163 147.526 353.531 147.641 353.535 147.787C353.542 147.934 353.249 148.461 352.876 148.951C352.507 149.446 351.698 150.047 351.074 150.295C350.064 150.692 349.778 150.649 348.42 149.879C347.582 149.403 346.336 148.425 345.645 147.705C344.602 146.616 344.369 146.082 344.262 144.539C344.165 143.131 344.298 142.479 344.806 141.831Z" fill="#FCFDFC"/>
<path d="M286.636 153.769C287.474 153.07 288.641 152.361 289.232 152.189C289.823 152.021 290.83 151.867 291.471 151.849C292.112 151.831 293.319 151.982 294.157 152.186C294.995 152.386 296.306 153.07 297.076 153.708C297.843 154.342 298.631 155.266 298.821 155.757C299.01 156.251 299.301 157.218 299.462 157.906C299.641 158.665 299.598 159.865 299.354 160.95C299.107 162.05 298.53 163.2 297.854 163.934C297.248 164.589 296.109 165.435 295.321 165.807C294.472 166.212 293.086 166.498 291.919 166.509C290.436 166.52 289.462 166.273 287.979 165.51C286.578 164.786 285.783 164.084 285.224 163.081C284.791 162.304 284.34 160.943 284.221 160.055C284.082 159.016 284.2 157.838 284.558 156.742C284.945 155.56 285.579 154.65 286.636 153.769Z" fill="#FCFDFC"/>
<path d="M399.392 153.547C400.069 153.024 401.19 152.426 401.878 152.218C402.569 152.01 404.098 151.914 405.28 152.007C406.871 152.132 407.802 152.436 408.862 153.178C409.65 153.729 410.656 154.736 411.101 155.416C411.545 156.097 412.003 157.297 412.118 158.085C412.232 158.873 412.15 160.241 411.935 161.129C411.706 162.071 411.061 163.246 410.381 163.959C409.743 164.629 408.575 165.47 407.787 165.832C406.953 166.212 405.531 166.488 404.385 166.488C403.221 166.488 401.827 166.215 400.982 165.821C400.194 165.46 399.116 164.697 398.586 164.131C398.059 163.561 397.454 162.655 397.243 162.114C397.035 161.573 396.867 160.284 396.87 159.249C396.874 158.214 397.168 156.724 397.519 155.936C397.87 155.148 398.715 154.073 399.392 153.547Z" fill="#FCFDFC"/>
<path d="M315.175 154.553C315.572 153.987 316.425 153.214 317.073 152.83C317.965 152.304 318.764 152.161 320.418 152.247C322.087 152.329 322.879 152.569 323.821 153.278C324.498 153.783 325.433 154.994 325.898 155.964C326.364 156.932 326.837 158.615 327.145 161.667L325.558 162.834C324.688 163.475 323.248 164.174 322.363 164.385C321.479 164.6 320.189 164.664 319.498 164.528C318.81 164.392 317.56 163.894 316.722 163.422C315.884 162.949 315.049 162.279 314.87 161.935C314.688 161.591 314.369 160.585 314.165 159.697C313.925 158.669 313.91 157.63 314.118 156.831C314.301 156.144 314.774 155.116 315.175 154.553Z" fill="#FCFDFC"/>
<path d="M370.491 160.796C371.304 159.729 373.17 157.827 374.635 156.577C376.104 155.323 377.554 154.346 377.859 154.403C378.21 154.471 378.46 154.972 378.528 155.76C378.589 156.448 378.389 158.823 378.081 161.04C377.773 163.257 377.522 165.23 377.522 165.427C377.522 165.624 376.999 165.857 376.358 165.947C375.717 166.033 373.904 166.201 372.328 166.319C369.911 166.502 369.33 166.434 368.614 165.889C367.776 165.255 367.772 165.234 368.388 163.995C368.729 163.307 369.678 161.867 370.491 160.796Z" fill="#FCFDFC"/>
<path d="M244.55 158.737C245.091 157.913 246.18 156.749 246.968 156.151C248.196 155.216 248.709 155.058 250.55 155.058C252.054 155.058 252.928 155.241 253.462 155.674C253.884 156.015 254.407 156.656 254.626 157.1C254.848 157.544 255.023 158.751 255.02 159.786C255.012 161.129 254.758 162.104 254.124 163.189C253.522 164.217 252.742 164.94 251.714 165.424C250.876 165.814 249.547 166.133 248.759 166.133C247.971 166.133 246.703 165.932 245.94 165.689C245.177 165.449 244.049 164.829 242.312 163.382L242.938 161.806C243.282 160.943 244.006 159.561 244.55 158.737Z" fill="#FCFDFC"/>
<path d="M342.822 159.607C343.062 158.683 343.75 157.558 344.57 156.742C345.311 156.004 346.017 155.399 346.139 155.399C346.261 155.399 347.206 155.714 348.241 156.101C349.276 156.491 350.885 157.336 351.812 157.981C352.743 158.629 353.832 159.682 354.23 160.323C354.631 160.965 354.957 162.01 354.961 162.652C354.961 163.293 354.721 164.177 354.423 164.621C354.126 165.066 353.36 165.685 352.718 166.004C351.963 166.377 350.705 166.566 349.137 166.541C347.808 166.52 346.357 166.323 345.913 166.101C345.469 165.879 344.656 165.273 344.108 164.758C343.556 164.238 342.955 163.21 342.765 162.472C342.532 161.566 342.55 160.635 342.822 159.607Z" fill="#FCFDFC"/>
<path d="M379.638 90.3651C379.617 85.5691 379.735 83.5096 380.061 82.9724C380.487 82.2739 380.748 82.2381 384.302 82.4172C386.88 82.5461 388.489 82.8076 389.341 83.2374C390.032 83.5813 390.999 84.1758 391.49 84.5591C391.984 84.9387 392.747 85.8449 393.188 86.5684C393.811 87.5856 393.994 88.4273 393.994 90.3006C393.997 91.6294 393.779 93.2412 393.514 93.8823C393.249 94.5234 392.364 95.6517 391.544 96.3895C390.645 97.2026 389.316 97.9476 388.177 98.2735C387.142 98.5708 384.968 98.8143 383.342 98.8108C380.526 98.8072 380.369 98.7642 380.029 97.9118C379.832 97.4175 379.656 94.0256 379.638 90.3651Z" fill="#B2C306"/>
<path d="M206.179 85.4867C206.293 85.1572 206.655 84.8026 206.977 84.6988C207.303 84.5985 209.907 84.577 212.762 84.6558C215.62 84.7346 218.521 84.9566 219.209 85.1536C219.9 85.3506 221.064 86.1637 221.806 86.966C223.02 88.2805 223.149 88.61 223.149 90.3901C223.149 91.4718 222.909 92.8436 222.612 93.4346C222.318 94.0256 221.551 94.8959 220.91 95.3687C220.269 95.8415 219.102 96.4182 218.314 96.6474C217.526 96.8766 214.707 97.156 212.046 97.2706C207.679 97.4533 207.156 97.4103 206.673 96.8301C206.261 96.3358 206.114 95.0034 206.05 91.1387C206.003 88.3629 206.06 85.8198 206.179 85.4867Z" fill="#B2C306"/>
<path d="M118.742 101.314C119.261 99.8351 120.171 97.4605 120.765 96.0313C121.356 94.6022 122.03 93.431 122.259 93.4238C122.492 93.4203 122.9 93.8608 123.172 94.4088C123.441 94.9568 124.286 97.1775 125.049 99.3444C125.815 101.511 126.442 103.567 126.442 103.911C126.442 104.255 126.202 104.62 125.905 104.717C125.611 104.814 123.756 104.896 121.786 104.896C119.268 104.896 118.143 104.764 118 104.448C117.886 104.201 118.219 102.79 118.742 101.314Z" fill="#B2C306"/>
<path d="M295.511 98.0908C296.359 96.0206 297.205 94.1294 297.391 93.8823C297.577 93.6352 297.871 93.4346 298.046 93.4346C298.222 93.4346 299.021 95.1681 299.823 97.285C300.629 99.4018 301.474 101.827 301.703 102.675C302.058 103.972 302.04 104.266 301.589 104.549C301.295 104.735 299.522 104.896 297.649 104.907C295.303 104.921 294.11 104.785 293.809 104.463C293.516 104.151 293.473 103.65 293.673 102.926C293.834 102.335 294.665 100.157 295.511 98.0908Z" fill="#B2C306"/>
<path d="M206.257 107.536C206.411 107.317 206.852 107.042 207.232 106.931C207.615 106.82 210.183 106.773 212.941 106.834C216.741 106.913 218.346 107.095 219.567 107.582C220.455 107.937 221.637 108.646 222.196 109.158C222.755 109.671 223.457 110.573 223.758 111.164C224.062 111.769 224.288 113.098 224.27 114.209C224.252 115.502 223.962 116.727 223.428 117.776C222.977 118.654 221.967 119.825 221.179 120.38C220.391 120.932 218.862 121.573 217.776 121.798C216.695 122.028 214.195 122.225 212.225 122.239C210.255 122.257 208.199 122.146 207.658 121.999C207.117 121.852 206.598 121.447 206.501 121.103C206.408 120.76 206.25 117.654 206.154 114.209C206.057 110.759 206.103 107.758 206.257 107.536Z" fill="#B2C306"/>
</svg>
