<svg width="667" height="342" viewBox="0 0 667 342" fill="none" xmlns="http://www.w3.org/2000/svg">
<path d="M0 342V171V0H667V342H0Z" fill="#344F74"/>
<path d="M185.9 66.3194C188.726 62.71 192.736 58.14 196.05 54.7632C199.612 51.1305 201.76 49.1795 202.192 49.1895C202.564 49.1995 203.444 49.9007 204.184 50.7749C204.914 51.639 210.329 57.0964 216.219 62.8994C225.193 71.7435 226.923 73.5981 226.913 74.3659C226.906 75.0605 226.11 76.1108 223.576 78.7697C221.747 80.6874 219.025 83.7318 217.531 85.5332C216.3 87.0137 214.989 88.5907 214.295 89.4248L213.938 89.8539C213.46 90.4289 212.288 92.0209 211.332 93.3936C210.376 94.7629 208.805 97.0828 207.849 98.5452C206.89 100.008 205.502 102.324 204.768 103.697C204.035 105.066 202.956 107.087 202.378 108.184C201.797 109.28 200.651 111.75 199.831 113.668C199.011 115.585 198.201 117.457 198.032 117.822C197.863 118.188 197.272 119.683 196.72 121.146C196.166 122.608 195.283 125.224 194.758 126.962C194.234 128.7 193.57 131.093 193.284 132.28C192.999 133.466 192.467 135.786 192.109 137.431C191.747 139.077 191.222 141.918 190.944 143.746C190.665 145.574 190.206 149.014 189.924 151.391C189.645 153.767 189.413 158.254 189.41 161.362C189.406 164.871 189.662 169.278 190.08 172.994C190.449 176.285 191.033 180.549 191.375 182.466C191.72 184.384 192.331 187.452 192.736 189.28C193.138 191.108 193.666 193.275 193.905 194.099C194.144 194.923 194.662 196.715 195.054 198.087C195.446 199.457 196.203 201.591 196.737 202.824C197.272 204.057 197.71 205.217 197.71 205.399C197.71 205.582 198.138 206.593 198.663 207.643C199.187 208.693 199.728 209.926 199.868 210.385C200.007 210.84 200.907 212.788 201.87 214.706C202.829 216.623 204.001 218.867 204.469 219.691C204.941 220.515 205.728 221.934 206.219 222.848C206.707 223.762 207.61 225.221 208.218 226.089C208.829 226.956 209.851 228.415 210.492 229.329C211.133 230.243 212.175 231.739 212.816 232.653C213.457 233.567 215.761 236.372 217.939 238.885C220.117 241.397 223.035 244.651 224.42 246.114C225.824 247.596 226.94 249.068 226.943 249.437C226.943 249.869 223.6 253.422 217.391 259.574C212.139 264.782 206.717 270.21 205.346 271.632C203.307 273.753 202.677 274.218 201.86 274.208C201.043 274.195 200.266 273.583 197.531 270.788C195.698 268.917 193.009 266.025 191.554 264.364C190.1 262.705 188.238 260.548 187.418 259.574C186.598 258.601 184.376 255.699 182.481 253.123C180.588 250.547 178.108 247.021 176.966 245.283C175.824 243.545 173.902 240.444 172.69 238.386C171.478 236.329 169.526 232.739 168.354 230.41C167.179 228.08 165.821 225.275 165.336 224.178C164.851 223.081 163.646 220.126 162.657 217.614C161.667 215.101 160.857 212.894 160.857 212.711C160.857 212.529 160.645 211.894 160.382 211.299C160.12 210.704 159.576 209.095 159.174 207.726C158.769 206.353 158.178 204.336 157.859 203.239C157.54 202.142 157.099 200.497 156.873 199.583C156.647 198.669 156.256 196.951 156.003 195.761C155.751 194.571 155.23 191.882 154.851 189.778C154.469 187.675 153.961 184.61 153.716 182.965C153.473 181.32 153.118 178.85 152.929 177.481C152.74 176.108 152.418 171.921 152.208 168.175C151.923 163.007 151.926 159.796 152.222 154.88C152.441 151.314 152.972 146.006 153.407 143.082C153.839 140.157 154.486 136.119 154.844 134.108C155.2 132.097 156.013 128.208 156.651 125.466C157.288 122.724 158.055 119.81 158.357 118.985C158.656 118.161 159.18 116.516 159.526 115.329C159.868 114.14 160.665 111.75 161.299 110.012C161.933 108.273 162.995 105.508 163.659 103.863C164.327 102.218 166.279 98.03 167.999 94.5568C169.718 91.0837 171.896 86.969 172.839 85.4169C173.782 83.8614 174.725 82.2927 174.934 81.9271C175.143 81.5615 175.741 80.5877 176.259 79.7668C176.78 78.9425 178.108 76.9251 179.217 75.2799C180.323 73.6347 183.331 69.6031 185.9 66.3194Z" fill="#F9952F"/>
<path d="M441.638 73.4751C442.697 72.4847 448.235 67.0639 453.949 61.427C462.332 53.1612 464.513 51.1803 465.237 51.1704C465.898 51.1604 466.529 51.5825 467.598 52.7491C468.401 53.6232 469.978 55.3149 471.1 56.5014C472.226 57.688 474.789 60.5297 476.801 62.8163C478.816 65.0996 481.273 68.0444 482.263 69.3572C483.255 70.6667 484.992 72.9866 486.124 74.5088C487.259 76.0277 488.733 78.1714 489.401 79.2682L489.563 79.5341C490.194 80.5662 490.885 81.6964 491.16 82.1398C491.459 82.6217 492.209 83.8947 492.834 84.9649C493.454 86.0351 494.145 87.1385 494.371 87.4111C494.593 87.6836 495.971 90.2295 497.429 93.0612C498.886 95.8929 500.715 99.7084 501.489 101.536C502.266 103.364 503.312 105.834 503.816 107.02C504.321 108.207 505.111 110.155 505.576 111.341C506.038 112.528 506.951 115.223 507.601 117.324C508.249 119.424 509.361 123.615 510.071 126.63C510.779 129.644 511.539 133.011 511.755 134.108C511.974 135.205 512.432 137.747 512.774 139.758C513.116 141.769 513.488 144.461 513.604 145.741C513.72 147.02 514.042 150.084 514.318 152.554C514.696 155.904 514.789 159.484 514.69 166.679C514.6 173.12 514.374 177.641 514.006 180.306C513.704 182.5 513.215 185.714 512.923 187.452C512.628 189.19 512.097 191.955 511.738 193.601C511.379 195.246 510.852 197.712 510.563 199.085C510.274 200.454 509.846 202.249 509.607 203.073C509.371 203.897 509.075 205.094 508.949 205.732C508.823 206.37 508.209 208.467 507.581 210.385C506.957 212.303 505.915 215.221 505.267 216.866C504.62 218.511 503.793 220.605 503.431 221.519C503.066 222.433 502.595 223.629 502.382 224.178C502.17 224.726 500.34 228.465 498.318 232.487C496.293 236.508 493.352 241.82 491.775 244.286C490.201 246.752 487.82 250.341 486.489 252.256C485.154 254.173 483.541 256.364 482.903 257.125C482.266 257.886 481.067 259.365 480.247 260.412C479.427 261.459 477.784 263.46 476.595 264.859C475.407 266.255 473.016 268.861 471.283 270.645C469.55 272.433 467.83 273.976 467.465 274.072C467.1 274.172 466.429 274.168 465.971 274.065C465.516 273.962 463.424 272.211 461.323 270.177C459.221 268.139 454.739 263.829 451.363 260.598C447.986 257.367 444.699 254.283 444.065 253.741C443.431 253.203 442.422 252.276 441.824 251.681C441.227 251.086 440.738 250.301 440.738 249.936C440.738 249.537 442.096 247.908 444.142 245.858C446.014 243.98 448.663 241.102 450.031 239.46C451.399 237.818 453.952 234.454 455.705 231.988C457.458 229.522 460.025 225.557 461.406 223.181C462.787 220.804 464.663 217.288 465.569 215.37C466.479 213.453 467.621 210.91 468.112 209.72C468.6 208.53 469.201 207.111 469.444 206.563C469.689 206.014 470.41 203.92 471.047 201.91C471.685 199.899 472.528 197.057 472.92 195.595C473.312 194.132 473.846 192.112 474.108 191.108C474.367 190.104 474.899 187.562 475.284 185.458C475.669 183.354 476.187 180.665 476.439 179.475C476.688 178.285 477.073 174.174 477.292 170.335C477.604 164.911 477.608 161.837 477.302 156.542C477.083 152.797 476.764 149.131 476.589 148.399C476.413 147.668 476.041 145.797 475.768 144.245C475.493 142.689 475.114 140.596 474.928 139.592C474.743 138.588 474.281 136.567 473.903 135.105C473.524 133.643 473.006 131.698 472.754 130.784C472.502 129.87 471.98 128.075 471.598 126.796C471.22 125.516 470.709 123.944 470.463 123.306C470.221 122.665 469.467 120.797 468.786 119.152C468.106 117.506 467.209 115.413 466.788 114.499C466.369 113.585 465.466 111.64 464.779 110.178C464.095 108.715 463.159 106.921 462.697 106.189C462.236 105.458 461.499 104.189 461.061 103.364C460.622 102.54 459.318 100.45 458.159 98.7114C457 96.9731 455.426 94.6565 454.656 93.5597C453.886 92.463 453.019 91.2565 452.724 90.8776C452.432 90.4954 451.147 89.0031 449.869 87.5606C448.59 86.1149 445.795 83.1369 443.657 80.9367C440.878 78.0817 439.762 76.7057 439.746 76.1108C439.726 75.5092 440.25 74.778 441.638 73.4751Z" fill="#F9952F"/>
<path d="M341.482 12.7295C341.857 12.3307 342.494 11.9385 342.896 11.862C343.298 11.7856 343.962 11.7025 344.374 11.6792C344.785 11.6527 345.496 11.7823 345.951 11.9651C346.409 12.1479 347.491 12.8259 348.358 13.4707C349.224 14.1155 350.048 14.6406 350.184 14.6339C350.32 14.6273 350.642 14.1387 350.901 13.5438C351.342 12.5268 351.459 12.4669 352.893 12.5467C354.347 12.6265 354.417 12.6763 354.417 13.6269C354.417 14.1753 354.194 15.1491 353.919 15.7872C353.643 16.4254 353.086 17.12 352.674 17.3261C352.262 17.5355 351.107 17.6385 350.101 17.5587C348.633 17.4424 347.949 17.1699 346.615 16.1628C345.702 15.4748 344.732 14.9597 344.457 15.0195C344.181 15.0793 343.922 15.538 343.876 16.0398C343.796 16.9006 343.7 16.9505 342.133 16.9505C341.22 16.9505 340.4 16.8009 340.307 16.6181C340.217 16.4353 340.29 15.651 340.469 14.8732C340.649 14.0955 341.107 13.1317 341.482 12.7295Z" fill="white"/>
<path d="M316.156 20.2741C316.502 19.8188 317.295 19.174 317.919 18.845C318.793 18.3863 319.649 18.27 321.605 18.3464C323.786 18.4328 324.277 18.5658 325.038 19.277C325.529 19.7357 326.113 20.4835 326.342 20.9388C326.571 21.3975 328.162 26.6654 329.878 32.6513C331.598 38.6371 332.929 43.6092 332.836 43.699C332.747 43.792 331.379 43.9815 326.927 44.3703L326.535 42.8747C326.322 42.0538 325.934 40.5947 325.672 39.6342C325.247 38.0654 325.107 37.8893 324.287 37.8926C323.786 37.8926 322.179 37.9823 318.062 38.2981L317.617 41.0002C317.375 42.4892 317.076 43.8784 316.953 44.0911C316.834 44.3038 315.509 44.603 314.012 44.7559C311.721 44.9918 311.263 44.9553 311.103 44.5365C311 44.264 311.957 38.8764 313.225 32.5715C314.818 24.6546 315.725 20.8491 316.156 20.2741Z" fill="white"/>
<path d="M336.044 30.5973C336.708 22.5408 337.119 19.0211 337.431 18.7087C337.76 18.383 338.457 18.3231 340.087 18.4794C341.303 18.5957 342.468 18.8616 342.677 19.0676C342.883 19.2737 344.669 22.8831 346.641 27.0875C348.613 31.2919 350.273 34.8083 350.33 34.898C350.386 34.9911 350.499 34.9911 350.582 34.898C350.665 34.8083 350.974 31.6675 351.266 27.9184C351.558 24.1727 351.874 20.7328 351.97 20.2741C352.139 19.4532 352.172 19.4465 354.523 19.6725C355.835 19.7988 357.023 20.0215 357.166 20.1711C357.309 20.3206 356.97 25.9376 356.419 32.6546C355.864 39.3716 355.3 45.0417 355.164 45.2544C354.998 45.507 354.108 45.5934 352.524 45.5037C350.821 45.4073 349.961 45.1979 349.536 44.7791C349.208 44.4567 347.445 41.0301 345.619 37.1647C343.793 33.2994 342.149 30.0854 341.967 30.0223C341.764 29.9525 341.406 32.6546 341.044 36.972C340.715 40.8573 340.343 44.151 340.214 44.2872C340.081 44.4235 338.929 44.4235 337.651 44.2872C335.38 44.0446 335.323 44.0147 335.214 43.0409C335.151 42.4925 335.526 36.8922 336.044 30.5973Z" fill="white"/>
<path d="M282.528 23.7805C283.434 23.2222 284.928 22.584 285.848 22.3613C286.764 22.1353 288.265 22.0057 289.178 22.0722C290.091 22.1353 291.435 22.491 292.166 22.8632C292.896 23.2321 293.895 23.9633 294.383 24.4818C294.872 25.0003 295.648 26.1735 296.107 27.0875C296.565 28.0015 297.259 30.0223 297.647 31.5744C298.036 33.1299 298.444 36.0447 298.553 38.0555C298.749 41.5386 298.716 41.8012 297.87 43.6225C297.381 44.6728 296.495 45.9058 295.901 46.3612C295.306 46.8132 293.889 47.4879 292.747 47.8568C291.605 48.2224 289.888 48.5282 288.929 48.5282C287.677 48.5315 286.678 48.2756 285.383 47.6142C284.39 47.109 283.241 46.2482 282.83 45.6998C282.418 45.1514 281.714 43.8818 281.269 42.8747C280.821 41.871 280.124 39.478 279.719 37.5569C279.314 35.6392 278.958 32.8606 278.932 31.385C278.892 29.0086 278.998 28.4801 279.881 26.7485C280.652 25.2396 281.253 24.5616 282.528 23.7805Z" fill="white"/>
<path d="M367.116 23.3917C367.617 23.1391 368.59 22.8001 369.274 22.6339C369.958 22.471 370.818 22.3181 371.183 22.2982C371.548 22.2816 372.744 22.4278 373.839 22.6272C374.935 22.8266 376.714 23.4648 377.793 24.0431C378.872 24.6214 380.094 25.542 380.513 26.0904C380.928 26.6388 381.522 27.6858 381.831 28.417C382.186 29.2612 382.392 30.6538 382.392 32.2391C382.395 33.7215 382.056 36.2142 381.562 38.3878C381.104 40.3986 380.357 42.7916 379.902 43.7056C379.447 44.6196 378.411 45.9657 377.598 46.6969C376.711 47.4945 375.463 48.2124 374.48 48.4949C373.414 48.8007 372.033 48.9037 370.519 48.7874C369.228 48.6877 367.458 48.2855 366.535 47.8801C365.622 47.4812 364.427 46.8132 363.879 46.3944C363.331 45.9756 362.448 44.8257 361.914 43.8385C361.21 42.539 360.904 41.4489 360.801 39.8834C360.702 38.3978 360.914 36.4767 361.479 33.7348C361.93 31.5412 362.591 29.075 362.943 28.2508C363.298 27.4299 364.175 26.1004 364.895 25.3027C365.615 24.5051 366.615 23.6443 367.116 23.3917Z" fill="white"/>
<path d="M257.508 30.5973C258.673 29.9691 260.602 29.1116 261.787 28.6928C263.135 28.2176 264.722 27.9284 266.02 27.9251C267.162 27.9217 268.507 28.078 269.008 28.2741C269.51 28.4668 270.276 28.9554 270.711 29.3542C271.146 29.7531 271.857 30.8266 272.285 31.7406C272.74 32.7044 273.072 34.0306 273.075 34.898C273.079 35.7389 272.79 36.9753 272.418 37.7231C271.91 38.7368 271.85 39.109 272.166 39.2952C272.391 39.4314 272.763 39.5444 272.992 39.5444C273.221 39.5478 273.932 40.0762 274.569 40.7143C275.303 41.4489 275.914 42.5191 276.233 43.6225C276.508 44.583 276.731 45.9657 276.727 46.6969C276.721 47.428 276.385 48.6844 275.977 49.4887C275.569 50.293 274.636 51.3831 273.905 51.9083C273.175 52.4334 271.757 53.1713 270.751 53.5501C269.749 53.9257 267.843 54.4442 266.518 54.7034C265.193 54.9594 263.663 55.1721 263.115 55.1721C262.209 55.1721 262.076 55.0258 261.621 53.5103C261.349 52.5963 261.18 51.7355 261.249 51.5992C261.319 51.4629 261.877 51.2369 262.494 51.1006C263.108 50.9644 264.938 50.4392 266.555 49.9374C268.175 49.4355 269.782 48.7608 270.124 48.4417C270.509 48.0861 270.751 47.4081 270.751 46.6969C270.751 46.0554 270.622 45.1979 270.466 44.7858C270.31 44.3736 269.935 43.7754 269.636 43.4563C269.337 43.1373 268.68 42.878 268.178 42.8813C267.677 42.8847 265.771 43.34 263.945 43.8984C262.119 44.4534 260.532 44.7891 260.419 44.6395C260.306 44.49 259.971 43.6591 259.672 42.7916C259.244 41.5452 259.217 41.1497 259.546 40.9138C259.775 40.7476 261.233 40.2324 262.783 39.7671C264.337 39.2985 266.037 38.5739 266.565 38.1552C267.448 37.4506 267.508 37.2611 267.345 35.7289C267.215 34.5158 266.956 33.9009 266.385 33.4489C265.784 32.9736 265.283 32.8806 264.194 33.0335C263.417 33.1465 261.326 33.8178 259.546 34.5324C257.766 35.2437 256.236 35.7854 256.143 35.7356C256.053 35.6857 255.771 34.9911 255.519 34.1934C255.266 33.3924 255.134 32.515 255.223 32.2391C255.31 31.9666 256.339 31.2254 257.508 30.5973Z" fill="white"/>
<path d="M389.61 29.1781C390.068 28.8324 390.964 28.417 391.602 28.2541C392.242 28.0913 393.587 28.0414 394.59 28.1444C395.596 28.2475 397.388 28.6662 398.574 29.075C399.762 29.4838 401.555 30.2317 402.558 30.7335C403.564 31.2387 404.57 31.7838 404.799 31.9466C405.124 32.176 405.071 32.6712 404.55 34.2333C404.131 35.4896 403.7 36.2275 403.388 36.2275C403.116 36.2275 401.432 35.6492 399.653 34.9445C397.873 34.2399 396.004 33.5652 395.503 33.4489C395.001 33.3326 394.291 33.3858 393.926 33.5686C393.56 33.7514 393.189 34.2001 393.096 34.5657C393.006 34.9313 393.106 35.5661 393.325 35.9782C393.54 36.3903 394.998 38.0787 396.562 39.7306C398.125 41.3824 399.666 43.2901 399.985 43.9682C400.333 44.706 400.562 45.969 400.559 47.1123C400.556 48.2324 400.303 49.5718 399.948 50.3528C399.616 51.084 398.799 52.1675 398.129 52.7625C397.461 53.3574 396.28 54.0088 395.503 54.2115C394.726 54.4176 393.195 54.504 392.1 54.4076C391.004 54.3113 388.912 53.7728 387.451 53.2111C385.991 52.6528 384.234 51.8152 382.305 50.519L382.969 48.5248C383.335 47.428 383.819 46.5307 384.048 46.534C384.278 46.5373 385.994 47.1356 387.867 47.8634C389.739 48.5913 391.681 49.1862 392.183 49.1796C392.684 49.1763 393.361 48.9137 393.687 48.598C394.012 48.2855 394.278 47.5776 394.278 47.0292C394.278 46.2548 393.637 45.2843 391.419 42.7085C389.845 40.8805 388.175 38.564 387.707 37.5569C387 36.038 386.894 35.4497 387.076 34.0671C387.199 33.1531 387.631 31.8203 388.039 31.1058C388.448 30.3912 389.155 29.5237 389.61 29.1781Z" fill="white"/>
<path d="M368.527 106.715C370.353 106.326 372.969 105.884 374.337 105.728C375.708 105.571 378.547 105.425 380.645 105.402C382.747 105.375 386.406 105.515 388.78 105.708C391.153 105.9 394.815 106.352 396.914 106.711C399.015 107.07 401.515 107.585 402.475 107.855C403.434 108.127 404.593 108.725 405.878 110.012L405.888 118.238C405.901 125.998 405.861 126.517 405.224 127.378C404.613 128.205 404.357 128.292 402.475 128.288C401.333 128.285 397.561 128.062 394.092 127.796C390.622 127.527 385.619 127.308 382.969 127.308C379.945 127.308 377.292 127.491 375.831 127.803C374.553 128.079 372.837 128.637 372.02 129.043C371.2 129.452 369.726 130.535 368.74 131.449C367.398 132.695 366.595 133.859 365.529 136.102C364.746 137.747 363.869 140.067 363.58 141.254C363.291 142.444 362.91 145.209 362.727 147.402C362.544 149.596 362.395 155.954 362.395 161.528C362.395 167.101 362.538 173.383 362.714 175.487C362.89 177.591 363.335 180.506 363.703 181.968C364.075 183.43 364.898 185.71 365.539 187.036C366.24 188.489 367.392 190.147 368.444 191.211C369.404 192.185 371.011 193.385 372.013 193.877C373.019 194.372 375.111 195.01 376.661 195.296C378.846 195.701 380.755 195.774 385.127 195.625C388.232 195.518 393.647 195.206 397.163 194.93C401.562 194.588 403.813 194.535 404.384 194.764C404.842 194.947 405.363 195.472 405.546 195.927C405.735 196.402 405.878 200.248 405.878 213.044L405.048 213.875C404.593 214.333 403.434 214.935 402.475 215.217C401.515 215.5 399.088 216.015 397.08 216.364C395.071 216.713 391.336 217.175 388.78 217.391C386.107 217.617 381.947 217.7 378.985 217.59C376.157 217.484 372.495 217.152 370.851 216.853C369.208 216.554 366.595 215.945 365.041 215.503C363.491 215.061 360.576 213.888 358.567 212.898C356.472 211.861 353.783 210.182 352.259 208.962C350.798 207.792 348.796 205.875 347.807 204.705C346.817 203.532 345.333 201.527 344.503 200.248C343.676 198.968 342.441 196.725 341.761 195.262C341.077 193.8 340.131 191.407 339.656 189.945C339.181 188.482 338.461 185.641 338.056 183.63C337.345 180.113 337.319 179.269 337.319 161.528C337.319 145.521 337.395 142.686 337.886 140.09C338.198 138.445 338.842 135.753 339.314 134.108C339.789 132.463 340.927 129.545 341.844 127.627C342.76 125.709 344.158 123.167 344.951 121.977C345.745 120.79 347.265 118.859 348.331 117.693C349.397 116.523 351.462 114.671 352.923 113.578C354.384 112.484 356.701 111.029 358.069 110.344C359.44 109.659 361.605 108.722 362.883 108.26C364.161 107.802 366.701 107.104 368.527 106.715Z" fill="white"/>
<path d="M281.375 106.392C282.929 106.186 284.573 105.964 285.028 105.9C285.486 105.834 289.742 105.761 294.49 105.738C299.237 105.714 305.14 105.841 307.604 106.023C310.071 106.206 314.178 106.595 316.734 106.891C319.291 107.187 321.867 107.635 322.461 107.888C323.085 108.157 323.69 108.735 323.892 109.264C324.115 109.842 324.208 112.95 324.141 117.713L324.141 117.715C324.038 125.237 324.038 125.251 322.378 126.956L287.85 127.128L285.858 128.125C284.36 128.873 283.683 129.452 283.135 130.452C282.737 131.183 282.245 132.828 282.046 134.108C281.847 135.404 281.727 139.529 281.873 150.394L321.608 150.726L322.255 151.557C322.86 152.328 322.903 152.956 322.903 160.365C322.903 167.773 322.86 168.401 321.608 170.003L281.873 170.335L281.707 214.706L279.715 216.367H258.799L256.807 214.706L256.91 172.08C257.003 133.889 257.069 129.229 257.557 127.295C257.856 126.108 258.414 124.237 258.796 123.14C259.178 122.043 259.994 120.248 260.608 119.152C261.223 118.055 262.375 116.357 263.168 115.379C263.962 114.402 265.506 112.927 266.601 112.102C267.697 111.278 269.603 110.095 270.834 109.477C272.066 108.855 274.307 107.994 275.814 107.559C277.322 107.127 279.825 106.602 281.375 106.392Z" fill="white"/>
<path d="M265.771 273.311C266.412 272.889 267.607 272.397 268.427 272.221C269.251 272.045 271.641 271.971 273.739 272.058C275.841 272.148 277.893 272.291 278.304 272.377C278.985 272.523 279.051 272.726 279.051 274.697C279.051 276.322 278.929 276.897 278.553 277.023C278.281 277.113 276.19 277.19 273.905 277.19C270.087 277.19 269.729 277.243 269.423 277.854C269.241 278.22 269.091 279.416 269.091 282.507L278.553 282.674L278.719 287.16H269.091L268.925 297.962H263.281V287.327C263.281 277.349 263.321 276.611 263.945 275.385C264.31 274.667 265.134 273.733 265.771 273.311Z" fill="white"/>
<path d="M357.156 273.155C357.84 272.816 358.962 272.404 359.646 272.237C360.33 272.075 361.638 271.925 362.551 271.908C363.464 271.888 365.107 272.025 366.203 272.211C367.299 272.394 368.308 272.729 368.447 272.955C368.587 273.181 368.66 274.192 368.527 277.023L364.709 277.19C362.611 277.279 360.592 277.522 360.227 277.725C359.862 277.931 359.301 278.715 358.982 279.47C358.53 280.543 358.401 281.796 358.401 285.166C358.401 288.536 358.53 289.789 358.982 290.863C359.327 291.681 359.935 292.422 360.476 292.691C361.085 292.992 362.468 293.125 364.626 293.09C366.406 293.06 368.049 293.133 368.278 293.256C368.53 293.389 368.69 294.16 368.686 295.22C368.686 296.181 368.574 297.148 368.437 297.371C368.305 297.593 367.299 297.946 366.203 298.155C365.107 298.364 363.165 298.461 361.887 298.371C360.496 298.271 358.839 297.889 357.763 297.417C356.688 296.948 355.512 296.098 354.845 295.303C354.231 294.572 353.434 293.189 353.076 292.229C352.528 290.763 352.425 289.637 352.425 285.166C352.425 280.676 352.528 279.576 353.082 278.104C353.444 277.143 354.228 275.777 354.825 275.066C355.423 274.351 356.472 273.494 357.156 273.155Z" fill="white"/>
<path d="M376.685 273.557C377.153 272.985 378.049 272.377 378.677 272.204C379.304 272.035 380.712 271.942 381.807 272.001C382.903 272.061 384.284 272.354 384.878 272.656C385.473 272.955 386.183 273.65 386.455 274.198C386.731 274.747 388.149 280.168 389.613 286.246C391.074 292.325 392.269 297.484 392.269 297.713C392.266 298.015 391.446 298.128 389.278 298.128C386.704 298.128 386.27 298.049 386.153 297.547C386.077 297.228 385.778 295.805 384.961 291.813L377.823 291.8L377.382 293.718C377.139 294.771 376.804 296.197 376.329 298.128H373.341C371.167 298.128 370.356 298.015 370.363 297.713C370.37 297.484 371.602 292.189 373.102 285.947C375.33 276.678 375.987 274.404 376.685 273.557Z" fill="white"/>
<path d="M395.994 273.078C396.303 272.623 397.033 272.394 398.74 272.214C400.018 272.078 402.11 271.945 403.388 271.918C404.666 271.888 406.608 272.035 407.704 272.237C408.799 272.437 410.22 272.869 410.858 273.191C411.499 273.517 412.505 274.325 413.099 274.986C413.693 275.651 414.327 276.754 414.507 277.439C414.689 278.124 414.839 279.357 414.839 280.181C414.839 281.005 414.689 282.238 414.507 282.923C414.327 283.607 413.617 284.777 412.933 285.519C412.249 286.26 411.426 286.931 411.107 287.014C410.788 287.094 410.529 287.347 410.533 287.576C410.539 287.805 411.721 290.158 413.165 292.811C414.61 295.463 415.689 297.743 415.566 297.882C415.44 298.022 414.015 298.098 409.45 297.962L404.384 288.48L401.562 288.49L401.396 297.962H395.752L395.662 285.831C395.589 276.425 395.665 273.56 395.994 273.078Z" fill="white"/>
<path d="M283.45 282.557C283.404 277.376 283.444 272.922 283.54 272.656C283.673 272.281 284.297 272.198 289.178 272.37L289.51 291.468L290.34 292.329C290.937 292.95 291.631 293.243 292.83 293.376C294.005 293.505 294.805 293.402 295.569 293.02C296.163 292.721 296.827 292.066 297.049 291.564C297.315 290.959 297.511 287.569 297.81 272.37L300.466 272.281C302.338 272.221 303.195 272.317 303.364 272.613C303.5 272.846 303.607 276.399 303.603 280.513C303.603 284.624 303.451 289.111 303.268 290.484C303.062 292.046 302.634 293.505 302.119 294.389C301.664 295.167 300.811 296.167 300.217 296.616C299.623 297.061 298.168 297.68 296.98 297.985C295.486 298.371 294.055 298.494 292.332 298.381C290.907 298.288 289.204 297.936 288.348 297.557C287.528 297.194 286.422 296.463 285.891 295.935C285.363 295.403 284.616 294.3 284.231 293.475C283.58 292.083 283.527 291.338 283.45 282.557Z" fill="white"/>
<path d="M308.331 283.514C308.275 278.117 308.321 273.357 308.434 272.939C308.627 272.214 308.766 272.181 314.078 272.37L314.244 282.408C314.37 290.019 314.513 292.551 314.842 292.877C315.137 293.173 316.528 293.336 323.208 293.475V295.636C323.208 297.71 323.172 297.806 322.295 298.045C321.794 298.182 319.586 298.295 317.388 298.295C313.749 298.295 313.251 298.218 311.744 297.44C310.459 296.776 309.908 296.224 309.264 294.958C308.441 293.346 308.434 293.233 308.331 283.514Z" fill="white"/>
<path d="M325.595 283.514C325.539 278.117 325.585 273.357 325.698 272.939C325.891 272.214 326.03 272.181 331.342 272.37L331.508 282.408C331.635 290.019 331.777 292.551 332.106 292.877C332.402 293.173 333.793 293.336 340.473 293.475V295.636C340.473 297.71 340.436 297.806 339.56 298.045C339.058 298.182 336.85 298.295 334.653 298.295C331.014 298.295 330.516 298.218 329.008 297.44C327.724 296.776 327.172 296.224 326.528 294.958C325.705 293.346 325.698 293.233 325.595 283.514Z" fill="white"/>
<path d="M319.038 32.4883C319.118 32.0762 319.51 29.8328 319.911 27.5029C320.333 25.0435 320.794 23.262 321.01 23.2587C321.216 23.2553 321.943 25.3492 322.627 27.9117C323.311 30.4742 323.872 32.721 323.872 32.9038C323.872 33.0966 322.82 33.2362 321.382 33.2362C318.978 33.2362 318.899 33.2096 319.038 32.4883Z" fill="#344F74"/>
<path d="M285.163 29.1747C285.598 28.2009 286.113 27.6325 286.79 27.3733C287.544 27.0875 288.032 27.0908 288.812 27.3966C289.436 27.6392 290.127 28.3106 290.569 29.1049C290.97 29.8228 291.677 32.2823 292.142 34.5656C292.607 36.8523 292.989 39.0193 292.989 39.3849C292.992 39.7505 292.843 40.6113 292.66 41.2959C292.431 42.17 292.036 42.6918 291.335 43.0408C290.788 43.3134 290.041 43.5394 289.675 43.5394C289.31 43.5394 288.563 43.1671 288.015 42.7085C287.335 42.1401 286.82 41.2195 286.389 39.8003C286.043 38.657 285.482 36.1211 285.144 34.1601C284.543 30.6703 284.543 30.5706 285.163 29.1747Z" fill="#344F74"/>
<path d="M369.261 29.1348C369.686 28.613 370.366 28.0546 370.775 27.8918C371.183 27.7323 372.113 27.6758 372.843 27.7688C373.573 27.8619 374.543 28.2075 375.001 28.5399C375.456 28.8723 376.03 29.7297 376.273 30.4443C376.658 31.581 376.625 32.2125 376 35.5627C375.605 37.6665 374.961 40.1094 374.563 40.9935C374.164 41.8809 373.504 42.8148 373.092 43.0707C372.68 43.33 371.711 43.5427 370.934 43.5493C370.004 43.556 369.128 43.2967 368.361 42.7882C367.521 42.2365 367.113 41.6549 366.884 40.7043C366.668 39.8003 366.698 38.6503 366.98 37.0583C367.209 35.7787 367.64 33.6849 367.939 32.4053C368.241 31.1257 368.836 29.6533 369.261 29.1348Z" fill="#344F74"/>
<path d="M379.729 282.6C380.23 280.264 380.718 278.017 380.815 277.605C380.911 277.193 381.133 276.857 381.316 276.857C381.495 276.857 381.741 277.269 381.864 277.771C381.986 278.273 382.488 280.48 382.979 282.673C383.471 284.867 383.816 286.775 383.753 286.911C383.686 287.047 382.624 287.164 381.392 287.17C380.16 287.174 379.075 287.104 378.985 287.014C378.892 286.924 379.228 284.937 379.729 282.6Z" fill="#344F74"/>
<path d="M401.562 280.513C401.562 277.329 401.591 277.183 402.309 277.05C402.72 276.973 403.839 276.973 404.799 277.05C405.758 277.126 406.953 277.392 407.455 277.642C407.956 277.891 408.481 278.339 408.617 278.639C408.753 278.938 408.866 279.709 408.866 280.347C408.866 280.985 408.716 281.809 408.534 282.175C408.351 282.541 407.677 283.062 407.04 283.338C406.399 283.614 404.905 283.837 401.562 283.837V280.513Z" fill="#344F74"/>
</svg>
