<svg width="619" height="237" viewBox="0 0 619 237" fill="none" xmlns="http://www.w3.org/2000/svg">
<path d="M335.244 217.05C336.184 217.051 337.634 219.971 339.344 225.3C340.804 229.84 342.154 234.11 342.344 234.8C342.534 235.49 342.023 236.05 341.193 236.05C340.373 236.049 339.473 234.92 339.193 233.55C338.923 232.17 338.363 231.01 337.943 230.97C337.533 230.92 335.963 230.7 334.443 230.47C332.684 230.2 331.704 230.5 331.714 231.3C331.724 231.99 331.084 233.45 330.294 234.55C329.504 235.65 328.564 236.319 328.204 236.05C327.844 235.77 328.764 231.72 330.254 227.05C331.744 222.37 333.154 218.21 333.384 217.8C333.604 217.39 334.444 217.05 335.244 217.05ZM431.724 213.05C432.264 213.05 432.934 213.5 433.204 214.05C433.484 214.6 433.254 215.28 432.704 215.55C432.154 215.83 433.054 217.4 434.704 219.05C437.204 221.55 437.704 222.84 437.684 226.8C437.664 230.35 437.094 232.13 435.434 233.83C433.884 235.41 432.064 236.1 429.454 236.08C426.544 236.06 425.254 235.44 423.674 233.3C422.454 231.65 421.654 229.05 421.674 226.8C421.694 224.74 422.384 221.93 423.204 220.55C424.034 219.18 425.384 218.05 426.204 218.05C427.034 218.05 428.394 216.93 429.224 215.55C430.064 214.18 431.184 213.05 431.724 213.05ZM220.184 217.05C221.214 217.05 222.564 219.73 224.354 225.3C225.804 229.84 227.154 234.11 227.354 234.8C227.543 235.49 227.034 236.05 226.204 236.05C225.384 236.05 224.364 234.859 223.954 233.399C223.374 231.35 222.543 230.729 220.273 230.649C217.954 230.569 217.123 231.13 216.273 233.31C215.684 234.829 214.644 236.069 213.954 236.06C213.264 236.06 212.814 235.679 212.934 235.229C213.064 234.769 214.194 231.059 215.443 226.979C216.693 222.89 217.934 218.99 218.184 218.3C218.444 217.61 219.344 217.05 220.184 217.05ZM135.454 217.779C135.794 217.36 136.484 217.13 136.983 217.279C137.483 217.429 138.894 220.7 142.334 231.55L144.514 224.8C145.724 221.09 147.154 217.83 147.704 217.55C148.254 217.28 148.963 217.16 149.273 217.3C149.593 217.44 149.304 219.35 148.644 221.55C147.984 223.75 146.594 227.91 145.574 230.8C144.444 233.969 143.114 236.049 142.204 236.05C141.214 236.05 139.723 233.11 137.773 227.3C136.163 222.49 135.124 218.199 135.454 217.779ZM162.374 217.05C165.554 217.05 166.704 217.45 166.704 218.55C166.704 219.6 165.654 220.05 163.204 220.05C160.134 220.05 159.704 220.36 159.704 222.55C159.704 224.61 160.234 225.1 162.733 225.3C164.393 225.44 165.754 226 165.754 226.55C165.754 227.1 164.393 227.66 162.733 227.8C160.234 228.01 159.704 228.49 159.704 230.55C159.704 232.74 160.134 233.05 163.204 233.05C165.654 233.05 166.704 233.5 166.704 234.55C166.704 235.69 165.484 236.05 156.704 236.05L156.534 227.22C156.444 222.36 156.744 218.09 157.204 217.72C157.665 217.35 159.984 217.05 162.374 217.05ZM176.874 217.05C177.335 217.051 179.485 219.862 185.594 229.55L185.903 223.63C186.093 219.96 186.684 217.59 187.454 217.38C188.394 217.13 188.704 219.441 188.704 226.55C188.704 234.329 188.434 236.049 187.204 236.05C186.384 236.05 183.904 233.01 177.714 222.55V229.3C177.704 234.629 177.394 236.05 176.204 236.05C174.994 236.05 174.674 234.33 174.534 227.22C174.444 222.36 174.744 218.09 175.204 217.72C175.664 217.35 176.414 217.05 176.874 217.05ZM202.204 217.05C207.314 217.05 208.704 217.37 208.704 218.55C208.704 219.49 207.764 220.05 206.204 220.05C203.744 220.05 203.704 220.19 203.704 228.05C203.704 234.499 203.414 236.05 202.204 236.05C200.994 236.05 200.704 234.5 200.704 228.05C200.704 220.19 200.664 220.05 198.204 220.05C196.654 220.05 195.704 219.49 195.704 218.55C195.704 217.37 197.094 217.05 202.204 217.05ZM278.374 217.05C280.374 217.05 282.504 217.85 283.704 219.05C285.064 220.41 285.504 221.78 285.094 223.3C284.754 224.54 284.444 226.45 284.394 227.55C284.354 228.65 284.634 231.01 285.014 232.8C285.554 235.33 285.374 236.05 284.204 236.05C283.254 236.05 282.524 234.77 282.204 232.55C281.934 230.63 281.034 228.83 280.204 228.55C279.384 228.28 278.254 228.05 277.704 228.05C277.154 228.05 276.704 229.85 276.704 232.05C276.704 234.939 276.284 236.05 275.204 236.05C273.994 236.05 273.674 234.33 273.534 227.22C273.444 222.36 273.744 218.09 274.204 217.72C274.664 217.35 276.534 217.05 278.374 217.05ZM298.264 217.41C301.184 217.5 303.134 218.04 303.294 218.8C303.454 219.633 302.23 220.05 299.624 220.05C296.114 220.05 295.704 220.31 295.704 222.55C295.704 224.74 296.134 225.05 299.204 225.05C301.654 225.05 302.704 225.5 302.704 226.55C302.704 227.6 301.654 228.05 299.204 228.05C296.134 228.05 295.704 228.36 295.704 230.55C295.704 232.8 296.104 233.05 299.704 233.05C302.594 233.05 303.704 233.47 303.704 234.55C303.704 235.69 302.484 236.05 293.704 236.05L293.594 226.66L293.494 217.27L298.264 217.41ZM354.174 217.05C356.364 217.05 358.453 217.81 359.693 219.05C361.053 220.41 361.504 221.77 361.084 223.3C360.744 224.54 360.434 226.45 360.384 227.55C360.344 228.65 360.624 231.01 361.004 232.8C361.544 235.33 361.363 236.05 360.193 236.05C359.373 236.049 358.433 234.82 358.113 233.3C357.793 231.79 357.003 229.97 356.363 229.25C355.723 228.54 354.633 227.98 353.943 228C353.164 228.031 352.693 229.54 352.693 232.05C352.693 234.76 352.293 235.94 351.443 235.72C350.61 235.492 350.097 232.772 349.903 227.56C349.743 223.25 349.844 219.12 350.134 218.39C350.424 217.62 352.154 217.05 354.174 217.05ZM373.674 219.72C374.334 218.16 375.394 217.07 376.034 217.29C376.675 217.512 378.404 221.031 379.884 225.12C381.364 229.21 382.604 233.34 382.634 234.3C382.674 235.26 382.243 236.05 381.693 236.05C381.143 236.049 380.243 234.699 379.693 233.05C378.883 230.6 378.143 230.05 375.693 230.05C373.254 230.05 372.513 230.6 371.693 233.05C371.143 234.7 370.243 236.05 369.693 236.05C369.144 236.05 368.694 235.49 368.684 234.8C368.674 234.11 369.524 231.07 370.574 228.05C371.624 225.02 373.024 221.28 373.674 219.72ZM399.124 217.05C401.864 217.05 402.694 217.46 402.684 218.8C402.674 220.17 401.974 220.479 399.434 220.229C397.294 220.02 395.594 220.52 394.414 221.729C393.424 222.739 392.644 224.99 392.664 226.8C392.684 228.59 393.373 230.72 394.193 231.55C395.023 232.37 397.273 233.05 399.193 233.05C401.643 233.05 402.693 233.5 402.693 234.55C402.693 235.63 401.583 236.05 398.693 236.05C395.764 236.05 394.033 235.38 392.193 233.55C390.304 231.66 389.713 230.05 389.773 226.97C389.833 223.91 390.554 222.17 392.693 219.97C394.793 217.82 396.484 217.05 399.124 217.05ZM412.864 217.05C413.324 217.053 413.693 221.322 413.693 226.55C413.693 234.33 413.423 236.05 412.193 236.05C410.994 236.049 410.664 234.329 410.534 227.22C410.444 222.361 410.744 218.081 411.193 217.72C411.653 217.35 412.404 217.05 412.864 217.05ZM447.864 217.05C448.325 217.052 450.386 219.743 456.193 229.01L456.693 223.51C456.973 220.49 457.643 217.91 458.193 217.779C458.793 217.639 459.293 221.27 459.443 226.8C459.653 234.47 459.443 236.05 458.193 236.05C457.373 236.049 455.012 233.258 449.193 223.67L448.943 229.859C448.753 234.579 448.343 236.05 447.193 236.05C445.994 236.049 445.664 234.329 445.534 227.22C445.444 222.361 445.744 218.081 446.193 217.72C446.653 217.35 447.404 217.05 447.864 217.05ZM255.454 217.02C256.144 217.04 256.694 217.39 256.684 217.8C256.673 218.21 255.324 220.91 253.684 223.8C251.944 226.87 250.704 230.51 250.704 232.55C250.704 234.859 250.284 235.939 249.454 235.72C248.764 235.54 247.953 233.4 247.653 230.97C247.343 228.54 246.124 224.75 244.934 222.55C243.744 220.35 243.054 218.21 243.403 217.8C243.753 217.39 244.414 217.05 244.874 217.05C245.334 217.05 246.384 218.85 247.204 221.05C248.034 223.25 249.044 225.05 249.454 225.04C249.864 225.029 251.104 223.219 252.204 221.01C253.304 218.8 254.764 217.01 255.454 217.02ZM315.613 217.04C317.033 217.04 319.213 217.71 320.443 218.54C321.883 219.51 322.684 221.04 322.674 222.8C322.654 224.31 321.874 226.35 320.924 227.33C319.974 228.31 318.183 229.1 316.943 229.08C315.134 229.06 314.653 229.66 314.443 232.22C314.313 233.97 313.633 235.54 312.943 235.72C312.024 235.959 311.654 233.729 311.534 227.22C311.444 222.361 311.743 218.081 312.193 217.72C312.653 217.35 314.193 217.05 315.613 217.04ZM429.764 220.05C428.704 220.05 427.103 220.76 426.193 221.62C425.254 222.52 424.584 224.67 424.624 226.62C424.664 228.64 425.523 230.87 426.693 232.05C427.793 233.15 429.033 234.059 429.443 234.06C429.853 234.06 431.203 233.39 432.443 232.56C434.153 231.42 434.693 230.09 434.693 227.05C434.693 224.83 434.033 222.39 433.193 221.55C432.373 220.73 430.824 220.05 429.764 220.05ZM16.2334 225.79C16.7834 224.14 20.0138 224.05 123.193 224.55L123.693 231.05H70.1934C20.1144 231.05 16.6639 230.94 16.1738 229.3C15.8839 228.34 15.9135 226.76 16.2334 225.79ZM476.114 225.29C476.554 224.3 487.284 224.09 577.193 224.55L577.693 231.05L526.964 230.8C477.104 230.55 476.224 230.51 475.894 228.55C475.714 227.45 475.804 225.98 476.114 225.29ZM220.794 223.55C220.114 221.77 219.903 221.9 218.863 224.8C217.793 227.769 217.864 228.05 219.693 228.05C220.793 228.05 221.664 227.49 221.624 226.8C221.584 226.11 221.214 224.65 220.794 223.55ZM335.733 223.55C334.973 221.7 334.843 221.76 333.903 224.37C333.353 225.92 332.854 227.38 332.794 227.62C332.745 227.86 333.594 228.05 334.693 228.05C335.793 228.05 336.664 227.49 336.624 226.8C336.584 226.11 336.183 224.65 335.733 223.55ZM376.733 223.55C375.973 221.7 375.843 221.76 374.903 224.37C374.353 225.92 373.854 227.38 373.794 227.62C373.745 227.86 374.594 228.05 375.693 228.05C376.793 228.05 377.664 227.49 377.624 226.8C377.584 226.11 377.183 224.65 376.733 223.55ZM279.193 220.05C277.084 220.05 276.693 220.52 276.693 223.05C276.693 224.779 277.224 226.059 277.943 226.069C278.633 226.079 280.054 225.519 281.094 224.819C282.324 223.999 282.764 222.94 282.344 221.8C281.964 220.78 280.663 220.05 279.193 220.05ZM354.193 220.05C353.194 220.05 352.693 221.05 352.693 223.05C352.693 224.699 353.144 226.049 353.693 226.05C354.243 226.05 355.593 225.6 356.693 225.05C357.793 224.5 358.693 223.38 358.693 222.55C358.693 221.73 358.023 220.83 357.193 220.55C356.373 220.28 355.023 220.05 354.193 220.05ZM317.023 220.229C315.214 219.97 314.843 220.42 314.773 222.979C314.703 225.589 315.034 226.01 316.943 225.8C318.613 225.62 319.193 224.9 319.193 223.05C319.193 221.25 318.593 220.459 317.023 220.229ZM47.7734 132.25C51.4834 130.32 53.4443 130 59.8643 130.25C66.4938 130.51 68.1038 130.95 71.8037 133.55C74.3936 135.37 77.0935 138.51 78.6436 141.52C80.8035 145.719 81.2034 147.82 81.1934 155.02C81.1834 161.39 80.714 164.44 79.334 167.05C78.314 168.97 76.0638 172.03 74.3438 173.84C72.4338 175.84 69.244 177.71 66.2041 178.6C63.4543 179.41 59.8542 180.06 58.2041 180.05C56.5542 180.05 53.5141 179.59 51.4541 179.04C49.3941 178.5 46.054 176.59 44.0439 174.8C42.024 173.01 39.3337 169.3 38.0537 166.55C36.3437 162.89 35.7339 159.81 35.7539 155.05C35.7739 151.47 36.3341 146.96 36.9941 145.02C37.6642 143.08 39.3635 139.929 40.7734 138.02C42.1934 136.11 45.3435 133.51 47.7734 132.25ZM21.2139 130.8C22.3039 130.59 23.8741 130.479 24.7041 130.569C25.9739 130.71 26.2439 133.761 26.4639 150.14C26.6839 167.01 26.4939 170.01 24.9639 173.05C23.9839 175 21.654 177.349 19.7041 178.359C17.4141 179.539 14.5937 180.049 11.5537 179.859C8.24382 179.639 6.13386 178.83 4.25391 177.05C2.80392 175.67 1.15376 172.75 0.59375 170.55C0.0437864 168.35 -0.166356 165.99 0.143555 165.3C0.453555 164.61 1.91379 164.16 3.38379 164.3C5.42376 164.49 6.27332 165.28 6.90332 167.55C7.36332 169.2 8.29363 171.13 8.97363 171.84C9.65363 172.56 11.6641 173.12 13.4541 173.09C15.6739 173.06 17.1839 172.34 18.2139 170.8C19.4439 168.96 19.6736 165.16 19.4736 149.87C19.2336 131.92 19.2939 131.18 21.2139 130.8ZM329.704 130.04C333.514 130.02 336.544 130.699 339.584 132.279C342.614 133.849 344.774 135.99 346.584 139.22C348.024 141.789 348.973 144.098 348.704 144.35C348.424 144.61 346.744 145.09 344.954 145.43C342.454 145.91 341.704 145.7 341.704 144.55C341.704 143.72 340.464 141.65 338.954 139.93C336.654 137.32 335.304 136.73 330.704 136.34C326.104 135.95 324.634 136.26 321.764 138.21C319.864 139.5 317.394 142.12 316.264 144.05C314.714 146.69 314.204 149.28 314.214 154.55C314.214 159.53 314.794 162.7 316.214 165.55C317.604 168.34 319.564 170.24 322.704 171.84C326.294 173.68 328.004 173.99 331.204 173.39C333.404 172.98 336.324 171.68 337.704 170.51C339.074 169.33 340.874 166.93 341.704 165.17C342.674 163.09 343.904 161.989 345.204 162.029C346.304 162.059 347.784 162.41 348.504 162.81C349.534 163.4 349.434 164.44 348.004 167.96C347.014 170.39 344.744 173.65 342.954 175.21C341.164 176.77 337.794 178.55 335.454 179.16C333.114 179.77 328.954 179.989 326.204 179.649C323.454 179.299 319.294 177.91 316.954 176.54C313.834 174.71 312.044 172.65 310.214 168.8C308.844 165.91 307.444 160.85 307.104 157.55C306.734 154.02 306.974 149.7 307.664 147.05C308.314 144.57 310.044 140.83 311.504 138.72C313.114 136.39 316.104 133.959 319.174 132.479C322.564 130.86 325.994 130.06 329.704 130.04ZM494.284 130.609C494.797 130.19 501.506 130.05 509.204 130.3C519.474 130.64 524.064 131.2 526.454 132.41C528.454 133.42 530.324 135.49 531.313 137.8C532.393 140.32 532.734 143.02 532.354 146.05C532.004 148.85 530.914 151.409 529.494 152.819C528.234 154.059 525.954 155.64 521.654 157.55L524.034 160.05C525.334 161.42 527.744 164.57 529.374 167.05C531.004 169.52 533.324 173.24 536.704 179.05L532.454 179.06C528.284 179.06 528.124 178.93 524.004 172.31C521.694 168.59 518.484 163.97 516.864 162.05C514.064 158.73 513.604 158.55 501.204 158.55L501.174 178.55L493.704 179.05L493.534 155.22C493.444 141.77 493.774 131.049 494.284 130.609ZM87.7041 130.79C88.8041 130.64 90.7039 130.75 91.9238 131.04C93.3639 131.37 96.3739 135.03 100.594 141.55C104.144 147.049 107.223 151.769 107.434 152.05C107.644 152.32 108.204 151.87 108.674 151.05C109.154 150.22 112.164 145.41 121.204 131.14L129.704 131.05L110.704 159.05V179.05H103.704V159.05L94.7041 145.55C89.7545 138.12 85.7047 131.821 85.7041 131.55C85.7041 131.27 86.6041 130.93 87.7041 130.79ZM170.704 131.05V137.05H142.704V151.05H168.704V157.05H142.704V173.05H171.704V179.05H135.704V131.05H170.704ZM196.454 131.09C206.064 131.11 211.984 131.55 213.454 132.34C214.684 133.01 216.593 134.9 217.693 136.55C218.853 138.3 219.693 141.23 219.693 143.55C219.693 145.8 218.824 148.97 217.704 150.8C216.584 152.62 214.054 154.74 208.204 157.16L210.813 159.85C212.253 161.34 215.224 165.25 217.414 168.55C219.604 171.85 221.924 175.56 222.554 176.8C223.664 178.96 223.544 179.05 219.454 179.04C215.224 179.02 215.184 178.989 210.204 170.939C207.454 166.5 203.964 161.78 202.454 160.46C200.204 158.49 198.614 158.05 187.704 158.05V179.05H181.704V131.05L196.454 131.09ZM237.704 131.05V179.05H231.704V131.05H237.704ZM266.544 131.04C270.194 131.02 270.214 131.04 273.594 139.29C275.464 143.83 279.864 154.53 283.374 163.05C286.884 171.58 289.743 178.66 289.733 178.8C289.712 178.94 287.902 179.05 281.704 179.05L276.943 165.55L256.704 165.05L254.674 170.8C253.554 173.96 252.424 177.11 252.174 177.8C251.914 178.49 250.134 179.05 248.204 179.05C246.285 179.05 244.615 178.86 244.504 178.62C244.394 178.38 248.264 168.15 253.104 155.87C257.943 143.6 262.124 132.99 262.384 132.3C262.654 131.61 264.524 131.04 266.544 131.04ZM390.744 130.51C391.774 130.49 392.344 131.55 392.704 137.05H364.704V151.05H390.704V157.05H364.704V173.05H393.704V179.05H357.704V131.05L373.454 130.8C382.114 130.66 389.894 130.53 390.744 130.51ZM436.954 130.43C438.194 130.09 439.764 130.09 440.454 130.43C441.404 130.901 441.704 136.853 441.704 179.05L437.954 179.01C434.214 178.97 434.164 178.91 410.204 143.12L409.704 179.05H402.704L402.504 155.13C402.334 134.98 402.534 131.15 403.754 130.8C404.554 130.57 406.324 130.449 407.704 130.529C409.774 130.66 412.265 133.761 434.204 166.55L434.454 148.8C434.704 131.34 434.744 131.04 436.954 130.43ZM486.704 137.05H471.704V179.05H464.704V137.05H448.704V134.05C448.704 131.39 449.074 131.02 451.954 130.77C453.745 130.61 462.245 130.42 486.474 130.2L486.704 137.05ZM591.404 130.27C593.054 130.22 594.484 130.72 594.584 131.37C594.684 132.023 594.864 141.516 595.204 172.37L618.204 172.55L618.704 179.05H588.704L588.554 154.7L588.404 130.35L591.404 130.27ZM560.584 130.5C562.264 130.53 563.564 131.4 564.404 133.05C565.105 134.421 569.514 145 574.214 156.55C578.904 168.1 582.734 177.89 582.724 178.3C582.713 178.71 581.014 178.94 578.964 178.8C575.344 178.56 575.124 178.32 570.034 165.55L550.204 164.979L547.684 171.76C545.204 178.45 545.114 178.55 541.184 178.91C538.094 179.19 537.354 178.96 537.864 177.91C538.234 177.16 542.444 166.42 547.224 154.05C552.013 141.672 556.393 131.303 556.974 131C557.564 130.7 559.184 130.48 560.584 130.5ZM60.2041 136.46C57.3842 136.21 53.6942 136.59 51.7441 137.33C49.8342 138.06 47.5341 139.75 46.624 141.1C45.724 142.45 44.4632 145.13 43.8232 147.05C43.1933 148.97 42.6841 152.8 42.7041 155.55C42.7241 158.7 43.5539 162.17 44.9639 164.93C46.2639 167.46 48.6741 170.16 50.7041 171.35C52.9541 172.66 55.7242 173.33 58.4541 173.22C60.7939 173.13 64.3333 172.26 66.3232 171.3C68.3132 170.34 70.8932 167.97 72.0732 166.05C73.7432 163.3 74.2041 160.95 74.2041 155.05C74.2041 149.35 73.7241 146.739 72.2041 144.149C71.1042 142.29 69.0741 139.89 67.7041 138.83C66.2942 137.73 63.034 136.7 60.2041 136.46ZM266.784 138.89C266.464 138.52 264.733 142.57 262.943 147.89C261.153 153.2 259.693 157.89 259.693 158.3C259.694 158.71 262.844 159.05 266.693 159.05C270.543 159.05 273.693 158.71 273.693 158.3C273.693 157.89 272.264 153.5 270.534 148.55C268.795 143.601 267.105 139.251 266.784 138.89ZM563.233 147.05C561.243 141.98 559.663 139.16 559.323 140.05C559.013 140.88 557.333 145.291 555.604 149.87C553.874 154.45 552.514 158.27 552.584 158.37C552.653 158.47 555.849 158.55 559.693 158.55C565.283 158.55 566.684 158.25 566.634 157.05C566.594 156.23 565.063 151.73 563.233 147.05ZM187.704 137.05L187.693 144.8V152.55C206.453 151.6 207.804 151.28 210.144 149.05C211.634 147.62 212.734 145.48 212.714 144.05C212.694 142.68 212.344 141.05 211.934 140.45C211.534 139.84 210.194 138.83 208.954 138.2C207.714 137.57 202.434 137.05 197.204 137.05H187.704ZM500.733 137.05L500.964 144.05L501.204 151.05H517.244C519.704 151.05 521.544 150.29 523.244 148.55C524.594 147.18 525.704 145.15 525.704 144.05C525.704 142.95 524.574 140.93 523.204 139.55C520.864 137.22 520.034 137.05 510.714 137.05H500.733ZM297.204 58.0498C317.274 58.0498 333.704 58.2698 333.704 58.5498C333.703 58.8222 325.571 75.3639 297.563 131.55L295.824 128.55C294.864 126.9 286.574 110.59 277.394 92.2998C268.214 74.0112 260.705 58.8221 260.704 58.5498C260.704 58.2698 277.124 58.0498 297.204 58.0498ZM237.724 118.05C239.364 118.05 240.914 118.39 241.174 118.8C241.434 119.21 240.204 121.47 238.424 123.81C236.294 126.629 234.444 128.069 232.954 128.06C231.714 128.06 230.674 127.58 230.644 127.01C230.614 126.44 231.524 124.19 232.664 122.01C234.374 118.74 235.264 118.05 237.724 118.05ZM220.854 42.0293C221.044 42.0193 228.404 45.3599 253.204 56.9199L269.954 90.9795C279.159 109.709 286.585 125.042 286.454 125.08C286.314 125.1 283.054 121.16 279.214 116.33C275.364 111.5 260.944 93.3697 247.164 76.0498C233.374 58.7199 221.744 43.99 221.304 43.2998C220.864 42.6101 220.654 42.0397 220.854 42.0293ZM373.054 42.0996C373.524 42.0696 373.254 42.8398 372.464 43.7998C371.674 44.7598 363.894 54.5498 355.164 65.5498C346.444 76.5498 332.194 94.4398 323.504 105.3C314.815 116.159 307.705 124.818 307.704 124.55C307.704 124.27 315.354 108.75 324.704 90.0498C334.054 71.3498 342.044 56.0601 342.454 56.0801C342.868 56.0883 349.726 52.9588 357.704 49.1299C365.674 45.29 372.584 42.1297 373.054 42.0996ZM330.424 35.2793C331.654 39.8293 332.884 44.7898 333.704 49.0498H259.704L260.714 45.7998C261.274 44.0098 262.664 39.0598 263.804 34.7998L265.884 27.0498L328.204 27L330.424 35.2793ZM233.193 14.4199C233.753 14.6399 239.604 16.9894 246.204 19.6494C252.804 22.3094 258.434 24.6401 258.704 24.8301C258.983 25.0248 257.873 30.4425 256.244 36.8594C254.626 43.2831 253.277 48.6593 253.244 48.8193C253.224 48.9693 244.974 45.5898 216.604 33.5498L224.394 23.79C228.673 18.421 232.632 14.2115 233.193 14.4199ZM363.193 15.1094C363.743 15.0794 366.893 18.82 370.193 23.4199C373.503 28.0199 376.073 32.1799 375.903 32.6699C375.74 33.1512 368.542 36.8202 359.903 40.8193C351.274 44.8188 343.596 48.1886 342.834 48.3193C341.894 48.4793 340.464 44.9897 334.994 25.5498L337.594 24.3496C339.034 23.6896 345.154 21.3494 351.204 19.1494C357.253 16.96 362.651 15.1402 363.193 15.1094ZM342.483 4.76953C348.683 7.39953 353.403 9.84996 352.983 10.21C352.551 10.5709 347.249 12.9114 330.204 19.9395L262.204 19.5293L251.704 15.1396C245.924 12.7196 240.863 10.4694 240.443 10.1494C240.027 9.8182 244.976 7.43921 251.443 4.87012L263.204 0.189453L331.204 0L342.483 4.76953Z" fill="#30312E"/>
</svg>
