<svg width="457" height="184" viewBox="0 0 457 184" fill="none" xmlns="http://www.w3.org/2000/svg">
<path d="M0 67.8341C0 67.8341 190.843 16.8323 240.949 0C289.977 17.0505 457 67.8341 457 67.8341V184H0V67.8341Z" fill="#0C7343"/>
<path d="M235.055 22.3017C237.395 21.1657 239.834 19.9181 240.471 19.5307C241.378 18.9759 241.763 18.8878 242.232 19.1197C242.564 19.2811 243.462 19.8565 244.228 20.3937C244.995 20.9309 247.34 22.4279 249.439 23.7195C251.538 25.0111 253.319 26.0679 253.402 26.0679C253.481 26.0679 254.241 26.4817 255.09 26.9896C255.938 27.4974 257.752 28.5072 259.126 29.2352C260.497 29.9602 261.753 30.6618 261.914 30.7939C262.076 30.923 265.311 32.5904 269.106 34.4984C272.899 36.4035 276.797 38.3174 277.766 38.7489C278.734 39.1775 281.045 40.2078 282.903 41.0385C284.758 41.8663 286.939 42.8556 287.746 43.2342C288.553 43.6158 292.845 45.38 297.286 47.156C301.725 48.9348 307.869 51.3096 310.936 52.4368C314.004 53.5611 318.691 55.2313 321.357 56.1442C324.019 57.0572 327.785 58.3165 329.723 58.9417C331.66 59.5699 334.83 60.5621 336.768 61.1491C338.705 61.7333 342.207 62.7871 344.547 63.4857C346.886 64.1844 350.059 65.0944 351.592 65.5082C353.124 65.9192 355.105 66.4505 355.995 66.6854C356.647 66.8574 358.025 67.2235 359.447 67.6008L360.985 68.0092C362.84 68.5024 367.199 69.5797 370.672 70.4045C374.142 71.2294 378.965 72.3595 381.386 72.9173C383.808 73.475 389.027 74.5963 392.981 75.4094C396.935 76.2226 403.672 77.5288 407.952 78.3126C412.229 79.0963 416.588 79.8713 417.639 80.0357C418.69 80.2001 423.445 81.0044 428.206 81.8234C432.968 82.6394 436.881 83.341 436.898 83.3821C436.916 83.4232 437.016 85.9975 437.306 94.7568L436.646 94.7539C436.282 94.7539 433.211 94.2872 429.821 93.7206C426.43 93.1512 421.872 92.4173 419.694 92.0885C417.516 91.7598 412.164 90.8322 407.805 90.0249C403.446 89.2206 395.388 87.6384 389.899 86.5142C384.41 85.387 378.862 84.2099 377.57 83.8987C376.279 83.5846 373.704 82.9917 371.846 82.5807C369.988 82.1697 367.678 81.6355 366.709 81.3948C365.74 81.1541 361.381 80.0269 357.022 78.8879C352.663 77.749 346.983 76.2284 344.4 75.5092C341.817 74.7901 339.175 74.0151 338.529 73.7891C337.883 73.566 335.837 72.9584 333.979 72.4417C332.121 71.9251 326.705 70.2079 321.944 68.6227C317.183 67.0376 311.435 65.0797 309.175 64.2754C306.915 63.4681 302.82 61.9358 300.075 60.8703C297.33 59.8018 294.688 58.745 294.204 58.519C293.72 58.293 292.199 57.6501 290.828 57.0924C289.455 56.5317 286.816 55.4133 284.958 54.6031C283.099 53.793 280.657 52.7127 279.527 52.199C278.397 51.6853 276.515 50.8135 275.344 50.2616C274.173 49.7098 273.116 49.2548 272.996 49.2489C272.875 49.246 269.341 47.517 265.143 45.4064C260.946 43.2988 257.379 41.4671 257.218 41.3409C257.056 41.2147 255.471 40.3458 253.695 39.4123C251.919 38.4759 248.32 36.4152 245.696 34.8272C243.072 33.2391 240.826 31.9416 240.706 31.9446C240.586 31.9504 238.041 33.1745 235.055 34.6716C232.067 36.1657 228.568 37.8712 227.276 38.4612C225.985 39.0483 223.607 40.1227 221.993 40.8448C220.378 41.5669 216.612 43.2137 213.627 44.5053C210.638 45.7939 206.543 47.5434 204.527 48.3918C202.507 49.2401 196.366 51.6795 190.877 53.8135C185.388 55.9476 178.187 58.6394 174.879 59.793C171.568 60.9466 168.133 62.156 167.247 62.4789C166.357 62.8018 161.866 64.3077 157.266 65.8253C152.664 67.3429 146.787 69.248 144.204 70.0611C141.621 70.8713 137.394 72.1452 134.81 72.8938C132.227 73.6394 128.132 74.8282 125.711 75.5386C123.289 76.246 118.598 77.5582 115.29 78.4564C111.979 79.3517 103.856 81.4594 97.237 83.1355C90.6176 84.8116 83.417 86.6052 81.2389 87.1218C79.0579 87.6355 74.8309 88.5631 71.8455 89.1825C68.8573 89.8018 63.7056 90.7823 60.3974 91.3635C57.0862 91.9447 52.5304 92.7519 50.2701 93.157C48.0099 93.5621 42.7261 94.4134 38.5284 95.0504C34.3308 95.6874 28.9149 96.4623 26.4932 96.7764C24.0715 97.0905 19.821 97.6541 17.047 98.0328C14.273 98.4114 11.9247 98.6522 11.8307 98.5729C11.7368 98.4936 11.8072 95.9163 11.9834 92.8488C12.1624 89.7813 12.3298 87.248 12.3562 87.2187C12.3826 87.1893 14.0529 86.9604 16.0724 86.7108C18.0891 86.4613 22.9765 85.795 26.9335 85.2314C30.8875 84.6707 36.6997 83.8077 39.8494 83.3116C42.9962 82.8185 47.687 82.0288 50.2701 81.5562C52.8533 81.0836 56.9482 80.3644 59.37 79.9564C61.7917 79.5455 65.3582 78.8879 67.2956 78.4946C69.233 78.0983 74.3847 76.9799 78.7438 76.0083C83.1029 75.0337 90.8965 73.1726 96.0628 71.8664C101.229 70.5601 106.513 69.1834 107.805 68.8018C109.096 68.4202 111.274 67.8184 112.648 67.4632C114.019 67.1051 118.51 65.8282 122.628 64.6217C126.744 63.4182 132.227 61.7891 134.81 61.0053C137.394 60.2245 141.356 58.9945 143.617 58.2754C145.877 57.5562 150.301 56.1413 153.45 55.1315C156.597 54.1217 161.617 52.4397 164.605 51.3918C167.59 50.3438 171.289 49.017 172.824 48.4475C174.357 47.8751 176.47 47.1149 177.521 46.7567C178.569 46.3986 180.682 45.6149 182.218 45.019C183.75 44.4201 186.459 43.3605 188.235 42.6648C190.011 41.9661 193.71 40.516 196.454 39.4417C199.199 38.3644 202.566 37.0141 203.94 36.4358C205.311 35.8604 209.538 34.0287 213.333 32.3673C217.126 30.7088 221.881 28.56 223.901 27.6001C225.917 26.6373 228.295 25.516 229.184 25.108C230.071 24.697 232.713 23.4348 235.055 22.3017Z" fill="#EDF1F0"/>
<path d="M264.069 65.9985C264.506 65.4378 265.322 64.8155 265.883 64.6159C266.447 64.4163 267.665 64.246 268.593 64.2401C269.673 64.2313 270.677 64.4251 271.381 64.7773C271.986 65.0797 272.911 65.8077 273.436 66.3918C273.961 66.9789 274.61 67.8859 274.877 68.4114C275.144 68.9368 275.564 70.0259 275.814 70.8331C276.189 72.0513 276.292 75.1599 276.592 106.055L278.206 106.249C279.093 106.358 281.734 106.595 284.077 106.777C286.416 106.959 288.829 107.171 290.535 107.379L290.682 78.7588L291.415 77.0239C291.894 75.8938 292.543 74.975 293.279 74.382C294.178 73.6629 294.753 73.4515 296.068 73.3634C297.251 73.2842 298.105 73.4163 299.048 73.8184C299.773 74.1296 301.011 74.9721 301.798 75.6912C302.588 76.4104 303.36 77.3292 303.521 77.7314C303.68 78.1365 303.994 79.1257 304.217 79.9329C304.507 80.9897 304.663 84.2715 304.772 91.6746C304.857 97.3253 304.986 114.829 305.059 130.569C305.153 150.151 305.097 159.747 304.883 160.951C304.71 161.919 304.37 163.108 304.123 163.593C303.879 164.077 303.263 164.914 302.758 165.451C302.25 165.988 301.372 166.619 300.809 166.851C300.207 167.1 298.839 167.274 297.506 167.268C296.001 167.265 294.859 167.092 294.131 166.76C293.526 166.484 292.863 166.055 292.657 165.806C292.452 165.556 291.923 164.693 290.682 162.418L290.514 130.129L287.664 129.912C286.094 129.791 282.929 129.691 276.445 129.688L276.298 162.418L275.535 163.886C275.115 164.693 274.387 165.662 273.92 166.041C273.451 166.419 272.605 166.918 272.042 167.15C271.466 167.385 270.078 167.567 268.886 167.561C267.386 167.558 266.432 167.391 265.657 166.998C265.052 166.689 264.275 166.129 263.928 165.75C263.585 165.371 263.036 164.532 262.71 163.886C262.387 163.24 261.973 161.919 261.797 160.951C261.568 159.715 261.471 146.517 261.474 116.626C261.477 88.7245 261.583 73.4045 261.782 72.1541C261.95 71.1061 262.355 69.518 262.681 68.6315C263.006 67.745 263.632 66.5591 264.069 65.9985Z" fill="#EDF1F0"/>
<path d="M225.955 66.8351C226.842 66.3977 228.559 65.8341 229.771 65.5816C231.131 65.3028 232.786 65.1795 234.101 65.2646C235.484 65.3556 237.128 65.7343 238.798 66.3448C240.21 66.8644 241.959 67.7392 242.687 68.2881C243.412 68.84 244.449 69.703 244.986 70.2079C245.523 70.7128 246.712 72.1159 247.625 73.3282C248.541 74.5376 249.823 76.5865 250.475 77.8781C251.13 79.1697 252.139 81.4153 252.721 82.8684C253.302 84.3214 254.247 87.0954 254.822 89.0328C255.398 90.9701 256.14 93.8087 256.475 95.3439C256.807 96.8792 257.274 99.4535 257.514 101.068C257.752 102.682 258.154 105.721 258.407 107.819C258.659 109.918 258.941 114.606 259.035 118.24C259.135 122.112 259.064 126.909 258.865 129.835C258.677 132.58 258.26 136.675 257.937 138.935C257.611 141.195 257.086 144.101 256.769 145.393C256.449 146.685 255.718 149.194 255.139 150.97C254.561 152.746 253.816 154.792 253.481 155.52C253.146 156.248 252.248 157.898 251.488 159.189C250.728 160.481 249.195 162.474 248.083 163.619C246.973 164.764 245.271 166.202 244.302 166.813C243.333 167.426 241.548 168.316 240.339 168.791C238.895 169.358 237.277 169.731 235.642 169.874C234.271 169.998 232.123 169.986 230.872 169.854C229.622 169.719 227.573 169.281 226.322 168.879C225.072 168.474 223.255 167.69 222.286 167.136C221.317 166.581 219.718 165.424 218.731 164.564C217.745 163.707 216.624 162.556 216.236 162.007C215.852 161.459 215.235 160.666 214.868 160.246C214.504 159.826 213.773 158.755 213.245 157.869C212.72 156.982 211.801 155.001 211.211 153.465C210.618 151.93 209.802 149.552 209.397 148.182C208.992 146.811 208.399 144.366 208.079 142.751C207.759 141.137 207.348 138.495 207.166 136.88C206.981 135.266 206.708 132.624 206.552 131.009C206.4 129.395 206.276 125.068 206.279 121.396C206.285 117.724 206.488 112.44 206.734 109.654C206.981 106.868 207.445 102.873 207.768 100.774C208.087 98.6756 208.804 95.2412 209.353 93.1424C209.905 91.0435 210.976 87.6091 211.733 85.5102C212.494 83.4114 213.624 80.6697 214.252 79.4192C214.877 78.1687 215.998 76.2519 216.744 75.1629C217.49 74.0738 218.646 72.5386 219.313 71.749C219.979 70.9623 221.382 69.7147 222.433 68.975C223.484 68.2382 225.066 67.2754 225.955 66.8351Z" fill="#EDF1F0"/>
<path d="M180.75 79.2372C182.928 78.7441 185.041 78.2803 185.447 78.204C185.849 78.1276 187.501 78.1159 189.116 78.1776C190.73 78.2392 192.644 78.474 193.372 78.7001C194.097 78.929 195.354 79.475 196.161 79.9153C196.968 80.3586 198.072 81.1365 198.615 81.6472C199.158 82.158 200.088 83.2353 200.684 84.0425C201.28 84.8498 201.985 85.9711 202.249 86.5376C202.513 87.1042 203.068 88.4574 203.482 89.5465C203.896 90.6355 204.509 92.8811 204.844 94.5367C205.217 96.3655 205.519 99.2745 205.616 101.949C205.71 104.502 205.636 107.646 205.437 109.434C205.252 111.128 204.829 113.705 204.497 115.158C204.116 116.837 203.276 119.083 202.196 121.322C200.802 124.208 200.118 125.241 196.314 129.248L197.218 131.156C197.717 132.207 198.63 134.318 199.246 135.853C199.862 137.388 201.838 143.001 203.637 148.328C205.716 154.481 206.966 158.658 207.072 159.777C207.166 160.795 207.084 162.096 206.875 162.859C206.643 163.71 206.086 164.611 205.302 165.395C204.515 166.182 203.62 166.736 202.766 166.968C202.002 167.174 200.388 167.277 198.95 167.206C196.995 167.115 196.176 166.933 195.169 166.367C194.288 165.873 193.495 165.049 192.647 163.739C191.966 162.688 190.933 160.578 190.352 159.043C189.77 157.507 188.094 152.755 186.627 148.475C185.159 144.195 183.624 139.772 183.213 138.641C182.799 137.511 182.309 136.155 182.121 135.63C181.933 135.101 181.645 134.629 181.484 134.579C181.322 134.529 180.562 134.532 178.402 134.679L178.255 162.712L177.5 163.886C177.086 164.532 176.358 165.342 175.886 165.688C175.413 166.035 174.43 166.478 173.705 166.678C172.892 166.898 171.621 166.965 170.402 166.854C169.313 166.757 167.925 166.422 167.32 166.114C166.716 165.806 165.864 165.178 165.427 164.72C164.992 164.262 164.397 163.358 164.106 162.712C163.607 161.605 163.575 159.504 163.501 125.579C163.434 94.2373 163.484 89.4232 163.868 88.0787C164.112 87.2304 164.74 86.0562 165.265 85.4662C165.791 84.8762 166.683 84.11 167.247 83.7637C167.811 83.4173 169.131 82.7832 170.182 82.3488C171.233 81.9173 173.147 81.2421 174.439 80.8488C175.73 80.4554 178.572 79.7304 180.75 79.2372Z" fill="#EDF1F0"/>
<path d="M320.183 86.0063C320.908 85.5836 322.229 85.0112 323.118 84.7294C324.008 84.4506 325.657 84.2157 326.787 84.2098C327.917 84.204 329.699 84.3948 330.75 84.6355C331.801 84.8762 333.515 85.4251 334.566 85.8566C335.617 86.2881 337.07 87.0396 337.795 87.5239C338.52 88.0083 339.181 88.4838 339.263 88.5807C339.345 88.6776 339.997 89.2148 340.716 89.7754C341.432 90.3361 342.756 91.7862 343.654 92.9956C344.553 94.2079 345.9 96.386 346.648 97.839C347.397 99.2921 348.427 101.67 348.935 103.123C349.446 104.576 350.171 107.018 350.55 108.553C350.928 110.089 351.322 111.87 351.424 112.516C351.527 113.162 351.68 114.087 351.765 114.571C351.85 115.055 351.97 115.384 352.035 115.305C352.097 115.226 352.417 113.77 352.748 112.076C353.077 110.382 353.691 107.937 354.11 106.645C354.53 105.354 355.29 103.504 355.801 102.539C356.312 101.57 357.653 99.8087 358.784 98.6228C360.195 97.1375 361.387 96.2011 362.6 95.6228C363.568 95.159 365.153 94.6893 366.122 94.5778C367.381 94.4339 368.553 94.5279 370.232 94.9095C371.523 95.2001 373.24 95.7637 374.048 96.157C374.855 96.5504 376.308 97.4721 377.277 98.2001C378.245 98.931 379.499 100.137 380.062 100.883C380.629 101.632 381.157 102.31 381.237 102.389C381.319 102.468 381.574 102.867 381.803 103.27C382.029 103.675 382.516 104.596 382.883 105.324C383.247 106.052 383.902 107.834 384.336 109.287C384.885 111.128 385.167 112.865 385.27 115.011C385.352 116.773 385.282 118.595 385.103 119.268C384.929 119.913 384.486 120.891 384.116 121.443C383.743 121.992 383.068 122.72 382.613 123.057C381.965 123.536 381.351 123.671 379.825 123.671C378.198 123.671 377.694 123.545 376.857 122.937C376.302 122.535 375.545 121.707 375.169 121.102C374.793 120.498 374.074 118.713 373.566 117.139C372.865 114.964 372.389 114.016 371.585 113.188C371.001 112.59 370.229 112.096 369.865 112.088C369.501 112.082 368.84 112.258 368.397 112.481C367.954 112.704 367.411 113.265 367.196 113.729C366.979 114.192 366.627 115.099 366.413 115.745C366.198 116.391 365.884 117.647 365.714 118.534C365.544 119.42 365.25 121.866 365.065 123.964C364.869 126.192 364.81 129.368 364.924 131.596C365.033 133.695 365.244 136.733 365.4 138.348C365.553 139.962 365.899 142.408 366.166 143.778C366.436 145.149 367.032 147.098 367.49 148.108C367.948 149.118 368.652 150.275 369.057 150.677C369.624 151.243 370.094 151.411 371.112 151.411C371.837 151.411 372.83 151.214 374.194 150.53L374.048 142.757L372.727 142.575C372.002 142.472 370.977 142.173 370.452 141.909C369.926 141.647 369.099 140.869 368.611 140.183C368.118 139.49 367.581 138.219 367.402 137.321C367.223 136.434 367.147 134.717 367.235 133.504C367.323 132.295 367.59 130.839 367.833 130.276C368.074 129.712 368.582 128.96 368.958 128.608C369.336 128.256 370.009 127.824 370.452 127.654C370.895 127.481 371.887 127.34 372.653 127.337C373.42 127.337 375.697 127.481 377.717 127.66C379.734 127.839 381.982 128.188 382.707 128.435C383.432 128.685 384.342 129.166 384.727 129.506C385.111 129.85 385.669 130.657 385.968 131.303C386.409 132.257 386.514 133.246 386.535 136.587C386.547 138.847 386.652 141.225 386.767 141.87C386.952 142.901 387.11 142.361 388.059 137.467C388.651 134.4 389.476 129.976 389.893 127.634C390.307 125.291 390.906 121.924 391.22 120.148C391.537 118.372 392.133 114.674 392.547 111.929C392.958 109.184 393.477 106.41 393.703 105.765C393.929 105.119 394.519 104.227 395.016 103.783C395.512 103.34 396.477 102.818 397.164 102.627C398.145 102.354 398.79 102.357 400.173 102.653C401.142 102.859 402.583 103.314 403.373 103.663C404.165 104.012 405.254 104.793 405.794 105.398C406.335 106.002 406.971 106.927 407.209 107.453C407.447 107.978 407.97 110.124 408.372 112.223C408.774 114.321 409.246 116.896 409.42 117.947C409.596 118.998 410.714 124.81 411.906 130.863C413.101 136.918 414.134 142.202 414.204 142.604C414.272 143.009 414.348 141.885 414.369 140.109C414.392 138.333 414.266 131.133 414.087 124.111C413.852 114.832 413.852 111.001 414.087 110.094C414.284 109.334 414.753 108.562 415.29 108.113C415.775 107.711 416.732 107.232 417.419 107.053C418.464 106.783 419.338 106.854 422.776 107.491C425.036 107.908 427.414 108.327 428.06 108.424C428.705 108.518 429.63 108.732 430.114 108.9C430.599 109.064 431.324 109.352 431.729 109.537C432.131 109.722 432.991 110.221 433.637 110.643C434.283 111.066 435.383 112.055 436.082 112.845C436.781 113.632 437.805 115.202 438.357 116.332C438.909 117.462 439.64 119.444 439.977 120.735C440.462 122.579 440.603 124.061 440.638 127.634C440.673 131.203 440.567 132.594 440.156 134.092C439.869 135.142 439.34 136.593 438.985 137.321C438.63 138.049 438.008 139.017 437.603 139.475C436.875 140.3 436.872 140.321 437.38 141.31C437.661 141.862 438.433 144.589 439.094 147.374C439.757 150.16 440.694 153.956 441.178 155.814C441.847 158.379 442.032 159.647 441.947 161.097C441.856 162.653 441.674 163.22 440.964 164.162C440.485 164.799 439.566 165.556 438.921 165.844C438.275 166.132 437.118 166.372 436.352 166.375C435.442 166.378 434.45 166.126 433.49 165.647C432.683 165.245 431.77 164.55 431.465 164.106C431.156 163.663 430.701 162.771 430.452 162.125C430.202 161.479 429.513 158.773 428.923 156.107C428.33 153.442 427.728 150.768 427.584 150.163C427.428 149.497 427.153 149.062 426.885 149.062C426.507 149.062 426.454 149.919 426.518 155.3C426.589 161.412 426.577 161.57 425.858 163.123C425.265 164.403 424.839 164.87 423.656 165.542C422.562 166.164 421.795 166.375 420.648 166.378C419.799 166.381 418.743 166.223 418.299 166.029C417.856 165.835 417.128 165.439 416.685 165.148C416.206 164.834 415.819 164.74 415.731 164.914C415.649 165.075 415.056 165.471 414.41 165.794C413.652 166.173 412.637 166.384 411.548 166.387C410.62 166.393 409.396 166.205 408.833 165.97C408.269 165.738 407.385 165.107 406.869 164.57C406.355 164.033 405.806 163.264 405.653 162.859C405.501 162.457 405.093 160.475 404.752 158.456C404.409 156.439 403.954 153.929 403.352 150.97L397.971 150.823L397.792 152.365C397.696 153.213 397.249 155.755 396.806 158.015C396.36 160.276 395.726 162.653 395.397 163.299C395.065 163.945 394.42 164.828 393.962 165.263C393.504 165.694 392.764 166.19 392.321 166.364C391.878 166.534 390.721 166.675 389.752 166.675C388.784 166.675 387.627 166.534 387.184 166.364C386.741 166.19 385.945 165.63 385.417 165.116C384.888 164.599 384.46 164.048 384.46 163.886C384.46 163.725 384.342 163.396 384.198 163.152C383.984 162.788 383.741 162.888 382.778 163.739C382.141 164.303 380.84 165.187 379.886 165.7C378.935 166.214 377.101 166.924 375.809 167.279C373.839 167.823 372.965 167.902 370.378 167.773C368.224 167.667 366.809 167.432 365.682 166.995C364.792 166.648 363.471 165.985 362.746 165.518C362.021 165.052 360.897 164.162 360.251 163.543C359.605 162.92 358.537 161.623 357.879 160.654C357.219 159.688 356.189 157.839 355.584 156.548C354.982 155.256 354.175 153.075 353.79 151.704C353.406 150.333 352.933 148.352 352.742 147.301C352.549 146.25 352.29 145.261 352.164 145.099C352.038 144.938 351.847 145.466 351.738 146.274C351.633 147.081 351.283 148.733 350.964 149.943C350.644 151.155 349.91 153.333 349.337 154.786C348.762 156.239 347.688 158.353 346.951 159.483C346.214 160.613 344.679 162.462 343.537 163.593C342.398 164.723 340.672 166.064 339.703 166.575C338.735 167.086 336.95 167.799 335.74 168.163C334.246 168.612 332.737 168.832 331.044 168.847C329.673 168.856 327.691 168.683 326.641 168.46C325.59 168.236 323.94 167.705 322.971 167.277C322.003 166.848 320.55 166.047 319.742 165.495C318.935 164.943 317.693 163.96 316.986 163.308C316.276 162.659 315.213 161.464 314.623 160.657C314.033 159.85 313.161 158.529 312.688 157.722C312.213 156.915 311.585 155.726 311.291 155.08C310.995 154.434 310.419 152.916 310.014 151.704C309.606 150.495 308.961 148.114 308.576 146.42C308.194 144.727 307.663 141.688 307.402 139.669C307.138 137.652 306.85 133.029 306.765 129.395C306.668 125.432 306.744 120.97 306.953 118.24C307.146 115.739 307.557 112.17 307.871 110.315C308.186 108.459 308.72 105.75 309.057 104.297C309.398 102.844 310.07 100.534 310.551 99.16C311.033 97.7862 311.893 95.8048 312.465 94.7568C313.035 93.7089 314.115 92.0005 314.861 90.9643C315.609 89.9281 316.816 88.5602 317.541 87.9261C318.266 87.292 319.458 86.4261 320.183 86.0063Z" fill="#EDF1F0"/>
<path d="M141.268 88.3136C143.69 87.8146 147.653 87.0924 150.075 86.705C152.496 86.3175 155.335 85.9887 156.386 85.9682C157.437 85.9506 158.758 86.1208 159.321 86.3468C159.885 86.5729 160.686 87.1394 161.094 87.6032C161.505 88.067 162.034 88.9741 162.268 89.6198C162.568 90.4388 162.697 92.0416 162.697 94.9036C162.697 98.8165 162.659 99.0866 161.89 100.554C161.447 101.403 160.654 102.41 160.128 102.794C159.603 103.182 158.843 103.598 158.441 103.725C158.036 103.851 156.386 104.165 151.836 104.884L151.542 162.418L150.809 163.698C150.354 164.494 149.576 165.266 148.754 165.744C147.621 166.399 147.095 166.507 145.084 166.496C143.156 166.487 142.475 166.349 141.268 165.73C140.461 165.316 139.578 164.732 139.308 164.432C139.035 164.133 138.541 163.293 138.213 162.565C137.623 161.265 137.611 160.807 137.599 107.379L134.15 107.567C130.997 107.737 130.592 107.699 129.453 107.127C128.766 106.78 128.141 106.531 128.059 106.572C127.98 106.613 128.129 107.505 128.397 108.553C128.661 109.601 128.881 111.583 128.887 112.956C128.895 114.62 128.724 115.941 128.376 116.919C128.091 117.727 127.504 118.907 127.076 119.544C126.647 120.181 125.708 121.005 124.977 121.387C124.249 121.769 123.127 122.159 122.482 122.259C121.78 122.37 120.894 122.288 120.28 122.056C119.714 121.842 118.889 121.328 118.445 120.909C118.002 120.492 117.45 119.62 117.218 118.974C116.987 118.328 116.59 116.975 116.338 115.965C116.085 114.956 115.613 113.602 115.29 112.956C114.967 112.311 114.406 111.636 114.042 111.459C113.523 111.204 113.103 111.254 112.061 111.694C111.169 112.07 110.443 112.675 109.83 113.558C109.328 114.277 108.697 115.525 108.43 116.332C108.16 117.139 107.737 118.989 107.487 120.442C107.241 121.895 106.959 125.593 106.865 128.661C106.762 132.031 106.839 136.155 107.056 139.082C107.256 141.747 107.655 144.85 107.942 145.98C108.23 147.11 108.732 148.563 109.061 149.209C109.387 149.855 110.009 150.712 110.441 151.117C111.031 151.666 111.547 151.851 112.504 151.851C113.523 151.851 113.972 151.672 114.712 150.97C115.219 150.486 115.909 149.561 116.238 148.915C116.57 148.27 117.154 146.585 117.533 145.173C117.914 143.761 118.41 142.24 118.636 141.797C118.865 141.354 119.361 140.699 119.737 140.347C120.116 139.992 120.923 139.496 121.528 139.246C122.132 138.994 123.057 138.788 123.582 138.791C124.108 138.791 125.065 138.935 125.711 139.114C126.45 139.317 127.381 139.939 128.229 140.799C129.265 141.853 129.65 142.516 129.917 143.705C130.105 144.553 130.258 145.939 130.258 146.787C130.255 147.636 130.008 149.517 129.709 150.97C129.409 152.423 128.719 154.669 128.179 155.96C127.639 157.252 126.747 158.969 126.198 159.777C125.649 160.584 124.586 161.881 123.841 162.656C123.092 163.434 121.754 164.508 120.867 165.043C119.978 165.577 118.525 166.261 117.638 166.563C116.37 166.998 115.205 167.112 112.208 167.098C109.137 167.083 108.075 166.965 106.777 166.487C105.888 166.161 104.206 165.278 103.034 164.523C101.749 163.695 100.31 162.427 99.3974 161.318C98.5697 160.308 97.4043 158.491 96.8055 157.281C96.2096 156.069 95.4405 154.155 95.097 153.025C94.7565 151.895 94.2751 149.846 94.0286 148.475C93.782 147.104 93.4473 144.592 93.28 142.898C93.1127 141.204 92.9806 139.023 92.9865 138.054C92.9923 137.086 92.8955 136.196 92.7693 136.076C92.643 135.958 92.3289 136.287 92.0706 136.81C91.8123 137.332 91.1518 138.063 90.6029 138.436C90.054 138.806 89.1411 139.234 88.5775 139.384C88.0109 139.537 85.5011 139.863 83.0002 140.106C80.4962 140.35 78.418 140.549 78.3769 140.549C78.3358 140.549 78.3358 143.141 78.4502 152.071L84.6146 152.109C89.235 152.139 91.0961 152.259 92.0501 152.588C92.7487 152.828 93.691 153.421 94.1401 153.906C94.5892 154.39 95.1059 155.415 95.2908 156.181C95.4728 156.947 95.6225 158.4 95.6225 159.41C95.6225 160.419 95.4875 161.708 95.3231 162.272C95.1587 162.835 94.598 163.734 94.0755 164.265C93.553 164.796 92.599 165.371 91.9532 165.542C91.2135 165.741 87.098 165.841 80.7986 165.812C75.1802 165.785 70.2399 165.636 69.4972 165.465C68.7692 165.298 67.9121 165.019 67.5892 164.843C67.2663 164.67 66.8377 164.282 66.6352 163.986C66.28 163.463 66.2477 163.463 65.6077 164.015C65.2438 164.329 64.4189 164.825 63.7731 165.116C62.7457 165.58 61.5246 165.656 53.9394 165.735C46.5451 165.815 44.957 165.753 43.0784 165.319C41.596 164.978 40.4922 164.511 38.5284 162.976L37.6478 163.886C37.0783 164.476 36.1977 164.946 35.1527 165.222C33.8729 165.559 31.5979 165.633 24.1448 165.574C18.9785 165.536 14.091 165.374 13.2838 165.213C12.4765 165.054 11.3523 164.62 10.7887 164.247C10.2221 163.877 9.50294 163.05 9.18591 162.407C8.65754 161.335 8.59589 160.311 8.39628 149.356C8.27593 142.819 8.13797 133.041 8 117.8L8.73386 116.488C9.18298 115.686 9.9227 114.92 10.6419 114.515C11.2877 114.151 13.0049 113.582 14.4579 113.253C15.911 112.924 20.4022 112.193 24.4384 111.63C28.4746 111.066 32.3053 110.602 32.9511 110.599C33.5969 110.596 34.5862 110.778 35.1527 111.004C35.7163 111.23 36.5646 111.862 37.0343 112.408C37.504 112.951 37.9296 113.265 37.9795 113.103C38.0294 112.942 38.3787 112.349 38.7515 111.782C39.1273 111.216 39.958 110.467 40.595 110.112C41.2349 109.76 42.55 109.322 43.5187 109.14C44.7809 108.906 45.7144 108.9 46.821 109.123C47.7515 109.311 48.7261 109.754 49.278 110.241C49.7829 110.684 50.411 111.509 50.6723 112.076C51.095 112.98 51.1684 115.405 51.4443 151.789L55.9942 151.736C59.2232 151.698 60.9698 151.807 62.0119 152.106C62.8191 152.341 63.776 152.608 64.8005 152.878L64.8739 130.936C64.9443 110.156 64.9766 108.938 65.4962 107.966C65.7956 107.4 66.324 106.637 66.6704 106.267C67.0138 105.894 68.3524 105.186 69.644 104.693C70.9356 104.197 73.642 103.422 75.6616 102.967C77.6782 102.515 81.2448 101.802 83.5872 101.388C85.9268 100.971 88.4366 100.634 89.1646 100.636C89.8896 100.639 91.0139 100.877 91.6597 101.165C92.3055 101.455 93.1156 102.081 93.462 102.553C93.8055 103.029 94.234 103.945 94.4131 104.591C94.5922 105.236 94.7419 106.754 94.7419 107.966C94.7448 109.176 94.554 110.828 94.3192 111.636C94.0843 112.443 93.5882 113.394 93.2154 113.746C92.8456 114.101 92.0765 114.583 91.5129 114.82C90.9464 115.055 88.5687 115.592 86.2291 116.009C83.8867 116.429 81.509 116.843 80.9454 116.931C80.3788 117.016 79.554 117.148 78.3035 117.36V125.872L79.4043 125.869C80.009 125.869 81.9581 125.717 83.734 125.532C85.5099 125.347 87.5559 125.279 88.2839 125.382C89.009 125.485 90.0569 125.869 90.6059 126.236C91.1577 126.6 91.8857 127.428 92.8338 129.248L93.0217 125.726C93.1215 123.788 93.4297 120.685 93.7027 118.827C93.9728 116.969 94.4571 114.395 94.7741 113.103C95.0912 111.812 95.7663 109.698 96.2742 108.407C96.782 107.115 97.8828 104.937 98.7194 103.563C99.7203 101.925 100.988 100.381 102.409 99.0719C103.601 97.9741 105.368 96.6884 106.337 96.2158C107.305 95.7431 108.891 95.1561 109.859 94.9095C110.828 94.6629 112.281 94.4633 113.088 94.4662C113.896 94.4692 115.481 94.7128 116.611 95.0034C117.741 95.294 119.376 95.9193 120.245 96.3919C121.114 96.8645 122.602 98.0768 123.547 99.0866C124.495 100.096 125.502 101.379 126.298 102.953L126.336 99.6619C126.362 97.3811 126.524 95.9662 126.864 95.0504C127.137 94.3224 127.68 93.3009 128.077 92.7754C128.47 92.25 129.321 91.5572 129.967 91.2343C130.613 90.9114 132.43 90.3273 134.003 89.9339C135.577 89.5406 138.847 88.8126 141.268 88.3136Z" fill="#EDF1F0"/>
<path d="M35.7405 123.081C36.1426 122.875 36.7385 122.412 37.0614 122.056L37.6485 121.405L37.8246 129.142C37.9215 133.399 37.9215 140.679 37.8246 145.32C37.7277 149.963 37.5839 153.762 37.5017 153.765C37.4195 153.768 36.7591 153.548 36.034 153.275C34.9919 152.884 33.3833 152.752 22.0907 152.532L21.8618 148.522C21.7326 146.318 21.668 144.48 21.715 144.439C21.759 144.398 23.5819 144.228 25.76 144.057C27.9381 143.89 30.3833 143.626 31.1905 143.467C31.9978 143.312 33.0868 142.921 33.6123 142.601C34.1377 142.278 34.7894 141.589 35.0624 141.063C35.3765 140.456 35.6054 139.149 35.6876 137.467C35.7962 135.222 35.7228 134.617 35.1915 133.431C34.7072 132.354 34.3168 131.934 33.4655 131.582C32.8608 131.329 31.8363 131.012 31.1905 130.871C30.4772 130.716 28.4401 130.751 26.0007 130.959C23.7933 131.147 21.9146 131.235 21.8265 131.156C21.7414 131.077 21.577 129.821 21.4625 128.367C21.2982 126.239 21.3363 125.676 21.6739 125.461C21.9029 125.318 24.2688 124.954 26.9342 124.654C29.5995 124.355 32.5027 123.964 33.3921 123.782C34.2816 123.603 35.3354 123.286 35.7405 123.081Z" fill="#0C7343"/>
<path d="M266.118 71.7138C266.33 71.2294 266.782 70.5367 267.122 70.1727C267.554 69.7089 268.076 69.5122 268.863 69.5122C269.691 69.5122 270.21 69.7265 270.827 70.3194C271.291 70.7627 271.842 71.6551 272.057 72.3009C272.359 73.2138 272.465 77.6521 272.629 110.902L274.17 111.051C275.019 111.134 279.342 111.462 283.784 111.782C288.222 112.102 292.417 112.431 294.351 112.663L294.425 96.5915C294.495 81.1218 294.519 80.4819 295.085 79.5191C295.411 78.9613 296.03 78.4066 296.479 78.2715C297.055 78.0954 297.604 78.1717 298.387 78.5386C299.121 78.8811 299.684 79.4437 300.075 80.2265C300.639 81.3537 300.671 82.2285 300.883 101.508C301.006 112.569 301.07 130.334 301.029 140.99C300.965 158.247 300.903 160.461 300.477 161.244C300.213 161.729 299.817 162.292 299.597 162.495C299.377 162.697 298.666 162.944 298.021 163.041C297.037 163.19 296.691 163.097 295.892 162.454C295.173 161.875 294.865 161.324 294.645 160.217C294.469 159.342 294.351 152.048 294.351 125.579L292.81 125.438C291.962 125.362 288.099 125.097 284.224 124.851C280.349 124.601 276.155 124.402 272.629 124.405L272.632 141.797C272.635 156.436 272.565 159.433 272.192 160.731C271.848 161.928 271.552 162.369 270.868 162.712C270.383 162.956 269.523 163.152 268.96 163.152C268.238 163.152 267.683 162.912 267.093 162.345C266.52 161.796 266.145 161.024 265.913 159.923C265.66 158.732 265.593 147.096 265.652 115.452C265.716 80.7842 265.804 72.4271 266.118 71.7138Z" fill="#CD2116"/>
<path d="M226.543 71.6022C227.271 71.1825 228.524 70.6101 229.332 70.3312C230.139 70.0523 231.656 69.8175 232.707 69.8087C233.814 69.7999 235.417 70.0376 236.523 70.3752C237.574 70.6922 239.083 71.3909 239.876 71.9222C240.671 72.4535 242.124 73.7568 243.105 74.8165C244.088 75.8791 245.435 77.661 246.102 78.7793C246.765 79.8977 247.643 81.5416 248.048 82.4281C248.453 83.3146 249.245 85.3635 249.809 86.978C250.373 88.5925 251.174 91.1669 251.588 92.7021C252.002 94.2373 252.604 96.8792 252.926 98.5729C253.249 100.267 253.716 103.24 253.963 105.178C254.209 107.115 254.564 110.749 254.755 113.25C254.967 116.068 255.028 120.424 254.917 124.698C254.817 128.491 254.544 133.05 254.312 134.825C254.077 136.601 253.669 139.308 253.399 140.843C253.132 142.378 252.451 145.217 251.887 147.154C251.327 149.092 250.308 151.866 249.624 153.319C248.943 154.772 247.666 157.006 246.783 158.28C245.902 159.556 244.59 161.124 243.862 161.761C243.134 162.401 241.88 163.308 241.073 163.775C240.266 164.241 238.681 164.902 237.551 165.239C236.148 165.659 234.703 165.853 233.001 165.847C231.63 165.844 229.913 165.691 229.185 165.509C228.457 165.327 227.203 164.905 226.396 164.573C225.589 164.238 224.136 163.408 223.167 162.727C222.198 162.046 220.549 160.425 219.498 159.128C218.447 157.827 216.912 155.462 216.081 153.868C215.25 152.274 214.214 149.914 213.777 148.622C213.339 147.33 212.735 145.085 212.432 143.632C212.13 142.179 211.584 138.812 211.22 136.146C210.633 131.858 210.557 130.076 210.551 120.589C210.548 111.048 210.621 109.343 211.214 105.031C211.581 102.368 212.265 98.4702 212.735 96.3714C213.204 94.2725 214.067 91.1023 214.649 89.3263C215.233 87.5504 216.307 84.8439 217.035 83.3087C217.766 81.7735 219.063 79.4633 219.921 78.1717C220.778 76.8801 222.322 75.0455 223.352 74.0944C224.379 73.1463 225.815 72.0249 226.543 71.6022Z" fill="#CD2116"/>
<path d="M178.842 84.3038C180.618 83.8752 183.128 83.3557 184.42 83.1531C185.711 82.9477 187.825 82.7686 189.116 82.7569C190.898 82.7422 191.858 82.8919 193.097 83.388C193.992 83.749 195.251 84.5034 195.891 85.07C196.534 85.6365 197.447 86.6903 197.922 87.4183C198.398 88.1463 199.144 89.6639 199.578 90.7941C200.015 91.9242 200.611 93.9702 200.908 95.344C201.339 97.3401 201.445 99.1277 201.439 104.297C201.433 110.039 201.357 111.063 200.752 113.544C200.379 115.079 199.472 117.586 198.739 119.121C197.661 121.375 197.004 122.303 195.316 123.967C194.083 125.18 192.504 126.383 191.465 126.903C190.496 127.384 189.671 127.813 189.63 127.854C189.589 127.895 190.185 128.555 190.957 129.322C191.726 130.088 192.835 131.641 193.425 132.771C194.012 133.901 195.876 138.721 197.57 143.485C199.261 148.249 201.055 153.433 201.559 155.007C202.223 157.085 202.472 158.432 202.472 159.923C202.472 161.826 202.411 162.022 201.665 162.574C201.143 162.962 200.418 163.17 199.61 163.161C198.923 163.158 198.034 163.02 197.629 162.859C197.227 162.697 196.531 162.075 196.088 161.479C195.642 160.877 194.453 158.021 193.431 155.095C192.413 152.18 190.516 146.69 189.219 142.898C187.919 139.105 186.339 134.911 185.711 133.578C184.883 131.825 184.302 130.995 183.612 130.569C182.881 130.12 182.145 129.985 180.457 129.985C179.244 129.985 177.363 130.085 174.286 130.422L174.289 145.32C174.292 157.913 174.225 160.375 173.852 161.244C173.608 161.808 173.147 162.404 172.825 162.565C172.502 162.727 171.774 162.859 171.21 162.859C170.646 162.859 169.786 162.662 169.302 162.418C168.803 162.169 168.231 161.532 167.981 160.951C167.597 160.055 167.541 155.417 167.544 125.212C167.544 103.14 167.649 90.0984 167.837 89.3997C168.019 88.707 168.48 88.0406 169.082 87.6032C169.607 87.2187 171.289 86.4966 172.825 85.9946C174.36 85.4927 177.066 84.7324 178.842 84.3038Z" fill="#CD2116"/>
<path d="M321.51 90.5005C322.446 89.8547 323.82 89.1708 324.56 88.98C325.302 88.7892 326.503 88.6248 327.228 88.616C327.953 88.6101 329.406 88.7833 330.457 89.0005C331.508 89.2207 333.158 89.7755 334.126 90.2363C335.095 90.6942 336.73 91.8684 337.763 92.84C338.794 93.8146 340.188 95.3381 340.863 96.2246C341.535 97.1111 342.428 98.432 342.847 99.16C343.267 99.888 344.033 101.538 344.55 102.829C345.07 104.121 345.792 106.167 346.159 107.379C346.526 108.589 347.095 110.834 347.424 112.369C347.753 113.905 348.246 116.875 348.522 118.974C348.938 122.127 349 124.346 348.877 131.743C348.751 139.205 348.618 141.283 348.087 144.219C347.738 146.156 347.051 148.93 346.567 150.383C346.082 151.836 345.131 154.079 344.456 155.371C343.59 157.017 342.527 158.423 340.878 160.099C339.169 161.834 338.01 162.727 336.621 163.381C335.477 163.921 333.803 164.406 332.438 164.597C330.833 164.82 329.579 164.823 328.182 164.605C327.093 164.435 325.476 163.963 324.586 163.554C323.697 163.146 322.179 162.178 321.21 161.406C320.242 160.634 318.897 159.289 318.225 158.42C317.553 157.552 316.505 155.916 315.9 154.786C315.296 153.656 314.421 151.607 313.957 150.236C313.49 148.866 312.862 146.685 312.56 145.393C312.257 144.101 311.77 141.395 311.477 139.375C311.054 136.44 310.945 133.798 310.942 126.166C310.936 118.372 311.033 116.006 311.468 113.25C311.761 111.395 312.263 108.685 312.586 107.232C312.906 105.779 313.558 103.434 314.033 102.022C314.509 100.61 315.378 98.4966 315.965 97.3254C316.549 96.1541 317.656 94.4046 318.419 93.4359C319.182 92.4672 320.573 91.1463 321.51 90.5005Z" fill="#CD2116"/>
<path d="M137.326 93.6062C139.98 93.0543 145.055 92.1062 148.607 91.4986C152.159 90.8909 155.594 90.3802 156.239 90.3625C157 90.342 157.672 90.5328 158.147 90.9027C158.826 91.431 158.89 91.6952 158.99 94.3635C159.072 96.6003 158.99 97.4663 158.623 98.206C158.362 98.7314 157.916 99.2833 157.634 99.433C157.352 99.5827 155.271 99.9849 153.01 100.328C150.75 100.672 148.669 101.009 148.387 101.083C147.903 101.206 147.873 102.859 147.873 130.569C147.873 156.01 147.815 160.061 147.433 160.951C147.189 161.514 146.729 162.11 146.406 162.272C146.083 162.433 145.258 162.562 144.571 162.556C143.884 162.551 143.115 162.386 142.857 162.19C142.601 161.993 142.205 161.5 141.976 161.098C141.624 160.475 141.586 156.005 141.709 131.376C141.847 103.91 141.829 102.389 141.342 102.389C141.06 102.389 139.143 102.662 137.086 102.994C135.028 103.325 132.879 103.557 132.316 103.507C131.476 103.434 131.194 103.229 130.775 102.389C130.458 101.752 130.261 100.692 130.264 99.6003C130.264 98.6316 130.396 97.343 130.557 96.7383C130.739 96.0455 131.153 95.4467 131.676 95.1238C132.131 94.842 134.673 94.1581 137.326 93.6062Z" fill="#CD2116"/>
<path d="M107.658 100.096C108.383 99.6708 109.44 99.1541 110.006 98.9457C110.649 98.708 112.023 98.5994 113.676 98.6551C115.954 98.7314 116.535 98.8635 117.9 99.6121C118.772 100.091 120.007 101.074 120.65 101.802C121.29 102.53 122.197 103.783 122.664 104.591C123.131 105.398 123.859 107.115 124.281 108.407C124.801 110.003 125.056 111.459 125.08 112.957C125.109 114.68 124.98 115.413 124.493 116.332C124.152 116.978 123.527 117.703 123.104 117.947C122.47 118.311 122.206 118.322 121.601 118.02C121.102 117.771 120.765 117.251 120.548 116.406C120.368 115.719 119.943 114.233 119.596 113.103C119.25 111.973 118.569 110.464 118.082 109.751C117.597 109.038 116.67 108.125 116.024 107.726C115.378 107.326 114.386 106.936 113.822 106.857C113.256 106.78 112.135 106.924 111.327 107.18C110.479 107.447 109.24 108.189 108.392 108.935C107.579 109.648 106.516 110.996 106.005 111.958C105.501 112.91 104.878 114.351 104.62 115.158C104.362 115.965 103.945 117.879 103.695 119.414C103.446 120.95 103.164 125.042 103.064 128.514C102.961 132.219 103.023 136.736 103.217 139.449C103.399 141.991 103.757 145.097 104.012 146.347C104.268 147.597 104.887 149.479 105.389 150.53C105.894 151.581 106.775 152.949 107.347 153.574C107.922 154.199 108.92 154.974 109.566 155.297C110.212 155.62 111.401 155.952 112.208 156.031C113.341 156.145 114.037 156.022 115.261 155.482C116.133 155.1 117.289 154.29 117.829 153.686C118.369 153.081 119.141 151.924 119.547 151.117C119.949 150.31 120.589 148.493 120.967 147.081C121.346 145.669 121.907 144.14 122.215 143.682C122.523 143.224 123.04 142.786 123.363 142.71C123.686 142.634 124.314 142.71 124.757 142.88C125.312 143.095 125.711 143.579 126.034 144.439C126.383 145.367 126.457 146.174 126.31 147.595C126.204 148.645 125.914 150.295 125.664 151.264C125.417 152.233 124.857 153.818 124.422 154.786C123.988 155.755 123.031 157.34 122.297 158.309C121.566 159.278 120.251 160.596 119.376 161.235C118.502 161.878 117.125 162.656 116.318 162.964C115.29 163.355 114.104 163.522 112.355 163.522C110.488 163.519 109.416 163.355 108.098 162.859C107.13 162.495 105.644 161.688 104.796 161.062C103.948 160.434 102.735 159.231 102.098 158.382C101.461 157.534 100.481 155.849 99.9203 154.64C99.3597 153.427 98.6375 151.446 98.3176 150.236C97.9976 149.024 97.5573 146.646 97.3401 144.953C97.0788 142.91 96.9467 138.703 96.9526 132.477C96.9614 125.048 97.07 122.379 97.478 119.708C97.7598 117.85 98.2618 115.276 98.5906 113.984C98.9193 112.692 99.6033 110.643 100.108 109.434C100.616 108.222 101.643 106.308 102.395 105.178C103.146 104.048 104.341 102.615 105.049 101.999C105.759 101.379 106.93 100.522 107.658 100.096Z" fill="#CD2116"/>
<path d="M362.967 100.481C363.572 100.076 364.596 99.5446 365.242 99.3009C366.061 98.9898 367.018 98.9017 368.397 99.0074C369.486 99.0925 371.072 99.4301 371.92 99.7559C372.768 100.085 374.101 100.845 374.882 101.444C375.663 102.046 376.904 103.328 377.641 104.297C378.375 105.266 379.373 106.918 379.854 107.966C380.333 109.014 380.973 111.063 381.272 112.516C381.575 113.969 381.821 115.654 381.824 116.259C381.824 116.864 381.627 117.823 381.387 118.387C381.128 118.986 380.67 119.488 380.286 119.591C379.922 119.685 379.361 119.693 379.038 119.611C378.715 119.526 378.228 118.951 377.955 118.334C377.682 117.718 377.239 116.42 376.969 115.452C376.702 114.483 376.182 113.097 375.815 112.369C375.448 111.641 374.77 110.594 374.306 110.042C373.84 109.487 372.865 108.659 372.14 108.201C371.165 107.588 370.452 107.373 369.425 107.376C368.659 107.376 367.602 107.555 367.076 107.773C366.551 107.99 365.67 108.683 365.116 109.314C364.564 109.945 363.821 111.122 363.463 111.929C363.108 112.736 362.535 114.685 362.195 116.259C361.787 118.129 361.482 121.029 361.308 124.625C361.153 127.863 361.153 131.881 361.305 134.385C361.449 136.728 361.713 139.895 361.892 141.43C362.072 142.965 362.515 145.408 362.882 146.861C363.249 148.314 363.847 150.096 364.211 150.824C364.575 151.552 365.295 152.673 365.811 153.319C366.325 153.964 367.335 154.789 368.051 155.15C368.996 155.626 369.874 155.808 371.259 155.808C372.759 155.814 373.543 155.635 374.929 154.971C375.897 154.507 376.992 153.815 377.362 153.43C378.031 152.737 378.034 152.679 377.949 145.93C377.902 142.19 377.8 139.052 377.717 138.961C377.635 138.868 376.578 138.715 375.369 138.624C374.157 138.533 372.871 138.401 372.507 138.33C372.078 138.245 371.691 137.817 371.4 137.1C371.154 136.496 370.954 135.307 370.96 134.459C370.966 133.211 371.107 132.777 371.7 132.184C372.296 131.588 372.639 131.476 373.534 131.591C374.139 131.67 376.188 131.867 378.084 132.031C379.981 132.195 381.736 132.43 381.986 132.55C382.232 132.671 382.567 133.167 382.722 133.651C382.89 134.162 383.01 139.114 383.007 145.466C383.001 155.588 382.96 156.483 382.446 157.502C382.144 158.106 381.384 159.134 380.758 159.782C380.136 160.431 378.9 161.373 378.011 161.875C377.121 162.377 375.671 163.02 374.782 163.302C373.561 163.692 372.525 163.786 370.526 163.687C368.436 163.581 367.578 163.396 366.416 162.797C365.609 162.38 364.297 161.464 363.501 160.76C362.703 160.058 361.408 158.491 360.624 157.281C359.838 156.069 358.793 154.023 358.302 152.732C357.809 151.44 357.099 149.062 356.72 147.448C356.342 145.833 355.863 143.259 355.655 141.724C355.411 139.936 355.273 135.559 355.27 129.542C355.264 122.062 355.367 119.461 355.778 116.773C356.06 114.914 356.609 112.208 356.999 110.755C357.39 109.302 358.097 107.253 358.573 106.205C359.045 105.157 359.982 103.604 360.651 102.756C361.32 101.908 362.362 100.883 362.967 100.481Z" fill="#CD2116"/>
<path d="M80.6522 106.067C83.6375 105.524 86.4115 105.019 86.8166 104.946C87.2187 104.875 88.1111 104.799 88.798 104.778C89.8547 104.743 90.1248 104.858 90.5592 105.533C90.935 106.117 91.0641 106.883 91.0407 108.395C91.0113 110.185 90.9115 110.541 90.3068 111.063C89.796 111.501 88.6512 111.809 86.0827 112.205C84.1453 112.502 80.7755 113.033 74.6346 114.025L74.4878 130.276H75.1483C75.5122 130.276 78.3185 129.994 81.386 129.644C84.4536 129.298 87.3273 129.098 87.7706 129.204C88.2491 129.319 88.6982 129.691 88.8714 130.129C89.0328 130.531 89.1649 131.523 89.1649 132.33C89.1649 133.138 89.0328 134.127 88.8714 134.532C88.7099 134.934 88.2813 135.415 87.9174 135.6C87.5534 135.785 84.8117 136.117 81.8263 136.34C78.8381 136.56 75.9672 136.807 74.4878 137.027L74.6346 155.919L82.5602 155.84C90.3949 155.764 90.4917 155.77 91.0729 156.41C91.4868 156.862 91.6953 157.59 91.7833 158.855C91.8919 160.493 91.8332 160.731 90.3391 162.272L80.3674 162.198C70.4252 162.125 70.3929 162.122 69.0572 160.786L68.9105 110.021L69.5709 109.267C70.0259 108.747 71.0122 108.283 72.7265 107.784C74.0974 107.385 77.6639 106.613 80.6522 106.067Z" fill="#CD2116"/>
<path d="M396.815 109.14C396.991 108.412 397.288 107.638 397.479 107.417C397.74 107.112 398.292 107.059 399.733 107.203C400.781 107.306 401.958 107.555 402.349 107.752C402.739 107.952 403.3 108.442 403.596 108.847C403.957 109.34 404.618 112.129 405.607 117.36C406.417 121.64 407.87 129.169 408.833 134.092C409.799 139.014 411.252 146.611 412.059 150.97C412.869 155.329 413.533 159.392 413.53 159.997C413.53 160.613 413.327 161.291 413.069 161.538C412.807 161.787 412.077 161.975 411.381 161.972C410.706 161.972 410.007 161.872 409.831 161.752C409.652 161.635 409.367 161.274 409.194 160.951C409.021 160.628 408.419 157.854 407.855 154.786C407.295 151.719 406.755 148.648 406.658 147.961C406.564 147.275 406.385 146.664 406.264 146.602C406.144 146.541 403.614 146.441 395.236 146.274L393.812 153.465C393.031 157.422 392.192 160.954 391.951 161.318C391.711 161.682 391.185 162.11 390.78 162.272C390.378 162.433 389.697 162.465 389.268 162.345C388.84 162.225 388.308 161.861 388.091 161.538C387.871 161.215 387.695 160.358 387.698 159.63C387.701 158.902 388.358 155.007 389.157 150.97C389.952 146.934 391.394 139.472 392.353 134.385C393.316 129.298 394.64 121.836 395.301 117.8C395.961 113.764 396.642 109.868 396.815 109.14Z" fill="#CD2116"/>
<path d="M417.862 136C417.598 112.795 417.607 111.914 418.126 111.548C418.423 111.339 418.931 111.242 419.254 111.333C419.577 111.421 421.954 111.832 424.537 112.24C427.121 112.648 429.762 113.232 430.408 113.535C431.054 113.837 432.313 114.856 433.209 115.795C434.301 116.946 435.058 118.085 435.51 119.268C435.883 120.236 436.385 121.954 436.628 123.084C436.94 124.54 437.031 126.251 436.943 128.955C436.843 132.09 436.702 133.032 436.165 134.238C435.804 135.046 435.155 136.164 434.72 136.722C434.286 137.279 433.373 138.072 431.45 139.229L432.205 139.962C432.622 140.368 433.267 141.289 433.64 142.017C434.01 142.745 435.252 147.069 436.4 151.631C437.544 156.192 438.416 160.188 438.334 160.51C438.252 160.833 437.979 161.294 437.726 161.538C437.471 161.781 436.778 161.981 436.185 161.987C435.44 161.99 434.905 161.787 434.459 161.326C434.066 160.918 433.523 159.565 433.074 157.869C432.666 156.333 431.806 152.702 431.16 149.796C430.517 146.89 429.789 143.919 429.545 143.191C429.299 142.463 428.8 141.571 428.433 141.207C428.066 140.843 427.238 140.417 426.592 140.259C425.946 140.103 424.79 139.974 422.629 139.962L422.703 150.348C422.773 160.384 422.756 160.757 422.189 161.368C421.798 161.788 421.26 161.994 420.575 161.984C420.011 161.975 419.4 161.872 419.224 161.752C419.045 161.635 418.728 161.209 418.52 160.804C418.223 160.232 418.077 154.736 417.862 136Z" fill="#CD2116"/>
<path d="M42.4887 113.632C42.8292 113.279 43.3987 112.933 43.7539 112.866C44.1091 112.798 44.7284 112.719 45.1335 112.689C45.5357 112.663 46.1961 112.898 46.6012 113.212C47.2999 113.758 47.3439 113.981 47.5406 117.847C47.655 120.081 47.655 129.471 47.3351 155.52L54.3801 155.508C60.9437 155.497 61.475 155.535 62.159 156.069C62.7784 156.556 62.9075 156.938 62.9956 158.506C63.0778 160.041 62.9897 160.505 61.8654 161.978L52.4809 161.905C44.6139 161.843 43.0229 161.761 42.6355 161.391C42.383 161.147 42.0572 160.358 41.9192 159.63C41.7783 158.902 41.7108 148.402 41.7666 136.293C41.8723 114.377 41.8752 114.275 42.4887 113.632Z" fill="#CD2116"/>
<path d="M20.4759 116.048C23.4613 115.625 27.0278 115.102 28.4016 114.882C29.7724 114.665 31.5249 114.471 32.291 114.454C33.4388 114.43 33.7558 114.542 34.0904 115.085C34.3135 115.449 34.5777 116.109 34.6775 116.552C34.7773 116.996 34.7274 117.888 34.566 118.534C34.4045 119.18 34.0405 119.828 33.7587 119.978C33.4769 120.125 29.8752 120.653 25.7597 121.149C21.6413 121.648 18.11 122.056 17.9074 122.056C17.6256 122.056 17.5405 123.545 17.5405 128.514C17.5405 134.397 17.5875 134.99 18.0542 135.163C18.336 135.266 21.2098 135.134 24.4388 134.867C27.6677 134.599 30.6149 134.482 30.9877 134.605C31.4515 134.755 31.7538 135.175 31.9417 135.926C32.0943 136.531 32.1178 137.511 31.9975 138.101C31.8771 138.691 31.5131 139.387 31.1902 139.651C30.7382 140.018 29.5904 140.177 26.2 140.344C23.7783 140.461 20.9045 140.655 17.8282 140.99L17.8311 144.072C17.834 145.766 17.9338 149.235 18.2744 156.404L26.2734 156.401C34.2431 156.401 34.2754 156.404 34.7157 157.061C34.9623 157.431 35.1589 158.371 35.1589 159.189C35.1589 160.008 34.9623 160.948 34.2724 161.978L24.3654 161.975C16.9828 161.969 14.2704 161.875 13.7244 161.599C13.3106 161.391 12.8468 160.786 12.6589 160.208C12.4358 159.518 12.2655 152.652 12.1334 138.935C11.9749 122.576 12.0102 118.601 12.3184 118.267C12.5268 118.038 13.2254 117.618 13.8712 117.333C14.517 117.046 17.4877 116.467 20.4759 116.048Z" fill="#CD2116"/>
<path d="M228.598 83.3879C229.326 82.9564 230.315 82.5014 230.799 82.3811C231.283 82.2607 232.408 82.202 233.294 82.2548C234.272 82.3136 235.49 82.6453 236.376 83.0914C237.184 83.4995 238.563 84.5386 239.441 85.4046C240.65 86.5963 241.411 87.7588 242.591 90.2069C243.445 91.9828 244.464 94.6922 244.854 96.2245C245.244 97.7598 245.84 100.666 246.175 102.682C246.512 104.702 246.947 107.74 247.144 109.434C247.346 111.195 247.496 116.288 247.493 121.322C247.49 128.001 247.367 131.015 246.985 133.798C246.706 135.818 246.234 138.656 245.928 140.109C245.626 141.562 244.93 144.007 244.387 145.54C243.824 147.128 242.77 149.268 241.942 150.509C241.141 151.71 239.958 153.113 239.312 153.63C238.666 154.146 237.545 154.877 236.817 155.253C235.728 155.817 235.032 155.94 232.854 155.949C230.485 155.96 230.033 155.869 228.483 155.08C227.462 154.56 226.082 153.48 225.104 152.438C224.027 151.287 222.976 149.708 222.075 147.888C221.294 146.303 220.381 143.831 219.967 142.164C219.565 140.549 219.087 138.304 218.908 137.174C218.726 136.044 218.391 133.205 218.162 130.863C217.936 128.523 217.745 123.964 217.742 120.735C217.742 117.506 217.939 112.686 218.186 110.021C218.429 107.359 218.764 104.32 218.928 103.27C219.093 102.222 219.489 100.24 219.809 98.8664C220.129 97.4956 220.672 95.5142 221.012 94.4633C221.356 93.4153 222.163 91.4985 222.806 90.2069C223.449 88.9153 224.388 87.3302 224.893 86.6873C225.395 86.0415 226.138 85.2138 226.543 84.8468C226.945 84.477 227.87 83.8224 228.598 83.3879Z" fill="#EDF1F0"/>
<path d="M175.948 94.7422C176.893 94.5572 179.385 94.0347 181.484 93.5797C183.583 93.1277 185.828 92.7431 186.474 92.7284C187.12 92.7167 188.177 92.8488 188.822 93.0249C189.612 93.2421 190.502 93.8645 191.538 94.933C192.756 96.1864 193.208 96.932 193.701 98.4995C194.141 99.9085 194.365 101.582 194.473 104.297C194.567 106.686 194.491 108.879 194.265 110.168C194.068 111.298 193.628 112.951 193.284 113.837C192.944 114.724 192.186 116.045 191.599 116.773C191.015 117.501 189.821 118.481 188.946 118.954C187.543 119.711 186.941 119.837 183.832 120.025C181.895 120.145 178.989 120.336 174.439 120.662L174.228 95.0797L175.948 94.7422Z" fill="#EDF1F0"/>
<path d="M325.343 99.3302C325.974 99.0191 326.89 98.6639 327.375 98.5377C327.859 98.4144 328.916 98.3791 329.723 98.4613C330.53 98.5435 331.719 98.84 332.365 99.1218C333.011 99.4007 334.056 100.02 334.687 100.496C335.318 100.971 336.322 102.022 336.918 102.829C337.514 103.636 338.353 104.99 338.779 105.838C339.207 106.686 339.894 108.404 340.305 109.654C340.716 110.905 341.303 113.382 341.611 115.158C341.917 116.934 342.325 120.236 342.516 122.497C342.724 124.948 342.794 128.737 342.695 131.89C342.601 134.796 342.313 138.627 342.055 140.403C341.796 142.179 341.318 144.624 340.992 145.833C340.666 147.046 340.023 148.827 339.565 149.796C339.105 150.765 338.092 152.268 337.308 153.137C336.527 154.005 335.227 155.045 334.42 155.447C333.612 155.849 332.291 156.245 331.484 156.333C330.677 156.418 329.356 156.33 328.549 156.137C327.742 155.943 326.485 155.379 325.76 154.883C325.035 154.39 323.887 153.307 323.215 152.479C322.54 151.648 321.589 150.113 321.099 149.062C320.611 148.011 319.869 145.965 319.455 144.512C319.038 143.059 318.471 140.285 318.198 138.348C317.82 135.671 317.699 132.744 317.702 126.166C317.702 119.203 317.805 116.931 318.222 114.571C318.507 112.956 319.009 110.579 319.337 109.287C319.666 107.996 320.435 105.882 321.049 104.591C321.659 103.299 322.616 101.714 323.177 101.068C323.735 100.422 324.709 99.6414 325.343 99.3302Z" fill="#EDF1F0"/>
<path d="M398.849 123.671C399.331 120.603 399.877 117.236 400.065 116.185C400.326 114.741 400.464 114.418 400.64 114.865C400.769 115.187 401.145 116.905 401.479 118.681C401.814 120.456 402.748 125.676 403.555 130.275C404.362 134.875 405.023 138.973 405.02 140.109L400.834 139.88C398.532 139.751 396.566 139.554 396.463 139.44C396.363 139.322 396.66 136.983 397.126 134.238C397.593 131.494 398.368 126.738 398.849 123.671Z" fill="#EDF1F0"/>
<path d="M422.697 134.147C422.418 133.775 422.333 131.749 422.359 125.922L422.394 118.193L423.172 118.355C423.601 118.443 425.074 118.666 426.445 118.854C428.562 119.144 429.131 119.344 430.188 120.186C431.027 120.853 431.603 121.631 431.949 122.57C432.337 123.621 432.463 124.865 432.463 127.634C432.463 130.716 432.369 131.491 431.876 132.474C431.553 133.117 430.825 133.957 430.261 134.338C429.29 134.993 429.07 135.019 426.152 134.837C423.753 134.687 422.987 134.535 422.697 134.147Z" fill="#EDF1F0"/>
<path d="M228.592 89.6462C229.161 89.018 230.154 88.2607 230.799 87.9672C231.445 87.6707 232.338 87.427 232.781 87.4241C233.224 87.4212 234.072 87.6501 234.665 87.9319C235.258 88.2137 236.262 89.0386 236.896 89.7666C237.53 90.4946 238.449 91.9476 238.942 92.9955C239.433 94.0435 240.081 95.6316 240.387 96.5181C240.692 97.4046 241.261 99.6531 241.652 101.508C242.042 103.363 242.585 107.326 242.855 110.315C243.237 114.524 243.31 117.462 243.178 123.377C243.084 127.575 242.808 132.462 242.562 134.238C242.318 136.014 241.969 138.128 241.787 138.935C241.605 139.742 241.217 141.195 240.924 142.164C240.633 143.133 240.116 144.553 239.779 145.32C239.441 146.086 238.605 147.451 237.918 148.355C237.008 149.549 236.233 150.198 235.056 150.75C233.764 151.355 233.192 151.469 232.194 151.311C231.507 151.205 230.582 150.932 230.139 150.709C229.696 150.483 228.947 149.922 228.48 149.461C228.011 149.001 227.115 147.829 226.49 146.861C225.865 145.892 225.099 144.307 224.788 143.338C224.477 142.369 224.027 140.784 223.787 139.816C223.546 138.847 223.15 136.666 222.903 134.972C222.659 133.278 222.304 129.644 222.113 126.9C221.914 124.061 221.841 119.884 221.943 117.213C222.043 114.63 222.257 111.128 222.425 109.434C222.592 107.74 222.874 105.492 223.056 104.444C223.235 103.396 223.684 101.282 224.051 99.747C224.421 98.2118 225.072 96.0337 225.501 94.9036C225.932 93.7734 226.572 92.3879 226.922 91.8214C227.274 91.2548 228.025 90.2773 228.592 89.6462Z" fill="#0C7343"/>
<path d="M178.549 98.749L181.925 98.1032C183.783 97.748 185.829 97.4398 186.474 97.4163C187.244 97.3928 187.928 97.5836 188.456 97.977C188.949 98.341 189.463 99.1717 189.777 100.114C190.167 101.288 190.291 102.633 190.291 105.765C190.291 108.125 190.141 110.373 189.938 111.048C189.742 111.694 189.281 112.683 188.908 113.25C188.532 113.825 187.652 114.559 186.915 114.917C185.832 115.443 184.963 115.575 178.549 115.745V98.749Z" fill="#0C7343"/>
<path d="M325.637 105.665C326.033 105.128 326.782 104.435 327.305 104.127C327.827 103.818 328.752 103.566 329.356 103.563C329.961 103.563 330.953 103.816 331.558 104.121C332.163 104.429 332.955 105.022 333.319 105.442C333.683 105.862 334.306 106.701 334.702 107.306C335.098 107.91 335.767 109.331 336.19 110.461C336.613 111.591 337.153 113.441 337.388 114.571C337.623 115.701 338.01 118.675 338.248 121.176C338.486 123.677 338.676 127.046 338.673 128.661C338.67 130.275 338.541 133.114 338.386 134.972C338.23 136.83 337.904 139.504 337.658 140.916C337.411 142.328 336.997 144.113 336.739 144.879C336.481 145.645 335.943 146.934 335.544 147.741C335.145 148.548 334.464 149.585 334.033 150.043C333.601 150.501 332.882 151.061 332.439 151.29C331.995 151.519 331.103 151.704 330.457 151.704C329.811 151.704 328.919 151.516 328.476 151.29C328.033 151.061 327.255 150.433 326.75 149.896C326.245 149.356 325.473 148.255 325.033 147.448C324.592 146.64 323.932 145.055 323.562 143.925C323.195 142.795 322.599 139.821 322.238 137.32C321.654 133.264 321.598 131.99 321.736 125.579C321.827 121.355 322.071 117.298 322.329 115.745C322.57 114.292 322.969 112.311 323.218 111.342C323.471 110.373 323.955 108.92 324.299 108.113C324.642 107.306 325.244 106.205 325.637 105.665Z" fill="#0C7343"/>
<path d="M426.149 128.441C426.149 127.27 426.061 125.62 425.955 124.772C425.768 123.251 425.776 123.23 426.545 123.23C426.974 123.23 427.59 123.363 427.913 123.524C428.236 123.685 428.633 124.314 428.791 124.918C428.952 125.523 429.082 126.812 429.079 127.78C429.076 129.043 428.929 129.688 428.565 130.064C428.28 130.361 427.646 130.584 426.152 130.569L426.149 128.441Z" fill="#0C7343"/>
</svg>
