<svg width="717" height="482" viewBox="0 0 717 482" fill="none" xmlns="http://www.w3.org/2000/svg">
<ellipse cx="358.5" cy="241" rx="358.5" ry="241" fill="#344F74"/>
<path d="M62.9004 148.319C65.7257 144.71 69.7364 140.14 73.0498 136.763C76.6122 133.13 78.7603 131.18 79.1919 131.189C79.5638 131.199 80.4436 131.901 81.184 132.775C81.9144 133.639 87.3294 139.096 93.2192 144.899C102.193 153.744 103.923 155.598 103.913 156.366C103.906 157.061 103.11 158.111 100.576 160.77C98.7471 162.687 96.0246 165.732 94.5306 167.533C93.3025 169.011 91.994 170.584 91.2993 171.42L90.9383 171.854C90.4602 172.429 89.2882 174.021 88.332 175.394C87.3759 176.763 85.8055 179.083 84.8493 180.545C83.8898 182.008 82.502 184.324 81.7683 185.697C81.0345 187.066 79.9555 189.087 79.3778 190.184C78.7968 191.28 77.6514 193.75 76.8313 195.668C76.0113 197.585 75.2012 199.457 75.0319 199.822C74.8625 200.188 74.2716 201.683 73.7204 203.146C73.166 204.608 72.2829 207.224 71.7583 208.962C71.2337 210.7 70.5697 213.093 70.2842 214.28C69.9987 215.466 69.4674 217.786 69.1089 219.431C68.747 221.077 68.2224 223.918 67.9435 225.746C67.6646 227.574 67.2065 231.014 66.9243 233.391C66.6454 235.767 66.413 240.254 66.4097 243.362C66.4063 246.871 66.662 251.278 67.0803 254.994C67.4488 258.285 68.0332 262.549 68.3751 264.466C68.7204 266.384 69.3313 269.452 69.7364 271.28C70.1381 273.108 70.666 275.275 70.905 276.099C71.1441 276.923 71.662 278.715 72.0538 280.087C72.4455 281.457 73.2025 283.591 73.737 284.824C74.2716 286.057 74.7098 287.217 74.7098 287.399C74.7098 287.582 75.1381 288.593 75.6627 289.643C76.1873 290.693 76.7284 291.926 76.8679 292.385C77.0073 292.84 77.907 294.788 78.8699 296.706C79.8294 298.623 81.0013 300.867 81.4695 301.691C81.9409 302.515 82.7278 303.934 83.2192 304.848C83.7072 305.762 84.6103 307.221 85.2178 308.089C85.8287 308.956 86.8513 310.415 87.4921 311.329C88.1328 312.243 89.1753 313.739 89.8161 314.653C90.4569 315.567 92.761 318.372 94.939 320.885C97.1169 323.397 100.035 326.651 101.42 328.114C102.824 329.596 103.94 331.068 103.943 331.437C103.943 331.869 100.6 335.422 94.3912 341.574C89.1388 346.782 83.7172 352.21 82.346 353.632C80.3075 355.753 79.6766 356.218 78.8599 356.208C78.0432 356.195 77.2663 355.583 74.5305 352.788C72.6979 350.917 70.0086 348.025 68.5544 346.364C67.1002 344.705 65.2377 342.548 64.4176 341.574C63.5976 340.601 61.3764 337.699 59.4807 335.123C57.5883 332.547 55.1082 329.021 53.9661 327.283C52.824 325.545 50.9016 322.444 49.6898 320.386C48.478 318.329 46.5258 314.739 45.3538 312.41C44.1785 310.08 42.8206 307.275 42.3359 306.178C41.8512 305.081 40.646 302.126 39.6566 299.614C38.6672 297.101 37.8571 294.894 37.8571 294.711C37.8571 294.529 37.6446 293.894 37.3824 293.299C37.1201 292.704 36.5756 291.095 36.1738 289.726C35.7688 288.353 35.1778 286.336 34.8591 285.239C34.5404 284.142 34.0988 282.497 33.873 281.583C33.6473 280.669 33.2555 278.951 33.0032 277.761C32.7509 276.571 32.2296 273.882 31.8511 271.778C31.4693 269.675 30.9613 266.61 30.7157 264.965C30.4733 263.32 30.1181 260.85 29.9288 259.481C29.7396 258.108 29.4175 253.921 29.2084 250.175C28.9228 245.007 28.9261 241.796 29.2216 236.88C29.4408 233.314 29.972 228.006 30.4069 225.082C30.8385 222.157 31.4859 218.119 31.8445 216.108C32.1997 214.097 33.0131 210.208 33.6506 207.466C34.2881 204.724 35.055 201.81 35.3571 200.985C35.6559 200.161 36.1805 198.516 36.5258 197.329C36.8677 196.14 37.6646 193.75 38.2987 192.012C38.9328 190.273 39.9952 187.508 40.6593 185.863C41.3266 184.218 43.2788 180.03 44.9986 176.557C46.7184 173.084 48.8963 168.969 49.8392 167.417C50.7821 165.861 51.725 164.293 51.9342 163.927C52.1434 163.562 52.741 162.588 53.2589 161.767C53.7801 160.942 55.1082 158.925 56.2171 157.28C57.3227 155.635 60.3306 151.603 62.9004 148.319Z" fill="#F9952F"/>
<path d="M618.638 155.475C619.697 154.485 625.235 149.064 630.949 143.427C639.332 135.161 641.513 133.18 642.237 133.17C642.898 133.16 643.529 133.582 644.598 134.749C645.401 135.623 646.978 137.315 648.1 138.501C649.226 139.688 651.789 142.53 653.801 144.816C655.816 147.1 658.273 150.044 659.263 151.357C660.255 152.667 661.992 154.987 663.124 156.509C664.259 158.028 665.733 160.171 666.401 161.268C667.071 162.365 667.861 163.658 668.16 164.14C668.459 164.622 669.209 165.895 669.834 166.965C670.454 168.035 671.145 169.139 671.371 169.411C671.593 169.684 672.971 172.229 674.429 175.061C675.886 177.893 677.715 181.708 678.489 183.536C679.266 185.364 680.312 187.834 680.816 189.02C681.321 190.207 682.111 192.155 682.576 193.341C683.038 194.528 683.951 197.223 684.601 199.324C685.249 201.424 686.361 205.615 687.071 208.63C687.779 211.644 688.539 215.011 688.755 216.108C688.974 217.205 689.432 219.747 689.774 221.758C690.116 223.769 690.488 226.461 690.604 227.741C690.72 229.02 691.042 232.084 691.318 234.554C691.696 237.904 691.789 241.484 691.69 248.679C691.6 255.12 691.374 259.641 691.006 262.306C690.703 264.5 690.215 267.714 689.923 269.452C689.628 271.19 689.097 273.955 688.738 275.601C688.379 277.246 687.852 279.712 687.563 281.085C687.274 282.454 686.846 284.249 686.607 285.073C686.371 285.897 686.075 287.094 685.949 287.732C685.823 288.37 685.209 290.467 684.581 292.385C683.957 294.303 682.915 297.221 682.267 298.866C681.62 300.511 680.793 302.605 680.431 303.519C680.066 304.433 679.595 305.629 679.382 306.178C679.17 306.726 677.34 310.465 675.318 314.487C673.293 318.508 670.352 323.82 668.775 326.286C667.201 328.752 664.82 332.341 663.489 334.256C662.154 336.173 660.541 338.364 659.903 339.125C659.266 339.886 658.067 341.365 657.247 342.412C656.427 343.459 654.784 345.46 653.595 346.859C652.407 348.255 650.016 350.861 648.283 352.645C646.55 354.433 644.83 355.976 644.465 356.072C644.1 356.172 643.429 356.168 642.971 356.065C642.516 355.962 640.424 354.211 638.323 352.177C636.221 350.139 631.739 345.829 628.363 342.598C624.986 339.367 621.699 336.283 621.065 335.741C620.431 335.203 619.422 334.276 618.824 333.681C618.227 333.086 617.739 332.301 617.739 331.936C617.739 331.537 619.096 329.908 621.142 327.858C623.014 325.98 625.664 323.102 627.031 321.46C628.399 319.818 630.952 316.454 632.705 313.988C634.458 311.522 637.025 307.557 638.406 305.181C639.787 302.804 641.663 299.288 642.569 297.37C643.479 295.453 644.621 292.91 645.112 291.72C645.6 290.53 646.201 289.111 646.444 288.563C646.689 288.014 647.41 285.92 648.047 283.91C648.685 281.899 649.528 279.057 649.92 277.595C650.312 276.132 650.846 274.112 651.108 273.108C651.367 272.104 651.899 269.562 652.284 267.458C652.669 265.354 653.187 262.665 653.439 261.475C653.688 260.285 654.073 256.174 654.292 252.335C654.604 246.911 654.608 243.837 654.302 238.542C654.083 234.797 653.764 231.131 653.589 230.399C653.413 229.668 653.041 227.797 652.768 226.245C652.493 224.689 652.114 222.596 651.928 221.592C651.743 220.588 651.281 218.567 650.903 217.105C650.524 215.643 650.006 213.698 649.754 212.784C649.502 211.87 648.98 210.076 648.599 208.796C648.22 207.516 647.709 205.944 647.463 205.306C647.221 204.665 646.467 202.797 645.786 201.152C645.106 199.506 644.209 197.413 643.788 196.499C643.369 195.585 642.466 193.64 641.779 192.178C641.095 190.715 640.159 188.921 639.697 188.189C639.236 187.458 638.499 186.189 638.061 185.364C637.622 184.54 636.318 182.45 635.159 180.711C634 178.973 632.426 176.657 631.656 175.56C630.886 174.463 630.019 173.256 629.724 172.878C629.432 172.495 628.147 171.003 626.869 169.561C625.59 168.115 622.795 165.137 620.657 162.937C617.878 160.082 616.762 158.706 616.746 158.111C616.726 157.509 617.25 156.778 618.638 155.475Z" fill="#F9952F"/>
<path d="M265.802 61.7212C267.469 61.7164 269.432 61.9438 270.164 62.23C270.896 62.5115 272.015 63.225 272.65 63.8071C273.285 64.3895 274.323 65.9565 274.948 67.2905C275.612 68.6975 276.096 70.6337 276.101 71.8999C276.106 73.1274 275.684 74.9324 275.141 76.0239C274.4 77.5036 274.313 78.0472 274.773 78.3189C275.103 78.5177 275.646 78.6831 275.98 78.6831C276.315 78.6888 277.352 79.4592 278.282 80.3901C279.353 81.4624 280.245 83.0256 280.711 84.6362C281.113 86.0382 281.437 88.0562 281.432 89.1235C281.423 90.191 280.933 92.0257 280.337 93.1997C279.74 94.3738 278.378 95.9655 277.312 96.7319C276.246 97.4985 274.177 98.5754 272.709 99.1284C271.245 99.6767 268.463 100.434 266.529 100.812C264.596 101.186 262.361 101.496 261.561 101.496C260.238 101.496 260.044 101.282 259.38 99.0698C258.983 97.7365 258.736 96.4808 258.838 96.2808C258.939 96.0818 259.754 95.7512 260.655 95.5523C261.552 95.3532 264.222 94.5865 266.582 93.854C268.947 93.1214 271.293 92.1372 271.793 91.6714C272.355 91.1523 272.709 90.1617 272.709 89.1235C272.709 88.1875 272.519 86.9363 272.292 86.3345C272.064 85.733 271.516 84.8589 271.08 84.3931C270.644 83.9274 269.684 83.5494 268.952 83.5542C268.22 83.5593 265.438 84.2237 262.773 85.0386C260.109 85.8485 257.792 86.3382 257.626 86.1206C257.461 85.9023 256.971 84.6895 256.535 83.4234C255.91 81.604 255.872 81.0266 256.351 80.6821C256.686 80.4395 258.814 79.6875 261.077 79.0083C263.345 78.3243 265.826 77.2661 266.596 76.6548C267.886 75.6263 267.974 75.3492 267.736 73.1128C267.547 71.3421 267.168 70.4445 266.335 69.7847C265.458 69.091 264.726 68.9551 263.136 69.1782C262.002 69.3432 258.949 70.3227 256.351 71.3657C253.757 72.4026 251.525 73.1929 251.384 73.1226C251.253 73.0498 250.841 72.0357 250.472 70.8716C250.104 69.7025 249.91 68.421 250.041 68.0181C250.168 67.6199 251.669 66.5383 253.375 65.6216C255.076 64.7046 257.893 63.4527 259.623 62.8413C261.59 62.1477 263.907 61.7261 265.802 61.7212ZM449.127 62.2007C450.062 61.9631 452.025 61.8902 453.488 62.0405C454.957 62.191 457.574 62.8032 459.304 63.3999C461.04 63.9967 463.657 65.0882 465.121 65.8208C466.589 66.5582 468.058 67.3536 468.392 67.5913C468.867 67.9262 468.789 68.6498 468.028 70.9292C467.418 72.7628 466.787 73.8401 466.332 73.8403C465.934 73.84 463.477 72.9966 460.88 71.9683C458.282 70.9398 455.553 69.9546 454.821 69.7847C454.089 69.6149 453.052 69.6927 452.519 69.9595C451.986 70.2263 451.443 70.8809 451.307 71.4146C451.177 71.9483 451.322 72.8755 451.641 73.4771C451.957 74.0793 454.085 76.5438 456.367 78.9546C458.649 81.3656 460.898 84.15 461.364 85.1401C461.873 86.2172 462.208 88.0612 462.203 89.73C462.198 91.3647 461.83 93.3203 461.311 94.4605C460.827 95.5279 459.634 97.1106 458.655 97.979C457.681 98.8474 455.955 99.7983 454.821 100.094C453.687 100.395 451.453 100.521 449.853 100.38C448.254 100.24 445.201 99.4532 443.068 98.6333C440.936 97.8182 438.371 96.5957 435.555 94.7036L436.525 91.7925C437.058 90.1914 437.766 88.8814 438.1 88.8862C438.436 88.8915 440.941 89.7645 443.674 90.8267C446.407 91.8891 449.242 92.7581 449.974 92.7485C450.706 92.7436 451.695 92.3598 452.17 91.8989C452.645 91.4429 453.033 90.4094 453.033 89.6089C453.033 88.4785 452.097 87.061 448.86 83.3013C446.563 80.6331 444.125 77.2521 443.441 75.7818C442.409 73.5646 442.254 72.7051 442.52 70.687C442.7 69.3529 443.329 67.407 443.926 66.3638C444.522 65.3207 445.555 64.055 446.219 63.5503C446.887 63.0457 448.196 62.4384 449.127 62.2007ZM419.319 53.5064C419.852 53.4822 421.598 53.6957 423.197 53.9868C424.796 54.278 427.394 55.2101 428.969 56.0542C430.544 56.8984 432.327 58.242 432.938 59.0425C433.544 59.8431 434.412 61.3717 434.863 62.439C435.381 63.6713 435.681 65.7043 435.681 68.0181C435.686 70.182 435.193 73.8217 434.47 76.9946C433.802 79.9299 432.711 83.4232 432.047 84.7573C431.383 86.0915 429.871 88.0562 428.683 89.1235C427.389 90.2878 425.567 91.3361 424.133 91.7485C422.577 92.1949 420.56 92.3451 418.35 92.1753C416.465 92.0298 413.881 91.443 412.534 90.8511C411.201 90.2689 409.457 89.2934 408.657 88.6821C407.857 88.0709 406.568 86.3925 405.788 84.9517C404.76 83.0547 404.314 81.4623 404.164 79.1773C404.018 77.0086 404.329 74.204 405.153 70.2017C405.812 66.9997 406.776 63.3992 407.29 62.1958C407.808 60.9974 409.089 59.0574 410.14 57.8931C411.192 56.7286 412.651 55.4718 413.383 55.103C414.114 54.7343 415.535 54.2392 416.533 53.9966C417.531 53.7589 418.786 53.5356 419.319 53.5064ZM299.607 53.1763C300.94 53.2685 302.903 53.7882 303.969 54.3316C305.036 54.8701 306.494 55.9371 307.207 56.6939C307.919 57.4509 309.054 59.1644 309.722 60.4985C310.391 61.8331 311.404 64.783 311.971 67.0484C312.538 69.3192 313.135 73.5742 313.295 76.5093C313.581 81.5936 313.532 81.9775 312.296 84.6362C311.583 86.1693 310.289 87.9697 309.422 88.6343C308.554 89.2941 306.484 90.2784 304.817 90.8169C303.15 91.3505 300.645 91.7973 299.244 91.7974C297.417 91.8022 295.957 91.4288 294.067 90.4634C292.618 89.726 290.942 88.469 290.341 87.6685C289.74 86.868 288.712 85.0145 288.062 83.5444C287.408 82.0793 286.391 78.586 285.8 75.7818C285.208 72.9826 284.689 68.9264 284.65 66.772C284.592 63.303 284.748 62.531 286.037 60.0034C287.161 57.8008 288.038 56.8106 289.899 55.6704C291.222 54.8554 293.403 53.9243 294.746 53.5991C296.083 53.2692 298.274 53.0793 299.607 53.1763ZM370.049 48.2671C370.528 47.7916 371.546 47.7041 373.926 47.9321C375.699 48.1019 377.4 48.4898 377.706 48.7905C378.007 49.094 380.615 54.3626 383.493 60.4985C386.372 66.6355 388.795 71.7684 388.878 71.8999C388.96 72.0354 389.125 72.0355 389.246 71.8999C389.367 71.7689 389.818 67.184 390.245 61.7114C390.671 56.245 391.132 51.2242 391.272 50.5523C391.519 49.3539 391.568 49.3435 394.999 49.6734C396.913 49.8577 398.649 50.1835 398.857 50.4019C399.064 50.6337 398.57 58.8276 397.766 68.6245C396.957 78.4293 396.133 86.7066 395.934 87.0181C395.692 87.3867 394.393 87.5133 392.082 87.3823C389.596 87.2417 388.34 86.9358 387.719 86.3247C387.24 85.8541 384.666 80.8511 382.001 75.2085C379.336 69.5677 376.937 64.8778 376.669 64.7827C376.373 64.6821 375.85 68.6259 375.322 74.9273C374.842 80.5964 374.299 85.4031 374.11 85.606C373.916 85.8048 372.234 85.8048 370.368 85.606C367.054 85.2519 366.971 85.2078 366.811 83.7866C366.719 82.9847 367.266 74.8099 368.022 65.6216C368.991 53.8629 369.593 48.7248 370.049 48.2671ZM341.565 48.4653C342.84 47.796 344.09 47.6263 346.944 47.7378C350.128 47.8639 350.846 48.058 351.956 49.0962C352.673 49.7658 353.527 50.8574 353.861 51.522C354.196 52.1937 356.517 59.8831 359.022 68.6196C361.533 77.3576 363.476 84.6166 363.341 84.7476C363.208 84.8835 361.211 85.1606 354.714 85.728L354.141 83.5444C353.831 82.3462 353.264 80.2162 352.882 78.814C352.261 76.5243 352.058 76.2663 350.861 76.271C350.129 76.271 347.783 76.4029 341.773 76.8638L341.124 80.8081C340.77 82.9814 340.333 85.0091 340.154 85.3198C339.979 85.6303 338.046 86.0674 335.86 86.2905C332.517 86.6349 331.848 86.5811 331.615 85.9702C331.465 85.5724 332.86 77.7072 334.712 68.5034C337.038 56.9487 338.361 51.3932 338.991 50.5523C339.495 49.8876 340.654 48.9457 341.565 48.4653ZM421.743 61.4927C420.677 61.3569 419.32 61.4396 418.723 61.6724C418.127 61.9101 417.134 62.7251 416.513 63.4868C415.893 64.2438 415.025 66.3934 414.584 68.2612C414.148 70.1292 413.518 73.1854 413.183 75.0532C412.771 77.3771 412.728 79.0568 413.043 80.3765C413.377 81.7637 413.974 82.6132 415.2 83.4185C416.319 84.1605 417.599 84.5385 418.956 84.5288C420.09 84.5191 421.505 84.209 422.106 83.8306C422.707 83.457 423.671 82.0936 424.253 80.7984C424.834 79.5079 425.775 75.9417 426.351 72.8706C427.262 67.9803 427.311 67.0571 426.749 65.398C426.395 64.3553 425.557 63.1041 424.893 62.6187C424.225 62.1336 422.809 61.6286 421.743 61.4927ZM299.074 60.9497C297.935 60.5034 297.222 60.4983 296.122 60.9155C295.133 61.2941 294.383 62.1241 293.748 63.5454C292.842 65.5828 292.841 65.7287 293.719 70.8228C294.213 73.6852 295.032 77.3871 295.536 79.0562C296.166 81.1276 296.917 82.4717 297.911 83.3013C298.71 83.9706 299.801 84.514 300.334 84.5142C300.867 84.5141 301.958 84.1844 302.758 83.7866C303.78 83.2772 304.357 82.5155 304.691 81.2398C304.958 80.2405 305.175 78.9836 305.171 78.4497C305.171 77.9157 304.614 74.7523 303.935 71.4146C303.257 68.0817 302.224 64.4913 301.637 63.4429C300.993 62.2836 299.985 61.304 299.074 60.9497ZM346.077 54.9087C345.762 54.9136 345.088 57.5146 344.472 61.105C343.886 64.5059 343.314 67.7808 343.198 68.3823C342.995 69.4349 343.111 69.4741 346.62 69.4741C348.717 69.4741 350.253 69.27 350.255 68.9888C350.255 68.7219 349.436 65.4421 348.437 61.7017C347.439 57.9624 346.378 54.9063 346.077 54.9087ZM380.182 38.0054C380.783 37.9666 381.821 38.1555 382.485 38.4224C383.154 38.6895 384.734 39.6795 385.999 40.6206C387.264 41.5617 388.466 42.3276 388.665 42.3179C388.864 42.307 389.334 41.5947 389.712 40.7271C390.356 39.2425 390.526 39.1546 392.619 39.271C394.742 39.3874 394.844 39.4606 394.844 40.8482C394.843 41.6487 394.519 43.07 394.117 44.0015C393.715 44.933 392.901 45.9477 392.3 46.2485C391.699 46.5542 390.012 46.7047 388.544 46.5884C386.402 46.4186 385.402 46.0202 383.454 44.5503C382.122 43.5465 380.707 42.7947 380.304 42.8814C379.902 42.9687 379.524 43.638 379.456 44.3706C379.34 45.6269 379.198 45.6997 376.911 45.6997C375.579 45.6997 374.382 45.481 374.246 45.2144C374.115 44.9469 374.222 43.8023 374.483 42.6675C374.745 41.5323 375.414 40.1257 375.962 39.5386C376.509 38.9564 377.44 38.3836 378.026 38.272C378.612 38.1604 379.581 38.0394 380.182 38.0054Z" fill="white"/>
<path fill-rule="evenodd" clip-rule="evenodd" d="M238.589 201.163C244.408 200.977 247.072 201.277 247.599 202.196C248.022 202.919 248.352 213.964 248.342 226.755C248.342 239.534 247.867 253.481 247.3 257.749C246.66 262.604 245.328 267.14 243.729 269.888C242.315 272.306 239.663 275.415 237.815 276.81C235.968 278.195 231.448 280.117 227.753 281.067C223.109 282.266 218.66 282.648 213.304 282.297C208.876 282.007 203.582 280.912 200.919 279.734C198.37 278.608 194.933 276.335 193.282 274.692C191.641 273.039 189.319 269.609 188.122 267.047C186.1 262.718 185.934 260.403 185.696 233.108C185.552 217.002 185.676 203.158 185.976 202.331C186.389 201.164 188.33 200.905 203.499 201.442L204.531 260.806L207.111 263.483C208.969 265.415 211.126 266.324 214.852 266.737C218.505 267.14 220.993 266.82 223.366 265.632C225.214 264.702 227.278 262.666 227.97 261.106C228.795 259.224 229.404 248.682 230.333 201.442L238.589 201.163ZM431.581 200.006C434.419 199.944 439.528 200.368 442.934 200.946C446.339 201.514 449.476 202.558 449.91 203.261C450.344 203.963 450.571 207.104 450.158 215.906L438.29 216.423C431.769 216.702 425.494 217.456 424.357 218.086C423.222 218.726 421.478 221.165 420.487 223.511C419.084 226.848 418.681 230.743 418.681 241.219C418.681 251.694 419.084 255.59 420.487 258.927C421.561 261.468 423.449 263.772 425.131 264.609C427.023 265.546 431.323 265.959 438.031 265.848C443.562 265.755 448.669 265.983 449.384 266.365C450.168 266.778 450.664 269.176 450.653 272.471C450.653 275.457 450.303 278.463 449.88 279.156C449.467 279.848 446.339 280.943 442.934 281.594C439.528 282.244 433.491 282.544 429.518 282.265C425.193 281.955 420.043 280.768 416.699 279.301C413.355 277.844 409.702 275.198 407.628 272.729C405.719 270.456 403.242 266.158 402.127 263.173C400.424 258.617 400.104 255.114 400.104 241.219C400.104 227.261 400.424 223.841 402.147 219.264C403.272 216.279 405.708 212.032 407.565 209.821C409.423 207.6 412.685 204.935 414.811 203.881C416.936 202.827 420.425 201.546 422.551 201.029C424.677 200.523 428.743 200.057 431.581 200.006ZM263.358 203.209C263.957 200.957 264.392 200.853 280.903 201.442L281.419 232.643C281.811 256.299 282.255 264.173 283.276 265.187C284.195 266.107 288.519 266.613 309.284 267.047V273.762C309.284 280.209 309.17 280.509 306.446 281.253C304.888 281.676 298.025 282.028 291.192 282.028C279.881 282.028 278.333 281.79 273.647 279.373C269.654 277.307 267.941 275.591 265.938 271.655C263.379 266.645 263.358 266.292 263.038 236.084C262.863 219.306 263.007 204.511 263.358 203.209ZM317.024 203.209C317.623 200.957 318.058 200.853 334.569 201.442L335.085 232.643C335.477 256.301 335.922 264.174 336.943 265.187C337.862 266.107 342.187 266.613 362.95 267.047V273.762C362.95 280.209 362.837 280.509 360.112 281.253C358.554 281.676 351.691 282.028 344.858 282.028C333.547 282.028 331.999 281.79 327.313 279.373C323.32 277.307 321.607 275.591 319.604 271.655C317.045 266.645 317.024 266.292 316.704 236.084C316.529 219.306 316.674 204.511 317.024 203.209ZM481.708 200.926C483.659 200.399 488.035 200.11 491.44 200.296C494.846 200.482 499.139 201.391 500.986 202.331C502.834 203.261 505.042 205.42 505.889 207.125C506.746 208.831 511.152 225.681 515.703 244.576C520.243 263.467 523.958 279.498 523.96 280.22C523.95 281.16 521.4 281.512 514.661 281.512C506.663 281.512 505.31 281.263 504.949 279.703C504.712 278.71 503.782 274.287 501.244 261.882L479.056 261.84L477.683 267.802C476.929 271.077 475.887 275.509 474.411 281.512H465.123C458.363 281.512 455.845 281.16 455.865 280.22C455.888 279.498 459.716 263.043 464.38 243.646C471.305 214.832 473.348 207.765 475.516 205.131C476.971 203.354 479.758 201.463 481.708 200.926ZM558.522 200.037C562.496 199.944 568.534 200.399 571.939 201.029C575.345 201.649 579.763 202.992 581.744 203.994C583.736 205.006 586.863 207.517 588.71 209.573C590.557 211.639 592.529 215.07 593.086 217.198C593.654 219.326 594.118 223.159 594.118 225.721C594.118 228.284 593.654 232.117 593.086 234.245C592.529 236.373 590.32 240.009 588.194 242.313C586.068 244.617 583.508 246.704 582.518 246.963C581.527 247.211 580.722 247.996 580.732 248.709C580.753 249.422 584.428 256.737 588.917 264.981C593.406 273.224 596.759 280.311 596.378 280.747C595.984 281.181 591.555 281.418 577.368 280.995L561.619 251.519L552.847 251.55L552.331 280.995H534.786L534.507 243.285C534.28 214.047 534.517 205.14 535.539 203.642C536.499 202.227 538.77 201.515 544.074 200.957C548.047 200.533 554.549 200.12 558.522 200.037ZM138.997 200.977C141.557 200.43 148.988 200.202 155.51 200.47C162.042 200.749 168.42 201.194 169.7 201.463C171.816 201.917 172.022 202.548 172.022 208.675C172.022 213.726 171.64 215.513 170.474 215.906C169.626 216.185 163.125 216.423 156.025 216.423C144.158 216.423 143.042 216.588 142.093 218.489C141.525 219.625 141.061 223.345 141.061 232.953L170.474 233.47L170.99 247.417H141.061L140.545 280.995H123V247.934C123 216.92 123.124 214.625 125.064 210.813C126.2 208.582 128.759 205.678 130.74 204.366C132.732 203.054 136.448 201.525 138.997 200.977ZM489.912 215.389C489.345 215.389 488.653 216.433 488.354 217.714C488.054 218.995 486.537 225.979 484.979 233.242C483.42 240.503 482.379 246.681 482.667 246.963C482.947 247.242 486.321 247.458 490.149 247.448C493.978 247.427 497.281 247.066 497.487 246.642C497.683 246.216 496.609 240.286 495.082 233.47C493.555 226.651 491.996 219.79 491.614 218.23C491.232 216.671 490.469 215.39 489.912 215.389ZM562.908 215.989C559.926 215.751 556.448 215.751 555.168 215.989C552.939 216.402 552.846 216.857 552.846 226.754V237.086C563.238 237.086 567.883 236.393 569.875 235.536C571.856 234.678 573.951 233.056 574.519 231.92C575.086 230.783 575.551 228.221 575.551 226.237C575.551 224.254 575.2 221.858 574.777 220.928C574.354 219.998 572.723 218.603 571.165 217.828C569.607 217.053 565.891 216.227 562.908 215.989Z" fill="white"/>
</svg>
